<svg xmlns="http://www.w3.org/2000/svg" width="31" height="35" viewBox="0 0 31 35">
    <path fill="none" fill-rule="evenodd" stroke="#2D4088" d="M19.488 7.5c-.85 0-1.544-.675-1.544-1.516 0-.84.694-1.514 1.544-1.514.85 0 1.545.673 1.545 1.514s-.694 1.517-1.545 1.517zm-8.351 0c-.85 0-1.545-.675-1.545-1.516 0-.84.694-1.514 1.545-1.514.85 0 1.544.673 1.544 1.514s-.694 1.517-1.544 1.517zM21.338.245l.001-.001zm.245.195a.147.147 0 0 0 .003-.004l-.003.004zm-1.684 2.946l-.54-.245.333-.491.391-.575.388-.562.867-1.268c-.052.078-.03.186.04.23.069.046.16.03.205-.035l-1.32 1.924-.62.904-.367-.139a11.218 11.218 0 0 0-3.963-.708c-1.389 0-2.735.244-3.964.708l-.325.123-.296.135C8.045 4.602 6.303 6.786 6.09 9.21h18.443c-.212-2.425-1.954-4.609-4.635-5.826zm-13.83 8.18v14.403c0 .905.762 1.646 1.706 1.646h2.266l-.198.647a1.408 1.408 0 0 0-.063.417v4.29c0 .843.71 1.532 1.59 1.532.879 0 1.588-.69 1.588-1.531v-4.29c0-.14-.021-.279-.064-.423l-.19-.642h5.216l-.19.642c-.04.14-.061.279-.061.422v4.29c0 .843.708 1.532 1.587 1.532.881 0 1.591-.69 1.591-1.531v-4.29c0-.14-.022-.278-.065-.418l-.198-.647h2.268c.944 0 1.704-.74 1.704-1.646V11.565H6.069zm-3.98 0c-.881 0-1.589.689-1.589 1.531v8.695c0 .842.708 1.53 1.589 1.53.88 0 1.587-.688 1.587-1.53v-8.695c0-.842-.708-1.531-1.587-1.531zm26.45 0c-.882 0-1.59.689-1.59 1.531v8.695c0 .842.708 1.53 1.59 1.53.878 0 1.586-.688 1.586-1.53v-8.695c0-.842-.708-1.531-1.587-1.531z"/>
</svg>
