<svg xmlns="http://www.w3.org/2000/svg" width="60" height="60" viewBox="0 0 60 60">
    <g fill="none" fill-rule="evenodd">
        <circle cx="30" cy="30" r="30" fill="#D81E05"/>
        <path fill="#FFF" d="M22.706 29.236c-.852-1.31-1.048-3.146-1.048-4.522 0-4.717 4.193-8.714 8.582-8.714H44l-5.307 5.373h-8.518c-3.407 0-7.6 3.473-7.469 7.863zm5.241-3.866c.328-1.114 1.442-2.556 2.49-3.342-1.966 0-4.194.983-5.963 3.342h3.473zm2.753-2.687c-.787.721-1.64 1.77-2.098 2.687h4.128c-.393-.918-1.245-1.966-2.03-2.687zm-6.553 3.407c-.524.918-.721 1.966-.852 3.014h3.866c0-1.048.196-2.096.524-3.014h-3.538zm4.193 0c-.327.918-.458 1.966-.59 3.014h5.897c-.13-1.048-.26-2.096-.655-3.014H28.34zm8.453-.72c-1.639-2.36-3.866-3.342-5.832-3.342 1.048.786 2.031 2.228 2.49 3.342h3.342zm-3.08.72c.329.918.524 1.966.524 3.014h3.866c-.066-1.048-.328-2.096-.852-3.014h-3.537zm-9.239 7.208c1.77 2.49 3.997 3.342 5.963 3.342-1.048-.787-2.162-2.228-2.49-3.342h-3.473zM30.7 36.05c.785-.655 1.637-1.77 2.03-2.752h-4.128c.459.983 1.31 2.097 2.098 2.752zm-3.015-3.342c-.328-1.048-.524-2.097-.524-3.014h-3.866c.131 1.049.328 2.031.852 3.014h3.538zm5.307 0c.394-.983.524-1.965.655-3.014H27.75c.132 1.049.263 2.031.59 3.014h4.652zm.459.59c-.459 1.114-1.442 2.555-2.49 3.342 1.966 0 4.193-.852 5.832-3.342H33.45zm3.8-.59a7.206 7.206 0 0 0 .852-3.014h-3.866c0 .917-.195 1.966-.523 3.014h3.537zm1.442-3.341c.065 4.52-4.063 7.993-7.47 7.993h-8.517l-5.373 5.308h13.76c4.39 0 8.648-3.932 8.648-8.65 0-1.375-.197-3.21-1.048-4.586v-.065z"/>
    </g>
</svg>
