<?xml version="1.0" encoding="UTF-8"?>
<svg width="24px" height="24px" viewBox="0 0 24 24" version="1.1" xmlns="http://www.w3.org/2000/svg" xmlns:xlink="http://www.w3.org/1999/xlink">
    <!-- Generator: Sketch 53.2 (72643) - https://sketchapp.com -->
    <title>flogo-Hex-RGB-MedGrey-144</title>
    <desc>Created with Sketch.</desc>
    <g id="Emails" stroke="none" stroke-width="1" fill="none" fill-rule="evenodd">
        <g id="Email---Declined-payment" transform="translate(-304.000000, -565.000000)" fill-rule="nonzero">
            <g id="Group-3" transform="translate(145.000000, 565.000000)">
                <g id="Group" transform="translate(159.000000, 0.000000)">
                    <g id="flogo-Hex-RGB-MedGrey-144">
                        <path d="M22.675,0 L1.33333333,0 C0.596953667,-4.50902501e-17 9.01805001e-17,0.596953667 0,1.33333333 L0,22.6833333 C0.0091239944,23.413196 0.603413605,24.000057 1.33333333,24 L12.8333333,24 L12.8333333,14.7183333 L9.70333333,14.7183333 L9.70333333,11.0866667 L12.82,11.0866667 L12.82,8.42 C12.82,5.32 14.7133333,3.63166667 17.4866667,3.63166667 C18.4202028,3.62859938 19.3532249,3.6758903 20.2816667,3.77333333 L20.2816667,7 L18.3666667,7 C16.8666667,7 16.57,7.715 16.57,8.76333333 L16.57,11.0866667 L20.1666667,11.0866667 L19.7,14.7183333 L16.57,14.7183333 L16.57,24 L22.675,24 C23.4048853,23.9954523 23.9954523,23.4048853 24,22.675 L24,1.33333333 C24.0000143,0.600195798 23.4081232,0.00458210946 22.675,0 Z" id="Path" fill="#8E9090"></path>
                        <path d="M16.3562283,24 L16.3562283,14.7070087 L19.4358877,14.7070087 L19.8950489,11.070911 L16.3562283,11.070911 L16.3562283,8.75308645 C16.3562283,7.70347404 16.643204,6.98760166 18.1239987,6.98760166 L20,6.98760166 L20,3.74197981 C19.0864906,3.64441789 18.1684746,3.59706927 17.2499527,3.6001403 C14.5294229,3.6001403 12.6665405,5.29053358 12.6665405,8.39431591 L12.6665405,11.0642362 L9.6,11.0642362 L9.6,14.7070087 L12.6665405,14.7070087 L12.6665405,24 L16.3562283,24 Z" id="f" fill="#FFFFFF"></path>
                    </g>
                </g>
            </g>
        </g>
    </g>
</svg>