<?xml version="1.0" encoding="UTF-8"?>
<svg width="24px" height="24px" viewBox="0 0 24 24" version="1.1" xmlns="http://www.w3.org/2000/svg" xmlns:xlink="http://www.w3.org/1999/xlink">
    <!-- Generator: Sketch 53.2 (72643) - https://sketchapp.com -->
    <title>LinkedIn__x28_alt_x29_</title>
    <desc>Created with Sketch.</desc>
    <g id="Emails" stroke="none" stroke-width="1" fill="none" fill-rule="evenodd">
        <g id="Email---Declined-payment" transform="translate(-352.000000, -565.000000)" fill="#8E9090" fill-rule="nonzero">
            <path d="M374.227815,565 L353.773301,565 C352.793856,565 352,565.769631 352,566.719547 L352,587.279728 C352,588.2297 352.794135,589 353.773301,589 L374.227815,589 C375.207036,589 376,588.229198 376,587.279728 L376,566.719547 C376,565.76991 375.207036,565 374.227815,565 Z M359.276116,585.089631 L355.649887,585.089631 L355.649887,574.253926 L359.276116,574.253926 L359.276116,585.089631 Z M357.463364,572.773588 L357.43898,572.773588 C356.222946,572.773588 355.434669,571.941965 355.434669,570.900818 C355.434669,569.838691 356.246103,569.02961 357.486242,569.02961 C358.726493,569.02961 359.489381,569.838468 359.513486,570.900818 C359.513486,571.942188 358.726772,572.773588 357.463364,572.773588 Z M372.347602,585.089631 L368.722545,585.089631 L368.722545,579.292152 C368.722545,577.835417 368.197306,576.84142 366.886358,576.84142 C365.883477,576.84142 365.288155,577.512008 365.026735,578.15944 C364.929867,578.39067 364.905874,578.714078 364.905874,579.037041 L364.905874,585.089408 L361.281486,585.089408 C361.281486,585.089408 361.328916,575.270019 361.281486,574.253758 L364.906432,574.253758 L364.906432,575.789951 C365.387645,575.05179 366.247567,573.998814 368.172587,573.998814 C370.558565,573.998814 372.347602,575.546613 372.347602,578.876397 L372.347602,585.089631 Z M364.895814,575.860049 C364.906914,575.841849 364.922414,575.819949 364.937814,575.798649 L364.937814,575.860049 L364.895814,575.860049 Z" id="LinkedIn__x28_alt_x29_"></path>
        </g>
    </g>
</svg>