<?xml version="1.0" encoding="UTF-8"?>
<svg width="16px" height="16px" viewBox="0 0 16 16" version="1.1" xmlns="http://www.w3.org/2000/svg" xmlns:xlink="http://www.w3.org/1999/xlink">
    <title>bankaccount_active (purple)</title>
    <g id="Symbols" stroke="none" stroke-width="1" fill="none" fill-rule="evenodd">
        <g id="bankaccount_active-(purple)">
            <polygon id="Path" points="0 0 16 0 16 16 0 16"></polygon>
            <path d="M2.66666667,7.66666667 L2.66666667,10.3333333 C2.66666667,10.8866667 3.11333333,11.3333333 3.66666667,11.3333333 C4.22,11.3333333 4.66666667,10.8866667 4.66666667,10.3333333 L4.66666667,7.66666667 C4.66666667,7.11333333 4.22,6.66666667 3.66666667,6.66666667 C3.11333333,6.66666667 2.66666667,7.11333333 2.66666667,7.66666667 Z M6.66666667,7.66666667 L6.66666667,10.3333333 C6.66666667,10.8866667 7.11333333,11.3333333 7.66666667,11.3333333 C8.22,11.3333333 8.66666667,10.8866667 8.66666667,10.3333333 L8.66666667,7.66666667 C8.66666667,7.11333333 8.22,6.66666667 7.66666667,6.66666667 C7.11333333,6.66666667 6.66666667,7.11333333 6.66666667,7.66666667 Z M2.33333333,14.6666667 L13,14.6666667 C13.5533333,14.6666667 14,14.22 14,13.6666667 C14,13.1133333 13.5533333,12.6666667 13,12.6666667 L2.33333333,12.6666667 C1.78,12.6666667 1.33333333,13.1133333 1.33333333,13.6666667 C1.33333333,14.22 1.78,14.6666667 2.33333333,14.6666667 Z M10.6666667,7.66666667 L10.6666667,10.3333333 C10.6666667,10.8866667 11.1133333,11.3333333 11.6666667,11.3333333 C12.22,11.3333333 12.6666667,10.8866667 12.6666667,10.3333333 L12.6666667,7.66666667 C12.6666667,7.11333333 12.22,6.66666667 11.6666667,6.66666667 C11.1133333,6.66666667 10.6666667,7.11333333 10.6666667,7.66666667 Z M7.04666667,0.993333333 L1.78,3.76666667 C1.50666667,3.90666667 1.33333333,4.19333333 1.33333333,4.5 C1.33333333,4.96 1.70666667,5.33333333 2.16666667,5.33333333 L13.1733333,5.33333333 C13.6266667,5.33333333 14,4.96 14,4.5 C14,4.19333333 13.8266667,3.90666667 13.5533333,3.76666667 L8.28666667,0.993333333 C7.9,0.786666667 7.43333333,0.786666667 7.04666667,0.993333333 Z" id="Shape" fill="#604AFF" fill-rule="nonzero"></path>
        </g>
    </g>
</svg>