<?xml version="1.0" encoding="UTF-8"?>
<svg width="12px" height="12px" viewBox="0 0 12 12" version="1.1" xmlns="http://www.w3.org/2000/svg" xmlns:xlink="http://www.w3.org/1999/xlink">
    <title>icon/action/dashboard_24px</title>
    <defs>
        <path d="M0.666666667,6.66666667 L4.66666667,6.66666667 C5.03333333,6.66666667 5.33333333,6.36666667 5.33333333,6 L5.33333333,0.666666667 C5.33333333,0.3 5.03333333,0 4.66666667,0 L0.666666667,0 C0.3,0 0,0.3 0,0.666666667 L0,6 C0,6.36666667 0.3,6.66666667 0.666666667,6.66666667 Z M0.666666667,12 L4.66666667,12 C5.03333333,12 5.33333333,11.7 5.33333333,11.3333333 L5.33333333,8.66666667 C5.33333333,8.3 5.03333333,8 4.66666667,8 L0.666666667,8 C0.3,8 0,8.3 0,8.66666667 L0,11.3333333 C0,11.7 0.3,12 0.666666667,12 Z M7.33333333,12 L11.3333333,12 C11.7,12 12,11.7 12,11.3333333 L12,6 C12,5.63333333 11.7,5.33333333 11.3333333,5.33333333 L7.33333333,5.33333333 C6.96666667,5.33333333 6.66666667,5.63333333 6.66666667,6 L6.66666667,11.3333333 C6.66666667,11.7 6.96666667,12 7.33333333,12 Z M6.66666667,0.666666667 L6.66666667,3.33333333 C6.66666667,3.7 6.96666667,4 7.33333333,4 L11.3333333,4 C11.7,4 12,3.7 12,3.33333333 L12,0.666666667 C12,0.3 11.7,0 11.3333333,0 L7.33333333,0 C6.96666667,0 6.66666667,0.3 6.66666667,0.666666667 Z" id="path-1"></path>
    </defs>
    <g id="Symbols" stroke="none" stroke-width="1" fill="none" fill-rule="evenodd">
        <g id="Dashboard-(resting)" transform="translate(-34.000000, -15.000000)">
            <g id="icon/action/dashboard_24px">
                <g transform="translate(34.000000, 15.000000)">
                    <mask id="mask-2" fill="white">
                        <use xlink:href="#path-1"></use>
                    </mask>
                    <g fill-rule="nonzero"></g>
                    <g id="↳-Color" mask="url(#mask-2)" fill="#9BA1A6">
                        <g transform="translate(-2.000000, -2.000000)" id="Rectangle">
                            <rect x="0" y="0" width="16" height="16"></rect>
                        </g>
                    </g>
                </g>
            </g>
        </g>
    </g>
</svg>