<?xml version="1.0" encoding="UTF-8"?>
<svg width="40px" height="40px" viewBox="0 0 40 40" version="1.1" xmlns="http://www.w3.org/2000/svg" xmlns:xlink="http://www.w3.org/1999/xlink">
    <g id="Onboarding-Redesign" stroke="none" stroke-width="1" fill="none" fill-rule="evenodd">
        <g id="Dashboard-3-(all-onboarding-done,-bank-&amp;-accounting-not-connected)" transform="translate(-248.000000, -155.000000)">
            <g id="cards/integration" transform="translate(232.000000, 139.000000)">
                <g id="Group-4" transform="translate(16.000000, 16.000000)">
                    <circle id="Oval" fill="#2E227F" cx="20" cy="20" r="20"></circle>
                    <g id="baseline-account_balance-24px-(1)" transform="translate(8.000000, 7.000000)">
                        <polygon id="Path" points="0 0 24 0 24 24 0 24"></polygon>
                        <path d="M4.0952381,10.4285714 L4.0952381,17.7619048 L7.23809524,17.7619048 L7.23809524,10.4285714 L4.0952381,10.4285714 Z M10.3809524,10.4285714 L10.3809524,17.7619048 L13.5238095,17.7619048 L13.5238095,10.4285714 L10.3809524,10.4285714 Z M2,23 L21.9047619,23 L21.9047619,19.8571429 L2,19.8571429 L2,23 Z M16.6666667,10.4285714 L16.6666667,17.7619048 L19.8095238,17.7619048 L19.8095238,10.4285714 L16.6666667,10.4285714 Z M11.952381,1 L2,6.23809524 L2,8.33333333 L21.9047619,8.33333333 L21.9047619,6.23809524 L11.952381,1 Z" id="Shape" fill="#FFFFFF" fill-rule="nonzero"></path>
                    </g>
                </g>
            </g>
        </g>
    </g>
</svg>