<?xml version="1.0" encoding="UTF-8"?>
<svg width="24px" height="24px" viewBox="0 0 24 24" version="1.1" xmlns="http://www.w3.org/2000/svg" xmlns:xlink="http://www.w3.org/1999/xlink">
    <title>icon/action/Payables_24px (purple)_rounded</title>
    <g id="icon/action/Payables_24px-(purple)" stroke="none" stroke-width="1" fill="none" fill-rule="evenodd">
        <g id="round-assignment_turned_in-24px-(1)">
            <polygon id="Path" points="0 0 24 0 24 24 0 24"></polygon>
            <path d="M19,3.5 L14.82,3.5 C14.4,2.34 13.3,1.5 12,1.5 C10.7,1.5 9.6,2.34 9.18,3.5 L5,3.5 C3.9,3.5 3,4.4 3,5.5 L3,19.5 C3,20.6 3.9,21.5 5,21.5 L19,21.5 C20.1,21.5 21,20.6 21,19.5 L21,5.5 C21,4.4 20.1,3.5 19,3.5 Z M12.9371316,7.5 L12.9371316,8.83833333 C14.1689587,9.15 14.7878193,10.1155556 14.8290766,11.1666667 L14.8290766,11.1666667 L13.5265226,11.1666667 C13.4911591,10.4027778 13.1021611,9.88333333 12.0530452,9.88333333 C11.0569745,9.88333333 10.4616896,10.3477778 10.4616896,11.0138889 C10.4616896,11.5944444 10.891945,11.9672222 12.2298625,12.3277778 C13.56778,12.6883333 15,13.2811111 15,15.0166667 C15,16.2694444 14.086444,16.96 12.9371316,17.1861111 L12.9371316,17.1861111 L12.9371316,18.5 L11.1689587,18.5 L11.1689587,17.1738889 C10.0373281,16.9233333 9.07072692,16.1716667 9,14.8333333 L9,14.8333333 L10.2966601,14.8333333 C10.3614931,15.5544444 10.8388998,16.1166667 12.0530452,16.1166667 C13.3555992,16.1166667 13.6444008,15.4444444 13.6444008,15.0227778 C13.6444008,14.4544444 13.3497053,13.9166667 11.8762279,13.55 C10.2318271,13.1405556 9.10609037,12.4377778 9.10609037,11.0261111 C9.10609037,9.84666667 10.0255403,9.07666667 11.1689587,8.82 L11.1689587,8.82 L11.1689587,7.5 L12.9371316,7.5 Z M12,3.5 C12.55,3.5 13,3.95 13,4.5 C13,5.05 12.55,5.5 12,5.5 C11.45,5.5 11,5.05 11,4.5 C11,3.95 11.45,3.5 12,3.5 Z" id="Shape" fill="#604AFF" fill-rule="nonzero"></path>
        </g>
    </g>
</svg>