<?xml version="1.0" encoding="UTF-8"?>
<svg width="16px" height="16px" viewBox="0 0 16 16" version="1.1" xmlns="http://www.w3.org/2000/svg" xmlns:xlink="http://www.w3.org/1999/xlink">
    <title>payables_24px </title>
    <g id="Symbols" stroke="none" stroke-width="1" fill="none" fill-rule="evenodd">
        <g id="Payables-(resting)" transform="translate(-32.000000, -13.000000)">
            <g id="payables_24px-">
                <g transform="translate(32.000000, 13.000000)">
                    <polygon id="Path" points="0 0 16 0 16 16 0 16"></polygon>
                    <path d="M12.6666667,2.33333333 L9.88,2.33333333 C9.6,1.56 8.86666667,1 8,1 C7.13333333,1 6.4,1.56 6.12,2.33333333 L3.33333333,2.33333333 C2.6,2.33333333 2,2.93333333 2,3.66666667 L2,13 C2,13.7333333 2.6,14.3333333 3.33333333,14.3333333 L12.6666667,14.3333333 C13.4,14.3333333 14,13.7333333 14,13 L14,3.66666667 C14,2.93333333 13.4,2.33333333 12.6666667,2.33333333 Z M8.62475442,5 L8.62475442,5.89222222 C9.4459725,6.1 9.85854617,6.7437037 9.88605108,7.44444444 L9.88605108,7.44444444 L9.01768173,7.44444444 C8.99410609,6.93518519 8.73477407,6.58888889 8.03536346,6.58888889 C7.37131631,6.58888889 6.97445972,6.89851852 6.97445972,7.34259259 C6.97445972,7.72962963 7.26129666,7.97814815 8.15324165,8.21851852 C9.04518664,8.45888889 10,8.85407407 10,10.0111111 C10,10.8462963 9.39096267,11.3066667 8.62475442,11.4574074 L8.62475442,11.4574074 L8.62475442,12.3333333 L7.4459725,12.3333333 L7.4459725,11.4492593 C6.69155206,11.2822222 6.04715128,10.7811111 6,9.88888889 L6,9.88888889 L6.86444008,9.88888889 C6.90766208,10.3696296 7.2259332,10.7444444 8.03536346,10.7444444 C8.90373281,10.7444444 9.09626719,10.2962963 9.09626719,10.0151852 C9.09626719,9.6362963 8.89980354,9.27777778 7.91748527,9.03333333 C6.82121807,8.76037037 6.07072692,8.29185185 6.07072692,7.35074074 C6.07072692,6.56444444 6.68369352,6.05111111 7.4459725,5.88 L7.4459725,5.88 L7.4459725,5 L8.62475442,5 Z M8,2.33333333 C8.36666667,2.33333333 8.66666667,2.63333333 8.66666667,3 C8.66666667,3.36666667 8.36666667,3.66666667 8,3.66666667 C7.63333333,3.66666667 7.33333333,3.36666667 7.33333333,3 C7.33333333,2.63333333 7.63333333,2.33333333 8,2.33333333 Z" id="Shape" fill="#9BA1A6" fill-rule="nonzero"></path>
                </g>
            </g>
        </g>
    </g>
</svg>