<svg xmlns="http://www.w3.org/2000/svg" width="12" height="14" viewBox="0 0 12 14"><g fill="none"><g transform="translate(-26 -16)translate(24 16)"><polygon points="0 0 16 0 16 16 0 16"/><path d="M12 6L11.1 5.1 6.7 9.4 4.9 7.7 4 8.7 6.7 11.3 12 6ZM12.7 2L9.9 2C9.6 1.2 8.9 0.7 8 0.7 7.1 0.7 6.4 1.2 6.1 2L3.3 2C3.2 2 3.2 2 3.1 2 2.8 2.1 2.6 2.2 2.4 2.4 2.3 2.5 2.2 2.7 2.1 2.8 2 3 2 3.1 2 3.3L2 12.7C2 12.8 2 13 2.1 13.2 2.2 13.3 2.3 13.5 2.4 13.6 2.6 13.8 2.8 13.9 3.1 14 3.2 14 3.2 14 3.3 14L12.7 14C13.4 14 14 13.4 14 12.7L14 3.3C14 2.6 13.4 2 12.7 2ZM8 1.8C8.3 1.8 8.5 2.1 8.5 2.3 8.5 2.6 8.3 2.8 8 2.8 7.7 2.8 7.5 2.6 7.5 2.3 7.5 2.1 7.7 1.8 8 1.8ZM12.7 12.7L3.3 12.7 3.3 3.3 12.7 3.3 12.7 12.7Z" fill="#525455"/></g></g></svg>