<?xml version="1.0" encoding="UTF-8"?>
<svg width="24px" height="24px" viewBox="0 0 24 24" version="1.1" xmlns="http://www.w3.org/2000/svg" xmlns:xlink="http://www.w3.org/1999/xlink">
    <title>icon/action/Receivables_24px (purple)_rounded</title>
    <g id="icon/action/Receivables_24px-(purple)" stroke="none" stroke-width="1" fill="none" fill-rule="evenodd">
        <g id="round-assignment_turned_in-24px-(1)">
            <polygon id="Path" points="0 0 24 0 24 24 0 24"></polygon>
            <path d="M19,3.5 L14.82,3.5 C14.4,2.34 13.3,1.5 12,1.5 C10.7,1.5 9.6,2.34 9.18,3.5 L5,3.5 C3.9,3.5 3,4.4 3,5.5 L3,19.5 C3,20.6 3.9,21.5 5,21.5 L19,21.5 C20.1,21.5 21,20.6 21,19.5 L21,5.5 C21,4.4 20.1,3.5 19,3.5 Z M12,3.5 C12.55,3.5 13,3.95 13,4.5 C13,5.05 12.55,5.5 12,5.5 C11.45,5.5 11,5.05 11,4.5 C11,3.95 11.45,3.5 12,3.5 Z M9.29,16.79 L6.7,14.2 C6.31,13.81 6.31,13.18 6.7,12.79 C7.09,12.4 7.72,12.4 8.11,12.79 L10,14.67 L15.88,8.79 C16.27,8.4 16.9,8.4 17.29,8.79 C17.68,9.18 17.68,9.81 17.29,10.2 L10.7,16.79 C10.32,17.18 9.68,17.18 9.29,16.79 Z" id="Shape" fill="#604AFF" fill-rule="nonzero"></path>
        </g>
    </g>
</svg>