<?xml version="1.0" encoding="UTF-8"?>
<svg width="16px" height="16px" viewBox="0 0 16 16" version="1.1" xmlns="http://www.w3.org/2000/svg" xmlns:xlink="http://www.w3.org/1999/xlink">
    <title>receiables_24px</title>
    <g id="Symbols" stroke="none" stroke-width="1" fill="none" fill-rule="evenodd">
        <g id="Receivables-(resting)" transform="translate(-32.000000, -13.000000)">
            <g id="receiables_24px">
                <g transform="translate(32.000000, 13.000000)">
                    <polygon id="Path" points="0 0 16 0 16 16 0 16"></polygon>
                    <path d="M12.6666667,2.33333333 L9.88,2.33333333 C9.6,1.56 8.86666667,1 8,1 C7.13333333,1 6.4,1.56 6.12,2.33333333 L3.33333333,2.33333333 C2.6,2.33333333 2,2.93333333 2,3.66666667 L2,13 C2,13.7333333 2.6,14.3333333 3.33333333,14.3333333 L12.6666667,14.3333333 C13.4,14.3333333 14,13.7333333 14,13 L14,3.66666667 C14,2.93333333 13.4,2.33333333 12.6666667,2.33333333 Z M8,2.33333333 C8.36666667,2.33333333 8.66666667,2.63333333 8.66666667,3 C8.66666667,3.36666667 8.36666667,3.66666667 8,3.66666667 C7.63333333,3.66666667 7.33333333,3.36666667 7.33333333,3 C7.33333333,2.63333333 7.63333333,2.33333333 8,2.33333333 Z M6.19333333,11.1933333 L4.46666667,9.46666667 C4.20666667,9.20666667 4.20666667,8.78666667 4.46666667,8.52666667 C4.72666667,8.26666667 5.14666667,8.26666667 5.40666667,8.52666667 L6.66666667,9.78 L10.5866667,5.86 C10.8466667,5.6 11.2666667,5.6 11.5266667,5.86 C11.7866667,6.12 11.7866667,6.54 11.5266667,6.8 L7.13333333,11.1933333 C6.88,11.4533333 6.45333333,11.4533333 6.19333333,11.1933333 Z" id="Shape" fill="#9BA1A6" fill-rule="nonzero"></path>
                </g>
            </g>
        </g>
    </g>
</svg>