<svg xmlns="http://www.w3.org/2000/svg" width="7" height="12" viewBox="0 0 7 12"><g fill="none"><g transform="translate(-28 -148)translate(24 142)translate(0 4)"><polygon points="0 0 16 0 16 16 0 16"/><path d="M7.9 7.3C6.4 6.9 5.9 6.5 5.9 5.8 5.9 5.1 6.5 4.6 7.7 4.6 8.9 4.6 9.3 5.2 9.3 6L10.8 6C10.8 4.9 10.1 3.8 8.7 3.5L8.7 2 6.7 2 6.7 3.4C5.4 3.7 4.3 4.6 4.3 5.8 4.3 7.4 5.6 8.2 7.5 8.6 9.1 9 9.5 9.6 9.5 10.2 9.5 10.7 9.1 11.4 7.7 11.4 6.3 11.4 5.8 10.8 5.7 10L4.2 10C4.3 11.5 5.4 12.3 6.7 12.6L6.7 14 8.7 14 8.7 12.6C10 12.3 11 11.6 11 10.2 11 8.3 9.4 7.7 7.9 7.3Z" fill="#525455"/></g></g></svg>