
<svg xmlns="http://www.w3.org/2000/svg" width="12" height="12" viewBox="0 0 12 12"><g fill="none"><g transform="translate(-10 -14)translate(8 12)"><polygon points="0 0 16 0 16 16 0 16"/><path d="M10.3 9.3L9.8 9.3 9.6 9.2C10.3 8.4 10.7 7.4 10.7 6.3 10.7 3.9 8.7 2 6.3 2 3.9 2 2 3.9 2 6.3 2 8.7 3.9 10.7 6.3 10.7 7.4 10.7 8.4 10.3 9.2 9.6L9.3 9.8 9.3 10.3 12.7 13.7 13.7 12.7 10.3 9.3ZM6.3 9.3C4.7 9.3 3.3 8 3.3 6.3 3.3 4.7 4.7 3.3 6.3 3.3 8 3.3 9.3 4.7 9.3 6.3 9.3 8 8 9.3 6.3 9.3Z" fill="#525455"/></g></g></svg>