<?xml version="1.0" encoding="UTF-8"?>
<svg width="86px" height="86px" viewBox="0 0 86 86" version="1.1" xmlns="http://www.w3.org/2000/svg" xmlns:xlink="http://www.w3.org/1999/xlink">
    <title>Group 24</title>
    <defs>
        <rect id="path-1" x="0" y="0" width="80" height="80" rx="40"></rect>
        <filter x="-6.2%" y="-5.0%" width="112.5%" height="112.5%" filterUnits="objectBoundingBox" id="filter-2">
            <feOffset dx="0" dy="1" in="SourceAlpha" result="shadowOffsetOuter1"></feOffset>
            <feGaussianBlur stdDeviation="1.5" in="shadowOffsetOuter1" result="shadowBlurOuter1"></feGaussianBlur>
            <feColorMatrix values="0 0 0 0 0   0 0 0 0 0   0 0 0 0 0  0 0 0 0.08 0" type="matrix" in="shadowBlurOuter1"></feColorMatrix>
        </filter>
    </defs>
    <g id="Ablii" stroke="none" stroke-width="1" fill="none" fill-rule="evenodd">
        <g id="Crunch---1.-Home" transform="translate(-653.000000, -1170.000000)">
            <g id="Group-28-Copy" transform="translate(656.000000, 1171.000000)">
                <g id="Group-24" transform="translate(0.000000, 1.000000)">
                    <g id="Rectangle">
                        <use fill="black" fill-opacity="1" filter="url(#filter-2)" xlink:href="#path-1"></use>
                        <use fill="#FFFFFF" fill-rule="evenodd" xlink:href="#path-1"></use>
                    </g>
                    <g id="invoice" transform="translate(23.000000, 22.000000)" fill-rule="nonzero">
                        <path d="M32.4408686,0 L32.4066914,0 C32.0629089,0 12.9117466,0 12.8874135,0 C11.3677408,0 10.1225949,1.16256452 10.0093179,2.63819845 C9.99302657,2.84384545 10.0037026,1.331077 10.0007216,26 L27.1905418,26 C28.648862,26 29.8499864,24.8300909 29.8499864,23.3668123 L29.8499864,20.9634331 L34.2970448,20.9634331 C34.6852646,20.9634331 35,20.6518738 35,20.2674182 L35,2.53400214 C35,1.14032499 33.8483736,0 32.4408686,0 Z" id="Path" fill="#47821C"></path>
                        <path d="M32,0 L32,0.00494211756 C30.6187903,0.0844278417 29.5154135,1.1916681 29.5154135,2.53310981 L29.5183517,7.2863973 L29.5183517,23.3667437 C29.5183517,24.3334081 28.9744385,25.1780298 28.1638002,25.635862 C27.7547546,25.8672492 27.2782753,26 26.7692614,26 L9,26 L9,2.85819132 C9,2.78440276 9.00293813,2.71054556 9.00888606,2.63819845 C9.12598146,1.16256452 10.4130992,0 11.9839976,0 L32,0 Z" id="Path" fill="#91DC5A"></path>
                        <path d="M26.054691,23.1637736 L26.054691,4.75260108 C26.054691,3.58481988 25.1264592,2.63819845 23.9813639,2.63819845 L13.6355266,2.63819845 C13.2973758,2.63819845 13.0615319,2.30076165 13.1661944,1.97279723 C13.5315371,0.827736051 14.5861717,0 15.8308813,0 L12.8034092,0 C11.3282401,0 10.1200782,1.16256452 10.0098292,2.63819845 L10.0090888,2.63819845 C9.98997362,2.88715762 10.0081465,2.39823119 10.0007428,26 L13.0282149,26 L26.6902044,26 C27.1683538,26 27.6158785,25.8672492 28,25.635862 C26.8905775,25.3839513 26.054691,24.3689639 26.054691,23.1637736 Z" id="Path" fill="#7ED63E"></path>
                        <path d="M22.5040756,4 C23.7144402,4 24.6955631,4.95519954 24.6955631,6.13394167 C24.6955631,11.3467029 24.6955631,23.2058907 24.6955631,23.4432185 C24.6955631,24.7437419 25.7054924,25.8258487 27,25.9804651 L27,26 L9.73980397,26 L9.73980397,25.9978526 C9.71362932,25.9986145 9.68759691,26 9.66128,26 L8.90399306,26 C7.85686445,26 7,25.1653347 7,24.1454346 L7,7.31275308 L7,4 L22.5040756,4 Z" id="Path" fill="#5EAC24"></path>
                        <path d="M0,33.0270311 L0,6.95586206 C0,5.32340167 1.3360419,4 2.98409444,4 L23,4 L23,4.00518174 C21.6187402,4.08730873 20.5150223,5.23240183 20.5150223,6.61997187 L20.5183187,11.5351697 L20.5183187,33.2771742 C20.5183187,34.7809429 19.287618,36 17.7694863,36 L3.00136467,36 C1.34370959,36 0,34.6689322 0,33.0270311 Z" id="Path" fill="#B6E892"></path>
                        <g id="Group" transform="translate(3.000000, 8.000000)" fill="#5EAC24">
                            <path d="M10.9115625,2.24352113 L0.560336538,2.24352113 C0.251466346,2.24352113 0.00108173077,2.48795775 0.00108173077,2.78964789 C0.00108173077,3.09133803 0.251466346,3.33577465 0.560336538,3.33577465 L10.9116346,3.33577465 C11.2205048,3.33577465 11.4708894,3.09133803 11.4708894,2.78964789 C11.4708894,2.48795775 11.2204327,2.24352113 10.9115625,2.24352113 Z" id="Path"></path>
                            <path d="M13.6555529,4.03753521 L13.6455288,4.03753521 C13.4208173,4.03753521 13.2380769,3.85908451 13.2380769,3.63964789 C13.2380769,3.39957746 13.038101,3.20429577 12.7922596,3.20429577 C12.5464183,3.20429577 12.3464423,3.39957746 12.3464423,3.63964789 C12.3464423,4.17408451 12.6953365,4.65338028 13.2047596,4.83302817 L13.2047596,5.12711268 C13.2047596,5.36711268 13.4047356,5.56239437 13.6505769,5.56239437 C13.8964183,5.56239437 14.0963942,5.36711268 14.0963942,5.12711268 L14.0963942,4.83302817 C14.6058173,4.65338028 14.9547115,4.17408451 14.9547115,3.63957746 C14.9547115,2.94443662 14.3761298,2.37570423 13.6646394,2.37098592 L13.6478365,2.37042254 C13.4311298,2.36598592 13.248101,2.175 13.248101,1.9534507 C13.248101,1.73676056 13.4290385,1.55823944 13.6490625,1.55556338 C13.8717548,1.55739437 14.0529087,1.73591549 14.0529087,1.9534507 C14.0529087,2.19352113 14.2528846,2.38880282 14.498726,2.38880282 C14.7444952,2.38880282 14.9445433,2.19352113 14.9445433,1.9534507 C14.9445433,1.42542254 14.5997596,0.947816901 14.0963221,0.764577465 L14.0963221,0.452183099 C14.0963221,0.212112676 13.8963462,0.0168309859 13.6505048,0.0168309859 C13.4046635,0.0168309859 13.2046875,0.212112676 13.2046875,0.452183099 L13.2046875,0.764225352 C12.70125,0.947535211 12.3564663,1.42514085 12.3564663,1.9534507 C12.3564663,2.64732394 12.9256731,3.22485915 13.6243269,3.24084507 L13.6555529,3.24176056 C13.8802644,3.24176056 14.0630048,3.42014085 14.0630048,3.63957746 C14.0630048,3.85901408 13.8802644,4.03753521 13.6555529,4.03753521 Z" id="Path"></path>
                            <path d="M10.9115625,8.70366197 L0.560336538,8.70366197 C0.251466346,8.70366197 0.00108173077,8.94809859 0.00108173077,9.24978873 C0.00108173077,9.55147887 0.251466346,9.79591549 0.560336538,9.79591549 L10.9116346,9.79591549 C11.2205048,9.79591549 11.4708894,9.55147887 11.4708894,9.24978873 C11.4708894,8.94809859 11.2204327,8.70366197 10.9115625,8.70366197 Z" id="Path"></path>
                            <path d="M13.6647115,8.83112676 L13.6479087,8.83056338 C13.4312019,8.82612676 13.2481731,8.63514085 13.2481731,8.41359155 C13.2481731,8.19690141 13.4291106,8.01838028 13.6491346,8.01570423 C13.8718269,8.01753521 14.0529808,8.19605634 14.0529808,8.41359155 C14.0529808,8.65366197 14.2529567,8.84894366 14.4987981,8.84894366 C14.7445673,8.84894366 14.9446154,8.65366197 14.9446154,8.41359155 C14.9446154,7.88556338 14.5998317,7.40795775 14.0963942,7.22471831 L14.0963942,6.91232394 C14.0963942,6.67225352 13.8964183,6.47697183 13.6505769,6.47697183 C13.4047356,6.47697183 13.2047596,6.67225352 13.2047596,6.91232394 L13.2047596,7.2243662 C12.7013221,7.40767606 12.3565385,7.88528169 12.3565385,8.41359155 C12.3565385,9.10746479 12.9257452,9.685 13.624399,9.70098592 L13.655625,9.70190141 C13.8803365,9.70190141 14.0630769,9.88028169 14.0630769,10.0997183 C14.0630769,10.3192254 13.8803365,10.4976761 13.655625,10.4976761 L13.645601,10.4976761 C13.4208894,10.4976761 13.238149,10.3192254 13.238149,10.0997887 C13.238149,9.85971831 13.0381731,9.66443662 12.7923317,9.66443662 C12.5464904,9.66443662 12.3465144,9.85971831 12.3465144,10.0997887 C12.3465144,10.6342254 12.6954087,11.1135211 13.2048317,11.293169 L13.2048317,11.5872535 C13.2048317,11.8272535 13.4048077,12.0225352 13.650649,12.0225352 C13.8964904,12.0225352 14.0964663,11.8272535 14.0964663,11.5872535 L14.0964663,11.293169 C14.6058894,11.1135211 14.9547837,10.6342254 14.9547837,10.0997183 C14.9547115,9.40457746 14.3761298,8.83584507 13.6647115,8.83112676 Z" id="Path"></path>
                            <path d="M10.9115625,15.1637324 L0.560336538,15.1637324 C0.251466346,15.1637324 0.00108173077,15.408169 0.00108173077,15.7098592 C0.00108173077,16.0115493 0.251466346,16.2559859 0.560336538,16.2559859 L10.9116346,16.2559859 C11.2205048,16.2559859 11.4708894,16.0115493 11.4708894,15.7098592 C11.4708894,15.408169 11.2204327,15.1637324 10.9115625,15.1637324 Z" id="Path"></path>
                            <path d="M13.6647115,15.2911972 L13.6479087,15.2906338 C13.4312019,15.2861972 13.2481731,15.0952113 13.2481731,14.873662 C13.2481731,14.6569718 13.4291106,14.4784507 13.6491346,14.4757746 C13.8718269,14.4776056 14.0529808,14.6561268 14.0529808,14.873662 C14.0529808,15.1137324 14.2529567,15.3090141 14.4987981,15.3090141 C14.7445673,15.3090141 14.9446154,15.1137324 14.9446154,14.873662 C14.9446154,14.3456338 14.5998317,13.8680282 14.0963942,13.6847887 L14.0963942,13.3723944 C14.0963942,13.1323239 13.8964183,12.9370423 13.6505769,12.9370423 C13.4047356,12.9370423 13.2047596,13.1323239 13.2047596,13.3723944 L13.2047596,13.6844366 C12.7013221,13.8677465 12.3565385,14.3453521 12.3565385,14.873662 C12.3565385,15.5675352 12.9257452,16.1450704 13.624399,16.1610563 L13.655625,16.1619718 C13.8803365,16.1619718 14.0630769,16.3403521 14.0630769,16.5597887 C14.0630769,16.7792958 13.8803365,16.9577465 13.655625,16.9577465 L13.645601,16.9577465 C13.4208894,16.9577465 13.238149,16.7792958 13.238149,16.5598592 C13.238149,16.3197887 13.0381731,16.124507 12.7923317,16.124507 C12.5464904,16.124507 12.3465144,16.3197887 12.3465144,16.5598592 C12.3465144,17.0942958 12.6954087,17.5735915 13.2048317,17.7532394 L13.2048317,18.0473239 C13.2048317,18.2873239 13.4048077,18.4826056 13.650649,18.4826056 C13.8964904,18.4826056 14.0964663,18.2873239 14.0964663,18.0473239 L14.0964663,17.7532394 C14.6058894,17.5735915 14.9547837,17.0942958 14.9547837,16.5597887 C14.9547115,15.8646479 14.3761298,15.2959859 13.6647115,15.2911972 Z" id="Path"></path>
                            <path d="M10.9115625,21.6238732 L0.560336538,21.6238732 C0.251466346,21.6238732 0.00108173077,21.8683099 0.00108173077,22.17 C0.00108173077,22.4716901 0.251466346,22.7161268 0.560336538,22.7161268 L10.9116346,22.7161268 C11.2205048,22.7161268 11.4708894,22.4716901 11.4708894,22.17 C11.4708894,21.8683099 11.2204327,21.6238732 10.9115625,21.6238732 Z" id="Path"></path>
                            <path d="M13.6647115,21.751338 L13.6479087,21.7507746 C13.4312019,21.746338 13.2481731,21.5553521 13.2481731,21.3338028 C13.2481731,21.1171127 13.4291106,20.9385915 13.6491346,20.9359155 C13.8718269,20.9377465 14.0529808,21.1162676 14.0529808,21.3338028 C14.0529808,21.5738732 14.2529567,21.7691549 14.4987981,21.7691549 C14.7445673,21.7691549 14.9446154,21.5738732 14.9446154,21.3338028 C14.9446154,20.8057746 14.5998317,20.328169 14.0963942,20.1449296 L14.0963942,19.8325352 C14.0963942,19.5924648 13.8964183,19.3971831 13.6505769,19.3971831 C13.4047356,19.3971831 13.2047596,19.5924648 13.2047596,19.8325352 L13.2047596,20.1445775 C12.7013221,20.3278873 12.3565385,20.805493 12.3565385,21.3338028 C12.3565385,22.0276761 12.9257452,22.6052113 13.624399,22.6211972 L13.655625,22.6221127 C13.8803365,22.6221127 14.0630769,22.800493 14.0630769,23.0199296 C14.0630769,23.2394366 13.8803365,23.4178873 13.655625,23.4178873 L13.645601,23.4178873 C13.4208894,23.4178873 13.238149,23.2394366 13.238149,23.02 C13.238149,22.7799296 13.0381731,22.5846479 12.7923317,22.5846479 C12.5464904,22.5846479 12.3465144,22.7799296 12.3465144,23.02 C12.3465144,23.5544366 12.6954087,24.0337324 13.2048317,24.2133803 L13.2048317,24.5074648 C13.2048317,24.7474648 13.4048077,24.9427465 13.650649,24.9427465 C13.8964904,24.9427465 14.0964663,24.7474648 14.0964663,24.5074648 L14.0964663,24.2133803 C14.6058894,24.0337324 14.9547837,23.5544366 14.9547837,23.0199296 C14.9547115,22.3247887 14.3761298,21.7560563 13.6647115,21.751338 Z" id="Path"></path>
                        </g>
                        <path d="M5,36 L2.69999484,36 C1.20867289,36 0,34.6692901 0,33.0273926 L0,6.95571354 C0,5.32332775 1.20203218,4 2.6846503,4 L4.98465546,4 C3.50197287,4 2.30000516,5.32339873 2.30000516,6.95571354 L2.30000516,33.0273926 C2.30000516,34.6692901 3.50867805,36 5,36 Z" id="Path" fill="#A4E276"></path>
                    </g>
                </g>
            </g>
        </g>
    </g>
</svg>