<svg xmlns="http://www.w3.org/2000/svg" viewBox="0 0 741.9 217.48"><defs><style>.cls-1{fill:#fff;}.cls-2{fill:#2d247a;}</style></defs><g id="Layer_2" data-name="Layer 2"><g id="Layer_1-2" data-name="Layer 1"><path class="cls-1" d="M271.91,163.78V82.08h-31.2l-.11-22.2h1.51a4.23,4.23,0,0,0,.48,0,8.12,8.12,0,0,1,.82-.06H328V82H297v81.8Z"/><path class="cls-2" d="M326.51,61.28v19.2h-31v81.8h-22.1V80.58h-31.2l-.1-19.2c.4,0,.9-.1,1.3-.1h83.1m3-3h-86.1a8.64,8.64,0,0,0-1,.07l-.33,0h-3l0,3,.1,19.2v3h31.19v81.7h28.1V83.48h31V58.28Z"/><path class="cls-1" d="M426.52,165.78c-1.84,0-3.73-.07-5.62-.2-9.53-.85-16.62-3.43-22.35-8.14a32.91,32.91,0,0,1-11.82-20.1c-2.1-10.6-1.42-20.16,2.08-29.2,4.85-12.55,13.87-20.17,26.82-22.63a37.59,37.59,0,0,1,7.34-.73,36.62,36.62,0,0,1,14.42,2.92c7.92,3.37,13.36,9.44,16.63,18.58a53.49,53.49,0,0,1,2.69,18.45q-.15,3.61-.3,7.81l-.06,1.44H411.29c1.16,4.71,4.87,8.26,10.2,9.65a31.83,31.83,0,0,0,7.71.89,49.81,49.81,0,0,0,7.48-.62,84.32,84.32,0,0,0,13.93-3.54c.3-.12.62-.21,1-.33l.55-.17,2-.66v2.08a1.87,1.87,0,0,0,0,.35,5.07,5.07,0,0,1,.06.65v16.1a2.76,2.76,0,0,1-2,2.92,59.82,59.82,0,0,1-14.1,3.57A73.25,73.25,0,0,1,426.52,165.78Zm5.42-51.8a11.06,11.06,0,0,0-.27-1.17c-1.17-4.34-3.18-6.63-6.53-7.47a12.82,12.82,0,0,0-3.33-.46c-5.79,0-9.37,4.45-10.58,9.1Z"/><path class="cls-2" d="M423,86.28a35.55,35.55,0,0,1,13.84,2.8c8,3.4,12.9,9.6,15.8,17.7a51.81,51.81,0,0,1,2.6,17.9q-.15,3.6-.3,7.8h-45.4c.7,6.2,5.1,10.9,11.6,12.6a33.46,33.46,0,0,0,8.09.94,51.73,51.73,0,0,0,7.71-.64,86.9,86.9,0,0,0,14.2-3.6c.5-.2.9-.3,1.5-.5,0,.4.1.7.1,1v16.2a1.28,1.28,0,0,1-1,1.4,58.23,58.23,0,0,1-13.8,3.5,71.36,71.36,0,0,1-11.38.9c-1.83,0-3.67-.07-5.52-.2-7.9-.7-15.3-2.7-21.5-7.8a31.54,31.54,0,0,1-11.3-19.2c-1.9-9.6-1.6-19.1,2-28.4,4.6-11.9,13.1-19.3,25.7-21.7a36.5,36.5,0,0,1,7.06-.7m-13.56,29.2h24.3a28.37,28.37,0,0,0-.6-3.1c-1.1-4.1-3.2-7.4-7.6-8.5a14.64,14.64,0,0,0-3.7-.5c-7,0-11.55,5.76-12.4,12.1M423,83.28h0a39.3,39.3,0,0,0-7.65.76c-13.46,2.56-22.86,10.49-27.91,23.56-3.6,9.3-4.31,19.12-2.15,30a34.4,34.4,0,0,0,12.37,21c5.94,4.89,13.29,7.58,23.11,8.45h.06c1.92.14,3.85.21,5.73.21a74.26,74.26,0,0,0,11.8-.93,61.65,61.65,0,0,0,14.36-3.63,4.31,4.31,0,0,0,3-4.41v-16a5.64,5.64,0,0,0-.08-.88.77.77,0,0,1,0-.15v-4.16l-3.95,1.35-.52.16c-.33.1-.67.21-1.08.37a83.66,83.66,0,0,1-13.65,3.45,48.24,48.24,0,0,1-7.21.6,30.79,30.79,0,0,1-7.38-.85,12.3,12.3,0,0,1-8.43-6.69H457.8l.11-2.89c.09-2.79.19-5.39.29-7.78a54.93,54.93,0,0,0-2.74-19v0l0,0C452,96.22,446.3,89.86,438,86.32a38.14,38.14,0,0,0-15-3Zm-9.65,29.2c1.43-3.32,4.29-6.1,8.49-6.1a11.85,11.85,0,0,1,2.93.4c2.66.67,4.25,2.39,5.27,5.7Z"/><path class="cls-1" d="M701.2,165.69a42.4,42.4,0,0,1-14.92-2.7c-11.53-4.28-19.07-13-22.42-25.83a45.17,45.17,0,0,1-1.35-11.28c0-8.29,1.35-14.86,4.26-20.67,5.15-10.71,14-17.35,26.15-19.7a44.16,44.16,0,0,1,21.73,1.14c10.69,3.39,18.14,10.21,22.15,20.28a47.47,47.47,0,0,1-.11,36.54c-4.9,11.83-14,19-27.12,21.39A42.58,42.58,0,0,1,701.2,165.69Zm-13.79-40.58c.09.77.17,1.53.26,2.29.18,1.69.35,3.28.62,4.95.83,4.23,2.57,7.33,5.33,9.44a12.19,12.19,0,0,0,7.57,2.64,13,13,0,0,0,11.84-8c2.31-5.39,2.73-11.28,1.31-18.51a15.28,15.28,0,0,0-4.75-8.79,12,12,0,0,0-8-3,13.15,13.15,0,0,0-11.88,7.76A32.77,32.77,0,0,0,687.41,125.11Z"/><path class="cls-2" d="M701.52,86.16a43.15,43.15,0,0,1,12.69,1.92c10.1,3.2,17.3,9.6,21.2,19.4a45.75,45.75,0,0,1-.1,35.4c-4.8,11.6-13.8,18.3-26,20.5a41,41,0,0,1-22.5-1.8c-11.6-4.3-18.4-12.9-21.5-24.8a44,44,0,0,1-1.3-10.9c0-7.5,1.1-14,4.1-20,5.1-10.6,13.7-16.7,25.1-18.9a42.34,42.34,0,0,1,8.31-.82m-.33,59.77a14.5,14.5,0,0,0,13.22-8.85c2.7-6.3,2.7-12.8,1.4-19.4a16.62,16.62,0,0,0-5.2-9.6,13.58,13.58,0,0,0-9.06-3.44,14.6,14.6,0,0,0-13.24,8.64,34.11,34.11,0,0,0-2.4,11.9c.3,2.5.5,4.9.9,7.4.8,4.1,2.5,7.8,5.9,10.4a13.65,13.65,0,0,0,8.48,3m.33-62.77h0a45.83,45.83,0,0,0-8.9.88C680,86.49,670.78,93.4,665.4,104.58c-3,6-4.39,12.77-4.39,21.3a47.15,47.15,0,0,0,1.39,11.65c3.49,13.37,11.35,22.41,23.36,26.87a43.86,43.86,0,0,0,15.44,2.79,44.33,44.33,0,0,0,8.67-.86c13.42-2.43,23.18-10.14,28.21-22.3a49,49,0,0,0,.1-37.7C734,95.87,726.25,88.75,715.11,85.22a46,46,0,0,0-13.59-2.06Zm-10.46,31.31a11.65,11.65,0,0,1,10.49-6.83,10.51,10.51,0,0,1,7,2.66,13.72,13.72,0,0,1,4.26,7.86v.1c1.37,6.92,1,12.53-1.21,17.64a11.52,11.52,0,0,1-10.46,7,10.72,10.72,0,0,1-6.64-2.31c-2.46-1.89-4-4.68-4.79-8.56-.25-1.61-.42-3.17-.6-4.82-.08-.73-.16-1.46-.25-2.19a31.4,31.4,0,0,1,2.15-10.58Z"/><path class="cls-1" d="M616.62,165.72a62.58,62.58,0,0,1-6.57-.35,48.52,48.52,0,0,1-15.16-3.68,3,3,0,0,1-2.08-3.11c.06-3.49,0-7.09,0-10.58,0-1.8,0-3.61,0-5.42v-3.35l5.52,2.05a47.91,47.91,0,0,0,17.09,3.15c.7,0,1.41,0,2.12-.05a34.35,34.35,0,0,0,6.85-1.24,3.52,3.52,0,0,0,2.59-2.31c.35-1.21.12-2.08-.71-2.54a33.9,33.9,0,0,0-6-2.58c-1.85-.6-3.75-1.14-5.59-1.66-2.42-.68-4.93-1.39-7.36-2.26-6.18-2.17-10.45-6.06-12.68-11.54-1.51-3.68-1.92-7.76-1.3-12.85,1.27-10.86,9-18.93,20.66-21.58a42.93,42.93,0,0,1,9.39-1,72.58,72.58,0,0,1,23.46,4.23,2.59,2.59,0,0,1,1.88,2.51v18l-.2.1v1.56l-2-.68c-.53-.19-1.06-.36-1.6-.53s-1.13-.36-1.69-.57c-5.57-1.69-12.25-3.44-19.1-3.44-.54,0-1.09,0-1.63,0a12.58,12.58,0,0,0-4.36,1.08,2.33,2.33,0,0,0-1.29,1.34,2.07,2.07,0,0,0,0,1.64l0,.12a2.5,2.5,0,0,0,1.09,1.15,27.19,27.19,0,0,0,5.34,2.14c1.66.48,3.35.94,5,1.39,2.43.66,4.93,1.34,7.38,2.11A22.09,22.09,0,0,1,649,127.67c2,3.84,2.76,8.3,2.27,13.65-.87,11.36-8.42,19.69-20.72,22.82A62.19,62.19,0,0,1,616.62,165.72Z"/><path class="cls-2" d="M623.37,86.34A64.4,64.4,0,0,1,632,87a63.6,63.6,0,0,1,14.3,3.5c.5.2.9.4.9,1.1v17.1c-.2.1-.2.3-.2.5-1.1-.4-2.2-.7-3.3-1.1-6.37-1.94-12.91-3.53-19.61-3.53-.56,0-1.13,0-1.69,0a14.1,14.1,0,0,0-4.9,1.2,3.78,3.78,0,0,0-2,5,3.89,3.89,0,0,0,1.7,1.9,28.33,28.33,0,0,0,5.7,2.3c4.1,1.2,8.3,2.2,12.4,3.5a20.76,20.76,0,0,1,12.4,9.9,22.63,22.63,0,0,1,2.1,12.8c-.8,10.5-7.8,18.5-19.6,21.5a60.71,60.71,0,0,1-13.59,1.54,59.71,59.71,0,0,1-6.41-.34,47.2,47.2,0,0,1-14.8-3.6,1.51,1.51,0,0,1-1.1-1.6c.1-5.3,0-10.7,0-16.1v-1.2l3.5,1.3a49.39,49.39,0,0,0,17.61,3.25c.73,0,1.46,0,2.19-.05a36.35,36.35,0,0,0,7.2-1.3,5,5,0,0,0,3.6-3.3c.5-1.7.2-3.4-1.4-4.3a35.16,35.16,0,0,0-6.3-2.7c-4.3-1.4-8.7-2.4-12.9-3.9-5.4-1.9-9.6-5.3-11.8-10.7a23.76,23.76,0,0,1-1.2-12.1c1.1-9.4,7.6-17.6,19.5-20.3a42.25,42.25,0,0,1,9.06-.94m0-3a44.56,44.56,0,0,0-9.71,1c-12.33,2.8-20.48,11.35-21.83,22.88-.65,5.34-.21,9.67,1.4,13.59,2.4,5.9,7,10.07,13.58,12.39,2.46.88,5,1.59,7.44,2.29,1.83.51,3.71,1,5.53,1.64a32.23,32.23,0,0,1,5.78,2.47l.05,0a1.6,1.6,0,0,1-.07.76,2,2,0,0,1-1.42,1.25l-.08,0-.07,0a33.1,33.1,0,0,1-6.55,1.19c-.67,0-1.34,0-2,0a46.38,46.38,0,0,1-16.54-3.05l-3.53-1.31-4-1.5v5.51c0,1.81,0,3.62,0,5.43,0,3.46,0,7,0,10.48a4.49,4.49,0,0,0,3.05,4.61,50.3,50.3,0,0,0,15.57,3.77,65.17,65.17,0,0,0,6.69.35,64,64,0,0,0,14.26-1.61H631c12.77-3.25,20.94-12.29,21.85-24.18.51-5.6-.29-10.33-2.44-14.42a23.84,23.84,0,0,0-14.14-11.36c-2.49-.79-5-1.48-7.46-2.14-1.65-.44-3.36-.9-5-1.39a25,25,0,0,1-5-2c-.3-.19-.41-.32-.42-.37l-.05-.12,0-.11a.63.63,0,0,1,0-.47.89.89,0,0,1,.45-.48,11.18,11.18,0,0,1,3.89-1c.5,0,1,0,1.54,0,6.62,0,13.14,1.7,18.66,3.38.58.21,1.14.39,1.69.56s1,.33,1.53.51l4,1.47v-2.83l.2-.1v-19a4,4,0,0,0-2.79-3.88l0,0h0a73.27,73.27,0,0,0-24-4.33Z"/><path class="cls-1" d="M493.42,164a2.63,2.63,0,0,1-2.56-2l-28.1-72.36a3.53,3.53,0,0,1-.3-.73,2.13,2.13,0,0,0-.09-.27l-1.09-2.17h24.13a2.86,2.86,0,0,1,2.85,2.34q3.81,10.57,7.61,21.22l6.52,18.21,2.23-6.29c3.9-11,7.94-22.41,12-33.58A2.48,2.48,0,0,1,519,86.58h21.7a2.54,2.54,0,0,1,1.17.26l1.24.63-.53,1.28c-.68,1.66-1.28,3.36-1.86,5l-5.82,15c-6.73,17.35-13.7,35.29-20.47,53a3,3,0,0,1-2.93,2.24h-.3c-1.93,0-3.87,0-5.8,0l-5.89,0-5.82,0Z"/><path class="cls-2" d="M485.41,88a1.37,1.37,0,0,1,1.4,1.21c5.1,14.2,10.2,28.5,15.3,42.7a3.29,3.29,0,0,0,.3.6,7.26,7.26,0,0,1,.5-1.2c5-14.1,10-28.3,15.1-42.4.2-.5.4-.8,1-.8h21.7a1.09,1.09,0,0,1,.5.1c-.7,1.7-1.3,3.4-1.9,5.1-8.8,22.7-17.6,45.3-26.3,68a1.55,1.55,0,0,1-1.5,1.21h-.2c-2,0-3.94,0-5.9,0-3.94,0-7.87,0-11.8,0l-.19,0a1.13,1.13,0,0,1-1.11-.92L464.11,89a10.37,10.37,0,0,1-.4-1h21.7m0-3H458.85l2.15,4.3,0,.08a4.65,4.65,0,0,0,.36.92L480,138.05l9.48,24.42a4.11,4.11,0,0,0,4,3l.36,0,5.74,0,5.89,0c2.14,0,4,0,5.73,0h.37a4.56,4.56,0,0,0,4.35-3.26c6.78-17.7,13.74-35.64,20.48-53l5.76-14.86,0-.05,0,0c.6-1.71,1.17-3.33,1.84-5L545,86.75l-2.49-1.25a4,4,0,0,0-1.84-.42H519a3.92,3.92,0,0,0-3.79,2.69l0,0v0c-4.05,11.19-8.09,22.6-12,33.64l-.81,2.27q-2.55-7.11-5.09-14.24Q493.5,99,489.71,88.4a4.35,4.35,0,0,0-4.3-3.43Z"/><path class="cls-1" d="M330.31,163.88l-.11-77.3h21L352,91.5a26.15,26.15,0,0,1,16.54-6.62h0a81.32,81.32,0,0,1,8.58.41h.1l.1,0A2.5,2.5,0,0,1,379.13,87l.08.23v18.34a2.25,2.25,0,0,1-.1.64v1.36h-6.3a30.44,30.44,0,0,0-11.63,2.29,14.25,14.25,0,0,0-6,4.36,1.63,1.63,0,0,0-.36,1v48.7Z"/><path class="cls-2" d="M368.61,86.38a78.72,78.72,0,0,1,8.4.4,1,1,0,0,1,.7.7v18.1c0,.2-.1.3-.1.5h-4.8a32,32,0,0,0-12.2,2.4,15.68,15.68,0,0,0-6.6,4.8,3.16,3.16,0,0,0-.7,1.9v47.2h-21.5l-.1-74.3h18.2l1.1,6.4c.3-.3.5-.4.7-.6a24.48,24.48,0,0,1,16.9-7.5m0-3h-.1a27.8,27.8,0,0,0-15.45,5.34l-.2-1.15-.42-2.49H328.7v3l.1,74.3v3h27.5V115.23a.25.25,0,0,1,0-.07,12.66,12.66,0,0,1,5.33-3.88h.07a28.85,28.85,0,0,1,11.06-2.18h7.8v-2.66a3.87,3.87,0,0,0,.1-.84V87l-.16-.47a4,4,0,0,0-2.82-2.66l-.2-.05-.2,0a81.78,81.78,0,0,0-8.72-.42Z"/><rect class="cls-1" x="552.41" y="86.58" width="24.4" height="77.2"/><path class="cls-2" d="M575.31,88.08v74.2h-21.4V88.08h21.4m3-3h-27.4v80.2h27.4V85.08Z"/><rect class="cls-1" x="552.01" y="51.88" width="25.2" height="25.9"/><path class="cls-2" d="M575.71,53.38v22.9h-22.2V53.38h22.2m3-3h-28.2v28.9h28.2V50.38Z"/><path class="cls-1" d="M174.48,26.77a195,195,0,0,0-23-2h0a5.21,5.21,0,0,1-2.89-1A129.32,129.32,0,0,0,112.29,5.12a4.58,4.58,0,0,1-1.42-.69l-4.25-2.84,10.71.19c.8.06,1.53.13,2.27.21s1.43.15,2.11.2a111.39,111.39,0,0,1,58,22l.08.07.08.07a3.89,3.89,0,0,1,.78,1l1.29,2.59Z"/><path class="cls-2" d="M111.71,3.18l5.6.1c1.4.1,2.9.3,4.3.4a110.16,110.16,0,0,1,57.2,21.7,2.65,2.65,0,0,1,.5.6l-4.6-.7a199.83,199.83,0,0,0-23.2-2,3.77,3.77,0,0,1-2.1-.7,130.42,130.42,0,0,0-36.7-18.9,3.13,3.13,0,0,1-1-.5M101.52,0,110,5.68a6.15,6.15,0,0,0,1.82.88A127.72,127.72,0,0,1,147.63,25l.06,0,.05,0a6.75,6.75,0,0,0,3.72,1.2,196.19,196.19,0,0,1,22.82,2l4.58.7,5.72.87L182,24.64a5.46,5.46,0,0,0-1.06-1.38l-.15-.15-.17-.12A112.84,112.84,0,0,0,121.85.69c-.68,0-1.36-.12-2.08-.19s-1.5-.16-2.25-.21h-.16l-5.6-.1L101.52,0Z"/><path class="cls-1" d="M123.68,151.32a2.66,2.66,0,0,1-2.2-1.17,218.28,218.28,0,0,1-25.32-40.62,4.4,4.4,0,0,1-.18-.42l-.7-1.41L96.7,107l45.85-20.35.67,1.19a434.73,434.73,0,0,1,21.17,43.35l.49,1.18-1.08.67a26.82,26.82,0,0,1-2.42,1.37,237.13,237.13,0,0,1-36.56,16.64A2.61,2.61,0,0,1,123.68,151.32Z"/><path class="cls-2" d="M141.91,88.58a431.07,431.07,0,0,1,21.1,43.2c-.8.5-1.5.9-2.3,1.3a235.06,235.06,0,0,1-36.5,16.6,1,1,0,0,1-.53.14,1.14,1.14,0,0,1-1-.54,216.7,216.7,0,0,1-25.2-40.4c-.1-.2-.1-.3-.2-.5l44.6-19.8m1.28-3.85-2.5,1.11-44.6,19.8-2.87,1.27,1.36,2.72a4.31,4.31,0,0,0,.24.59A219.86,219.86,0,0,0,120.27,151a4.16,4.16,0,0,0,3.41,1.78,4,4,0,0,0,1.72-.38,239.37,239.37,0,0,0,36.72-16.71c.82-.41,1.59-.85,2.48-1.4l2.16-1.36-1-2.35a436.63,436.63,0,0,0-21.24-43.5l-1.34-2.39Z"/><path class="cls-1" d="M163.22,131.36A439.67,439.67,0,0,0,142.3,88.51l-.77-1.37L185.3,65.36l.76.76a3.2,3.2,0,0,1,.59.89,166.94,166.94,0,0,1,14,36.91,2.6,2.6,0,0,1-.89,2.73l-.1.09a204.38,204.38,0,0,1-29.86,22.71c-.79.48-1.53.91-2.26,1.34s-1.43.83-2.17,1.28l-1.48.89Z"/><path class="cls-2" d="M185,67.18a2.19,2.19,0,0,1,.3.5,165.31,165.31,0,0,1,13.9,36.6c.2.7-.2,1-.6,1.4a202.52,202.52,0,0,1-29.6,22.5c-1.5.9-2.9,1.7-4.4,2.6a437.79,437.79,0,0,0-21-43L185,67.18m.59-3.64-1.93,1-41.4,20.6-2.81,1.4L141,89.24A439.07,439.07,0,0,1,161.84,132l1.35,3.18,3-1.78,2.17-1.28c.74-.43,1.47-.86,2.23-1.32h0l0,0a205.81,205.81,0,0,0,30-22.83l.05,0,0,0,.08-.08a4.11,4.11,0,0,0,1.3-4.21A169.16,169.16,0,0,0,188,66.31a4.69,4.69,0,0,0-.85-1.25l-1.53-1.52Z"/><path class="cls-1" d="M95.25,107.41A235.11,235.11,0,0,1,82.16,71.89l-.35-1.26L83,70.11c1.25-.55,2.49-1.12,3.73-1.69s2.52-1.16,3.77-1.71a303,303,0,0,1,30.56-11.26l.07,0a3.27,3.27,0,0,1,1.09-.23,2.4,2.4,0,0,1,2.06,1.29c5.85,9.72,11.79,19.49,17.54,28.93l.09.15a2.53,2.53,0,0,1,.52.94l.43,1.29-47,21Z"/><path class="cls-2" d="M122.22,56.7c.26,0,.51.14.79.58,5.9,9.8,11.8,19.5,17.7,29.2a1.07,1.07,0,0,1,.3.5l-44.4,19.8a233.33,233.33,0,0,1-13-35.3c2.5-1.1,5-2.3,7.5-3.4a299.13,299.13,0,0,1,30.4-11.2,2.39,2.39,0,0,1,.71-.18m0-3a4.64,4.64,0,0,0-1.57.31l-.07,0a303.67,303.67,0,0,0-30.67,11.3c-1.28.57-2.57,1.16-3.81,1.73s-2.47,1.14-3.7,1.68L80,69.79l.71,2.5a236.38,236.38,0,0,0,13.17,35.76l1.24,2.68,2.7-1.21,44.4-19.8,2.48-1.11L143.85,86a4.12,4.12,0,0,0-.72-1.34c-5.76-9.46-11.7-19.24-17.55-29a3.9,3.9,0,0,0-3.36-2Z"/><path class="cls-1" d="M157.29,184.86a2.72,2.72,0,0,1-1.87-.75,208.2,208.2,0,0,1-31.33-30.82,5.5,5.5,0,0,1-.73-.87l-1.07-1.61,1.82-.64a235.26,235.26,0,0,0,39-17.89l1.38-.79.71,1.42.13.26a4.74,4.74,0,0,1,.45,1,373.81,373.81,0,0,1,12.9,36.89,3,3,0,0,1-1.19,3.54,103.27,103.27,0,0,1-18.89,9.91A2.65,2.65,0,0,1,157.29,184.86Z"/><path class="cls-2" d="M163.81,133.58a5.36,5.36,0,0,1,.5,1.1,375,375,0,0,1,12.9,36.9,1.44,1.44,0,0,1-.6,1.8,100.91,100.91,0,0,1-18.7,9.8,1.2,1.2,0,0,1-.62.18,1.24,1.24,0,0,1-.88-.38,205.86,205.86,0,0,1-31.2-30.7,4.35,4.35,0,0,1-.6-.7,235.42,235.42,0,0,0,39.2-18m1.26-4.19L162.31,131a232.24,232.24,0,0,1-38.7,17.77L120,150l2.14,3.21a7.18,7.18,0,0,0,.87,1.05,209.62,209.62,0,0,0,31.47,31,4.19,4.19,0,0,0,4.72.65,105.47,105.47,0,0,0,19.09-10,4.44,4.44,0,0,0,1.79-5.27,373.19,373.19,0,0,0-12.9-36.91,7,7,0,0,0-.54-1.25l-.12-.22-1.42-2.85Z"/><path class="cls-1" d="M177.67,171.91A375.78,375.78,0,0,0,164,133.16l-.5-1.21,1.13-.66a196.69,196.69,0,0,0,34-25.21l.65-.6,2,.66.16.89c.33,2,.7,3.9,1.07,5.87.63,3.34,1.29,6.8,1.73,10.19.81,6.75,1.32,13.68,1.81,20.38v.11a5.52,5.52,0,0,1-.41,2.06l-.06.14-.08.13A104.68,104.68,0,0,1,180.87,172c-.18.15-.35.26-.48.35a1.55,1.55,0,0,0-.22.15l-1.79,1.78Z"/><path class="cls-2" d="M199.71,107.18l.3.1c.9,5.3,2.1,10.7,2.8,16,.8,6.7,1.3,13.5,1.8,20.3a4,4,0,0,1-.3,1.5,103.2,103.2,0,0,1-24.4,25.8c-.2.2-.5.3-.8.6a381.67,381.67,0,0,0-13.7-38.9,197.71,197.71,0,0,0,34.3-25.4m-.74-3.4-1.3,1.2a194.68,194.68,0,0,1-33.78,25l-2.26,1.33,1,2.42a375.89,375.89,0,0,1,13.59,38.59l1.43,4.84,3.5-3.5,0,0a4.72,4.72,0,0,0,.62-.44,106,106,0,0,0,25-26.46l.18-.26.11-.29a7.11,7.11,0,0,0,.52-2.62v-.22c-.5-6.72-1-13.67-1.81-20.43-.46-3.47-1.12-7-1.76-10.31-.36-1.92-.74-3.91-1.07-5.84l-.3-1.77-1.7-.57-.3-.1-1.69-.56Z"/><path class="cls-1" d="M122.19,55.16l1.92-.52,2.76-.78c1.34-.39,2.7-.77,4.06-1.13a319.14,319.14,0,0,1,37.49-7.62,5.44,5.44,0,0,1,1.19-.14,5.16,5.16,0,0,1,4.33,2.36,152.83,152.83,0,0,1,11,16.71c.12.22.19.38.34.61l.91,1.36-1.43.79c-14.72,8.07-29.8,15.27-41.29,20.64l-1.21.57Z"/><path class="cls-2" d="M169.61,46.47a3.64,3.64,0,0,1,3.1,1.71,153.09,153.09,0,0,1,10.9,16.6,5.74,5.74,0,0,0,.4.7c-13.5,7.4-27.3,14.1-41.2,20.6l-18.3-30c2.2-.6,4.5-1.3,6.8-1.9a317.67,317.67,0,0,1,37.4-7.6,4,4,0,0,1,.9-.11m0-3h0a6.53,6.53,0,0,0-1.46.16,323.85,323.85,0,0,0-37.62,7.65c-1.36.36-2.73.75-4,1.13l-2.76.78-3.85,1.05,2.08,3.4,18.3,30,1.39,2.3,2.44-1.14c11.51-5.38,26.61-12.6,41.37-20.69l2.87-1.57-1.82-2.72a3.41,3.41,0,0,1-.21-.38l0-.07,0-.07a155,155,0,0,0-11-16.83,6.67,6.67,0,0,0-5.56-3Z"/><path class="cls-1" d="M48.36,164.92c-1.26,0-2.51,0-3.77,0a1.67,1.67,0,0,1-.31,0,2.93,2.93,0,0,1-2.37-1.22A107.81,107.81,0,0,1,27.5,137.86a3.56,3.56,0,0,1-.52-1l-.44-1.35L63.43,120.9l.5,1.51a176.32,176.32,0,0,0,17.65,37.68L82.75,162l-2.18.39c-1.66.29-3.15.5-4.88.71A203,203,0,0,1,48.36,164.92Z"/><path class="cls-2" d="M62.51,122.88a177.91,177.91,0,0,0,17.8,38c-1.7.3-3.2.5-4.8.7a201.11,201.11,0,0,1-27.14,1.84c-1.29,0-2.58,0-3.86,0a.93.93,0,0,1-.23,0,1.46,1.46,0,0,1-1.17-.62,106.15,106.15,0,0,1-14.3-25.7,1.61,1.61,0,0,1-.4-.7l34.1-13.5m1.85-4-3,1.17-34.1,13.5-2.64,1,.9,2.69a5.11,5.11,0,0,0,.61,1.26,109.49,109.49,0,0,0,14.53,26,4.44,4.44,0,0,0,3.58,1.82h.37c1.24,0,2.49,0,3.72,0a204.75,204.75,0,0,0,27.54-1.87c1.78-.22,3.24-.42,4.92-.71l4.37-.77-2.35-3.77a175,175,0,0,1-17.49-37.36l-1-3Z"/><path class="cls-1" d="M26.17,135.21c-.24-.81-.5-1.62-.75-2.41-.68-2.18-1.33-4.24-1.78-6.41-.75-3.31-1.35-6.67-1.92-9.93l-.57-3.22a3.26,3.26,0,0,1,.9-3.22A247.13,247.13,0,0,1,53.4,86.32l.37-.24h.12l1.78-1.71.51,2.75c.4,2.26.76,4.53,1.13,6.79.54,3.4,1.11,6.92,1.77,10.28.73,3.74,1.68,7.38,2.68,11.22.47,1.83,1,3.66,1.4,5.51l.32,1.27L26.64,136.78Z"/><path class="cls-2" d="M54.71,87.38c1,5.7,1.8,11.5,2.9,17.1s2.7,11.1,4.1,16.8l-34.1,13.5c-.9-3-1.9-5.8-2.5-8.7-1-4.4-1.7-8.8-2.5-13.2a1.79,1.79,0,0,1,.5-1.8,246.22,246.22,0,0,1,31.1-23.5.59.59,0,0,0,.5-.2m1.95-6.2L53.14,84.7l-.54.35a248.84,248.84,0,0,0-31.48,23.79l-.07.06L21,109a4.76,4.76,0,0,0-1.31,4.61c.19,1.05.38,2.09.56,3.13.58,3.27,1.17,6.66,1.94,10A67.33,67.33,0,0,0,24,133.25c.25.79.5,1.58.74,2.39l.94,3.13,3-1.2,34.1-13.5,2.43-1-.62-2.54c-.46-1.87-.94-3.73-1.41-5.53-1-3.82-1.93-7.44-2.66-11.14-.66-3.34-1.22-6.84-1.76-10.22-.36-2.24-.73-4.55-1.13-6.82l-1-5.68Z"/><path class="cls-1" d="M99.91,193.33c-.76,0-1.52,0-2.27-.05A231.68,231.68,0,0,1,70,190.46a5.4,5.4,0,0,1-2.71-1.23,135.15,135.15,0,0,1-22.56-21.65,4.88,4.88,0,0,1-.5-.63,3.65,3.65,0,0,0-.24-.31,1.92,1.92,0,0,1-.54-1.46v-1.5h2.5l3.38,0a187.89,187.89,0,0,0,29.89-2.39,3.2,3.2,0,0,1,.92-.13,3.55,3.55,0,0,1,3.22,2,168,168,0,0,0,21.1,26.51,6.43,6.43,0,0,1,.83.82l.22.23,2.56,2.56h-3.62l-2.27,0Z"/><path class="cls-2" d="M80.1,162.69A2.1,2.1,0,0,1,82,163.88a168.58,168.58,0,0,0,21.4,26.9,9.32,9.32,0,0,1,1,1c-1.54,0-3,.05-4.5.05-.74,0-1.47,0-2.2-.05a230.81,230.81,0,0,1-27.5-2.8,4,4,0,0,1-2-.9,134.14,134.14,0,0,1-22.4-21.5c-.3-.3-.5-.7-.8-1-.1-.1-.1-.2-.1-.4h1l3.38,0a188.45,188.45,0,0,0,30.22-2.43,2,2,0,0,1,.59-.09m0-3h0a5,5,0,0,0-1.22.16,186.45,186.45,0,0,1-29.59,2.36l-3.33,0H41.91v3a3.44,3.44,0,0,0,.94,2.49l.12.16a6.7,6.7,0,0,0,.59.75,137.94,137.94,0,0,0,22.79,21.86,7.08,7.08,0,0,0,3.4,1.51,235.88,235.88,0,0,0,27.83,2.83c.7,0,1.45.05,2.33.05l2.25,0,2.25,0h7.24l-5.12-5.12a1.29,1.29,0,0,1-.16-.17,9,9,0,0,0-.93-.92,166.56,166.56,0,0,1-20.81-26.16,5.08,5.08,0,0,0-4.53-2.72Z"/><path class="cls-1" d="M199.35,103.84A164.62,164.62,0,0,0,185.28,67l-.65-1.24,21.2-13,.83.83a3.09,3.09,0,0,1,.7,1,101.11,101.11,0,0,1,12,28.4,3.19,3.19,0,0,1-.45,2.67A154.59,154.59,0,0,1,202.39,104a2.26,2.26,0,0,1-.91.79l-1.68.84Z"/><path class="cls-2" d="M205.61,54.58a1.54,1.54,0,0,1,.4.6,99.5,99.5,0,0,1,11.9,28.1,1.7,1.7,0,0,1-.2,1.4,151.59,151.59,0,0,1-16.5,18.4.78.78,0,0,1-.4.4,166,166,0,0,0-14.2-37.2l19-11.7m.44-3.79L204,52l-19,11.7-2.38,1.47,1.3,2.48a163.26,163.26,0,0,1,14,36.52l.9,3.64,3.35-1.67a3.77,3.77,0,0,0,1.39-1.17A155.56,155.56,0,0,0,220.1,86.49a4.6,4.6,0,0,0,.75-3.8l0-.07v-.07a102.09,102.09,0,0,0-12.14-28.74,4.49,4.49,0,0,0-1-1.35l-1.68-1.67Z"/><path class="cls-1" d="M105.79,29.36a2.71,2.71,0,0,1-2.18-1.08c-2.58-3.59-5.14-7.13-7.71-10.67L88.29,7.06,88,6.67V6.51L86.37,4.33,88.91,4c2.14-.28,4.22-.59,6.27-.9,1.58-.24,3.15-.48,4.72-.69a10.78,10.78,0,0,1,1.1-.11l.9-.09A10.24,10.24,0,0,1,104,2a20.8,20.8,0,0,1,6.49,1.36l.61.19A127.51,127.51,0,0,1,147,21.26a4.48,4.48,0,0,1,.55.42c.11.09.23.19.39.3l3.6,2.7H147a4.31,4.31,0,0,0-.56.05,5.42,5.42,0,0,1-.64.05,194,194,0,0,0-39.19,4.45A2.57,2.57,0,0,1,105.79,29.36Z"/><path class="cls-2" d="M104,3.5A21.91,21.91,0,0,1,110.61,5a126.34,126.34,0,0,1,35.5,17.5c.3.2.5.4.9.7-.5,0-.9.1-1.2.1a194.61,194.61,0,0,0-39.6,4.5,1,1,0,0,1-.42.08,1.23,1.23,0,0,1-1-.48c-5.1-7.1-10.2-14.1-15.3-21.2,0-.2-.1-.3-.4-.7,3.8-.5,7.4-1.1,11-1.6.7-.1,1.3-.1,2-.2A9.93,9.93,0,0,1,104,3.5m0-3a12.34,12.34,0,0,0-2.36.22c-.25,0-.49.05-.73.07s-.75.06-1.2.12c-1.56.22-3.14.46-4.73.7-2,.3-4.11.62-6.23.9l-5.09.67L86.51,7v.13l.56.78c2.55,3.56,5.1,7.08,7.66,10.61l7.64,10.59,0,0,0,0a4.24,4.24,0,0,0,3.38,1.68,4.14,4.14,0,0,0,1.22-.18,193.19,193.19,0,0,1,38.82-4.4h0a6,6,0,0,0,.8-.06,3.53,3.53,0,0,1,.38,0h9l-7.2-5.4-.34-.26c-.18-.15-.39-.32-.66-.51a129.09,129.09,0,0,0-36.32-17.9l-.56-.18A22.21,22.21,0,0,0,104,.5Z"/><path class="cls-1" d="M112.67,216c-30.24,0-56.68-10.5-78.59-31.21L30,180.93l5.44,1.29,3.49.84c3,.74,6.18,1.51,9.27,2.15s6.48,1.27,9.73,1.9,6.51,1.25,9.76,1.9a4.7,4.7,0,0,1,2.24,1,163.68,163.68,0,0,0,42.45,22.75h0a2.66,2.66,0,0,1,1.31.37l5.33,2.8-6,.06Z"/><path class="cls-2" d="M35.11,183.68c4.2,1,8.5,2.1,12.8,3,6.5,1.3,13,2.5,19.5,3.8a3.29,3.29,0,0,1,1.6.7,165,165,0,0,0,43.2,23.1.82.82,0,0,1,.22,0,1.47,1.47,0,0,1,.68.22h-.44c-29.92,0-55.77-10.2-77.56-30.8m-10.2-5.51,8.14,7.69c22.19,21,49,31.62,79.62,31.62h.45l12.6,0-11.27-5.64a4.23,4.23,0,0,0-1.78-.54A161.92,161.92,0,0,1,70.83,188.8,6.32,6.32,0,0,0,68,187.53c-3.24-.65-6.54-1.28-9.73-1.89s-6.49-1.25-9.72-1.9c-3-.64-6.18-1.4-9.2-2.13l-3.5-.85-10.89-2.59Z"/><path class="cls-1" d="M27.1,61.76c.21-.57.38-1.15.53-1.72l.13-.47A190.35,190.35,0,0,1,43.92,25.21,7.3,7.3,0,0,1,44.85,24l.07-.07.08-.07A109.91,109.91,0,0,1,62.1,13.41a2.23,2.23,0,0,1,.48-.25l3.24-1.63L64.73,15a180.41,180.41,0,0,0-6,22.81c-.43,2.17-.79,4.43-1.14,6.61l-.16,1,0,.07a3.56,3.56,0,0,1-1,1.69l-.17.17-.21.11A207.69,207.69,0,0,0,29.83,63.27a1.65,1.65,0,0,1-.45.26l-4.71,4.71Z"/><path class="cls-2" d="M63.31,14.48a180.7,180.7,0,0,0-6,23c-.5,2.5-.9,5.1-1.3,7.6a2.07,2.07,0,0,1-.6,1,209.55,209.55,0,0,0-26.5,16c-.1.1-.3.1-.4.2.3-.8.5-1.6.7-2.3a188.22,188.22,0,0,1,16-34,5.5,5.5,0,0,1,.7-.9,108.89,108.89,0,0,1,17-10.4c.1-.1.2-.1.4-.2m5.13-5.92L62,11.77a3.8,3.8,0,0,0-.67.34A110.83,110.83,0,0,0,44.1,22.69l-.17.12-.14.15a8.4,8.4,0,0,0-1.08,1.36l0,.06,0,.06A190.88,190.88,0,0,0,26.38,59l0,.09,0,.09-.14.49a16.08,16.08,0,0,1-.48,1.58l-4.86,13,9.42-9.42a2.92,2.92,0,0,0,.47-.31,207.72,207.72,0,0,1,26-15.71l.42-.21.34-.34a5.09,5.09,0,0,0,1.39-2.39l0-.13,0-.12.14-.91c.35-2.18.71-4.44,1.14-6.58a179.41,179.41,0,0,1,5.9-22.64l2.29-6.87Z"/><path class="cls-1" d="M205.21,143.84l-.13.06-.17-2.22-.3-4.5a186.29,186.29,0,0,0-4.56-30.35,2.81,2.81,0,0,1,.56-2.45l.07-.1.09-.09A163.09,163.09,0,0,0,217,86.26l.06-.07.07-.07a4.5,4.5,0,0,1,.72-.59l1.87-1.24.44,2.2c.11.57.23,1.14.35,1.71a46.16,46.16,0,0,1,1,5.76c.49,5.06.79,10.27,1.08,15.3l0,.44a8.57,8.57,0,0,1-.49,3.11,154.26,154.26,0,0,1-13.21,28.24c-.35.57-.69,1-1,1.43l-2.7,3.6Z"/><path class="cls-2" d="M218.71,86.78a66,66,0,0,1,1.3,7.3c.5,5.2.8,10.5,1.1,15.7a7.27,7.27,0,0,1-.4,2.5,151.91,151.91,0,0,1-13.1,28,14.63,14.63,0,0,1-.9,1.3c0-.05,0-.07-.08-.07a.53.53,0,0,0-.22.07l-.3-4.5a186.88,186.88,0,0,0-4.6-30.6,1.38,1.38,0,0,1,.3-1.2,165.37,165.37,0,0,0,16.4-18.1,2.74,2.74,0,0,1,.5-.4m2.06-5L217,84.29a5.1,5.1,0,0,0-.95.77l-.13.13-.12.15a164,164,0,0,1-16.1,17.77l-.18.17-.15.2a4.35,4.35,0,0,0-.81,3.73,184.33,184.33,0,0,1,4.51,30.08l.3,4.49.3,4.4v4.4l5.4-7.2a18.3,18.3,0,0,0,1.07-1.55,155.5,155.5,0,0,0,13.35-28.53,10.23,10.23,0,0,0,.58-3.52v-.17l0-.43c-.29-5.05-.59-10.27-1.09-15.38a46.12,46.12,0,0,0-1-5.91c-.12-.56-.24-1.13-.35-1.7l-.88-4.39Z"/><path class="cls-1" d="M75,36.61c-.19-1.25-.4-2.73-.51-4.33a171.32,171.32,0,0,1-1.1-21.62,2.63,2.63,0,0,1,2.13-2.83l10.4-3a2.63,2.63,0,0,1,1-.17A2.29,2.29,0,0,1,89,5.92L104.15,27,106,28.88,75.29,38.33Z"/><path class="cls-2" d="M86.9,6.19a.82.82,0,0,1,.81.49L103,28l.2.2-26.7,8.2c-.2-1.3-.4-2.7-.5-4.2a172,172,0,0,1-1.1-21.5c0-.8.2-1.2,1-1.4l10.5-3a1.37,1.37,0,0,1,.49-.09m0-3a4.28,4.28,0,0,0-1.42.24l-10.36,3a4.14,4.14,0,0,0-3.21,4.29A172.77,172.77,0,0,0,73,32.45c.11,1.64.33,3.12.52,4.39l.53,3.43,3.32-1,26.7-8.2,4.76-1.46-3.52-3.53,0,0-15-20.91A3.86,3.86,0,0,0,86.9,3.19Z"/><path class="cls-1" d="M121.11,215.8a23.38,23.38,0,0,1-7.79-1.5,165.43,165.43,0,0,1-41-21.25,2.86,2.86,0,0,1-.53-.43c-.06-.06-.14-.14-.26-.24l-4.31-3.23,7.36.74,1.72.2a243.83,243.83,0,0,0,29.64,2.19h.14l.14,0a4.18,4.18,0,0,1,2.17,1.11,104.82,104.82,0,0,0,16.64,13,33.75,33.75,0,0,0,9.87,4.19,2.36,2.36,0,0,1,1.19.62l.76.76-.93,1.88-2,.27c-3.3.44-6.7.9-10,1.43A16.84,16.84,0,0,1,121.11,215.8Z"/><path class="cls-2" d="M72.41,191.18l2,.2,1.7.2a247.4,247.4,0,0,0,29.8,2.2,2.67,2.67,0,0,1,1.4.7,106.85,106.85,0,0,0,16.9,13.2,35.42,35.42,0,0,0,10.4,4.4.76.76,0,0,1,.4.2l-.1.2c-3.7.5-7.5,1-11.2,1.6a15.59,15.59,0,0,1-2.61.22,22.37,22.37,0,0,1-7.29-1.42,164,164,0,0,1-40.7-21.1c-.2-.1-.3-.3-.7-.6M62,187.13l8.61,6.45.1.1a4.27,4.27,0,0,0,.77.62,166.57,166.57,0,0,0,41.33,21.41,25,25,0,0,0,8.29,1.59,18.92,18.92,0,0,0,3.11-.26c3.24-.53,6.64-1,9.92-1.43l1.18-.15,1.57-.22.71-1.42.1-.2,1-1.93-1.53-1.53a3.83,3.83,0,0,0-2-1,32.23,32.23,0,0,1-9.37-4,104.65,104.65,0,0,1-16.4-12.8,5.62,5.62,0,0,0-2.9-1.5l-.28-.05h-.28a242.21,242.21,0,0,1-29.44-2.17l-1.74-.21h-.05l-2-.2L62,187.13Z"/><path class="cls-1" d="M65.12,189.75c-1.12-.21-2.2-.39-3.25-.56-1.41-.23-2.75-.45-4.08-.74-8.91-2-17.89-4-24.72-5.61a4.8,4.8,0,0,1-1.76-.86l-.11-.07-.08-.1a110.44,110.44,0,0,1-14.2-18.55,2.49,2.49,0,0,1-.51-1.38v-1.79l1.77.32c1.14.2,2.28.44,3.41.67,2.16.44,4.2.86,6.3,1.11,2.77.37,5.64.62,8.42.87,1.82.17,3.66.33,5.49.52a3.3,3.3,0,0,1,2.27,1l.06.06,0,.07a139.29,139.29,0,0,0,21.87,22l.06,0,0,.06a2.69,2.69,0,0,1,.34.43h0l0,0L70,190.68Z"/><path class="cls-2" d="M17.91,161.88c3.3.6,6.5,1.4,9.8,1.8,4.6.6,9.3.9,14,1.4a1.76,1.76,0,0,1,1.3.6,140.6,140.6,0,0,0,22.1,22.2c.1.1.2.3.3.4-2.6-.5-5-.8-7.3-1.3-8.2-1.8-16.5-3.7-24.7-5.6a3.38,3.38,0,0,1-1.2-.6,108.2,108.2,0,0,1-14-18.3,1.55,1.55,0,0,1-.3-.6m-3-3.59v3.59a4,4,0,0,0,.76,2.21A111.93,111.93,0,0,0,30,182.84l.17.19.21.15a6.23,6.23,0,0,0,2.27,1.11h0c6.8,1.58,15.76,3.64,24.73,5.61,1.38.3,2.74.52,4.17.76,1,.17,2.12.35,3.21.56l9.6,1.85-6.75-6.76a3.94,3.94,0,0,0-.46-.56l-.12-.11-.12-.1a138.43,138.43,0,0,1-21.63-21.73l-.11-.14-.12-.12a4.7,4.7,0,0,0-3.23-1.47c-1.83-.2-3.67-.36-5.46-.52-2.89-.26-5.61-.51-8.35-.86-2.07-.25-4.07-.67-6.2-1.1-1.12-.23-2.28-.47-3.45-.68l-3.53-.64Z"/><path class="cls-1" d="M41,164.68c-1.8-.1-3.31-.2-4.81-.3a112.11,112.11,0,0,1-19.11-3.23,3.52,3.52,0,0,1-2.53-2,100.64,100.64,0,0,1-7-15.36l-.5-1.41,20.39-7.31.53,1.38a106.1,106.1,0,0,0,14.3,25.83l1.93,2.58Z"/><path class="cls-2" d="M26.61,137a108.12,108.12,0,0,0,14.5,26.2c-1.8-.1-3.3-.2-4.8-.3a109.77,109.77,0,0,1-18.9-3.2,2,2,0,0,1-1.5-1.2A99.5,99.5,0,0,1,9,143.28l17.6-6.3m1.75-3.81-2.76,1L8,140.46l-2.83,1,1,2.82a103.62,103.62,0,0,0,7.08,15.61,5,5,0,0,0,3.52,2.72,113.36,113.36,0,0,0,19.29,3.25c1.55.11,3.06.21,4.87.31l6.43.35-3.86-5.15a104.86,104.86,0,0,1-14.1-25.47l-1.05-2.74Z"/><path class="cls-1" d="M182.14,189c-1.27-5-2.59-10.17-4-15.24l-.26-.95.77-.62c13.93-11.21,15.61-13.38,20.58-19.81,1.19-1.54,2.54-3.29,4.29-5.46l2.67-3.31v4.15a2.15,2.15,0,0,1,.1.6c-.05,2.73-.13,5.45-.2,8.17s-.15,5.46-.2,8.16a3.16,3.16,0,0,1-.66,1.81,107.39,107.39,0,0,1-19.92,22.67,6.2,6.2,0,0,1-.89.74l-1.76,1.18Z"/><path class="cls-2" d="M204.71,147.88a4.33,4.33,0,0,0,.1.5c-.1,5.4-.3,10.9-.4,16.3a1.78,1.78,0,0,1-.4,1,105.28,105.28,0,0,1-19.7,22.4,4.35,4.35,0,0,1-.7.6c-1.3-5.1-2.6-10.2-4-15.3,17.4-14,16-14.2,25.1-25.5m3-8.51L202.37,146c-1.76,2.18-3.11,3.94-4.31,5.48-4.89,6.33-6.53,8.46-20.33,19.56l-1.54,1.24.52,1.9c1.4,5.07,2.71,10.24,4,15.24l1.05,4.11,3.52-2.35a7,7,0,0,0,1.07-.89,108.84,108.84,0,0,0,20.18-23,4.72,4.72,0,0,0,.89-2.61c.05-2.68.12-5.44.2-8.11s.15-5.46.2-8.17v-.06a3.33,3.33,0,0,0-.1-.8v-8.21Z"/><path class="cls-1" d="M5.16,81.89A106,106,0,0,1,40.05,27.63l1.05-.87,1.95,1.95-.52,1c-.79,1.49-1.61,3-2.54,4.56A181.88,181.88,0,0,0,27.44,63.84,4.11,4.11,0,0,1,25.75,66,111.46,111.46,0,0,0,11.4,78.81c-.86.92-1.64,1.92-2.47,3L7.77,83.23,3.3,88.72Z"/><path class="cls-2" d="M41,28.78l.2.2c-.8,1.5-1.6,3-2.5,4.5A182.59,182.59,0,0,0,26,63.38a2.59,2.59,0,0,1-1.1,1.4,112.18,112.18,0,0,0-14.6,13c-1.3,1.4-2.4,2.9-3.7,4.5A105,105,0,0,1,41,28.78m.19-4.05-2.1,1.74a107.45,107.45,0,0,0-35.39,55L0,95.17l8.94-11c.4-.49.78-1,1.16-1.45.81-1,1.58-2,2.41-2.9a109.78,109.78,0,0,1,14.1-12.56,5.58,5.58,0,0,0,2.24-2.93A179.87,179.87,0,0,1,41.32,35c.92-1.54,1.74-3.08,2.53-4.57l1-2-1.57-1.57-.2-.2L41.2,24.73Z"/><path class="cls-1" d="M171,44.72l2.51-.23c.36,0,.75-.09,1.15-.15a19.94,19.94,0,0,1,2.73-.26c6.59-.5,13.39-.9,20-1.3h0a3.21,3.21,0,0,1,2.43.94l.08.08.07.1c1,1.29,1.89,2.62,2.84,3.94s1.88,2.62,2.82,3.91a2,2,0,0,1,.43,1.33v.81l-.67.44c-7,4.69-13,8.33-18.71,11.47l-1.21.66Z"/><path class="cls-2" d="M197.41,44.28a1.66,1.66,0,0,1,1.3.5c1.9,2.6,3.8,5.3,5.7,7.9a.6.6,0,0,1,.1.4c-6,4-12.2,7.9-18.6,11.4L173.61,46a37.1,37.1,0,0,1,3.8-.4c6.6-.5,13.3-.9,20-1.3m0-3h-.18c-6.57.39-13.35.79-19.94,1.29a20.36,20.36,0,0,0-2.88.28c-.4,0-.77.11-1.07.13l-5,.46,2.79,4.19,12.3,18.5,1.52,2.29,2.42-1.32c5.77-3.15,11.75-6.82,18.82-11.53l1.34-.89V53.08a3.46,3.46,0,0,0-.75-2.26c-.92-1.26-1.84-2.55-2.77-3.84s-1.91-2.66-2.86-4l-.14-.19-.16-.16a4.61,4.61,0,0,0-3.42-1.38Z"/><path class="cls-1" d="M6.86,142.08C6.57,141,6.29,140,6,139c-.5-1.79-1-3.53-1.45-5.26l-.15-.61c-.25-1-.49-1.93-.66-3a2.8,2.8,0,0,1,.71-2.56q3.68-3.68,7.31-7.36c2.42-2.45,4.84-4.89,7.29-7.34a5.66,5.66,0,0,1,.82-.69l2-1.33.32,2.38a109.51,109.51,0,0,0,5.23,21.6l.5,1.41L7.29,143.64Z"/><path class="cls-2" d="M20.71,113.48a111,111,0,0,0,5.3,21.9l-17.7,6.3c-.8-2.9-1.6-5.6-2.3-8.3-.3-1.2-.6-2.3-.8-3.5a1.31,1.31,0,0,1,.3-1.2c4.9-4.9,9.7-9.8,14.6-14.7a3.81,3.81,0,0,1,.6-.5M23,108.32,19,111a6.73,6.73,0,0,0-1.05.87c-2.46,2.46-4.89,4.91-7.32,7.37s-4.84,4.89-7.28,7.33a4.34,4.34,0,0,0-1.13,3.9c.19,1.09.44,2.09.69,3.06l.15.59c.46,1.78.94,3.5,1.46,5.31.28,1,.57,2,.85,3.06l.86,3.11,3-1.08,17.7-6.3,2.82-1-1-2.82a107.45,107.45,0,0,1-5.16-21.31L23,108.32Z"/><path class="cls-1" d="M174.38,197.05a2.85,2.85,0,0,1-.85-.14l-.2-.07-18.07-12.4,2.58-1.05a110.94,110.94,0,0,0,19.44-10.26L179,172l1.3,5.1c1,4,2.06,8.05,3,12.06l0,.17v.18a2.79,2.79,0,0,1-.84,2.06l-.07.07-.08.06c-2.18,1.69-4.4,3.3-6.54,4.86l-.09.07A2.5,2.5,0,0,1,174.38,197.05Z"/><path class="cls-2" d="M178.11,174.38c1.3,5.1,2.6,10.1,3.8,15.1a1.28,1.28,0,0,1-.4,1c-2.2,1.7-4.4,3.3-6.6,4.9a.92.92,0,0,1-.53.17,1.21,1.21,0,0,1-.37-.07l-15.6-10.7a112.31,112.31,0,0,0,19.7-10.4m1.86-4.83-3.52,2.33A109.22,109.22,0,0,1,157.28,182l-5.17,2.1,4.6,3.16,15.6,10.7.35.23.4.14a4.35,4.35,0,0,0,1.32.22,3.92,3.92,0,0,0,2.19-.67l.05,0,0,0c2.18-1.59,4.43-3.23,6.67-4.95l.15-.12.14-.14a4.26,4.26,0,0,0,1.28-3.12v-.35l-.09-.35c-1-4-2-8.09-3-12l-.8-3.1-1-4.09Z"/><path class="cls-1" d="M205.21,161.48q0-1.8,0-3.63c0-3,.08-6-.13-9a12.47,12.47,0,0,1,2.17-7.77,140.11,140.11,0,0,0,11.63-23.28l0-.07,0-.06.1-.24c.06-.16.13-.32.19-.46l1.82-3.64,1,3.95c1.56,6.25-6.91,35.13-14.14,45.05l-2.71,3.71Z"/><path class="cls-2" d="M220.61,117.68c1.6,6.4-7.7,35.3-13.9,43.8,0-4.2.2-8.5-.1-12.7a11,11,0,0,1,1.9-6.8,140.56,140.56,0,0,0,11.8-23.6c.1-.2.2-.5.3-.7m.94-8.59-3.63,7.25c-.08.17-.17.37-.25.58l-.06.15-.06.12,0,.1a138,138,0,0,1-11.51,23,14,14,0,0,0-2.39,8.58V149c.21,2.87.17,5.9.13,8.83,0,1.22,0,2.44,0,3.65v9.21l5.42-7.44c3.67-5,7.73-15.46,10.31-23.54,1.65-5.16,5.34-17.71,4.08-22.76l-2-7.86Z"/></g></g></svg>