<svg xmlns="http://www.w3.org/2000/svg" viewBox="0 0 560.14 387.45"><defs><style>.cls-1{fill:#3a3a3a;}</style></defs><g id="Layer_2" data-name="Layer 2"><g id="Layer_1-2" data-name="Layer 1"><path class="cls-1" d="M0,229.08c.48,0,1-.07,1.43-.07H95.14v21.64h-35v92.18H35.2V250.66H0Z"/><path class="cls-1" d="M200.8,0c1.62.15,3.24.31,4.87.45A124.64,124.64,0,0,1,270.44,25a1.34,1.34,0,0,1,.52.71l-5.25-.79a204.43,204.43,0,0,0-26.26-2.21,4.44,4.44,0,0,1-2.39-.8A146.51,146.51,0,0,0,195.48.52c-.4-.14-.77-.35-1.16-.52Z"/><path class="cls-1" d="M239.87,309.19H188.66c.75,6.95,5.72,12.32,13.07,14.16,5.92,1.47,11.89,1.23,17.85.36a86.44,86.44,0,0,0,16-4.08c.52-.19,1.05-.34,1.69-.54,0,.44.07.78.07,1.12,0,6.08,0,12.15,0,18.23a1.44,1.44,0,0,1-1.08,1.56,64.46,64.46,0,0,1-15.51,3.93,77.49,77.49,0,0,1-19,.75c-8.86-.81-17.23-3-24.29-8.79a35.9,35.9,0,0,1-12.73-21.66c-2.1-10.82-1.77-21.58,2.25-32,5.18-13.38,14.78-21.77,29-24.49a40.25,40.25,0,0,1,23.52,2.37c9.05,3.8,14.6,10.85,17.76,19.94a58,58,0,0,1,2.91,20.17C240.13,303.17,240,306.08,239.87,309.19ZM216,290c-.22-1.25-.34-2.4-.63-3.51-1.21-4.63-3.65-8.35-8.52-9.61-10.27-2.65-17,4.7-18.16,13.12Z"/><path class="cls-1" d="M475.67,301.81c0-8.45,1.27-15.75,4.59-22.6,5.8-11.94,15.44-18.88,28.35-21.31a48.21,48.21,0,0,1,23.7,1.28c11.34,3.58,19.5,10.86,23.88,21.92a51.75,51.75,0,0,1-.12,39.94c-5.39,13.07-15.54,20.58-29.33,23.11a47,47,0,0,1-25.38-2c-13.11-4.9-20.8-14.59-24.19-27.94A49.61,49.61,0,0,1,475.67,301.81Zm24.71-.87c.34,2.77.51,5.57,1.05,8.3.92,4.6,2.84,8.74,6.67,11.71,8.27,6.43,20.23,3.2,24.45-6.7,3-7.07,3.08-14.45,1.53-21.86a19.12,19.12,0,0,0-5.81-10.79c-8-7.06-20.65-4.07-25.14,5.89A35.76,35.76,0,0,0,500.38,300.94Z"/><path class="cls-1" d="M456.47,282.91c-1.27-.42-2.47-.83-3.68-1.2-7.82-2.4-15.74-4.27-24-3.89a14.58,14.58,0,0,0-5.5,1.38,4.31,4.31,0,0,0-.42,7.74,28.12,28.12,0,0,0,6.41,2.55c4.62,1.38,9.35,2.43,13.94,3.91,6,1.93,10.89,5.47,13.94,11.18,2.42,4.55,2.77,9.46,2.38,14.46-.92,11.82-8.78,20.89-22.12,24.21a66,66,0,0,1-22.5,1.3,53.75,53.75,0,0,1-16.68-4.09,1.7,1.7,0,0,1-1.23-1.83c.06-6,0-12.07,0-18.11v-1.34l3.92,1.44a55.42,55.42,0,0,0,22.32,3.6,37.3,37.3,0,0,0,8.07-1.52,5.65,5.65,0,0,0,4.08-3.74c.61-1.95.17-3.82-1.63-4.81a41.32,41.32,0,0,0-7.12-3c-4.82-1.55-9.77-2.7-14.54-4.38-6.07-2.15-10.83-6-13.36-12.1-1.82-4.41-1.92-9-1.39-13.68,1.21-10.6,8.55-19.89,22-22.87,6.66-1.47,13.35-1.2,20-.37a73,73,0,0,1,16.13,3.95c.6.22,1,.41,1,1.21,0,6.43,0,12.87,0,19.31A7,7,0,0,1,456.47,282.91Z"/><path class="cls-1" d="M249.79,259h4.34c6.67,0,13.35,0,20,0a1.62,1.62,0,0,1,1.82,1.34q8.59,24.07,17.26,48.11c.07.19.15.37.3.7.21-.54.38-1,.54-1.39q8.49-23.91,17-47.82c.21-.58.41-.93,1.14-.93,8.16,0,16.31,0,24.47,0,.15,0,.31,0,.58.07-.74,1.95-1.46,3.85-2.19,5.74q-14.85,38.34-29.67,76.7a1.75,1.75,0,0,1-1.95,1.37c-6.68-.07-13.36,0-20,0a1.32,1.32,0,0,1-1.51-1Q266,301,250.14,260C250,259.77,250,259.51,249.79,259Z"/><path class="cls-1" d="M228.73,96.58a485.88,485.88,0,0,1,23.9,48.9c-.88.51-1.73,1-2.59,1.5a264.91,264.91,0,0,1-41.37,18.83,1.26,1.26,0,0,1-1.7-.44,241.14,241.14,0,0,1-28.48-45.79c-.09-.18-.15-.36-.23-.54Z"/><path class="cls-1" d="M101,259.1h20.52l1.21,7.26c.35-.3.59-.47.79-.68a27.49,27.49,0,0,1,19-8.47,82.8,82.8,0,0,1,9.43.45,1.17,1.17,0,0,1,.82.81c0,6.79,0,13.59,0,20.38a2.75,2.75,0,0,1-.16.51c-1.79,0-3.62,0-5.45,0a37.43,37.43,0,0,0-13.78,2.69,18.22,18.22,0,0,0-7.39,5.36,3.72,3.72,0,0,0-.77,2.14q-.06,25.89,0,51.79v1.48H101Z"/><path class="cls-1" d="M254.44,144.44A491,491,0,0,0,230.63,95.8l46.84-23.3a4.59,4.59,0,0,1,.35.53,183.08,183.08,0,0,1,15.71,41.42c.21.84-.24,1.16-.7,1.58a222,222,0,0,1-33.56,25.46C257.72,142.46,256.14,143.4,254.44,144.44Z"/><path class="cls-1" d="M227.68,94.86l-50.29,22.38a261.86,261.86,0,0,1-14.72-40c2.86-1.29,5.68-2.6,8.53-3.84a326.61,326.61,0,0,1,34.45-12.68c.65-.2,1.17-.43,1.68.42q10,16.56,20.07,33.07C227.46,94.34,227.5,94.45,227.68,94.86Z"/><path class="cls-1" d="M375.61,342.83H351.49v-83.7h24.12Z"/><path class="cls-1" d="M209.07,167.91a268.79,268.79,0,0,0,44.34-20.39c.2.44.4.8.56,1.19a431.3,431.3,0,0,1,14.66,41.76,1.5,1.5,0,0,1-.7,2,117.67,117.67,0,0,1-21.15,11.15,1.5,1.5,0,0,1-1.73-.2,236.83,236.83,0,0,1-35.35-34.72C209.52,168.51,209.36,168.28,209.07,167.91Z"/><path class="cls-1" d="M294.51,117.8c1.07,6,2.39,12.07,3.13,18.16.95,7.64,1.43,15.34,2.07,23a2.77,2.77,0,0,1-.38,1.67,115.27,115.27,0,0,1-27.64,29.16c-.26.19-.52.36-.94.64a429.87,429.87,0,0,0-15.49-44,227.15,227.15,0,0,0,38.84-28.72Z"/><path class="cls-1" d="M229.73,93.76c-6.9-11.36-13.76-22.65-20.67-34,2.5-.7,5.09-1.45,7.69-2.15a369,369,0,0,1,42.32-8.63,4.1,4.1,0,0,1,4.54,1.85A180.73,180.73,0,0,1,276,69.6c.14.25.26.49.45.84C261.09,78.83,245.41,86.42,229.73,93.76Z"/><path class="cls-1" d="M100.18,150.76l38.58-15.27a202.94,202.94,0,0,0,20.1,43.07c-1.9.29-3.65.59-5.4.82a214.14,214.14,0,0,1-35.15,2,1.81,1.81,0,0,1-1.63-.71,120.64,120.64,0,0,1-16.24-29.08C100.35,151.31,100.27,151.05,100.18,150.76Z"/><path class="cls-1" d="M130,95.31c1.08,6.51,2,13,3.27,19.33s3.06,12.54,4.68,19L99.34,148.94c-1-3.39-2.13-6.55-2.86-9.8-1.1-4.94-1.93-9.94-2.86-14.92a1.9,1.9,0,0,1,.62-2,279,279,0,0,1,35.24-26.62C129.67,95.47,129.88,95.37,130,95.31Z"/><path class="cls-1" d="M186.28,213.45c-2.64,0-5.14.09-7.64,0a279.6,279.6,0,0,1-31.09-3.16,5,5,0,0,1-2.23-1A151,151,0,0,1,120,184.89c-.3-.37-.59-.75-.88-1.13a2.1,2.1,0,0,1-.16-.42h1.16a215.71,215.71,0,0,0,38.08-2.69,2.41,2.41,0,0,1,2.85,1.28,187.44,187.44,0,0,0,24.28,30.51C185.65,212.76,185.94,213.08,186.28,213.45Z"/><path class="cls-1" d="M295.38,113.49A185,185,0,0,0,279.27,71.4l21.5-13.23c.08.12.3.39.47.68a115,115,0,0,1,13.45,31.86,2.15,2.15,0,0,1-.18,1.63,178.76,178.76,0,0,1-18.69,20.88C295.73,113.29,295.62,113.34,295.38,113.49Z"/><path class="cls-1" d="M168.91,2.51c4.33-.62,8.39-1.21,12.46-1.78.75-.11,1.52-.1,2.26-.25,3.37-.69,6.45.43,9.57,1.42a143.16,143.16,0,0,1,40.2,19.85c.29.2.56.42,1,.8-.61.05-1,.1-1.35.1a218.49,218.49,0,0,0-44.79,5.17,1.28,1.28,0,0,1-1.61-.49q-8.61-12-17.29-24C169.3,3.15,169.21,3,168.91,2.51Z"/><path class="cls-1" d="M196.13,239.14c-34.06.07-63.56-11.41-88.27-34.92,4.81,1.13,9.6,2.36,14.44,3.35,7.35,1.51,14.74,2.84,22.1,4.27a4.83,4.83,0,0,1,1.85.74,186,186,0,0,0,48.92,26.16C195.5,238.85,195.81,239,196.13,239.14Z"/><path class="cls-1" d="M139.73,12.7a206.52,206.52,0,0,0-6.8,26c-.55,2.86-1,5.75-1.5,8.61a1.75,1.75,0,0,1-.71,1.11,238.94,238.94,0,0,0-30,18.12,3.85,3.85,0,0,1-.47.17c.3-.93.55-1.76.83-2.58a214,214,0,0,1,18.09-38.51,3.47,3.47,0,0,1,.84-1,121.53,121.53,0,0,1,19.2-11.72C139.32,12.85,139.46,12.81,139.73,12.7Z"/><path class="cls-1" d="M301.73,156.6c-.12-1.74-.24-3.45-.35-5.15a221.62,221.62,0,0,0-5.16-34.66,1.67,1.67,0,0,1,.33-1.33A197,197,0,0,0,315.12,95c.1-.12.22-.21.53-.5.52,2.86,1.19,5.52,1.43,8.22.54,5.92.89,11.86,1.23,17.79a7.17,7.17,0,0,1-.47,2.78A171.45,171.45,0,0,1,303,155c-.31.51-.64,1-1,1.51C302,156.52,301.9,156.53,301.73,156.6Z"/><path class="cls-1" d="M184.85,28.25l-30.2,9.26c-.17-1.45-.4-3.1-.57-4.75a223.37,223.37,0,0,1-1.29-24.39c0-.9.22-1.37,1.12-1.62,4-1.1,7.9-2.25,11.85-3.38a1.17,1.17,0,0,1,1.52.44c5.76,8.06,11.57,16.08,17.36,24.11C184.75,28.08,184.84,28.25,184.85,28.25Z"/><path class="cls-1" d="M220.78,236.86c-4.21.6-8.44,1.11-12.63,1.83-3.92.68-7.53-.11-11.21-1.41a187.58,187.58,0,0,1-46.13-23.87c-.19-.13-.36-.29-.84-.68l2.24.28,1.9.25a265.74,265.74,0,0,0,33.7,2.44,2.76,2.76,0,0,1,1.62.77,115.25,115.25,0,0,0,19.19,14.9,38.76,38.76,0,0,0,11.72,5,2.94,2.94,0,0,1,.43.17Z"/><path class="cls-1" d="M376.07,245.87H351V220.08h25.05Z"/><path class="cls-1" d="M88.23,179.58c3.72.69,7.37,1.54,11.08,2,5.26.68,10.56,1.07,15.84,1.63a2.25,2.25,0,0,1,1.42.63,154.79,154.79,0,0,0,25,25.09,4.38,4.38,0,0,1,.39.45c-2.91-.52-5.64-.91-8.32-1.51-9.34-2.09-18.67-4.24-28-6.39a2.74,2.74,0,0,1-1.33-.71,117.09,117.09,0,0,1-15.84-20.7A5.44,5.44,0,0,1,88.23,179.58Z"/><path class="cls-1" d="M78.26,158.57l19.93-7.08a123.42,123.42,0,0,0,16.37,29.7c-2-.13-3.76-.21-5.48-.36a131.93,131.93,0,0,1-21.36-3.57A2.43,2.43,0,0,1,86,175.93,118.52,118.52,0,0,1,78.26,158.57Z"/><path class="cls-1" d="M275.91,209.91c-1.52-5.83-3-11.57-4.5-17.31,19.68-15.86,18.1-16.09,28.38-28.82a4.62,4.62,0,0,1,.09.6q-.22,9.23-.48,18.45A2.55,2.55,0,0,1,299,184a120.36,120.36,0,0,1-22.36,25.36C276.42,209.56,276.19,209.7,275.91,209.91Z"/><path class="cls-1" d="M114.71,29.15c-.93,1.72-1.86,3.42-2.78,5.14a203.16,203.16,0,0,0-14.4,33.87,3.72,3.72,0,0,1-1.28,1.62A124.32,124.32,0,0,0,79.71,84.5c-1.42,1.56-2.7,3.25-4.22,5.08a119.71,119.71,0,0,1,39-60.63Z"/><path class="cls-1" d="M278.51,69.3l-13.9-21c1.29-.15,2.77-.4,4.25-.5q11.29-.77,22.6-1.43a1.88,1.88,0,0,1,1.43.52c2.2,2.94,4.31,6,6.45,8.93a1.83,1.83,0,0,1,.13.44A215.49,215.49,0,0,1,278.51,69.3Z"/><path class="cls-1" d="M97.5,149.61l-20,7.09c-.92-3.32-1.8-6.38-2.62-9.45a38.63,38.63,0,0,1-.86-4,1.73,1.73,0,0,1,.36-1.35q8.24-8.37,16.55-16.67c.16-.16.35-.29.65-.53A117.29,117.29,0,0,0,97.5,149.61Z"/><path class="cls-1" d="M269.63,193.74c1.48,5.82,2.91,11.45,4.3,17.1a1.29,1.29,0,0,1-.43,1.08c-2.47,1.9-5,3.75-7.5,5.58a1.17,1.17,0,0,1-1,.13c-5.81-3.95-11.58-7.95-17.65-12.13A119,119,0,0,0,269.63,193.74Z"/><path class="cls-1" d="M173.92,381.37c1.73-4.87,3.42-9.56,5.06-14.27a1.24,1.24,0,0,1,1.45-1c1.35.07,2.71,0,4.16,0v20.8H181V371.05c-.18.38-.29.57-.36.77-1.69,4.73-3.41,9.45-5.06,14.2-.3.89-.82,1-1.6,1s-1.29-.07-1.61-1c-1.73-4.92-3.54-9.8-5.39-14.88v15.77h-3.62V366.1c1.6,0,3.18,0,4.76,0,.26,0,.6.46.72.78q2.43,6.82,4.8,13.65Z"/><path class="cls-1" d="M302,179.17c0-4.73.17-9.57-.07-14.39a12.27,12.27,0,0,1,2.12-7.67,152.68,152.68,0,0,0,13.34-26.74c.1-.26.21-.51.32-.8C319.56,136.76,309.1,169.59,302,179.17Z"/><path class="cls-1" d="M375,371.88v15h-3.57V366.1c1.15,0,2.3-.07,3.43,0,.37,0,.78.5,1,.86,3.24,4.69,6.46,9.41,9.69,14.11a1.5,1.5,0,0,0,.31.28V366.17h3.63V387c-1.24,0-2.46.06-3.67,0-.33,0-.67-.52-.91-.86q-4.81-7-9.6-14a1.87,1.87,0,0,1-.15-.32Z"/><path class="cls-1" d="M189.81,386.82v-20.5c.08-.07.14-.17.2-.17,3.2,0,6.41-.07,9.58.19a5.44,5.44,0,0,1,5.28,5.72,4.63,4.63,0,0,1-2.52,3.93,3,3,0,0,0,.48.36c3.9,1.64,3.55,6.18,1.26,8.35a7.3,7.3,0,0,1-4.73,2.09C196.22,386.92,193.07,386.82,189.81,386.82Zm3.8-2.74c2.26-.27,4.4-.38,6.48-.82a2.38,2.38,0,0,0,1.8-2.65,2.4,2.4,0,0,0-2.09-2.43c-2-.28-4.09-.29-6.19-.41Zm0-9.43c1.73,0,3.36.09,5,0a2.5,2.5,0,0,0,2.42-2.37,2.29,2.29,0,0,0-1.83-2.69c-1.82-.3-3.68-.3-5.57-.43Z"/><path class="cls-1" d="M238.2,376.56a34.84,34.84,0,0,1-.77,4.22c-1.46,4.73-6.07,7.35-11.28,6.51-5.41-.87-8.55-4.89-8.42-10.88a15.1,15.1,0,0,1,.47-3.55c1.34-5,5.47-7.6,11.25-7.05A9.54,9.54,0,0,1,238,375c0,.51,0,1,0,1.55Zm-16.76.17a28.79,28.79,0,0,0,1,4,5.42,5.42,0,0,0,5.5,3.49,5.52,5.52,0,0,0,5.47-3.55,10.73,10.73,0,0,0,.27-7.51,6,6,0,0,0-11.53,0A30.48,30.48,0,0,0,221.44,376.73Z"/><path class="cls-1" d="M331.53,378v9h-3.7V366.19h3.67v8.44h9.83v-8.45H345v20.71h-3.62V378Z"/><path class="cls-1" d="M410.71,369.63a15.06,15.06,0,0,0-7.28-.47c-5.45,1.25-7.87,8.48-4.24,12.77,1.77,2.09,4.23,2.39,6.78,2.28.51,0,1-.14,1.64-.23V379h-4.49V376h8.26c0,.22.08.44.08.67,0,2.95,0,5.91,0,8.86,0,.58-.07,1-.72,1.14a20.57,20.57,0,0,1-9.26.44c-5.37-1.17-8.4-5.61-7.72-11.24.74-6.06,4.89-9.9,11-10a44.58,44.58,0,0,1,5,.43c.72.07,1.05.39,1,1.17S410.71,368.82,410.71,369.63Z"/><path class="cls-1" d="M160.11,387c-1.25,0-2.29.06-3.31,0a1.35,1.35,0,0,1-.87-.74c-.54-1.24-1-2.51-1.47-3.78a1,1,0,0,0-1.12-.79c-2.12,0-4.24,0-6.35.05a1.5,1.5,0,0,0-1.07.77c-.56,1.23-1,2.53-1.5,3.77-.13.3-.49.69-.77.71-1.1.09-2.21,0-3.44,0,.18-.53.29-.91.43-1.27,2.44-6.15,4.91-12.29,7.31-18.45a1.52,1.52,0,0,1,1.72-1.19c2.2.08,2.21,0,3,2.06l7,17.55C159.8,386.05,159.92,386.42,160.11,387Zm-9.94-16-2.69,7.45h5.39C152,376,151.15,373.7,150.17,371Z"/><path class="cls-1" d="M368.17,387c-1.15,0-2.11,0-3.05,0a1.06,1.06,0,0,1-1.21-.85c-.53-1.5-1.14-3-1.73-4.5-2.48,0-4.91,0-7.34,0-.3,0-.72.42-.86.74-.55,1.24-1,2.54-1.52,3.77a1.64,1.64,0,0,1-1.1.75,29.36,29.36,0,0,1-3.14,0c.2-.53.32-.9.47-1.26,2.45-6.18,4.92-12.36,7.34-18.56a1.47,1.47,0,0,1,1.67-1.09c2.23.06,2.23,0,3,2q3.48,8.77,7,17.56C367.85,386,368,386.41,368.17,387Zm-7.23-8.49c-.92-2.51-1.77-4.86-2.72-7.46l-2.71,7.46Z"/><path class="cls-1" d="M271.19,366.16h13.4v3H275v5.52h8.25v3.11H275v6h10.13v3.08H271.19Z"/><path class="cls-1" d="M416.31,366.17h13.38v3.05H420.1v5.5h8.23v3.11H420.1v6h10.15v3.09H416.31Z"/><path class="cls-1" d="M287.24,387l3-4.19c1.25-1.76,2.46-3.55,3.78-5.25a1.56,1.56,0,0,0,.05-2.26c-2-2.62-3.82-5.33-5.71-8-.22-.32-.43-.65-.78-1.18,1.41,0,2.63-.06,3.84,0,.34,0,.74.42,1,.74,1.54,2.18,3,4.38,4.66,6.72a51.36,51.36,0,0,0,3.37-5c1.13-2.13,2.69-3,5-2.53a8.19,8.19,0,0,0,1,.05c-.27.44-.45.77-.66,1.07-2,2.78-3.9,5.56-5.91,8.3a1.26,1.26,0,0,0,0,1.77c2.29,3.12,4.51,6.28,6.95,9.69-1.5,0-2.74,0-4,0-.3,0-.61-.46-.83-.76-1.64-2.32-3.25-4.65-5-7.12l-1.74,2.48c-1.07,1.54-2.17,3.06-3.21,4.63a1.57,1.57,0,0,1-1.55.84C289.55,386.94,288.55,387,287.24,387Z"/><path class="cls-1" d="M323.61,369.45a35.46,35.46,0,0,0-3.56-.51c-5.3-.25-8.49,3.11-8.07,8.42.4,5,3.45,7.45,8.42,6.81,1.1-.14,2.19-.35,3.28-.53,0,.07.06.1.06.14.07,3.58.6,3-2.7,3.44a17.32,17.32,0,0,1-5.47-.2c-5.22-1.07-8.1-5.68-7.45-11.43,1-8.5,7.91-11,14.77-9.36a1.2,1.2,0,0,1,.69.85A18.44,18.44,0,0,1,323.61,369.45Z"/><path class="cls-1" d="M138,369.49c-4-.83-7.91-1.45-10.37,2.54a8.35,8.35,0,0,0,.12,9.53c2.64,3.76,6.58,2.74,10.46,2.05,0,.87,0,1.73,0,2.58a1,1,0,0,1-.62.68,15.4,15.4,0,0,1-9.09-.27c-4.05-1.52-6.27-5.44-6-10.31.5-8.47,7.1-11.88,14.72-10.09a1.34,1.34,0,0,1,.76.92A16.77,16.77,0,0,1,138,369.49Z"/><path class="cls-1" d="M209.79,366.07h3.82v21h-3.82Z"/><path class="cls-1" d="M246.21,377.84h15.71v2.9c-.31,0-.61.08-.92.08-4.55,0-9.1,0-13.65,0-.88,0-1.26-.23-1.16-1.14A16.39,16.39,0,0,0,246.21,377.84Z"/><path class="cls-1" d="M155,364.8c-2.75.27-2.75.27-4.85-1.86a3.64,3.64,0,0,1-4.67,1.77c1-1.11,1.72-2.52,2.89-3.15a4.44,4.44,0,0,1,3.64,0C153.17,362.16,153.93,363.58,155,364.8Z"/></g></g></svg>