<?xml version="1.0" encoding="UTF-8"?>
<svg width="590px" height="475px" viewBox="0 0 590 475" version="1.1" xmlns="http://www.w3.org/2000/svg" xmlns:xlink="http://www.w3.org/1999/xlink">
    <title>Group 3</title>
    <g id="Wireframes" stroke="none" stroke-width="1" fill="none" fill-rule="evenodd">
        <g id="Signup-Copy" transform="translate(-128.000000, -195.000000)">
            <g id="Group-3" transform="translate(128.000000, 195.000000)">
                <rect id="Rectangle" x="0" y="0" width="590" height="475"></rect>
                <g id="BePay-Logo" transform="translate(138.000000, 81.000000)">
                    <path d="M288.00016,255.533409 C281.16557,293.432233 244.935402,318.6509 207.007464,311.909848 L58.0693103,285.895436 C39.7953128,282.829859 23.4990829,272.604941 12.7924131,257.486865 C2.08574332,242.36879 -2.14703635,223.606253 1.03220039,205.357664 L27.5544565,57.4675091 C34.4236939,19.5586335 70.6746126,-5.65228532 108.618449,1.09106918 L257.485306,27.1767544 C275.648887,30.3588841 291.803384,40.6252591 302.393511,55.7164518 C312.983638,70.8076446 317.141504,89.4868901 313.952045,107.643253 L288.00016,255.533409 Z" id="Fill-1" fill="#0F92BD"></path>
                    <path d="M170.876904,4.71909843 C198.843644,-0.371542999 227.67426,5.94874206 251.000158,22.2838224 C274.326056,38.6189028 290.227728,63.6245505 295.192545,91.7770962 L309.448926,171.018519 C314.263632,199.149452 307.766638,228.052119 291.388715,251.361567 C275.010792,274.671015 250.095105,290.47562 222.128593,295.294887 L142.863116,309.278667 C114.906799,314.3708 86.0854593,308.060187 62.7614936,291.739915 C39.4375279,275.419642 23.5288956,250.431747 18.5474746,222.292381 L4.57622141,142.979247 C-5.46132582,84.49145 33.4873086,28.8772326 91.6114265,18.702879 L170.876904,4.71909843 Z" id="Fill-4" fill="#36A4DD"></path>
                    <path d="M258.856391,25.6832972 L258.856391,25.6832972 L152.937291,7 L93.5940641,17.4511931 C68.0701359,21.8652284 45.008173,35.4217188 28.6874102,55.6052061 L28.6874102,55.6052061 L10,161.40564 L20.484921,220.67679 C25.0757138,246.126055 38.7417093,269.027359 58.9296314,285.101952 L58.9296314,285.101952 L164.848731,304 L224.191958,293.548807 C249.736425,289.09757 272.801315,275.488485 289.098612,255.251627 L289.098612,255.251627 L308,149.59436 L297.301101,90.3947939 C292.775361,64.8418727 279.103399,41.8287424 258.856391,25.6832972 Z" id="Path" fill="#005DA3"></path>
                    <path d="M106.721158,169.626498 C91.3453113,169.352584 79.0761578,156.714288 79.2579591,141.337015 C79.4397605,125.959741 92.0042811,113.61505 107.382306,113.704247 C122.760331,113.794416 135.180017,126.284812 135.182457,141.66316 C135.164298,149.160589 132.143775,156.338349 126.795709,161.592845 C121.447643,166.84734 114.217709,169.740695 106.721158,169.626498 M106.721158,99.4691145 C96.2268886,99.3799572 86.0772843,103.211448 78.2598592,110.213298 L78.2598592,80.1153533 C78.2598592,76.1856522 75.0742198,73 71.1445344,73 C67.2148491,73 64.0292097,76.1856522 64.0292097,80.1153533 L64.0292097,171.689951 C63.6755382,175.619652 66.57447,179.092013 70.5041552,179.445686 C74.4338405,179.799359 77.9061874,176.900416 78.2598592,172.970715 C92.2196425,185.694955 112.927507,187.611738 128.985671,177.666049 C145.043835,167.720361 152.553314,148.327052 147.380829,130.160363 C142.208344,111.993673 125.609793,99.4645447 106.721158,99.4691145" id="Fill-6" fill="#FEFEFE"></path>
                    <path d="M205.848594,114.294995 C221.330215,114.531172 233.708396,127.256381 233.538671,142.761377 C233.368945,158.266373 220.715179,170.716773 205.232108,170.613008 C189.749037,170.509242 177.262795,157.890358 177.300212,142.384476 C177.318511,134.853226 180.348267,127.643088 185.71268,122.364889 C191.077094,117.08669 198.329128,114.180284 205.848594,114.294995 M205.848594,184.768857 C224.717134,184.690728 241.25498,172.1133 246.395527,153.931943 C251.536073,135.750586 244.037511,116.357396 228.010805,106.384374 C211.984099,96.4113522 191.300843,98.2676954 177.300296,110.935694 C176.965252,106.988266 173.498268,104.060245 169.556571,104.395777 C165.614873,104.731308 162.691103,108.203332 163.026148,112.15076 L163.026148,203.85255 C163.026148,207.799977 166.221525,211 170.163222,211 C174.104919,211 177.300296,207.799977 177.300296,203.85255 L177.300296,173.761783 C185.180696,180.722034 195.341347,184.537818 205.848594,184.482959" id="Fill-8" fill="#FEFEFE"></path>
                    <path d="M206,237.833314 L206,251.99785 C217.352172,252.111189 228.279883,247.738782 236.354455,239.852396 C244.429026,231.966009 248.981467,221.219041 249,210 L234.666667,210 C234.392997,225.45177 221.638301,237.835681 206,237.833314" id="Fill-10" fill="#FEFEFE"></path>
                </g>
            </g>
        </g>
    </g>
</svg>