<svg xmlns="http://www.w3.org/2000/svg" viewBox="0 0 44.19 43.91"><defs><style>.cls-1{fill:#0f92bd;}.cls-1,.cls-2,.cls-3,.cls-4{fill-rule:evenodd;}.cls-2{fill:#36a4dd;}.cls-3{fill:#005da3;}.cls-4{fill:#fefefe;}</style></defs><g id="Layer_2" data-name="Layer 2"><g id="Layer_1-2" data-name="Layer 1"><path id="Fill-1" class="cls-1" d="M40.36,35.85A9.8,9.8,0,0,1,29,43.76L8.11,40.11a9.76,9.76,0,0,1-8-11.3L3.83,8.06A9.81,9.81,0,0,1,15.2.15L36.08,3.81A9.75,9.75,0,0,1,44,15.1L40.36,35.85Z"/><path id="Fill-4" class="cls-2" d="M24.06.72A15,15,0,0,1,41.5,12.86l2,11.05A15,15,0,0,1,31.25,41.24L20.13,43.19A15,15,0,0,1,2.69,31.06L.73,20A15,15,0,0,1,12.94,2.67L24.06.72Z"/><path class="cls-3" d="M36.11,3.82h0L21.26,1.21,12.94,2.67A15,15,0,0,0,3.84,8v0L1.22,22.78l1.47,8.28a14.87,14.87,0,0,0,5.39,9h0L22.93,42.7l8.32-1.46a15,15,0,0,0,9.1-5.35v0L43,21.13,41.5,12.86A14.87,14.87,0,0,0,36.11,3.82Z"/><path id="Fill-6" class="cls-4" d="M15.07,23.78a3.93,3.93,0,1,1,4-3.93,3.94,3.94,0,0,1-4,3.93m0-9.86a5.92,5.92,0,0,0-4,1.51V11.2a1,1,0,0,0-2,0V24.07a1,1,0,0,0,2,.18,5.94,5.94,0,1,0,4-10.33"/><path id="Fill-8" class="cls-4" d="M28.8,16a3.94,3.94,0,1,1-4,3.93,3.94,3.94,0,0,1,4-3.93m0,9.86a5.93,5.93,0,1,0-4-10.33,1,1,0,0,0-2,.17V28.53a1,1,0,0,0,2,0V24.32a6,6,0,0,0,4,1.5"/><path id="Fill-10" class="cls-4" d="M28.8,33.38v2a5.94,5.94,0,0,0,6-5.93h-2a4,4,0,0,1-4,3.93"/></g></g></svg>