<svg width="107" height="44" viewBox="0 0 107 44" fill="none" xmlns="http://www.w3.org/2000/svg">
<g id="logo_bpp">
<g id="Group 3">
<mask id="mask0" x="0" y="0" width="33" height="41">
<path id="Clip 2" fill-rule="evenodd" clip-rule="evenodd" d="M0 0H32.2845V40.3334H0V0Z" fill="white"/>
</mask>
<g mask="url(#mask0)">
<path id="Fill 1" fill-rule="evenodd" clip-rule="evenodd" d="M27.6881 20.488C30.4844 18.4153 32.2845 15.1204 32.2845 11.4183C32.2845 5.15604 27.1146 0.0787259 20.7321 0.0649363L0 0L0.168487 40.3335L27.6881 20.488Z" fill="white"/>
</g>
</g>
<path id="Fill 4" fill-rule="evenodd" clip-rule="evenodd" d="M33.3884 22.5586L4.84842 43.3375H20.3057C20.7114 43.3412 21.008 43.3375 21.3648 43.3375C28.9985 43.3375 36.8484 39.1763 36.8484 30.9429C36.8484 26.7897 35.5319 24.2403 33.3884 22.5586Z" fill="white"/>
<path id="Fill 6" fill-rule="evenodd" clip-rule="evenodd" d="M99.1834 17.8197C98.4369 20.0865 96.464 21.22 94.0648 21.22C93.4466 21.22 92.7993 21.1554 92.2643 21.0581L94.4177 14.3867H96.3806C98.78 14.3867 99.8972 15.5201 99.1834 17.8197ZM79.3736 17.8197C78.6271 20.0865 76.6542 21.22 74.2553 21.22C73.6371 21.22 72.9895 21.1554 72.4542 21.0581L74.6079 14.3867H76.571C78.97 14.3867 80.0872 15.5201 79.3736 17.8197ZM59.2134 16.201C58.8366 17.3667 57.7498 18.3707 55.9685 18.3707H53.1696L54.5696 14.0312H57.3688C59.15 14.0312 59.59 15.0351 59.2134 16.201ZM57.1959 25.0411C56.7624 26.4012 55.5074 27.2757 53.7262 27.2757H53.0719C51.1817 27.2757 50.6122 26.466 51.4156 24.0048L51.7922 22.8389H55.1731C56.9543 22.8389 57.6258 23.7133 57.1959 25.0411ZM98.2917 9.33594H89.022L86.7601 16.3397C87.4399 11.9123 84.4111 9.33594 78.4819 9.33594H69.212L64.3533 24.3813C64.5735 22.3115 63.4098 20.9688 61.5811 20.3145C63.8438 19.5374 65.8218 17.6591 66.522 15.4894C67.7089 11.7972 65.2765 9.33594 59.0603 9.33594H49.0637L44.2803 24.1035C42.5534 29.4796 44.2517 32.0056 49.9589 32.0056H52.3583C58.149 32.0056 61.9405 29.8742 63.5566 26.8478L62.215 31.0016C62.0018 31.6493 62.3281 32.0056 63.2732 32.0056H68.9441L70.891 25.9172C71.8124 26.1439 72.817 26.2733 73.7255 26.2733C78.8441 26.2733 83.6142 23.7196 85.7465 19.4786L82.0251 31.0016C81.8118 31.6493 82.1376 32.0056 83.083 32.0056H88.7539L90.7007 25.9172C91.6221 26.1439 92.6265 26.2733 93.5353 26.2733C99.2424 26.2733 104.519 23.0997 106.186 17.9504C107.916 12.542 104.908 9.33594 98.2917 9.33594Z" fill="white"/>
</g>
</svg>
