<?xml version="1.0" standalone="no"?>
<!DOCTYPE svg PUBLIC "-//W3C//DTD SVG 20010904//EN"
 "http://www.w3.org/TR/2001/REC-SVG-20010904/DTD/svg10.dtd">
<svg version="1.0" xmlns="http://www.w3.org/2000/svg"
 width="300.000000pt" height="300.000000pt" viewBox="0 0 300.000000 300.000000"
 preserveAspectRatio="xMidYMid meet">
<metadata>
Created by potrace 1.11, written by Peter Selinger 2001-2013
</metadata>
<g transform="translate(0.000000,300.000000) scale(0.100000,-0.100000)"
fill="#000000" stroke="none">
<path d="M1349 2996 c-2 -2 -27 -6 -56 -10 -29 -3 -76 -11 -105 -17 l-52 -12
24 -19 c49 -39 155 -145 224 -223 161 -181 309 -424 393 -645 28 -73 73 -223
69 -227 -2 -2 -36 41 -77 94 -68 89 -254 287 -339 359 -103 87 -283 215 -370
263 -80 43 -223 111 -275 130 -33 13 -77 30 -97 38 -37 15 -37 15 -90 -23 -49
-36 -91 -71 -157 -134 -100 -96 -213 -251 -281 -388 -37 -74 -82 -181 -77
-183 8 -2 50 -8 97 -13 30 -3 89 -10 130 -16 41 -5 91 -12 110 -14 50 -6 236
-37 340 -57 416 -77 1048 -251 1305 -359 11 -4 58 -23 105 -41 198 -76 521
-228 687 -324 l62 -36 6 23 c31 129 42 230 40 371 -3 180 -7 206 -45 356 -125
481 -480 865 -953 1030 -48 17 -98 33 -110 35 -12 3 -47 10 -77 15 -30 6 -66
14 -80 17 -28 6 -345 15 -351 10z"/>
<path d="M13 1722 c-14 -69 -8 -371 10 -469 72 -395 313 -760 647 -978 179
-117 426 -210 615 -231 136 -15 126 -15 114 9 -7 12 -26 44 -44 72 -126 199
-267 537 -348 833 -14 50 -24 92 -22 92 2 0 20 -30 41 -67 182 -326 518 -717
756 -881 l46 -31 63 18 c35 10 82 25 104 34 22 8 54 20 72 26 65 25 196 99
281 159 246 173 437 427 536 712 9 25 16 49 16 53 0 34 -747 306 -1105 402
-33 9 -67 18 -75 20 -8 2 -31 9 -50 15 -30 9 -356 84 -415 96 -11 2 -31 6 -45
9 -14 3 -43 8 -65 11 -22 3 -43 8 -46 10 -3 2 -64 12 -135 24 -71 11 -140 22
-154 25 -14 3 -45 7 -70 10 -88 10 -135 16 -160 21 -14 2 -54 6 -90 9 -36 3
-83 8 -105 10 -75 8 -170 15 -267 20 l-97 5 -8 -38z"/>
</g>
</svg>
