<?xml version="1.0" encoding="utf-8"?>
<!-- Generator: Adobe Illustrator 25.1.0, SVG Export Plug-In . SVG Version: 6.00 Build 0)  -->
<svg version="1.1" id="Layer_1" xmlns="http://www.w3.org/2000/svg" xmlns:xlink="http://www.w3.org/1999/xlink" x="0px" y="0px"
	 viewBox="0 0 24 24" style="enable-background:new 0 0 24 24;" xml:space="preserve">
<style type="text/css">
	.st0{fill:#2CA01C;}
	.st1{fill:none;stroke:#2CA01C;stroke-width:0.75;stroke-linecap:round;stroke-miterlimit:10;}
	.st2{fill:none;stroke:#2CA01C;stroke-width:0.75;stroke-linecap:round;stroke-miterlimit:10;stroke-dasharray:1.9328,1.9328;}
</style>
<path class="st0" d="M21.4,11c0.5,0,0.9-0.4,0.9-0.9V7c0-1.2-0.9-2.2-2.2-2.2H4c-1.3,0-2.2,0.9-2.2,2.2v3c0,0.6,0.3,0.9,0.9,1
	c0.2,0,0.4,0.1,0.6,0.3c0.3,0.3,0.4,0.7,0.3,1.1C3.4,12.7,3.1,13,2.6,13c-0.5,0-0.9,0.4-0.9,0.9c0,1,0,2.1,0,3.2
	c0,0.4,0.1,0.8,0.4,1.2c0.4,0.6,1.1,0.9,1.9,0.9c0,0,0,0,0,0c2,0,4,0,6,0l4.4,0c1.9,0,3.8,0,5.6,0c1.3,0,2.2-0.9,2.2-2.2V14
	c0-0.6-0.3-0.9-0.9-1c-0.6,0-1-0.5-1-1C20.4,11.4,20.8,11,21.4,11z M18.6,12c0,1.2,0.7,2.2,1.9,2.6c0,0.4,0,0.9,0,1.3l0,1
	c0,0.3-0.1,0.4-0.4,0.4H4c-0.3,0-0.5-0.1-0.5-0.5v-0.8c0-0.5,0-1,0-1.5c1.1-0.4,1.9-1.4,1.9-2.6c0-1.2-0.8-2.2-1.9-2.6
	c0-0.5,0-1,0-1.5V7.1c0-0.3,0.1-0.5,0.5-0.5H20c0.3,0,0.5,0.1,0.5,0.5l0,0.9c0,0.5,0,0.9,0,1.4C19.4,9.8,18.6,10.8,18.6,12z"/>
<g>
	<g>
		<line class="st1" x1="15.6" y1="6.2" x2="15.6" y2="7.2"/>
		<line class="st2" x1="15.6" y1="9.1" x2="15.6" y2="15.9"/>
		<line class="st1" x1="15.6" y1="16.8" x2="15.6" y2="17.8"/>
	</g>
</g>
<path class="st0" d="M8.3,15.8c-0.3,0-0.6-0.3-0.4-0.7c0.8-1.7,1.6-3.4,2.5-5c0.2-0.5,0.5-1,0.7-1.5c0.1-0.3,0.4-0.4,0.7-0.3
	C12,8.4,12.1,8.7,12,9c-0.8,1.5-1.5,3.1-2.3,4.6c-0.3,0.6-0.6,1.2-0.9,1.8C8.7,15.6,8.6,15.8,8.3,15.8z"/>
<path class="st0" d="M9.2,10.5c0,0.2,0,0.4,0,0.6c0,0.7-0.3,1.1-1,1.2c-0.4,0.1-0.8,0-1.2-0.2c-0.3-0.2-0.4-0.4-0.5-0.7
	c0-0.6,0-1.3,0-1.9c0-0.5,0.3-0.7,0.8-0.9c0.4-0.1,0.9-0.1,1.3,0.1c0.4,0.2,0.6,0.5,0.6,0.9C9.2,9.9,9.2,10.2,9.2,10.5
	C9.2,10.5,9.2,10.5,9.2,10.5z M7.3,10.5C7.3,10.5,7.3,10.5,7.3,10.5c0,0.2,0,0.4,0,0.7c0,0.3,0.1,0.4,0.4,0.4c0.3,0,0.5-0.1,0.5-0.4
	c0-0.5,0-0.9,0-1.4c0-0.3-0.2-0.4-0.5-0.4c-0.3,0-0.4,0.1-0.4,0.4C7.3,10.1,7.3,10.3,7.3,10.5z"/>
<path class="st0" d="M10.7,13.5c0-0.3,0-0.5,0-0.8c0-0.6,0.3-0.9,0.9-1c0.5-0.1,0.9-0.1,1.4,0.2c0.3,0.2,0.5,0.4,0.5,0.8
	c0,0.6,0,1.2,0,1.8c0,0.5-0.3,0.8-0.8,0.9c-0.4,0.1-0.9,0.1-1.3,0c-0.4-0.2-0.6-0.5-0.7-0.9C10.6,14,10.7,13.7,10.7,13.5
	C10.7,13.5,10.7,13.5,10.7,13.5z M12.5,13.5C12.5,13.5,12.5,13.5,12.5,13.5c0-0.2,0-0.4,0-0.6c0-0.3-0.1-0.4-0.4-0.4
	c-0.3,0-0.5,0.1-0.5,0.4c0,0.4,0,0.9,0,1.3c0,0.1,0.1,0.3,0.2,0.3c0.1,0.1,0.3,0.1,0.5,0c0.2-0.1,0.2-0.2,0.2-0.4
	C12.5,13.9,12.5,13.7,12.5,13.5z"/>
</svg>
