<svg width="635" height="201" viewBox="0 0 635 201" fill="none" xmlns="http://www.w3.org/2000/svg">
<path d="M597.282 128.043C597.282 126.92 596.323 126.511 595.342 126.511H593.505V131.738H594.445V129.552H595.118L596.343 131.737H597.486L596.077 129.448C596.812 129.285 597.281 128.795 597.281 128.04L597.282 128.043ZM594.445 128.797V127.307H595.301C595.794 127.307 596.344 127.45 596.344 128.021C596.344 128.654 595.732 128.796 595.201 128.796H594.447L594.445 128.797ZM595.321 124.51C592.749 124.51 590.668 126.572 590.668 129.145C590.668 131.717 592.749 133.738 595.321 133.738C597.894 133.738 599.977 131.718 599.977 129.145C599.977 126.571 597.894 124.51 595.321 124.51ZM595.321 133.063C593.159 133.063 591.402 131.288 591.402 129.145C591.402 126.981 593.159 125.225 595.321 125.225C597.486 125.225 599.242 126.981 599.242 129.145C599.242 131.288 597.486 133.064 595.321 133.064V133.063ZM295.876 125.293C289.069 125.293 285.636 119.211 285.636 113.327C285.636 107.446 289.361 101.621 295.55 101.621C298.45 101.621 302.114 103.076 303.553 105.121L310.761 97.9393C307.273 94.2627 301.711 92.0684 295.55 92.0684C283.016 92.0684 273.917 101.064 273.917 113.458C273.917 126.052 282.914 134.849 295.797 134.849C301.925 134.849 307.59 133.055 310.948 129.444L303.937 121.92C302.318 123.892 298.923 125.294 295.876 125.294V125.293ZM255.565 133.707H266.749V93.2074H255.565V133.707ZM235.23 115.412C235.23 120.171 232.128 125.294 226.346 125.294C221.889 125.294 219.51 122.115 219.51 115.575V93.2074H208.323V118.343C208.323 126.707 212.497 134.848 223.657 134.848C228.919 134.848 233.328 130.704 235.549 127.645H235.717V133.707H246.411V93.2074H235.227V115.412H235.23ZM188.15 98.3497H187.902C186.321 96.6014 182.042 92.0684 175.092 92.0684C163.69 92.0684 154.903 100.994 154.903 113.295C154.903 125.784 163.011 134.848 174.556 134.848C179.798 134.848 184.721 132.07 187.576 128.839H187.742V153.65H198.925V93.2074H188.15V98.3497ZM177.292 125.293C170.376 125.293 166.446 119.257 166.446 113.296C166.446 107.594 170.055 101.458 177.292 101.458C183.948 101.458 188.067 107.687 188.067 113.457C188.067 119.275 184.037 125.293 177.293 125.293H177.292ZM432.028 92.0674C419.302 92.0674 410.066 100.994 410.066 113.295C410.066 126.023 419.507 134.957 432.027 134.957C444.545 134.957 453.987 125.937 453.987 113.295C453.987 100.994 444.751 92.0674 432.027 92.0674H432.028ZM432.028 125.293C424.734 125.293 421.412 119.075 421.412 113.296C421.412 107.594 424.734 101.458 432.028 101.458C439.32 101.458 442.641 107.593 442.641 113.295C442.641 119.074 439.32 125.292 432.026 125.292L432.028 125.293ZM571.843 108.78C566.087 107.405 564.06 106.665 564.06 104.336C564.06 101.122 568.132 100.416 569.974 100.416C573.445 100.416 577.365 102.489 578.839 104.457L585.435 98.1298C582.384 94.2983 576.388 92.0684 570.056 92.0684C561.962 92.0684 553.463 96.1376 553.463 105.232C553.463 113.042 559.584 115.397 565.573 116.831C571.886 118.302 574.137 119.375 574.137 121.919C574.137 125.667 569.883 126.279 568.421 126.279C564.762 126.279 560.522 124.186 558.235 121.47L551.446 128.353C555.154 132.467 561.502 134.941 568.013 134.941C578.945 134.941 585.433 129.73 585.433 121.13C585.433 112.901 577.492 110.134 571.842 108.781L571.843 108.78ZM550.7 93.2064H536.278L521.839 110.012H521.59V70.888H510.407V133.706H521.59V113.731H521.839L536.82 133.706H551.536L534.126 111.573L550.7 93.2064ZM384.865 92.0653C379.75 92.0653 375.982 94.3014 372.424 97.6347H372.215V70.887H361.034V133.706H371.727V127.981H371.894C374.415 132.117 379.425 134.847 384.621 134.847C396.165 134.847 404.917 125.781 404.917 113.294C404.917 100.993 396.27 92.0663 384.866 92.0663L384.865 92.0653ZM382.667 125.293C375.92 125.293 371.889 119.274 371.889 113.456C371.889 107.686 376.009 101.457 382.667 101.457C389.903 101.457 393.502 107.591 393.502 113.294C393.502 119.256 389.581 125.291 382.667 125.291V125.293ZM356.825 93.2064H342.402L327.963 110.012H327.714V70.888H316.531V133.706H327.714V113.731H327.963L342.944 133.706H357.66L340.25 111.573L356.825 93.2064ZM481.169 92.0653C468.443 92.0653 459.208 100.993 459.208 113.294C459.208 126.022 468.649 134.956 481.168 134.956C493.686 134.956 503.127 125.936 503.127 113.294C503.127 100.993 493.892 92.0663 481.167 92.0663L481.169 92.0653ZM481.169 125.293C473.876 125.293 470.554 119.073 470.554 113.294C470.554 107.593 473.876 101.457 481.169 101.457C488.461 101.457 491.782 107.591 491.782 113.294C491.782 119.073 488.461 125.291 481.167 125.291L481.169 125.293Z" fill="black"/>
<path d="M95.2188 141.565C121.237 141.565 142.328 120.473 142.328 94.4553C142.328 68.4375 121.237 47.3459 95.2188 47.3459C69.201 47.3459 48.1094 68.4375 48.1094 94.4553C48.1094 120.473 69.201 141.565 95.2188 141.565Z" fill="#2CA01C"/>
<path d="M61.1912 94.4532C61.1912 104.571 69.3934 112.774 79.5115 112.774H82.1287V105.969H79.5115C73.1611 105.969 67.9958 100.804 67.9958 94.4532C67.9958 88.1039 73.1611 82.9376 79.5115 82.9376H85.8001V118.531C85.8001 122.29 88.8465 125.336 92.6047 125.336V76.1329H79.5115C69.3934 76.1329 61.1912 84.3362 61.1912 94.4532ZM110.928 76.136H108.311V82.9407H110.928C117.276 82.9407 122.444 88.107 122.444 94.4563C122.444 100.806 117.276 105.972 110.928 105.972H104.636V70.3782C104.636 66.6199 101.59 63.5735 97.8318 63.5735V112.777H110.928C121.045 112.777 129.249 104.574 129.249 94.4563C129.249 84.3383 121.045 76.136 110.928 76.136Z" fill="white"/>
<path d="M201.026 58.0732C202.745 58.0732 204.139 56.6788 204.139 54.9609C204.139 53.2419 202.746 51.8475 201.026 51.8475C199.307 51.8475 197.913 53.2419 197.913 54.9609C197.913 56.6778 199.307 58.0732 201.026 58.0732ZM182.451 60.1701C179.404 60.1701 176.957 62.0168 176.056 64.0771H175.969V60.7721H171.077V81.3788H176.228V70.0453C176.228 67.2983 177.773 64.4655 181.033 64.4655C184.341 64.4655 184.899 67.5119 184.899 69.9595V81.3788H190.05V68.5001C190.05 64.2917 187.818 60.1712 182.45 60.1712L182.451 60.1701ZM160.646 81.3777H165.797V60.771H160.646V81.3777ZM254.324 58.0743C256.044 58.0743 257.437 56.6788 257.437 54.9609C257.437 53.2419 256.045 51.8475 254.325 51.8475C252.608 51.8475 251.214 53.2419 251.214 54.9609C251.214 56.6778 252.606 58.0732 254.326 58.0732L254.324 58.0743ZM245.973 60.7595V65.3239H251.75V81.3767H256.902V65.3249H262.678V60.7606H245.973V60.7595ZM237.213 81.3767H242.363V60.771H237.213V81.3777V81.3767ZM192.674 65.3249H198.45V81.3777H203.601V65.3249H209.376V60.7606H192.673V65.3249H192.674ZM226.787 72.1055C226.787 74.8525 225.241 77.6854 221.98 77.6854C218.674 77.6854 218.117 74.639 218.117 72.1893V60.7721H212.964V73.6507C212.964 77.8592 215.196 81.9797 220.564 81.9797C223.611 81.9797 226.058 80.134 226.959 78.0727H227.045V81.3788H231.94V60.771H226.789V72.1055H226.787Z" fill="black"/>
</svg>
