<svg width="201" height="201" viewBox="0 0 201 201" fill="none" xmlns="http://www.w3.org/2000/svg">
<path d="M100.5 201C156.005 201 201 156.005 201 100.5C201 44.9954 156.005 0 100.5 0C44.9954 0 0 44.9954 0 100.5C0 156.005 44.9954 201 100.5 201Z" fill="#2CA01C"/>
<path d="M27.9077 100.495C27.9077 122.081 45.4059 139.579 66.991 139.579H72.5744V125.062H66.991C53.4436 125.062 42.4244 114.043 42.4244 100.495C42.4244 86.9503 53.4436 75.9288 66.991 75.9288H80.4067V151.862C80.4067 159.88 86.9057 166.379 94.9233 166.379V61.4122H66.991C45.4059 61.4122 27.9077 78.9126 27.9077 100.495ZM134.013 61.4189H128.43V75.9355H134.013C147.556 75.9355 158.58 86.957 158.58 100.502C158.58 114.047 147.556 125.069 134.013 125.069H120.591V49.1355C120.591 41.1179 114.092 34.6189 106.074 34.6189V139.586H134.013C155.596 139.586 173.097 122.087 173.097 100.502C173.097 78.917 155.596 61.4189 134.013 61.4189Z" fill="white"/>
</svg>
