<?xml version="1.0" encoding="utf-8"?>
<!-- Generator: Adobe Illustrator 25.1.0, SVG Export Plug-In . SVG Version: 6.00 Build 0)  -->
<svg version="1.1" id="Layer_1" xmlns="http://www.w3.org/2000/svg" xmlns:xlink="http://www.w3.org/1999/xlink" x="0px" y="0px"
	 viewBox="0 0 24 24" style="enable-background:new 0 0 24 24;" xml:space="preserve">
<style type="text/css">
	.st0{fill:#2CA01C;}
</style>
<path class="st0" d="M21.6,11c0.5,0,0.9-0.4,0.9-0.9V7c0-1.2-0.9-2.2-2.2-2.2H4.2C2.9,4.8,2,5.7,2,7v3c0,0.6,0.3,0.9,0.9,1
	c0.2,0,0.4,0.1,0.6,0.3c0.3,0.3,0.4,0.7,0.3,1.1c-0.2,0.3-0.5,0.6-1,0.6s-0.9,0.4-0.9,0.9c0,1,0,2.1,0,3.2c0,0.4,0.1,0.8,0.4,1.2
	c0.4,0.6,1.1,0.9,1.9,0.9l0,0c2,0,4,0,6,0h4.4c1.9,0,3.8,0,5.6,0c1.3,0,2.2-0.9,2.2-2.2v-3c0-0.6-0.3-0.9-0.9-1c-0.6,0-1-0.5-1-1
	C20.6,11.4,21,11,21.6,11z M18.8,12c0,1.2,0.7,2.2,1.9,2.6c0,0.4,0,0.9,0,1.3v1c0,0.3-0.1,0.4-0.4,0.4H4.2c-0.3,0-0.5-0.1-0.5-0.5
	V16c0-0.5,0-1,0-1.5c1.1-0.4,1.9-1.4,1.9-2.6S4.8,9.7,3.7,9.3c0-0.5,0-1,0-1.5V7.1c0-0.3,0.1-0.5,0.5-0.5h16c0.3,0,0.5,0.1,0.5,0.5
	V8c0,0.5,0,0.9,0,1.4C19.6,9.8,18.8,10.8,18.8,12z"/>
<g>
	<path class="st0" d="M15.3,7.6c-0.2,0-0.4-0.2-0.4-0.4v-1c0-0.2,0.2-0.4,0.4-0.4s0.4,0.2,0.4,0.4v1C15.6,7.5,15.5,7.6,15.3,7.6z"/>
	<path class="st0" d="M15.3,15.4c-0.2,0-0.4-0.2-0.4-0.4v-1.9c0-0.2,0.2-0.4,0.4-0.4s0.4,0.2,0.4,0.4V15
		C15.6,15.2,15.5,15.4,15.3,15.4z M15.3,11.5c-0.2,0-0.4-0.2-0.4-0.4V9.2c0-0.2,0.2-0.4,0.4-0.4s0.4,0.2,0.4,0.4v1.9
		C15.6,11.3,15.5,11.5,15.3,11.5z"/>
	<path class="st0" d="M15.3,18.3c-0.2,0-0.4-0.2-0.4-0.4v-1c0-0.2,0.2-0.4,0.4-0.4s0.4,0.2,0.4,0.4v1C15.6,18.1,15.5,18.3,15.3,18.3
		z"/>
</g>
<g>
	<path class="st0" d="M10.9,14.2c0-0.1,0-0.2,0.1-0.4c0,0,0-0.1,0-0.1C10,12.8,9.1,11.9,8.2,11c0,0-0.1,0-0.1,0
		c-0.8,0.2-1.6-0.3-1.7-1.1c0-0.1,0-0.2,0-0.2c0-0.1,0-0.2,0.1-0.2c0.1,0,0.2,0,0.2,0C6.9,9.7,7,9.8,7.2,9.9
		c0.2,0.2,0.5,0.2,0.8,0.1C8.2,9.8,8.2,9.4,8,9.1C7.9,9,7.7,8.8,7.6,8.7c-0.1-0.1-0.1-0.1,0-0.2c0-0.1,0.1-0.1,0.2-0.1
		c0.1,0,0.2,0,0.3,0C8.8,8.5,9.2,9.3,9,10c0,0,0,0.1,0,0.1c0.9,0.9,1.8,1.8,2.7,2.7c0,0,0.1,0,0.1,0c0.9-0.2,1.7,0.4,1.7,1.3
		c0,0.1,0,0.2-0.1,0.2c-0.1,0-0.2,0-0.2-0.1c-0.1-0.1-0.3-0.3-0.4-0.4c-0.3-0.3-0.9-0.2-1,0.3c-0.1,0.2,0,0.4,0.2,0.6
		c0.1,0.1,0.3,0.3,0.4,0.4c0.1,0.1,0.1,0.1,0.1,0.2c0,0.1-0.1,0.1-0.2,0.1C11.5,15.6,10.9,15,10.9,14.2z"/>
	<path class="st0" d="M9.9,13.1c0,0-0.1,0-0.1,0c-0.2,0-0.3,0.3-0.2,0.4c0,0.1,0,0.1,0,0.2c-0.5,0.5-1,1-1.5,1.5
		c-0.5,0.5-1.4,0.3-1.6-0.4c-0.1-0.3,0-0.7,0.2-0.9c0.5-0.5,1-1,1.5-1.5c0,0,0.1-0.1,0.1,0c0.2,0.1,0.5,0,0.5-0.3c0,0,0,0,0,0
		C9.2,12.4,9.5,12.8,9.9,13.1z"/>
	<path class="st0" d="M10.9,11.5c-0.2-0.2-0.3-0.3-0.5-0.5c0,0,0,0,0.1,0c0.5-0.5,1-1,1.5-1.5c0,0,0-0.1,0.1-0.1
		c0-0.1,0-0.2,0.1-0.2c0,0,0-0.1,0.1-0.1c0.4-0.2,0.7-0.5,1.1-0.7c0,0,0.1,0,0.1,0c0.1,0.1,0.1,0.1,0.2,0.2c0,0,0,0.1,0,0.1
		c-0.2,0.4-0.5,0.7-0.7,1.1c0,0-0.1,0-0.1,0.1c0,0-0.1,0-0.1,0c-0.1,0-0.3,0.1-0.4,0.2C11.9,10.5,11.4,11,10.9,11.5
		C10.9,11.5,10.9,11.5,10.9,11.5z"/>
</g>
</svg>
