<svg xmlns="http://www.w3.org/2000/svg" width="24" height="24" viewBox="0 0 24 24">
    <g fill="none" fill-rule="evenodd">
        <path fill="#D5232B" d="M0 18.82h5.574V5H0zM18.118 18.82h5.574V5h-5.574z"/>
        <path fill="#FFFFFE" d="M5.573 18.82h12.544V5H5.573z"/>
        <path fill="#D5232B" d="M11.845 6.792l-.822 1.596c-.093.174-.26.156-.428.06L10 8.126l.444 2.455c.093.448-.206.448-.353.255L9.052 9.624l-.168.614a.2.2 0 0 1-.233.146l-1.313-.289.344 1.307c.076.291.131.412-.074.488l-.468.229 2.26 1.913a.315.315 0 0 1 .103.32l-.198.677 2.253-.272c.069 0 .184.061.184.144l-.103 2.477h.379l-.061-2.472c0-.08.105-.15.172-.15.78.095 1.477.18 2.255.273l-.2-.677a.322.322 0 0 1 .104-.32l2.26-1.913-.467-.229c-.206-.076-.149-.197-.075-.488l.346-1.307-1.314.289a.2.2 0 0 1-.233-.146l-.168-.614-1.039 1.212c-.147.193-.446.193-.353-.255l.443-2.455-.594.322c-.168.096-.335.114-.427-.06l-.822-1.596"/>
    </g>
</svg>
