<svg xmlns="http://www.w3.org/2000/svg" xmlns:xlink="http://www.w3.org/1999/xlink" width="40" height="40" viewBox="0 0 40 40">
    <defs>
        <circle id="a" cx="20" cy="20" r="20"/>
    </defs>
    <g fill="none" fill-rule="evenodd">
        <mask id="b" fill="#fff">
            <use xlink:href="#a"/>
        </mask>
        <use fill="#FFF" xlink:href="#a"/>
        <g mask="url(#b)">
            <path fill="#D5232B" d="M-10 37.051H3.934V2.5H-10zM35.295 37.051h13.934V2.5H35.295z"/>
            <path fill="#FFFFFE" d="M3.932 37.051h31.36V2.5H3.933z"/>
            <path fill="#D5232B" d="M19.614 6.98l-2.056 3.99c-.233.435-.65.39-1.07.15l-1.487-.804 1.11 6.136c.233 1.12-.516 1.12-.885.637l-2.595-3.028-.422 1.535a.5.5 0 0 1-.583.363l-3.282-.721.861 3.266c.19.729.329 1.03-.185 1.221l-1.17.572 5.652 4.782c.22.184.337.505.254.802l-.494 1.692c1.945-.233 3.692-.447 5.633-.681.171 0 .46.153.46.36l-.259 6.194h.948l-.152-6.18c0-.203.263-.374.43-.374 1.95.234 3.693.448 5.64.68l-.5-1.691a.805.805 0 0 1 .26-.802l5.65-4.782-1.17-.572c-.516-.19-.37-.492-.187-1.22l.864-3.267-3.284.721a.5.5 0 0 1-.582-.363l-.42-1.535-2.598 3.028c-.369.483-1.115.483-.882-.637l1.106-6.136-1.484.805c-.42.24-.838.284-1.067-.15l-2.054-3.99"/>
        </g>
    </g>
</svg>
