<svg xmlns="http://www.w3.org/2000/svg" xmlns:xlink="http://www.w3.org/1999/xlink" width="40" height="40" viewBox="0 0 40 40">
    <defs>
        <circle id="a" cx="20" cy="20" r="20"/>
    </defs>
    <g fill="none" fill-rule="evenodd">
        <mask id="b" fill="#fff">
            <use xlink:href="#a"/>
        </mask>
        <use fill="#FFF" xlink:href="#a"/>
        <g mask="url(#b)">
            <path fill="#FFFFFE" d="M-20 42.733h78.972V-3.333H-20z"/>
            <path fill="#E58E44" d="M-20 12.024h78.972V-3.333H-20z"/>
            <path fill="#3B823F" d="M-20 42.733h78.972V27.382H-20z"/>
            <path fill="#27245C" d="M19.48 13.467l-.174 3.475.188 1.976.177-1.976-.177-3.475c.184 0 .36.01.534.028 0 .01-.01.01-.01.019 0 .164.13.303.286.303.148 0 .265-.12.28-.259.174.038.34.066.51.12l-1.066 3.309-.34 1.957.688-1.873.737-3.393c.165.057.33.102.496.165-.009.028-.023.066-.023.101 0 .158.13.287.29.287.11 0 .22-.075.26-.176.158.075.309.158.466.25l-1.89 2.903-.837 1.821 1.156-1.628 1.585-3.087c.142.082.29.174.436.266a.28.28 0 0 0-.064.183c0 .158.127.285.29.285a.244.244 0 0 0 .223-.12c.139.12.268.24.388.36l-2.574 2.325-1.273 1.534 1.53-1.269 2.33-2.58c.12.126.24.246.35.385a.276.276 0 0 0-.101.219c0 .158.129.287.28.287.068 0 .12-.019.169-.056.106.148.198.294.28.442l-3.087 1.581-1.626 1.158 1.805-.829 2.917-1.9c.097.164.177.338.255.486a.313.313 0 0 0-.175.276c0 .155.127.284.28.284.045 0 .078-.009.111-.028.054.165.104.322.146.487l-3.395.718-1.862.69 1.958-.333 3.308-1.056c.043.146.083.332.116.496a.278.278 0 0 0-.25.285c0 .155.134.285.29.285h.028c.019.165.019.35.019.515l-3.466-.165-1.986.175 1.986.193 3.466-.184c0 .184 0 .358-.02.522h-.027a.298.298 0 0 0-.29.285c0 .148.106.259.245.287a7.903 7.903 0 0 1-.11.504l-1.182-.377-2.127-.69-1.958-.329h.01-.01l1.862.69 3.395.724a3.368 3.368 0 0 1-.155.488c-.01 0-.029-.01-.038-.01h-.064a.28.28 0 0 0-.263.395.212.212 0 0 0 .08.111c.007 0 .012.01.021.01.01.009.019.018.028.018.005 0 .014.01.02.02-.074.154-.159.31-.246.458l-2.913-1.885h-.004l-1.805-.826h.007l.948.661.67.478 3.088 1.581c-.092.156-.184.313-.285.45a.344.344 0 0 0-.164-.045c-.16 0-.285.12-.285.275 0 .092.038.174.106.221-.116.128-.23.257-.35.377l-2.33-2.574-1.525-1.268 1.268 1.534 2.574 2.327a3.92 3.92 0 0 1-.374.339.27.27 0 0 0-.179-.064.292.292 0 0 0-.284.285c0 .054.01.092.023.13-.153.091-.308.192-.459.293l-1.585-3.09-1.156-1.634.833 1.809 1.89 2.925c-.153.082-.304.164-.462.237a.265.265 0 0 0-.256-.174c-.16 0-.29.137-.29.285 0 .038.01.073.02.11-.168.055-.328.111-.497.146l-.737-3.4-.689-1.847v-.009l.341 1.958 1.066 3.308c-.17.047-.339.092-.51.11a.292.292 0 0 0-.28-.237.278.278 0 0 0-.285.275v.035a4.867 4.867 0 0 1-.525.029l.177-3.466-.186-1.984-.18 1.984.175 3.466c-.184 0-.353-.01-.532-.029v-.035a.285.285 0 0 0-.29-.275.292.292 0 0 0-.28.237 4.124 4.124 0 0 1-.496-.11l1.066-3.308.332-1.949-.69 1.847-.726 3.4c-.165-.035-.332-.091-.502-.145a.311.311 0 0 0 .024-.111.291.291 0 0 0-.28-.285.31.31 0 0 0-.273.174c-.15-.073-.306-.155-.459-.237l1.89-2.925.825-1.81-1.148 1.626-1.581 3.1c-.15-.102-.304-.194-.445-.295a.236.236 0 0 0 .054-.157.287.287 0 0 0-.28-.295.273.273 0 0 0-.22.111c-.137-.12-.267-.221-.387-.348l2.584-2.327 1.268-1.534-1.53 1.268-2.331 2.574c-.127-.12-.242-.259-.358-.377a.314.314 0 0 0 .11-.23.28.28 0 0 0-.284-.275.348.348 0 0 0-.17.044 4.543 4.543 0 0 1-.282-.44l3.1-1.59 1.611-1.13-1.805.826-2.913 1.885c-.09-.148-.157-.294-.235-.459a.27.27 0 0 0 .184-.259.287.287 0 0 0-.41-.266 9.23 9.23 0 0 1-.16-.506l3.4-.724 1.87-.69-1.966.33-3.309 1.066c-.047-.165-.077-.33-.115-.513a.276.276 0 0 0 .25-.278.288.288 0 0 0-.287-.285h-.031c-.01-.164-.024-.338-.024-.522l3.471.184 1.979-.193-1.979-.175-3.47.165c0-.165.014-.35.023-.515h.05a.28.28 0 0 0 .284-.285c0-.155-.113-.266-.266-.285.038-.164.068-.35.115-.496l3.309 1.056 1.967.332-1.87-.69-3.4-.726c.049-.174.105-.339.16-.497a.4.4 0 0 0 .105.02c.162 0 .285-.13.285-.286a.271.271 0 0 0-.17-.256c.073-.167.15-.322.24-.478l2.913 1.901 1.814.829-1.62-1.158-3.1-1.581c.09-.148.186-.294.287-.452.04.047.109.066.17.066a.29.29 0 0 0 .285-.287.356.356 0 0 0-.106-.228c.106-.13.22-.25.343-.377l2.332 2.581 1.534 1.269-1.268-1.534-2.584-2.325c.13-.12.254-.24.386-.35.047.065.13.11.221.11.163 0 .29-.127.29-.294a.358.358 0 0 0-.059-.174c.146-.083.29-.184.44-.266l1.581 3.087 1.148 1.619-.825-1.812-1.89-2.904c.153-.091.304-.174.457-.25a.285.285 0 0 0 .55-.09.414.414 0 0 0-.019-.12c.16-.064.337-.11.502-.166l.734 3.393.69 1.873-.335-1.957-1.066-3.309c.165-.054.33-.082.506-.12.016.14.136.25.28.25.16 0 .29-.13.29-.294v-.029c.169-.018.343-.018.517-.018m.005-.67a6.908 6.908 0 0 0-6.91 6.903 6.914 6.914 0 0 0 6.91 6.91 6.914 6.914 0 0 0 6.913-6.91 6.911 6.911 0 0 0-6.913-6.904"/>
        </g>
    </g>
</svg>
