<svg xmlns="http://www.w3.org/2000/svg" width="120" height="65" viewBox="0 0 120 65">
    <g fill="none" fill-rule="evenodd">
        <path fill="#FFF" d="M0 0h120v65H0z"/>
        <g fill-rule="nonzero">
            <path fill="#00A664" d="M10 22h20.862v20.862H10z"/>
            <path fill="#FFF" d="M27.88 28.141v8.609l-7.451 4.291-7.449-4.291v-8.609l7.451-4.291 7.449 4.291zm-7.449-3.546l-6.783 3.931v7.836l6.783 3.931 6.783-3.931v-7.836l-6.783-3.931zm-.925 3.777l-1.053.617v1.233l1.053.617.668-.385-.411-.257v-1.234l.411-.231-.668-.36zm1.593.308v1.542l2.672 1.542v1.85l-1.747.976-.925-.54v2l-1.593.9h1.336l1.593-.925v-1.384h.8l1.876-1.079v-1.85l-2.676-1.542v-1.541l-1.593-.925h-1.336l1.593.976zm-1.336 2.595v1.387l2.261 1.31.668-.385-1.593-.925v-1.387l.411-.231-.668-.385-1.079.617v-.001zm-3.983.775v1.387l1.053.617.668-.385-.411-.231V32.05l1.721-1-.668-.385-2.363 1.385zm2.646 1.7v.617l1.593-.925-.514-.308-1.079.617v-.001zm0 1.234v.766l2.132-1.233v-.771l-2.132 1.233v.005zm.54 1.074l.54.308 1.053-.617v-.617l-1.593.925v.001zm-1.053-2.001l-1.053.617h1.053v-.617z"/>
            <path fill="#00A664" d="M39.163 37.159c-.026-1.439-.026-2.852-.026-4.188 0-1.876.026-3.648.077-5.293.514-.026.9-.026 1.13-.026 3.083 0 4.419 1.31 4.419 4.676 0 3.289-1.49 4.933-4.445 4.933a10.628 10.628 0 0 1-1.156-.1l.001-.002zm-2.7 1.027c.36-.026.771-.026 1.208-.026.771 0 1.721.051 2.877.051 4.6 0 6.937-2.03 6.937-6.038a5.446 5.446 0 0 0-1.876-4.419c-1.1-.874-2.492-1.053-4.368-1.053-1.208 0-2.338.077-3.443.077-.411 0-.848-.026-1.31-.051a40.9 40.9 0 0 1 .18 4.83v2.389a41.826 41.826 0 0 1-.205 4.24zM50.798 33.382v-.154c0-1.7.591-2.569 1.542-2.569.848 0 1.31.771 1.31 2.312 0 .1-.026.231-.026.411h-2.826zm0 .822h5.134c.021-.18.03-.36.026-.54 0-2.415-1.285-3.725-3.6-3.725a3.85 3.85 0 0 0-4.034 4.111c0 2.7 1.567 4.342 4.188 4.342a4.678 4.678 0 0 0 2.775-.771l.36-.951-.18-.128a3.355 3.355 0 0 1-2.158.8c-1.483-.003-2.511-1.16-2.511-3.138zM57.505 35.899a2.271 2.271 0 0 0 2.184 1.721c.8 0 1.259-.411 1.259-1.13 0-.745-.719-.976-1.953-1.49-1.362-.565-2.03-1.13-2.03-2.312 0-1.619 1.182-2.723 3.083-2.723a4.475 4.475 0 0 1 2.415.694 6.074 6.074 0 0 0-.488 1.593h-.18a2.233 2.233 0 0 0-1.978-1.542 1.1 1.1 0 0 0-1.208 1.053c0 .668.488.874 1.439 1.233 1.773.694 2.749 1.079 2.749 2.569 0 1.7-1.259 2.852-3.211 2.852a4.25 4.25 0 0 1-2.518-.668c.051-.334.128-.951.231-1.876h.206v.026zM65.366 30.222c.404 0 .807-.026 1.208-.077a36.173 36.173 0 0 0-.077 2.158c0 4.111.077 5.781.077 6.166 0 2.492-1.156 3.623-3.879 3.7l-.18-.514c1.747-.1 1.85-1.336 1.85-4.342 0-4.162-.077-6.166-.18-7.168.392.05.787.076 1.182.077h-.001zm.101-3.7a1.376 1.376 0 0 1 1.362 1.387 1.354 1.354 0 0 1-1.362 1.362 1.375 1.375 0 1 1 0-2.749zM72.384 33.767v1.953c0 1.053-.437 1.567-1.156 1.567-.694 0-1.053-.488-1.053-1.439 0-1.208.694-1.773 2.21-2.081h-.001zm.078 3.366c.105.741.77 1.271 1.516 1.208a5.309 5.309 0 0 0 1.773-.36v-.412H75.7c-1 0-1.1-.411-1.1-1.619v-.311l.051-2.929v-.071c0-1.721-1.1-2.7-3.134-2.7a4.414 4.414 0 0 0-3.006 1.285c.147.35.267.71.36 1.079a2.171 2.171 0 0 1 1.9-1.285 1.532 1.532 0 0 1 1.593 1.67c.003.095-.006.19-.026.283-.846.441-1.744.777-2.672 1-1.208.411-1.773 1.053-1.773 2.132a2.134 2.134 0 0 0 2.287 2.338 2.7 2.7 0 0 0 2.277-1.308h.005zM76.644 34.152c0-1.567-.026-2.9-.128-4.034a8.839 8.839 0 0 0 2.338 0 38.113 38.113 0 0 0-.077 2.158h.077c.411-1.542 1.31-2.364 2.595-2.364h.077a6.39 6.39 0 0 0-.1 1.208c-.005.422.028.843.1 1.259a3.24 3.24 0 0 0-1.1-.257c-1.156 0-1.593.771-1.593 2.389 0 1.49.077 2.7.154 3.648a9.9 9.9 0 0 0-2.466 0c.095-1.155.123-2.517.123-4.007zM86.227 30.992c1.053 0 1.567 1.079 1.567 3.263 0 2.055-.591 3.109-1.644 3.109-1.156 0-1.619-.976-1.619-3.006.026-2.287.488-3.366 1.7-3.366h-.004zm1.597 7.194a6.389 6.389 0 0 1 1.208-.1c.396-.005.792.028 1.182.1-.103-1.567-.154-3.648-.154-6.243 0-2.389.026-3.494.154-5.4a10.672 10.672 0 0 1-2.523.004c.077 1.13.077 1.233.077 2.364v2.081a2.637 2.637 0 0 0-2.235-1.079c-2.107 0-3.443 1.567-3.443 4.316 0 2.775 1.13 4.162 3.34 4.162a2.477 2.477 0 0 0 2.415-1.362c.001.411.001.797-.025 1.156l.004.001zM92.059 34.178c0-1.439-.051-2.775-.128-4.034a10.349 10.349 0 0 0 2.518 0 65.625 65.625 0 0 0-.128 4.034c0 1.31.051 2.646.128 4.008a10.349 10.349 0 0 0-2.518 0c.077-1.362.128-2.7.128-4.008zm1.182-7.708a1.272 1.272 0 1 1-1.285 1.285c.01-.705.58-1.274 1.285-1.285zM96.35 34.177c0-1.439-.051-2.775-.128-4.034.383.051.77.077 1.156.077a8.08 8.08 0 0 0 1.13-.077v1.182a3.15 3.15 0 0 1 2.595-1.361 2.625 2.625 0 0 1 2 .822c.464.733.647 1.609.514 2.466 0 .462-.026 1.156-.026 2.107-.01.952.034 1.904.128 2.852a10.349 10.349 0 0 0-2.518 0c.077-.9.128-2.209.128-3.905 0-1.978-.128-2.877-1.362-2.877-1.1 0-1.439.9-1.439 2.775 0 .951.026 2.287.128 4.034a9.9 9.9 0 0 0-2.466 0c.106-1.414.16-2.75.16-4.061zM105.728 35.899a2.271 2.271 0 0 0 2.184 1.721c.8 0 1.259-.411 1.259-1.13 0-.745-.719-.976-1.978-1.49-1.362-.565-2.03-1.13-2.03-2.312 0-1.619 1.182-2.723 3.083-2.723a4.475 4.475 0 0 1 2.415.694 6.075 6.075 0 0 0-.488 1.593h-.18a2.233 2.233 0 0 0-1.978-1.542 1.1 1.1 0 0 0-1.208 1.053c0 .668.488.874 1.439 1.233 1.773.694 2.749 1.079 2.749 2.569 0 1.7-1.259 2.852-3.211 2.852a4.251 4.251 0 0 1-2.518-.668c.051-.334.128-.951.206-1.876h.257l-.001.026z"/>
        </g>
    </g>
</svg>
