<svg xmlns="http://www.w3.org/2000/svg" width="24" height="24" viewBox="0 0 24 24">
    <g fill="none" fill-rule="evenodd">
        <path fill="#A4B3B8" fill-rule="nonzero" d="M5.039 7.92A4.088 4.088 0 0 0 .959 12a4.088 4.088 0 0 0 4.08 4.08h4.8c2.151 0 3.925-1.67 4.074-3.787a.722.722 0 1 0-1.44-.098A2.616 2.616 0 0 1 9.84 14.64H5.039A2.619 2.619 0 0 1 2.399 12a2.619 2.619 0 0 1 2.64-2.64h4.8a.72.72 0 1 0 0-1.44h-4.8zm9.121 0a4.085 4.085 0 0 0-4.073 3.787.722.722 0 0 0 1.44.098A2.616 2.616 0 0 1 14.16 9.36h4.801a2.619 2.619 0 0 1 2.64 2.64 2.619 2.619 0 0 1-2.64 2.64h-4.8a.72.72 0 1 0 0 1.44h4.8a4.088 4.088 0 0 0 4.08-4.08 4.088 4.088 0 0 0-4.08-4.08h-4.8z"/>
    </g>
</svg>
