<svg xmlns="http://www.w3.org/2000/svg" width="40" height="40" viewBox="0 0 40 40">
    <g fill="none" fill-rule="evenodd">
        <path d="M0 0h40v40H0z"/>
        <path fill="#595959" d="M7.085 16.039c0-.801.648-1.45 1.46-1.45.805 0 1.458.662 1.458 1.45v12.515c0 .801-.647 1.45-1.459 1.45-.806 0-1.459-.662-1.459-1.45V16.04zm5.873-5.589c0-.8.648-1.45 1.46-1.45.805 0 1.458.662 1.458 1.45v12.516c0 .8-.647 1.45-1.459 1.45-.806 0-1.459-.662-1.459-1.45V10.45zm5.873 5.589c0-.801.648-1.45 1.46-1.45.805 0 1.459.662 1.459 1.45v12.515c0 .801-.648 1.45-1.46 1.45-.805 0-1.459-.662-1.459-1.45V16.04zm11.236 0c0-.801.647-1.45 1.459-1.45.806 0 1.46.662 1.46 1.45v12.515c0 .801-.649 1.45-1.46 1.45-.806 0-1.46-.662-1.46-1.45V16.04zm-5.618-5.589c0-.8.648-1.45 1.46-1.45.805 0 1.458.662 1.458 1.45v12.516c0 .8-.647 1.45-1.459 1.45-.806 0-1.459-.662-1.459-1.45V10.45z"/>
    </g>
</svg>
