<svg xmlns="http://www.w3.org/2000/svg" width="40" height="40" viewBox="0 0 40 40">
    <g fill="none" fill-rule="evenodd">
        <path d="M0 0h40v40H0z"/>
        <path stroke="#595959" stroke-width="2" d="M20 35c-8.27 0-15-6.73-15-15S11.73 5 20 5s15 6.73 15 15-6.73 15-15 15z"/>
        <path fill="#595959" d="M21.467 19.13h-2.934c-.81 0-1.468-.681-1.468-1.521 0-.84.658-1.522 1.468-1.522h2.934c.52 0 .99.286 1.26.765.272.486.764.757 1.269.757.25 0 .504-.067.736-.207.702-.422.938-1.355.53-2.08-.8-1.426-2.219-2.279-3.795-2.279 0-.841-.656-1.521-1.467-1.521s-1.467.68-1.467 1.521c-2.427 0-4.403 2.049-4.403 4.566s1.976 4.565 4.403 4.565h2.934c.81 0 1.468.682 1.468 1.522s-.658 1.521-1.468 1.521h-2.934c-.52 0-.99-.286-1.26-.765-.406-.727-1.307-.974-2.005-.55-.702.422-.938 1.355-.53 2.08.8 1.427 2.219 2.279 3.795 2.279 0 .841.656 1.522 1.467 1.522s1.467-.68 1.467-1.522c2.427 0 4.403-2.048 4.403-4.565 0-2.517-1.976-4.566-4.403-4.566z"/>
    </g>
</svg>
