<svg xmlns="http://www.w3.org/2000/svg" width="26" height="30" viewBox="0 0 26 30">
    <path fill="none" fill-rule="evenodd" stroke="#2D4088" d="M12.825 6.707a3.78 3.78 0 0 1-.424.011l.476.41a3.738 3.738 0 0 1-.052-.42zM17.987.561c.164-.03.326-.051.484-.062l-.53-.426c.024.161.04.324.046.488zm-5.162 6.146c-.089-1.307.474-2.75 1.438-3.922C15.165 1.683 16.65.81 17.987.561c.056 1.373-.474 2.81-1.398 4.003-.919 1.19-2.383 2.031-3.764 2.143zm12.133 15.565c-4.943-2.295-5.57-9.284-.963-12.33-1.395-1.529-3.23-2.42-4.97-2.42-1.068 0-1.836.18-2.981.612-.453.173-.682.26-.91.338-.662.226-1.208.338-1.807.338-.662 0-1.28-.127-2.063-.386-.216-.071-.184-.06-.815-.285-1.243-.445-1.934-.613-2.84-.613-2.154 0-4.417 1.348-5.843 3.556C-.392 14.43.21 20.601 3.483 25.613c1.674 2.568 3.09 3.872 4.72 3.887.599.006 1.04-.108 1.695-.394.095-.041.435-.194.443-.197 1.053-.467 1.828-.671 3.01-.678 1.199-.007 1.97.197 3.021.677l.403.185c.652.293 1.082.408 1.68.402 1.6-.013 3.04-1.401 4.814-4.12.733-1.125 1.06-1.721 1.69-3.103z"/>
</svg>
