<svg xmlns="http://www.w3.org/2000/svg" width="28" height="29" viewBox="0 0 28 29">
    <g fill="none" fill-rule="evenodd">
        <path fill="#FFC20E" d="M14.93 9.934h-2.643c-.734 0-1.412.391-1.779 1.027L9.187 13.25a2.062 2.062 0 0 0 0 2.053l1.321 2.288a2.056 2.056 0 0 0 1.779 1.027h2.643c.734 0 1.411-.392 1.778-1.029l1.321-2.287a2.055 2.055 0 0 0 0-2.052l-1.32-2.288a2.053 2.053 0 0 0-1.779-1.027"/>
        <path fill="#7AAFDE" d="M7.734 13.836l2.577-4.463-2.577-4.466H2.578L0 9.373l2.578 4.463h5.156M7.734 14.617H2.578L0 19.084l2.578 4.464h5.156l2.577-4.464-2.577-4.467M19.435 13.836h5.157l2.576-4.463-2.576-4.466h-5.157l-2.577 4.466 2.577 4.463M24.638 14.617h-5.156l-2.577 4.467 2.577 4.464h5.156l2.577-4.464-2.577-4.467M16.175 8.976l2.577-4.465L16.175.045h-5.156L8.442 4.511l2.577 4.465h5.156M11.02 19.575l-2.578 4.464 2.577 4.466h5.156l2.577-4.466-2.577-4.464h-5.156"/>
    </g>
</svg>
