<svg xmlns="http://www.w3.org/2000/svg" width="20" height="20" viewBox="0 0 20 20">
    <g fill="none" fill-rule="evenodd">
        <circle cx="10" cy="10" r="10" fill="#A4B3B8"/>
        <path fill="#FFF" fill-rule="nonzero" d="M7.188 16.09c-.767 0-1.508-.328-2.177-.989-1.446-1.428-1.335-3.243.295-4.855l6.616-6.516c.13-.13.619-.565 1.359-.696.508-.089 1.264-.048 1.976.656.73.72.794 1.44.719 1.917-.108.685-.543 1.178-.725 1.357L8.607 13.51c-.187.185-.627.62-1.232.62-.37 0-.72-.16-1.039-.476-.225-.222-.873-1.034.25-2.144l6.611-6.535.628.62-6.611 6.534c-.583.577-.35.808-.25.906.147.145.285.219.411.219.237 0 .485-.245.605-.363l6.644-6.546c.12-.119.408-.442.475-.872.064-.402-.094-.794-.469-1.163-.355-.351-.755-.49-1.194-.413a1.79 1.79 0 0 0-.887.453l-6.616 6.516c-.901.891-1.685 2.243-.295 3.616 1.36 1.342 2.72.562 3.622-.328l5.73-5.686.629.618-5.731 5.687c-.889.877-1.812 1.318-2.7 1.318z"/>
    </g>
</svg>
