<svg xmlns="http://www.w3.org/2000/svg" width="20" height="20" viewBox="0 0 20 20">
    <path fill="/*%BLACK%*/ #1e1f21" fill-rule="evenodd" d="M17.07 1.904c-1.182 0-2.402.505-3.438.998l-.19.091.191.087a8.043 8.043 0 0 1 4.1 4.209l.08.19.099-.182c.072-.133.141-.267.21-.403.449-.89.721-1.635.857-2.342.175-.914.084-1.583-.279-2.045-.246-.315-.652-.515-1.173-.576a3.922 3.922 0 0 0-.457-.027zm-.143 5.535c.01.013.023.048.032.073l.017.045c.013.03.03.053.044.07l.17-.098-.024-.056a5.39 5.39 0 0 0-.099-.228c-.13-.278-.28-.55-.443-.81-1.359-2.158-3.793-3.498-6.354-3.498-.455 0-.928.046-1.406.136l-.244.046.21.133c.238.151.474.306.702.46l.082.06c.057.043.116.087.18.121.11.057.209.066.313.074l.048.005c.364.033.661.084.923.157l-.065.087c-.013.019-.033.04-.054.064-.061.068-.13.146-.15.225l-.046.073.07.068c.005.004.013.01.028.026.057.063.129.112.197.16l.092.066a35.128 35.128 0 0 1 2.578 2.248l.065.068c.07.077.15.165.247.2.118.043.263.049.392.055.057.002.112.004.161.01.212.023.43.047.658.047.073 0 .147-.002.223-.008l1.055-.075c.04-.003.083-.008.127-.014.059-.007.12-.015.177-.015a.412.412 0 0 1 .081.006l.013.02zM2.892 1.564c-.45 0-.839.09-1.153.27-.573.325-.731.918-.764 1.358-.052.719.157 1.44.32 1.92.26.771.648 1.585 1.187 2.489l.106.176.072-.192A8.134 8.134 0 0 1 6.978 3.04l.187-.082-.18-.095c-1.018-.533-1.883-.882-2.721-1.096-.343-.087-.858-.203-1.372-.203zm.546 5.71a7.347 7.347 0 0 0-.65 2.28c-.401 3.5 1.756 6.839 5.128 7.94l.044.014.04-.025c2.122-1.322 4.19-3.048 6.146-5.128l.203-.216-.84.15-.139-1.43-.682.362c-.02.011-.048.03-.078.05-.038.024-.115.075-.142.078-.008-.004-.048-.04-.07-.058l-.045-.039c-.197-.15-.378-.34-.552-.523-.077-.08-.153-.16-.23-.236l-.126-.125-.14.598c-.01.043-.027.093-.045.146-.042.128-.09.274-.078.396.011.107.107.19.184.257.02.018.04.035.056.051l.258.258-1.9 1.832c-.04.04-.083.087-.127.137-.083.093-.177.199-.265.248-.027.015-.085.02-.132.024-.026.003-.05.005-.073.009l-.307.048-.003-1.016c0-.173.05-.353.1-.527.019-.064.037-.128.052-.192l.28-1.127a.933.933 0 0 1 .014-.048c.029-.093.013-.14-.069-.207-.106-.086-.246-.142-.38-.197-.06-.024-.116-.047-.167-.072-.023-.011-.05-.022-.08-.034-.043-.017-.135-.054-.148-.08-.01-.022-.012-.09-.012-.131l-.004-.083-.034-.315-.008-.063c-.01-.065-.014-.1.004-.132.037-.068.122-.144.196-.212.04-.036.08-.072.112-.105l.445-.464c.022-.024.05-.057.078-.093.045-.057.12-.151.16-.168h.003c.06 0 .135.02.195.037.038.01.07.02.096.024.037.007.086.011.14.016.093.008.233.021.28.053.052.037.104.136.15.224.033.064.064.125.1.173.078.105.143.119.242.134l.052.008 1.247.218-.763-.988c-.026-.033-.05-.066-.074-.099-.095-.129-.192-.262-.34-.358l-.458-.3a1.318 1.318 0 0 0-.099-.056 1.241 1.241 0 0 1-.193-.116c.005-.05.03-.164.047-.212.033-.006.124-.007.165-.008.037 0 .068 0 .087-.003l.976-.108-.1-.609a1.006 1.006 0 0 0-.02-.087.365.365 0 0 1-.018-.12c.017-.011.082-.026.12-.036a.99.99 0 0 0 .08-.02l.907-.301-.13-.113a32.878 32.878 0 0 0-1.63-1.343l-.08-.061-.06.08c-.015.02-.028.04-.041.06-.047.068-.077.108-.128.129-.09.036-.192.06-.292.082a4.328 4.328 0 0 0-.156.038l-.773.209L8.9 4.285l.003-.057c.004-.072.009-.153-.02-.214-.042-.093-.162-.154-.267-.208-.034-.017-.065-.033-.088-.047a2.25 2.25 0 0 1-.101-.072c-.181-.13-.329-.23-.443-.23h-.011l-.03.004c-.09.021-.181.1-.261.171-.028.024-.053.047-.075.063-.234.173-.466.352-.698.53l-.317.244c-.021.017-.044.032-.066.047-.11.077-.25.172-.234.364.013.169.042.338.07.501.013.08.027.16.038.24a.76.76 0 0 1 .005.042c.008.09.022.24.148.293.024.01.05.016.077.016.092 0 .17-.06.228-.105l.032-.024.437-.303.286 1.01.014.037.024.068c-.057.017-.2.05-.258.063a1.55 1.55 0 0 0-.099.024l-1.577.51a.445.445 0 0 1-.12.03.505.505 0 0 1-.133-.034 5.541 5.541 0 0 1-.232-.085c-.168-.064-.341-.13-.515-.16a.265.265 0 0 0-.044-.004c-.186 0-.336.189-.457.34-.03.039-.058.073-.082.1-.163.173-.107.355-.056.516l.03.102.067.26c-.143-.156-.29-.317-.425-.48-.056-.069-.076-.147-.102-.245l-.02-.079c-.03-.103-.03-.109-.009-.161l-.181-.078zm11.152 5.47c-1.779 1.897-3.683 3.522-5.66 4.831l-.205.136.243.042a7.593 7.593 0 0 0 2.411.027c2.527-.382 4.734-2.056 5.76-4.37.062-.137.12-.282.175-.43.008-.023.023-.056.04-.092.071-.161.125-.292.107-.388-.017-.09-.092-.184-.16-.266l-.057-.075c-.07-.103-.141-.205-.213-.307l-.086-.122-.082.063c-.561.434-1.112.899-1.645 1.348l-.419.354-.05-.92-.159.17zM2.514 20.12c-.772 0-1.379-.204-1.807-.607l.199-.188a1.32 1.32 0 0 0 .068-.074c.035-.04.11-.127.156-.164.022.018.052.045.07.063.031.028.06.054.078.067.111.076.237.14.374.19.22.078.467.123.753.135.053.002.105.003.158.003.437 0 .905-.07 1.473-.223.955-.255 1.937-.675 3.091-1.321l.176-.099-.186-.077a8.09 8.09 0 0 1-4.51-4.767l-.051-.145a7.977 7.977 0 0 1-.187-4.373l-.092-.142c-.217-.341-.419-.68-.6-1.005C1.121 6.39.472 5.062.383 3.679c-.032-.503.002-1.736 1.008-2.325C1.8 1.116 2.278 1 2.854 1c.14 0 .284.006.442.02.423.035.743.085 1.07.166.252.063.49.146.742.234.127.044.255.09.386.132.728.236 1.447.61 2.116.977.02.011.042.025.063.04.048.03.102.066.159.084a.34.34 0 0 0 .109.018.64.64 0 0 0 .187-.037l.062-.018a8.063 8.063 0 0 1 1.855-.265l.222-.003c.77 0 1.535.11 2.275.326a.4.4 0 0 0 .114.018c.088 0 .151-.035.219-.072l.054-.029c.101-.051.203-.103.305-.153.186-.09.374-.178.564-.262a13.02 13.02 0 0 1 1.068-.42c.892-.304 1.607-.446 2.25-.446.406 0 .782.06 1.117.18a2.06 2.06 0 0 1 1.034.794c.334.499.451 1.17.35 1.994-.078.64-.276 1.32-.622 2.14a12.09 12.09 0 0 1-.375.801c-.1.196-.203.39-.311.583-.018.033-.04.066-.063.101-.08.125-.172.266-.153.419.017.13.05.258.084.383.024.091.048.183.065.274a7.924 7.924 0 0 1-.043 3.068 1.13 1.13 0 0 1-.023.086c-.029.097-.061.207-.042.295.012.052.048.101.08.144.01.012.017.023.023.032.11.178.217.357.322.538.364.63.67 1.253.907 1.854.146.368.26.716.349 1.062l.031.121c.073.278.156.593.141.855.046.6-.01 1.412-.525 2.006l-.199-.188a1.46 1.46 0 0 0-.083-.069 1.7 1.7 0 0 1-.17-.145c.024-.034.066-.088.09-.12.04-.051.076-.098.088-.12a1.65 1.65 0 0 0 .142-.355c.079-.293.1-.623.064-1.01-.125-1.346-.782-2.626-1.409-3.7l-.102-.176-.075.189a8.038 8.038 0 0 1-2.813 3.59 8.15 8.15 0 0 1-1.915 1.013l-1.227.346a8.326 8.326 0 0 1-1.605.16 8.125 8.125 0 0 1-1.998-.252.718.718 0 0 0-.175-.032c-.074 0-.133.027-.223.08l-.236.138c-.16.093-.322.18-.487.269-.838.45-1.588.788-2.294 1.03-.763.262-1.495.407-2.175.428a4.453 4.453 0 0 1-.146.003zm-1.122-5.415l-.447-.218c.088-.176.182-.354.285-.541l.518.285c-.047.087-.095.175-.14.263a1.342 1.342 0 0 0-.04.088 2.46 2.46 0 0 1-.079.179l-.097-.056zm-.808 2.748a.673.673 0 0 0-.05-.006l-.496-.023c.014-.204.042-.414.086-.637l.58.12a5.278 5.278 0 0 0-.046.285 1.47 1.47 0 0 0-.005.098 3.12 3.12 0 0 1-.007.171l-.062-.008zm.367-1.456c-.03-.009-.084-.032-.113-.044a1.076 1.076 0 0 0-.077-.031l-.371-.12c.064-.19.137-.385.217-.58l.378.155a.964.964 0 0 0 .071.024c.028.009.08.024.11.038-.01.047-.053.137-.075.184a1.431 1.431 0 0 0-.044.1c-.012.032-.023.07-.034.108-.018.06-.036.122-.06.164l-.002.002zm-.673 3.033A2.237 2.237 0 0 1 0 18.373l.58-.122c.026.094.057.183.094.266.007.014.027.048.052.087l.053.087c-.021.014-.046.028-.06.036a.852.852 0 0 0-.05.03l-.39.272zm17.867.116a2.01 2.01 0 0 0 .282-.087c.014-.005.049-.024.089-.046.023-.014.063-.035.095-.052l.032.063a.72.72 0 0 0 .027.05l.253.403c-.198.11-.422.193-.667.248l-.11-.579zm-.952.648a5.823 5.823 0 0 1-.644-.078l.077-.398a.861.861 0 0 0 .01-.079c.001-.027.006-.077.013-.108a.973.973 0 0 1 .168.027l.1.019c.023.003.062.005.107.006.05.002.156.007.21.017-.003.03-.01.08-.015.108a.995.995 0 0 0-.009.077l-.017.41zm-3.178-.909c-.183-.083-.37-.172-.56-.266l.186-.362a.809.809 0 0 0 .032-.073c.01-.026.028-.074.043-.1.044.013.126.06.165.082l.082.045c.019.009.052.022.09.037.054.022.17.068.22.1-.012.026-.038.07-.052.094a.914.914 0 0 0-.037.069l-.17.374zm1.534.588c-.195-.06-.394-.127-.594-.2l.154-.4a.922.922 0 0 0 .02-.071c.007-.024.018-.065.029-.093.059.015.168.06.22.083.044.018.081.034.104.041.025.008.058.017.093.025.042.01.124.03.157.05a.939.939 0 0 1-.042.115.932.932 0 0 0-.03.078l-.111.372zm-13.51-5.991l-.425-.256c.104-.168.213-.337.332-.514l.491.33c-.055.082-.11.165-.164.249a1.38 1.38 0 0 0-.046.084c-.021.041-.064.123-.095.171-.021-.013-.086-.06-.093-.064z" opacity=".7"/>
</svg>
