<?xml version="1.0" encoding="UTF-8"?>
<svg width="20px" height="20px" viewBox="0 0 20 20" version="1.1" xmlns="http://www.w3.org/2000/svg" xmlns:xlink="http://www.w3.org/1999/xlink">
    <!-- Generator: sketchtool 44.1 (41455) - http://www.bohemiancoding.com/sketch -->
    <title>5E5FD271-F7E5-4EB7-A6BB-96CA1BC7DA57</title>
    <desc>Created with sketchtool.</desc>
    <defs></defs>
    <g id="Symbols" stroke="none" stroke-width="1" fill="none" fill-rule="evenodd">
        <g id="icon/option/ic_export" fill-rule="nonzero" fill="/*%BLACK%*/ #1e1f21">
            <path d="M3.81278587,16.1890437 L7.18812892,16.1890437 L7.18812892,19.0018296 L2.68767152,19.0018296 C1.75559628,19.0018296 1,18.2462333 1,17.3141581 L1,2.68767152 C1,1.75559628 1.75559628,1 2.68767152,1 L7.18812892,1 L7.18812892,3.81278587 L3.81278587,3.81278587 L3.81278587,16.1890437 Z M18.8330624,9.67181884 L13.5675273,5.84080449 C13.4808278,5.76352918 13.3555492,5.74748505 13.2521742,5.800418 C13.1487993,5.85335094 13.0885861,5.96437582 13.1006048,6.07989129 L13.1006048,8.31324327 L6.06301457,8.31324327 L6.06301457,11.6885863 L13.0949793,11.6885863 L13.0949793,13.9247511 C13.0829606,14.0402665 13.1431737,14.1512914 13.2465487,14.2042244 C13.3499236,14.2571573 13.4752022,14.2411132 13.5619017,14.1638379 L18.8330624,10.3300107 C18.9379903,10.2531978 19,10.1309536 19,10.0009148 C19,9.87087602 18.9379903,9.74863181 18.8330624,9.67181884 L18.8330624,9.67181884 Z" id="Shape"></path>
        </g>
    </g>
</svg>