<svg xmlns="http://www.w3.org/2000/svg" width="24" height="14" viewBox="0 0 24 14">
    <g fill="none" fill-rule="evenodd">
        <path fill="#FFFFFE" d="M0 13.82h23.692V0H0z"/>
        <path fill="#E58E44" d="M0 4.607h23.692V0H0z"/>
        <path fill="#3B823F" d="M0 13.82h23.692V9.215H0z"/>
        <path fill="#27245C" d="M11.844 5.04l-.052 1.043.056.593.053-.593-.053-1.043c.055 0 .108.003.16.008l-.002.006c0 .05.038.091.085.091.045 0 .08-.036.084-.077.052.01.102.02.153.036l-.32.992-.102.587.207-.562.22-1.017c.05.016.1.03.15.049-.003.008-.007.02-.007.03 0 .048.039.086.087.086a.087.087 0 0 0 .078-.053c.047.023.092.048.14.075l-.567.871-.251.547.346-.489.476-.926c.042.025.087.052.13.08a.084.084 0 0 0-.019.055c0 .047.039.085.087.085.028 0 .053-.01.067-.036.042.036.08.072.117.108l-.772.698-.382.46.459-.38.698-.775c.036.038.072.074.106.116a.083.083 0 0 0-.03.066c0 .047.038.086.083.086.02 0 .036-.006.051-.017.032.044.06.088.084.132l-.926.475-.488.347.542-.248.875-.57c.029.049.053.1.076.145a.094.094 0 0 0-.052.083c0 .047.038.085.084.085a.063.063 0 0 0 .033-.008c.016.05.031.097.044.146l-1.019.215-.558.207.587-.1.993-.316c.012.043.024.1.034.149a.084.084 0 0 0-.075.085c0 .047.04.085.087.085h.009c.005.05.005.106.005.155l-1.04-.05-.595.053.596.058 1.04-.055c0 .055 0 .107-.006.156H13.7a.09.09 0 0 0-.087.086c0 .044.032.077.074.086a2.37 2.37 0 0 1-.033.151l-.355-.113-.638-.207-.587-.099h.003-.003l.558.207 1.019.218a1.01 1.01 0 0 1-.047.146l-.011-.003h-.02a.084.084 0 0 0-.078.119.064.064 0 0 0 .024.033c.002 0 .003.003.006.003.003.002.006.005.009.005.001 0 .004.003.005.006a1.715 1.715 0 0 1-.073.137l-.874-.565h-.001l-.542-.248h.002l.285.199.2.143.927.474c-.028.047-.055.094-.085.135a.103.103 0 0 0-.05-.013.083.083 0 0 0-.085.082c0 .028.011.053.032.067-.035.038-.07.077-.106.113l-.698-.773-.458-.38.38.46.773.698a1.176 1.176 0 0 1-.112.102.08.08 0 0 0-.054-.02.088.088 0 0 0-.085.086c0 .016.002.028.007.04a3.231 3.231 0 0 0-.138.087l-.476-.927-.346-.49.25.543.566.877c-.046.025-.09.05-.138.071a.08.08 0 0 0-.077-.052.088.088 0 0 0-.087.086c0 .01.003.021.006.033-.05.016-.098.033-.15.044l-.22-1.02-.207-.555V7.14l.102.587.32.992a.973.973 0 0 1-.153.034.088.088 0 0 0-.084-.072.083.083 0 0 0-.085.083v.01a1.46 1.46 0 0 1-.158.009l.053-1.04-.056-.595-.053.595.052 1.04a1.49 1.49 0 0 1-.16-.009v-.01a.086.086 0 0 0-.086-.083.088.088 0 0 0-.084.072c-.052-.009-.101-.02-.15-.034l.32-.992.1-.585-.207.555-.218 1.02c-.05-.011-.1-.028-.15-.044a.093.093 0 0 0 .007-.033.087.087 0 0 0-.084-.086.093.093 0 0 0-.082.052 3.67 3.67 0 0 1-.138-.07l.567-.878.248-.543-.345.488-.474.93c-.045-.031-.091-.059-.133-.089a.07.07 0 0 0 .016-.047.086.086 0 0 0-.084-.088.082.082 0 0 0-.067.033c-.04-.036-.08-.067-.115-.105l.775-.698.38-.46-.459.38-.7.773c-.037-.036-.072-.078-.106-.113a.094.094 0 0 0 .033-.07.084.084 0 0 0-.086-.082.104.104 0 0 0-.05.013 1.363 1.363 0 0 1-.085-.132l.93-.477.483-.339-.541.248-.874.565c-.027-.044-.048-.088-.07-.137a.08.08 0 0 0 .054-.078.086.086 0 0 0-.123-.08 2.77 2.77 0 0 1-.048-.151l1.02-.218.562-.207-.59.1-.993.319c-.014-.05-.023-.099-.035-.154a.083.083 0 0 0 .075-.083.086.086 0 0 0-.086-.086h-.01c-.002-.049-.006-.101-.006-.156l1.041.055.594-.058-.594-.052-1.041.05c0-.05.004-.106.007-.156h.015a.084.084 0 0 0 .085-.085c0-.047-.034-.08-.08-.085.012-.05.02-.106.035-.15l.992.318.59.1-.56-.208-1.02-.218c.014-.052.031-.101.047-.149a.12.12 0 0 0 .032.006.085.085 0 0 0 .086-.085.081.081 0 0 0-.051-.077 1.43 1.43 0 0 1 .072-.144l.874.57.544.25-.487-.348-.93-.475.087-.135c.012.014.032.02.05.02a.087.087 0 0 0 .086-.086.107.107 0 0 0-.032-.069 1.89 1.89 0 0 1 .103-.113l.7.775.46.38-.38-.46-.775-.698c.039-.036.076-.072.115-.105a.086.086 0 0 0 .153-.055.107.107 0 0 0-.017-.052c.044-.025.087-.055.132-.08l.474.926.345.486-.248-.544-.567-.87c.046-.028.091-.053.137-.076a.086.086 0 0 0 .165-.027.124.124 0 0 0-.005-.036c.048-.02.1-.033.15-.05l.22 1.018.207.562-.1-.587-.32-.992c.05-.017.099-.025.152-.036.005.041.04.074.084.074a.087.087 0 0 0 .087-.088v-.008c.05-.006.103-.006.155-.006m.001-.201a2.072 2.072 0 1 0-.001 4.144 2.072 2.072 0 0 0 .001-4.144"/>
    </g>
</svg>
