<?xml version="1.0" encoding="UTF-8"?>
<svg width="636px" height="200px" viewBox="0 0 636 200" version="1.1" xmlns="http://www.w3.org/2000/svg" xmlns:xlink="http://www.w3.org/1999/xlink">
    <!-- Generator: Sketch 51.3 (57544) - http://www.bohemiancoding.com/sketch -->
    <title>Logo/wordmark</title>
    <desc>Created with Sketch.</desc>
    <defs></defs>
    <g id="Logo/wordmark" stroke="none" stroke-width="1" fill="none" fill-rule="evenodd">
        <g id="Logo/no-wordmark">
            <g id="Group-20">
                <path d="M89.6662276,121.395557 L60.4910327,171.928477 C51.5748369,187.371781 31.8275605,192.663048 16.3842564,183.746852 C0.940952245,174.830657 -4.35031452,155.08338 4.56588128,139.640076 L52.3827933,56.8187549 L89.6662276,121.395557 Z" id="Combined-Shape" fill="#FFBF58" fill-rule="nonzero"></path>
                <rect id="Rectangle-2" fill="#604AFF" fill-rule="nonzero" transform="translate(129.348156, 99.937942) scale(-1, 1) rotate(30.000000) translate(-129.348156, -99.937942) " x="97.0597544" y="3.16374875" width="64.5768025" height="193.548387" rx="32.2884013"></rect>
            </g>
        </g>
        <path d="M291.725749,35.5484268 C291.780347,35.1844838 291.957789,34.7902181 292.258079,34.3656179 C292.55837,33.9410177 292.926903,33.546752 293.363689,33.1828089 C293.800475,32.8188659 294.264553,32.5307487 294.755938,32.3184486 C295.247322,32.1061485 295.7114,32 296.148187,32 L317.113818,32 C318.041988,32 318.833651,32.3184454 319.48883,32.9553457 C320.14401,33.592246 320.635387,34.1533164 320.962976,34.6385738 L323.010401,39.824736 L366.006324,163.018835 C366.44311,164.231978 366.361214,165.217643 365.760633,165.975857 C365.160052,166.734072 364.1227,167.113174 362.648547,167.113174 L339.144109,167.113174 C337.888349,167.113174 336.919244,166.855385 336.236766,166.339799 C335.554288,165.824213 335.021962,164.959861 334.639775,163.746717 C333.547809,160.653202 332.483159,157.574896 331.445792,154.511709 C330.408425,151.448522 329.371073,148.370217 328.333706,145.276701 L284.846401,145.276701 C283.809034,148.370217 282.758033,151.448522 281.693367,154.511709 C280.628701,157.574896 279.5777,160.653202 278.540333,163.746717 C277.830555,165.991033 276.43832,167.113174 274.363586,167.113174 L250.203972,167.113174 C249.166605,167.113174 248.306695,166.809892 247.624217,166.203321 C246.941738,165.596749 246.818894,164.686905 247.25568,163.473762 L291.725749,35.5484268 Z M306.631002,81.0128852 C305.593635,83.8885477 304.542634,86.9897059 303.477968,90.3164527 C302.413301,93.6431996 301.362301,96.9980888 300.324933,100.381221 C299.287566,103.764354 298.236565,107.105147 297.171899,110.403701 C296.107233,113.702255 295.056232,116.789317 294.018865,119.664979 L319.161242,119.664979 L306.631002,81.0128852 Z M407.619985,160.796407 C407.128601,161.835534 406.71912,162.751593 406.39153,163.544611 C406.06394,164.337629 405.695408,164.99391 405.285921,165.513473 C404.876434,166.033037 404.371407,166.42954 403.770826,166.702994 C403.170245,166.976448 402.351283,167.113174 401.313916,167.113174 L385.098311,167.113174 C380.73045,167.113174 378.546552,165.007606 378.546552,160.796407 L378.546552,38.2347305 C378.546552,37.3049854 378.723993,36.4572893 379.078882,35.6916168 C379.433771,34.9259443 379.897849,34.2696634 380.471131,33.7227545 C381.044413,33.1758456 381.699582,32.7519975 382.436659,32.4511976 C383.173736,32.1503977 383.897152,32 384.606929,32 L403.197547,32 C405.272282,32 406.910205,32.6015908 408.111367,33.8047904 C409.312529,35.00799 409.913101,36.484622 409.913101,38.2347305 L409.913101,75.6431138 C411.441852,74.002387 413.079776,72.3343398 414.826921,70.6389222 C416.574065,68.9435045 418.471327,67.39851 420.518762,66.0038922 C422.566197,64.6092745 424.818342,63.4744555 427.275264,62.5994012 C429.732186,61.7243469 432.462059,61.2868263 435.464963,61.2868263 C442.890328,61.2868263 449.728659,62.6677507 455.980161,65.4296407 C462.231663,68.1915308 467.609512,71.9924908 472.113869,76.8326347 C476.618226,81.6727787 480.139762,87.3605462 482.678581,93.8961078 C485.217401,100.431669 486.486792,107.500361 486.486792,115.102395 C486.486792,122.649738 485.217401,129.704758 482.678581,136.267665 C480.139762,142.830572 476.618226,148.532012 472.113869,153.372156 C467.609512,158.2123 462.231663,162.026932 455.980161,164.816168 C449.728659,167.605403 442.890328,169 435.464963,169 C432.680452,169 430.059774,168.521462 427.602852,167.564371 C425.14593,166.607281 422.852837,165.390427 420.723504,163.913772 C418.594172,162.437118 416.628664,160.851106 414.826921,159.155689 C413.025178,157.460271 411.387254,155.874259 409.913101,154.397605 L407.619985,160.796407 Z M457.003873,115.102395 C457.003873,111.602178 456.444249,108.266084 455.324985,105.094012 C454.20572,101.92194 452.608745,99.1327466 450.534011,96.7263473 C448.459276,94.319948 445.975092,92.4194681 443.081384,91.0248503 C440.187676,89.6302325 436.939127,88.9329341 433.335642,88.9329341 C429.732156,88.9329341 426.360763,89.6302325 423.221363,91.0248503 C420.081962,92.4194681 417.365739,94.319948 415.072612,96.7263473 C412.779484,99.1327466 410.964119,101.92194 409.626461,105.094012 C408.288804,108.266084 407.619985,111.602178 407.619985,115.102395 L407.619985,116.250898 C407.78378,119.696424 408.561793,122.923139 409.954049,125.931138 C411.346305,128.939137 413.188969,131.550588 415.482097,133.765569 C417.775224,135.98055 420.450499,137.71696 423.508002,138.97485 C426.565505,140.232741 429.841352,140.861677 433.335642,140.861677 C436.939127,140.861677 440.187676,140.191723 443.081384,138.851796 C445.975092,137.51187 448.459276,135.693425 450.534011,133.396407 C452.608745,131.09939 454.20572,128.378559 455.324985,125.233832 C456.444249,122.089106 457.003873,118.711994 457.003873,115.102395 Z M502.630487,38.2347305 C502.630487,36.484622 503.067267,35.00799 503.940839,33.8047904 C504.814412,32.6015908 506.315841,32 508.445174,32 L528.509938,32 C529.055921,32 529.629194,32.1503977 530.229775,32.4511976 C530.830356,32.7519975 531.38998,33.1758456 531.908663,33.7227545 C532.427347,34.2696634 532.864126,34.9259443 533.219015,35.6916168 C533.573904,36.4572893 533.751346,37.3049854 533.751346,38.2347305 L533.751346,160.796407 C533.751346,162.874661 533.164423,164.447001 531.99056,165.513473 C530.816697,166.579945 529.301618,167.113174 527.445277,167.113174 L508.445174,167.113174 C506.315841,167.113174 504.814412,166.579945 503.940839,165.513473 C503.067267,164.447001 502.630487,162.874661 502.630487,160.796407 L502.630487,38.2347305 Z M552.92523,75.5143172 C552.92523,73.8749559 553.416607,72.4661509 554.399376,71.2878599 C555.382145,70.1095689 556.910873,69.5204323 558.985608,69.5204323 L577.74002,69.5204323 C578.395199,69.5204323 579.104966,69.6613128 579.869341,69.943078 C580.633717,70.2248433 581.343484,70.6346775 581.998663,71.1725929 C582.653843,71.7105083 583.213466,72.3380669 583.677552,73.0552875 C584.141637,73.7725081 584.373676,74.5921765 584.373676,75.5143172 L584.373676,161.196133 C584.373676,163.142875 583.800403,164.615717 582.653839,165.614702 C581.507276,166.613688 579.869352,167.113174 577.74002,167.113174 L558.985608,167.113174 C554.945336,167.113174 552.92523,165.140847 552.92523,161.196133 L552.92523,75.5143172 Z M552.615617,38.3167665 C552.615617,36.019749 553.106995,34.3927194 554.089763,33.4356287 C555.072532,32.4785381 556.601261,32 558.675995,32 L577.676098,32 C579.587038,32 581.129416,32.4785381 582.303278,33.4356287 C583.477141,34.3927194 584.064064,36.019749 584.064064,38.3167665 L584.064064,54.3137725 C584.064064,54.9700632 583.913921,55.6810341 583.61363,56.4467066 C583.31334,57.2123791 582.89021,57.950695 582.344227,58.6616766 C581.798244,59.3726582 581.129425,59.9605765 580.33775,60.4254491 C579.546076,60.8903217 578.658867,61.1227545 577.676098,61.1227545 L558.675995,61.1227545 C554.635723,61.1227545 552.615617,58.8531165 552.615617,54.3137725 L552.615617,38.3167665 Z M603.547561,75.5143172 C603.547561,73.8749559 604.038938,72.4661509 605.021707,71.2878599 C606.004475,70.1095689 607.533204,69.5204323 609.607938,69.5204323 L628.36235,69.5204323 C629.01753,69.5204323 629.727296,69.6613128 630.491672,69.943078 C631.256048,70.2248433 631.965815,70.6346775 632.620994,71.1725929 C633.276173,71.7105083 633.835797,72.3380669 634.299882,73.0552875 C634.763968,73.7725081 634.996007,74.5921765 634.996007,75.5143172 L634.996007,161.196133 C634.996007,163.142875 634.422734,164.615717 633.27617,165.614702 C632.129606,166.613688 630.491683,167.113174 628.36235,167.113174 L609.607938,167.113174 C605.567666,167.113174 603.547561,165.140847 603.547561,161.196133 L603.547561,75.5143172 Z M603.551554,38.3167665 C603.551554,36.019749 604.042931,34.3927194 605.0257,33.4356287 C606.008468,32.4785381 607.537197,32 609.611931,32 L628.612034,32 C630.522974,32 632.065352,32.4785381 633.239215,33.4356287 C634.413077,34.3927194 635,36.019749 635,38.3167665 L635,54.3137725 C635,54.9700632 634.849857,55.6810341 634.549567,56.4467066 C634.249276,57.2123791 633.826146,57.950695 633.280163,58.6616766 C632.73418,59.3726582 632.065362,59.9605765 631.273687,60.4254491 C630.482012,60.8903217 629.594803,61.1227545 628.612034,61.1227545 L609.611931,61.1227545 C605.571659,61.1227545 603.551554,58.8531165 603.551554,54.3137725 L603.551554,38.3167665 Z" id="Ablii" fill="#3D3D3D"></path>
    </g>
</svg>