<svg xmlns="http://www.w3.org/2000/svg" width="8" height="16" viewBox="0 0 8 16"><g fill="none"><g transform="translate(-36 -212)translate(16 200)translate(16 9)translate(0 3)"><path d="M11 4L11 11.7C11 13.1 9.8 14.3 8.3 14.3 6.9 14.3 5.7 13.1 5.7 11.7L5.7 3.3C5.7 2.4 6.4 1.7 7.3 1.7 8.3 1.7 9 2.4 9 3.3L9 10.3C9 10.7 8.7 11 8.3 11 8 11 7.7 10.7 7.7 10.3L7.7 4 6.7 4 6.7 10.3C6.7 11.3 7.4 12 8.3 12 9.3 12 10 11.3 10 10.3L10 3.3C10 1.9 8.8 0.7 7.3 0.7 5.9 0.7 4.7 1.9 4.7 3.3L4.7 11.7C4.7 13.7 6.3 15.3 8.3 15.3 10.4 15.3 12 13.7 12 11.7L12 4 11 4Z" fill="#525455"/><polygon points="0 0 16 0 16 16 0 16"/></g></g></svg>