<?xml version="1.0" encoding="UTF-8"?>
<svg width="36px" height="39px" viewBox="0 0 36 39" version="1.1" xmlns="http://www.w3.org/2000/svg" xmlns:xlink="http://www.w3.org/1999/xlink">
    <g id="Wireframes" stroke="none" stroke-width="1" fill="none" fill-rule="evenodd">
        <g id="Dashboard-Empty-Invited" transform="translate(-328.000000, -654.000000)">
            <g id="round-account_balance-24px" transform="translate(325.000000, 652.000000)">
                <polygon id="Path" points="0 0 44 0 44 44 0 44"></polygon>
                <path d="M7.33333333,21.0833333 L7.33333333,28.4166667 C7.33333333,29.9383333 8.56166667,31.1666667 10.0833333,31.1666667 C11.605,31.1666667 12.8333333,29.9383333 12.8333333,28.4166667 L12.8333333,21.0833333 C12.8333333,19.5616667 11.605,18.3333333 10.0833333,18.3333333 C8.56166667,18.3333333 7.33333333,19.5616667 7.33333333,21.0833333 Z M18.3333333,21.0833333 L18.3333333,28.4166667 C18.3333333,29.9383333 19.5616667,31.1666667 21.0833333,31.1666667 C22.605,31.1666667 23.8333333,29.9383333 23.8333333,28.4166667 L23.8333333,21.0833333 C23.8333333,19.5616667 22.605,18.3333333 21.0833333,18.3333333 C19.5616667,18.3333333 18.3333333,19.5616667 18.3333333,21.0833333 Z M6.41666667,40.3333333 L35.75,40.3333333 C37.2716667,40.3333333 38.5,39.105 38.5,37.5833333 C38.5,36.0616667 37.2716667,34.8333333 35.75,34.8333333 L6.41666667,34.8333333 C4.895,34.8333333 3.66666667,36.0616667 3.66666667,37.5833333 C3.66666667,39.105 4.895,40.3333333 6.41666667,40.3333333 Z M29.3333333,21.0833333 L29.3333333,28.4166667 C29.3333333,29.9383333 30.5616667,31.1666667 32.0833333,31.1666667 C33.605,31.1666667 34.8333333,29.9383333 34.8333333,28.4166667 L34.8333333,21.0833333 C34.8333333,19.5616667 33.605,18.3333333 32.0833333,18.3333333 C30.5616667,18.3333333 29.3333333,19.5616667 29.3333333,21.0833333 Z M19.3783333,2.73166667 L4.895,10.3583333 C4.14333333,10.7433333 3.66666667,11.5316667 3.66666667,12.375 C3.66666667,13.64 4.69333333,14.6666667 5.95833333,14.6666667 L36.2266667,14.6666667 C37.4733333,14.6666667 38.5,13.64 38.5,12.375 C38.5,11.5316667 38.0233333,10.7433333 37.2716667,10.3583333 L22.7883333,2.73166667 C21.725,2.16333333 20.4416667,2.16333333 19.3783333,2.73166667 Z" id="Shape" fill="#8E9090"></path>
            </g>
        </g>
    </g>
</svg>