<svg xmlns="http://www.w3.org/2000/svg" width="24" height="24" viewBox="0 0 24 24">
    <g fill="none" fill-rule="evenodd">
        <path fill="#ED1C24" d="M11.794 0C5.284 0 0 5.282 0 11.797c0 6.513 5.283 11.797 11.794 11.797 6.518 0 11.799-5.284 11.799-11.797C23.593 5.282 18.313 0 11.794 0"/>
        <path fill="#FFF" d="M6.183 13.404h11.145v3.519H6.183zM11.393 8.145c.146.186.27.241.4.243.133-.003.251-.05.397-.243 0 0 1.862-2.447 1.96-2.565.25-.312.554-.312.806-.001l2.373 3.004v4.821l-2.357-3.026c-.276-.347-.592-.348-.87 0-.095.122-1.904 2.519-1.904 2.519-.28.355-.551.355-.829 0 0 0-1.853-2.409-1.935-2.519-.27-.341-.573-.348-.868 0l-2.383 3.026-.001-4.806s2.27-2.847 2.415-3.018c.257-.312.566-.312.818-.003l1.978 2.568"/>
    </g>
</svg>
