<?xml version="1.0" encoding="UTF-8"?>
<svg width="40px" height="40px" viewBox="0 0 40 40" version="1.1" xmlns="http://www.w3.org/2000/svg" xmlns:xlink="http://www.w3.org/1999/xlink">
        <g id="Accounts--Overview" fill="#03CF1F">
            <rect id="Rectangle"  width="48" height="48"></rect>
        </g>
    <g id="Symbols" stroke="none" stroke-width="1" fill="none" fill-rule="evenodd">
        <g id="icon/complete/48x48" transform="translate(-4.000000, -4.000000)">
            <g id="round-check_circle-24px">
                <!-- <polygon id="Path" points="0 0 48 0 48 48 0 48" fill="#FFF"></polygon> -->
                <path d="M24,4 C12.96,4 4,12.96 4,24 C4,35.04 12.96,44 24,44 C35.04,44 44,35.04 44,24 C44,12.96 35.04,4 24,4 Z M18.58,32.58 L11.4,25.4 C10.62,24.62 10.62,23.36 11.4,22.58 C12.18,21.8 13.44,21.8 14.22,22.58 L20,28.34 L33.76,14.58 C34.54,13.8 35.8,13.8 36.58,14.58 C37.36,15.36 37.36,16.62 36.58,17.4 L21.4,32.58 C20.64,33.36 19.36,33.36 18.58,32.58 Z" id="Shape" fill="#03CF1F" fill-rule="nonzero"></path>
                <rect id="Rectangle" x="351" y="1202" width="24" height="24" fill="#03CF1F"></rect>
            </g>
        </g>
    </g>
</svg>