<svg xmlns="http://www.w3.org/2000/svg" width="24" height="24" viewBox="0 0 24 24">
    <g fill="none" fill-rule="evenodd">
        <circle cx="12" cy="12" r="12" fill="#931430"/>
        <path fill="#F3B237" d="M4.267 14.631v1.72c2.757-1.554 7.987-3.874 15.89-4.52v-.37c-5.808.317-11.295 1.397-15.89 3.17"/>
        <path fill="#FFFFFE" d="M4.267 16.983v1.18c3.934-2.91 9.696-4.91 15.89-5.572v-.358c-6.121.552-11.5 2.2-15.89 4.75"/>
        <path fill="#F3B237" d="M13.935 7.656c.597-.167 1.101-.593 1.101-1.24 0-.62-.405-1.038-1.234-1.038-.395 0-.893.04-1.251.04-.352 0-.728-.003-1.157-.027l-.027-.002v.287l.025.002c.36.027.386.097.386.676v3.424c0 .306-.04.456-.323.479l-.081.005v.283c.273-.016.778-.028.997-.028.22 0 .39.012.667.024 1.657.073 2.195-.866 2.195-1.62 0-.903-.663-1.13-1.298-1.256v-.01zm.266 1.41c0 .79-.442 1.114-1.11 1.114-.134 0-.268-.017-.351-.04V7.916h.292c.841 0 1.169.425 1.169 1.15zm-1.143-1.53c-.165 0-.267-.012-.318-.022v-1.15c0-.212.008-.41.028-.546.063-.02.24-.049.371-.049.628 0 .907.265.907.844 0 .804-.608.918-.988.923zM8.753 9.85c-.329.203-.711.29-1.144.29-1.17 0-1.75-.899-1.75-2.323 0-1.254.556-2.083 1.623-2.083.364 0 .658.13.853.312.031.117.074.729.074.729l.299.001v-.023c.002-.264.076-.88.132-1.19l.003-.023-.023-.003a5.23 5.23 0 0 0-1.413-.204c-1.288 0-2.6.775-2.6 2.572 0 1.885 1.153 2.7 2.544 2.7.38 0 .886-.056 1.294-.28l.007-.002.197-.374-.08-.109-.016.01M19.51 9.85c-.33.203-.71.29-1.145.29-1.17 0-1.75-.899-1.75-2.323 0-1.254.557-2.083 1.624-2.083.363 0 .657.13.853.312.03.117.074.729.074.729l.298.001v-.023a10 10 0 0 1 .132-1.19l.003-.023-.022-.003c-.42-.11-.845-.204-1.414-.204-1.287 0-2.6.775-2.6 2.572 0 1.885 1.153 2.7 2.544 2.7.38 0 .886-.056 1.294-.28l.007-.002.198-.374-.08-.109-.016.01M10.099 5.418c-.301 0-.639-.004-.926-.027l-.024-.003v.285l.02.002c.376.023.426.086.426.734V9.66c0 .497-.024.573-.408.598l-.02.002v.285l.023-.002c.289-.025.595-.029.895-.029.295 0 .578.004.888.029l.024.002v-.285l-.02-.002c-.382-.025-.403-.1-.403-.598V6.41c0-.66.023-.71.401-.734l.02-.002v-.285l-.023.003c-.31.024-.578.027-.873.027"/>
    </g>
</svg>
