<svg xmlns="http://www.w3.org/2000/svg" width="310" height="43" viewBox="0 0 310 43">
    <g fill="none" fill-rule="evenodd">
        <g fill="#FFF">
            <path d="M142.187 7.862l-4.067 1.453v3.668h-1.232v-.01s-3.806-.033-6.509-.033c-4.39 0-7.518 3.37-7.518 7.464v.053c0 4.093 3.156 7.413 7.464 7.413 2.862 0 4.47-1.098 5.86-2.622l-2.382-2.409c-.99.936-1.925 1.524-3.29 1.524-2.22 0-3.64-1.765-3.64-3.96v-.052c0-2.113 1.445-3.906 3.48-3.906 1.443 0 6.51.026 6.51.026v-.01h1.257v7.02c0 3.318 1.687 4.308 4.174 4.308 1.365 0 2.354-.32 3.211-.83v-3.265a4.13 4.13 0 0 1-2.007.51c-.91 0-1.31-.455-1.31-1.392V16.46h3.37v-3.477h-3.37v-5.12M71.378 20.17c0 2.114-1.39 3.908-3.72 3.908-2.246 0-3.77-1.847-3.77-3.961v-.052c0-2.116 1.389-3.908 3.717-3.908 2.248 0 3.773 1.845 3.773 3.96v.052zm-3.72-7.519c-3.67 0-6.558 2.261-7.476 5.35-1.133 2.888-2.546 4.236-2.92 4.557l-.006-.007c-.99.937-1.928 1.527-3.29 1.527-2.22 0-3.64-1.768-3.64-3.961v-.052c0-2.116 1.443-3.908 3.478-3.908 1.444 0 2.353.615 3.263 1.58l2.49-2.678c-1.338-1.498-3.024-2.408-5.727-2.408-4.387 0-7.516 3.371-7.516 7.466v.052c0 4.095 3.154 7.414 7.464 7.414 2.414 0 3.932-.784 5.187-1.945.003-.005.01-.002.012-.008.109-.095.226-.213.347-.338.105-.11.21-.219.311-.332l-.006-.01c.346-.401.718-.882 1.077-1.371 1.245 2.382 3.789 4.004 6.9 4.004 4.468 0 7.786-3.345 7.786-7.466v-.052c0-4.122-3.291-7.414-7.733-7.414zM111.648 19.177c.322-1.847 1.417-3.05 3.103-3.05 1.713 0 2.783 1.23 3.023 3.05h-6.126zm3.103-6.314c-4.173 0-7.09 3.371-7.09 7.465v.052c0 4.389 3.184 7.412 7.491 7.412 2.595 0 4.521-1.015 5.86-2.675l-2.328-2.06c-1.123 1.044-2.112 1.472-3.479 1.472-1.819 0-3.102-.965-3.503-2.81h9.978c.028-.373.054-.616.054-1.015v-.055c0-4.069-2.192-7.786-6.983-7.786zM150.882 19.177c.32-1.847 1.414-3.05 3.1-3.05 1.713 0 2.785 1.23 3.025 3.05h-6.125zm3.1-6.314c-4.173 0-7.089 3.371-7.089 7.465v.052c0 4.389 3.184 7.412 7.492 7.412 2.594 0 4.521-1.015 5.862-2.675l-2.332-2.06c-1.121 1.044-2.112 1.472-3.477 1.472-1.818 0-3.104-.965-3.505-2.81h9.98c.028-.373.053-.616.053-1.015v-.055c0-4.069-2.193-7.786-6.984-7.786zM173.197 20.328c0 2.38-1.577 3.959-3.478 3.959-1.898 0-3.504-1.578-3.504-3.96v-.053c0-2.407 1.606-3.96 3.504-3.96 1.9 0 3.478 1.58 3.478 3.96v.054zm-.053-12.388v7.062c-.964-1.15-2.3-2.138-4.467-2.138-3.4 0-6.53 2.622-6.53 7.41v.054c0 4.789 3.185 7.41 6.53 7.41 2.112 0 3.478-.99 4.467-2.328v2.061h4.065V7.941h-4.065zM85.68 12.972c-2.06 0-3.264 1.097-4.2 2.3V13.24l-4.068 1.258V27.58h4.067v-7.999c0-1.927.99-2.917 2.541-2.917 1.553 0 2.462.99 2.462 2.917v8h4.067v-9.286c0-3.29-1.793-5.323-4.87-5.323M100.812 12.972c-2.06 0-3.264 1.097-4.2 2.3V13.24l-4.066 1.379V27.58h4.065v-7.999c0-1.927.992-2.917 2.541-2.917 1.551 0 2.462.99 2.462 2.917v8h4.067v-9.286c0-3.29-1.791-5.323-4.869-5.323"/>
        </g>
        <path fill="#FFC20E" d="M22.108 14.751h-3.915a3.04 3.04 0 0 0-2.633 1.522l-1.957 3.388c-.54.94-.54 2.097 0 3.04l1.957 3.388a3.044 3.044 0 0 0 2.633 1.52h3.915a3.04 3.04 0 0 0 2.633-1.523l1.955-3.387a3.043 3.043 0 0 0 0-3.038l-1.955-3.388a3.04 3.04 0 0 0-2.633-1.522"/>
        <path fill="#7AAFDE" d="M11.451 20.53l3.817-6.61-3.817-6.612H3.817L0 13.92l3.817 6.61h7.634M11.451 21.687H3.817L0 28.301l3.817 6.61h7.634l3.817-6.61-3.817-6.614M28.778 20.53h7.636l3.815-6.61-3.815-6.612h-7.636l-3.816 6.613 3.816 6.61M36.483 21.687h-7.635l-3.816 6.614 3.816 6.61h7.635l3.816-6.61-3.816-6.614M23.95 13.334l3.817-6.612L23.95.11h-7.635L12.5 6.722l3.816 6.612h7.635M16.316 29.028l-3.816 6.61 3.816 6.613h7.635l3.816-6.612-3.816-6.611h-7.635"/>
        <path fill="#FFC20E" d="M297.977 27.79a6.81 6.81 0 0 1-1.737-.206 3.087 3.087 0 0 1-1.339-.723c-.373-.346-.665-.797-.875-1.353-.21-.556-.313-1.261-.313-2.118v-6.94h-1.75v-3.553h1.75V9.154l4.153-1.558v5.301h3.444v3.553h-3.444v6.28c0 .95.447 1.425 1.339 1.425.729 0 1.413-.182 2.05-.546v3.334c-.438.255-.921.46-1.448.614-.53.155-1.14.233-1.83.233"/>
        <path fill="#FFF" d="M302.823 8.283h-1.27v-.687h3.295v.687h-1.268v3.32h-.757v-3.32zm5.974.418l-1.303 1.74h-.148l-1.278-1.746v2.913h-.753V7.602h.87l1.25 1.722 1.254-1.722h.865v4.006h-.757V8.7z"/>
        <path fill="#FFC20E" d="M182.644 13.252h4.054v2.044c.233-.304.485-.595.76-.873.276-.278.583-.523.922-.739a4.514 4.514 0 0 1 1.133-.51 4.856 4.856 0 0 1 1.4-.188c.943 0 1.756.197 2.442.59a3.987 3.987 0 0 1 1.587 1.693c.622-.752 1.315-1.32 2.08-1.706.764-.385 1.637-.577 2.613-.577 1.513 0 2.694.444 3.548 1.333.854.89 1.281 2.197 1.281 3.921v9.31h-4.054v-7.957c0-.957-.205-1.68-.614-2.168-.409-.488-.995-.732-1.76-.732s-1.366.244-1.8.732c-.437.488-.655 1.21-.655 2.168v7.957h-4.054v-7.957c0-.957-.205-1.68-.614-2.168-.409-.488-.995-.732-1.76-.732s-1.364.244-1.8.732c-.437.488-.655 1.21-.655 2.168v7.957h-4.054V13.252M216.414 19.28c-.125-.906-.444-1.64-.959-2.2-.517-.56-1.201-.84-2.055-.84-.853 0-1.544.276-2.067.827-.525.551-.868 1.29-1.027 2.213h6.108zm-2.613 8.59c-1.068 0-2.059-.178-2.974-.534a6.874 6.874 0 0 1-2.374-1.52 7.019 7.019 0 0 1-1.561-2.334c-.373-.898-.56-1.898-.56-3.001v-.053c0-1.014.172-1.974.52-2.881a7.37 7.37 0 0 1 1.452-2.374 6.84 6.84 0 0 1 2.229-1.6c.862-.392 1.817-.587 2.867-.587 1.19 0 2.222.213 3.095.64a6.3 6.3 0 0 1 2.173 1.72 7.183 7.183 0 0 1 1.281 2.48 10.27 10.27 0 0 1 .4 3.428c-.01.178-.023.365-.04.56h-9.95c.195.925.6 1.624 1.214 2.095.614.47 1.374.707 2.28.707.676 0 1.28-.116 1.814-.347.534-.231 1.084-.605 1.654-1.12l2.321 2.053a7.178 7.178 0 0 1-2.454 1.96c-.96.472-2.091.708-3.387.708zM222.415 13.252h4.056v2.881c.409-.978.968-1.76 1.68-2.347.711-.587 1.67-.854 2.88-.8v4.24h-.214c-1.351 0-2.412.41-3.185 1.228-.776.818-1.161 2.09-1.161 3.814v5.282h-4.056V13.252M239.353 27.87a7.503 7.503 0 0 1-2.974-.587 7.29 7.29 0 0 1-2.36-1.587 7.403 7.403 0 0 1-2.107-5.215v-.053c0-1.014.187-1.974.56-2.881a7.427 7.427 0 0 1 1.548-2.374 7.195 7.195 0 0 1 2.36-1.6c.916-.392 1.925-.587 3.028-.587 1.351 0 2.47.213 3.36.64a7.569 7.569 0 0 1 2.348 1.76l-2.482 2.668a6.595 6.595 0 0 0-1.426-1.147c-.489-.285-1.099-.427-1.827-.427a3.14 3.14 0 0 0-1.4.306c-.42.205-.784.485-1.093.84-.312.357-.553.77-.72 1.241a4.42 4.42 0 0 0-.255 1.507v.054c0 .55.085 1.066.254 1.547.168.48.413.898.733 1.253.32.356.701.636 1.146.84.445.205.943.307 1.495.307.676 0 1.267-.137 1.773-.413a7.566 7.566 0 0 0 1.508-1.107l2.373 2.4a9.114 9.114 0 0 1-2.373 1.881c-.89.49-2.046.734-3.469.734M246.876 8.077h4.054v7.22a8.76 8.76 0 0 1 .76-.874c.276-.278.583-.523.922-.739.337-.215.71-.385 1.118-.51a4.726 4.726 0 0 1 1.388-.188c1.548 0 2.743.47 3.588 1.413.845.943 1.266 2.24 1.266 3.895v9.256h-4.054v-7.957c0-.957-.214-1.68-.64-2.168-.427-.488-1.03-.732-1.815-.732-.781 0-1.4.244-1.853.732-.453.488-.68 1.21-.68 2.168v7.957h-4.054V8.077M267.815 25.016c.96 0 1.729-.231 2.307-.694.578-.462.866-1.067.866-1.814v-.72a6.174 6.174 0 0 0-1.186-.387 6.396 6.396 0 0 0-1.4-.147c-.873 0-1.557.17-2.054.507-.498.338-.746.827-.746 1.467v.054c0 .551.203.978.612 1.28.409.303.943.454 1.601.454zm-1.228 2.8a6.337 6.337 0 0 1-1.906-.28 4.49 4.49 0 0 1-1.561-.84 4.002 4.002 0 0 1-1.053-1.374c-.258-.542-.388-1.169-.388-1.88v-.054c0-.782.142-1.457.428-2.027a3.89 3.89 0 0 1 1.186-1.414c.507-.373 1.112-.653 1.816-.84a9.052 9.052 0 0 1 2.332-.28c.73 0 1.366.054 1.908.16.542.107 1.072.25 1.586.427v-.24c0-.854-.258-1.503-.773-1.947-.517-.445-1.28-.667-2.294-.667-.781 0-1.472.067-2.067.2-.595.133-1.222.325-1.88.573l-1.013-3.094c.781-.338 1.599-.613 2.453-.827.853-.213 1.885-.32 3.094-.32 1.12 0 2.076.138 2.868.414.79.276 1.444.671 1.96 1.187a4.814 4.814 0 0 1 1.175 1.96c.247.774.372 1.64.372 2.601v8.296h-3.92v-1.547a5.642 5.642 0 0 1-1.788 1.32c-.694.329-1.537.493-2.535.493zM277.364 13.252h4.056v2.044c.23-.304.483-.595.758-.873.277-.278.582-.523.921-.739a4.564 4.564 0 0 1 1.12-.51c.41-.126.871-.188 1.388-.188 1.546 0 2.743.47 3.588 1.413.843.943 1.267 2.24 1.267 3.895v9.256h-4.054v-7.957c0-.957-.214-1.68-.642-2.168-.426-.488-1.032-.732-1.813-.732-.784 0-1.4.244-1.853.732-.454.488-.68 1.21-.68 2.168v7.957h-4.056V13.252"/>
    </g>
</svg>
