<svg xmlns="http://www.w3.org/2000/svg" width="310" height="43" viewBox="0 0 310 43">
    <g fill="none" fill-rule="evenodd">
        <g fill="#FFF">
            <path d="M144.605 7.989l-4.133 1.476v3.726h-1.251v-.01s-3.868-.034-6.614-.034c-4.46 0-7.64 3.425-7.64 7.584v.054c0 4.16 3.208 7.532 7.585 7.532 2.908 0 4.541-1.115 5.954-2.664l-2.42-2.447c-1.005.95-1.955 1.548-3.344 1.548-2.255 0-3.697-1.793-3.697-4.023v-.053c0-2.147 1.468-3.97 3.536-3.97 1.466 0 6.613.028 6.613.028v-.011h1.278v7.133c0 3.372 1.714 4.377 4.241 4.377 1.387 0 2.392-.325 3.263-.843v-3.317c-.6.327-1.278.517-2.04.517-.925 0-1.331-.462-1.331-1.413v-6.454h3.424V13.19h-3.424V7.99M72.658 20.493c0 2.149-1.413 3.972-3.779 3.972-2.283 0-3.832-1.877-3.832-4.025v-.053c0-2.15 1.412-3.97 3.778-3.97 2.284 0 3.833 1.874 3.833 4.023v.053zm-3.779-7.638c-3.73 0-6.664 2.297-7.597 5.436-1.15 2.934-2.587 4.303-2.966 4.63l-.006-.007c-1.007.951-1.96 1.55-3.344 1.55-2.256 0-3.699-1.795-3.699-4.024v-.053c0-2.15 1.467-3.97 3.535-3.97 1.467 0 2.39.624 3.315 1.605l2.53-2.72c-1.36-1.523-3.072-2.447-5.818-2.447-4.458 0-7.638 3.424-7.638 7.585v.053c0 4.16 3.205 7.533 7.584 7.533 2.453 0 3.996-.796 5.27-1.976.004-.005.01-.003.013-.008.11-.097.23-.216.353-.344.106-.11.213-.222.316-.337l-.007-.01c.353-.408.73-.896 1.095-1.393 1.265 2.42 3.85 4.068 7.01 4.068 4.54 0 7.911-3.399 7.911-7.586v-.053c0-4.188-3.343-7.532-7.857-7.532zM113.576 19.485c.326-1.876 1.438-3.099 3.152-3.099 1.74 0 2.828 1.25 3.071 3.1h-6.223zm3.152-6.415c-4.24 0-7.203 3.425-7.203 7.584v.054c0 4.458 3.234 7.53 7.61 7.53 2.637 0 4.594-1.03 5.955-2.718l-2.366-2.093c-1.141 1.061-2.146 1.496-3.534 1.496-1.849 0-3.153-.98-3.56-2.856h10.139c.028-.378.054-.625.054-1.03v-.057c0-4.133-2.227-7.91-7.095-7.91zM153.439 19.485c.325-1.876 1.437-3.099 3.15-3.099 1.74 0 2.83 1.25 3.073 3.1h-6.223zm3.15-6.415c-4.24 0-7.203 3.425-7.203 7.584v.054c0 4.458 3.236 7.53 7.613 7.53 2.636 0 4.593-1.03 5.956-2.718l-2.37-2.093c-1.139 1.061-2.145 1.496-3.532 1.496-1.848 0-3.154-.98-3.561-2.856h10.14c.027-.378.053-.625.053-1.03v-.057c0-4.133-2.228-7.91-7.096-7.91zM176.113 20.654c0 2.42-1.603 4.023-3.533 4.023s-3.561-1.604-3.561-4.023V20.6c0-2.446 1.631-4.024 3.56-4.024 1.931 0 3.534 1.605 3.534 4.024v.054zm-.053-12.586v7.175c-.98-1.168-2.34-2.173-4.54-2.173-3.454 0-6.634 2.665-6.634 7.53v.054c0 4.866 3.235 7.53 6.634 7.53 2.146 0 3.535-1.006 4.54-2.365v2.093h4.13V8.068h-4.13zM87.19 13.18c-2.094 0-3.317 1.115-4.268 2.338v-2.065l-4.133 1.278v13.292h4.133v-8.127c0-1.959 1.005-2.965 2.581-2.965 1.579 0 2.502 1.006 2.502 2.965v8.127h4.132V18.59c0-3.343-1.822-5.409-4.947-5.409M102.565 13.18c-2.093 0-3.316 1.115-4.268 2.338v-2.065l-4.13 1.4v13.17h4.13v-8.127c0-1.959 1.007-2.965 2.582-2.965 1.576 0 2.501 1.006 2.501 2.965v8.127h4.132V18.59c0-3.343-1.82-5.409-4.947-5.409"/>
        </g>
        <path fill="#FFC20E" d="M22.597 14.988h-3.978a3.089 3.089 0 0 0-2.676 1.547l-1.987 3.442a3.102 3.102 0 0 0 0 3.089l1.987 3.442a3.093 3.093 0 0 0 2.676 1.544h3.978a3.09 3.09 0 0 0 2.675-1.547l1.987-3.442c.55-.955.55-2.13 0-3.086l-1.987-3.442a3.089 3.089 0 0 0-2.675-1.547"/>
        <path fill="#7AAFDE" d="M11.77 20.86l3.877-6.716-3.878-6.719H4.012l-3.878 6.72 3.878 6.715h7.757M11.77 22.035H4.011l-3.878 6.72 3.878 6.717h7.757l3.878-6.716-3.878-6.72M29.374 20.86h7.758l3.877-6.716-3.877-6.719h-7.758l-3.877 6.72 3.877 6.715M37.203 22.035h-7.758l-3.877 6.72 3.877 6.717h7.758l3.877-6.716-3.877-6.72M24.469 13.548l3.877-6.718L24.47.111h-7.757l-3.877 6.72 3.877 6.717h7.757M16.712 29.494l-3.877 6.717 3.877 6.72h7.757l3.877-6.72-3.877-6.717h-7.757"/>
        <path fill="#FFF" d="M297.634 8.405h-1.269v-.687h3.295v.687h-1.269v3.32h-.757v-3.32zm5.974.418l-1.303 1.74h-.148l-1.278-1.746v2.913h-.752V7.724h.87l1.249 1.722 1.254-1.722h.865v4.006h-.757V8.823z"/>
        <path fill="#FFC20E" d="M191.417 28.394c-1.13 0-2.2-.114-3.207-.343-1.007-.23-1.84-.496-2.498-.802v-3.767h.398c.226.162.488.34.779.535.292.195.697.399 1.218.611.448.195.951.363 1.513.502.56.14 1.168.21 1.825.21.676 0 1.272-.097 1.786-.292.514-.196.773-.505.773-.929 0-.331-.119-.582-.356-.751-.238-.17-.697-.33-1.383-.483a26.038 26.038 0 0 0-1.38-.274c-.557-.097-1.05-.21-1.478-.337-1.203-.348-2.11-.864-2.716-1.546-.607-.684-.91-1.58-.91-2.692 0-.636.157-1.236.473-1.8.314-.565.777-1.068 1.388-1.508.611-.433 1.367-.777 2.264-1.031.9-.255 1.913-.383 3.045-.383 1.074 0 2.066.1 2.968.3.904.2 1.666.439 2.285.719v3.614h-.383a8.166 8.166 0 0 0-.78-.477c-.356-.2-.702-.371-1.04-.515-.4-.17-.85-.311-1.347-.421a7.024 7.024 0 0 0-1.526-.165c-.691 0-1.279.11-1.759.33-.477.222-.718.514-.718.879 0 .322.12.577.357.764.237.186.753.369 1.545.547.411.093.882.184 1.416.274.534.088 1.048.21 1.541.361 1.104.332 1.94.817 2.51 1.458.57.64.856 1.49.856 2.551 0 .67-.17 1.309-.508 1.915a4.395 4.395 0 0 1-1.438 1.534c-.654.45-1.429.797-2.317 1.044-.89.245-1.954.368-3.196.368M215.275 28h-4.819v-7.088c0-.577-.026-1.152-.073-1.724-.052-.573-.144-.995-.282-1.267a1.454 1.454 0 0 0-.71-.694c-.312-.14-.725-.209-1.246-.209-.392 0-.79.068-1.19.203-.403.136-.83.352-1.287.65V28h-4.789V8.199h4.789v7.089c.785-.62 1.547-1.103 2.292-1.452.744-.347 1.567-.522 2.47-.522 1.567 0 2.768.461 3.599 1.382.828.92 1.246 2.254 1.246 4.001V28M228.374 20.886c0-.848-.075-1.555-.226-2.118-.148-.564-.357-1.016-.621-1.356-.285-.356-.603-.604-.958-.745a3.307 3.307 0 0 0-1.218-.209c-.428 0-.816.062-1.164.184-.345.124-.665.359-.958.707-.273.331-.49.784-.657 1.362-.163.576-.245 1.302-.245 2.175 0 .875.078 1.58.233 2.119.154.539.357.97.602 1.292.256.331.575.572.958.725.383.153.807.23 1.272.23.383 0 .774-.077 1.168-.23.398-.153.715-.38.951-.687.285-.364.498-.803.646-1.317.144-.513.217-1.223.217-2.132zm4.912-.025c0 2.35-.691 4.202-2.073 5.555-1.38 1.353-3.336 2.03-5.862 2.03-2.51 0-4.457-.677-5.85-2.03-1.39-1.353-2.085-3.205-2.085-5.555 0-2.375.695-4.235 2.085-5.58 1.393-1.344 3.34-2.017 5.85-2.017 2.518 0 4.468.677 5.856 2.03 1.386 1.353 2.079 3.209 2.079 5.567zM245.718 20.746c0-1.391-.232-2.4-.69-3.028-.461-.628-1.18-.942-2.157-.942-.428 0-.855.064-1.278.19a5.252 5.252 0 0 0-1.253.573v7.19c.256.103.536.174.841.217.306.042.668.064 1.087.064 1.169 0 2.034-.355 2.602-1.063.566-.709.848-1.776.848-3.2zm4.898-.089c0 2.283-.622 4.123-1.868 5.523-1.246 1.4-2.78 2.1-4.605 2.1-.764 0-1.431-.08-1.997-.242a9.322 9.322 0 0 1-1.806-.75v5.956h-4.788V13.709h4.788v1.489a11.172 11.172 0 0 1 2.148-1.362c.73-.347 1.573-.522 2.533-.522 1.777 0 3.155.658 4.13 1.974.977 1.314 1.465 3.104 1.465 5.369zM263.075 20.746c0-1.391-.23-2.4-.691-3.028-.463-.628-1.182-.942-2.157-.942-.428 0-.856.064-1.278.19a5.214 5.214 0 0 0-1.252.573v7.19c.256.103.535.174.841.217.306.042.67.064 1.087.064 1.168 0 2.034-.355 2.6-1.063.566-.709.85-1.776.85-3.2zm4.896-.089c0 2.283-.622 4.123-1.866 5.523-1.246 1.4-2.78 2.1-4.606 2.1-.766 0-1.43-.08-1.997-.242a9.267 9.267 0 0 1-1.805-.75v5.956h-4.789V13.709h4.789v1.489a11.172 11.172 0 0 1 2.147-1.362c.73-.347 1.576-.522 2.531-.522 1.78 0 3.157.658 4.132 1.974.977 1.314 1.464 3.104 1.464 5.369zM279.719 19.016c-.028-.942-.263-1.659-.704-2.15-.443-.493-1.121-.739-2.034-.739-.93 0-1.657.259-2.18.777-.527.517-.815 1.221-.871 2.112h5.789zm-1.588 9.365c-2.9 0-5.125-.644-6.67-1.933-1.545-1.29-2.32-3.127-2.32-5.51 0-2.334.721-4.196 2.161-5.587 1.442-1.392 3.458-2.087 6.05-2.087 2.354 0 4.123.59 5.309 1.769 1.183 1.18 1.777 2.867 1.777 5.064v1.604h-10.493c.045.661.196 1.215.452 1.66.254.446.592.8 1.011 1.064.41.262.889.45 1.438.566a8.78 8.78 0 0 0 1.79.172c.558 0 1.104-.058 1.642-.172a8.416 8.416 0 0 0 1.479-.452c.391-.162.755-.336 1.089-.522.331-.186.602-.351.813-.496h.506v3.677c-.392.145-.751.278-1.074.4a10.31 10.31 0 0 1-1.334.377c-.521.127-1.055.227-1.608.299-.553.072-1.224.107-2.018.107zM296.938 17.921h-.399c-.18-.059-.445-.103-.792-.134-.346-.028-.73-.044-1.15-.044-.5 0-1.027.068-1.578.204-.553.135-1.09.297-1.61.484V28h-4.788V13.71h4.788v2.048c.22-.186.523-.422.91-.706.388-.284.743-.51 1.061-.681a5.99 5.99 0 0 1 1.212-.502c.46-.14.895-.211 1.306-.211.155 0 .33.005.519.013.191.009.366.021.52.038v4.212"/>
    </g>
</svg>
