<svg xmlns="http://www.w3.org/2000/svg" width="20" height="20" viewBox="0 0 20 20">
    <path fill="/*%BLACK%*/ #1e1f21" fill-rule="nonzero" d="M5.87 20c-1.172 0-2.303-.502-3.325-1.512-2.21-2.182-2.04-4.955.45-7.417l10.107-9.956c.201-.198.946-.864 2.077-1.062.776-.137 1.931-.075 3.02 1 1.114 1.1 1.212 2.2 1.098 2.93-.165 1.047-.83 1.799-1.109 2.073l-10.15 10c-.285.283-.957.948-1.881.948-.567 0-1.1-.245-1.588-.727-.343-.339-1.333-1.579.381-3.276l10.101-9.984.96.946L5.91 13.947c-.891.882-.534 1.234-.382 1.384.225.223.436.335.629.335.362 0 .74-.375.923-.555l10.151-10c.184-.182.623-.676.727-1.333.096-.615-.145-1.212-.717-1.777-.542-.536-1.155-.748-1.825-.63a2.733 2.733 0 0 0-1.355.691L3.953 12.018c-1.377 1.361-2.574 3.426-.45 5.524 2.077 2.05 4.155.86 5.532-.5l8.755-8.688.961.945-8.756 8.687C8.638 19.326 7.227 20 5.87 20z" opacity=".7"/>
</svg>
