<svg xmlns="http://www.w3.org/2000/svg" width="12" height="12" viewBox="0 0 12 12"><g fill="none"><g transform="translate(-258 -316)translate(256 314)"><polygon points="0 0 16 0 16 16 0 16"/><path d="M4.4 7.2C5.4 9.1 6.9 10.6 8.8 11.6L10.3 10.1C10.5 9.9 10.7 9.9 11 10 11.7 10.2 12.5 10.3 13.3 10.3 13.7 10.3 14 10.6 14 11L14 13.3C14 13.7 13.7 14 13.3 14 7.1 14 2 8.9 2 2.7 2 2.3 2.3 2 2.7 2L5 2C5.4 2 5.7 2.3 5.7 2.7 5.7 3.5 5.8 4.3 6 5 6.1 5.3 6.1 5.5 5.9 5.7L4.4 7.2Z" fill="#2B2B2B"/></g></g></svg>
