<svg xmlns="http://www.w3.org/2000/svg" width="32" height="30" viewBox="0 0 32 30">
    <path fill="#FFF" fill-rule="evenodd" d="M27 0H5C2.243 0 0 2.243 0 5v13c0 2.757 2.243 5 5 5h6a1 1 0 1 0 0-2H5c-1.654 0-3-1.346-3-3v-7h28v7c0 1.654-1.346 3-3 3h-6a1 1 0 1 0 0 2h6c2.757 0 5-2.243 5-5V5c0-2.757-2.243-5-5-5zm3 9H2V7h28v2zM2 5c0-1.654 1.346-3 3-3h22c1.654 0 3 1.346 3 3H2zm19 14a.999.999 0 0 0 .707-1.707l-5-5a.999.999 0 0 0-1.414 0l-5 5a.999.999 0 1 0 1.414 1.414L15 15.414V29a1 1 0 1 0 2 0V15.414l3.293 3.293A.997.997 0 0 0 21 19z" opacity=".9"/>
</svg>
