<svg xmlns="http://www.w3.org/2000/svg" width="60" height="60" viewBox="0 0 60 60">
    <g fill="none" fill-rule="evenodd">
        <path fill="#2E3D87" d="M0 0h60L0 60z"/>
        <path fill="#FFF" d="M9.944 27.53a.2.2 0 0 1 .149-.056l.562.024c.033.448-.031.887-.193 1.317-.161.43-.45.854-.868 1.271a3.56 3.56 0 0 1-1.182.805 3.08 3.08 0 0 1-1.29.23 3.39 3.39 0 0 1-1.307-.331 4.324 4.324 0 0 1-1.223-.877 4.064 4.064 0 0 1-.865-1.236 3.393 3.393 0 0 1-.299-1.341 3.3 3.3 0 0 1 .273-1.337c.186-.438.467-.846.845-1.223.372-.373.75-.636 1.136-.79a3.443 3.443 0 0 1 1.19-.25l.092.538c.007.04.008.078.002.115a.22.22 0 0 1-.07.115.253.253 0 0 1-.13.063 6.944 6.944 0 0 1-.205.04c-.08.013-.171.033-.272.06a2.06 2.06 0 0 0-.333.12c-.12.054-.249.127-.387.22a2.993 2.993 0 0 0-.433.366 2.728 2.728 0 0 0-.605.884 2.357 2.357 0 0 0-.183.98c.009.334.092.67.249 1.009.157.338.388.66.695.967.315.316.642.552.98.709.339.157.672.242 1 .256.327.014.643-.041.947-.166.304-.125.58-.311.827-.559.151-.15.278-.295.38-.433.103-.138.187-.277.251-.417a2 2 0 0 0 .144-.43c.03-.146.05-.303.06-.473.004-.076.026-.132.063-.17zm-.64-4.43l2.284 2.284c.271.271.544.418.817.442.273.024.536-.09.789-.343.183-.184.313-.4.388-.65.076-.25.104-.521.085-.814l-2.64-2.64.629-.63 3.581 3.581-.375.375c-.09.09-.19.103-.3.04l-.435-.337c.016.328-.02.64-.108.939a1.94 1.94 0 0 1-.507.822c-.196.196-.401.336-.615.42a1.452 1.452 0 0 1-.651.103 1.646 1.646 0 0 1-.656-.2 2.7 2.7 0 0 1-.631-.479L8.675 23.73l.63-.629zm7.146.018l-3.582-3.582.36-.36c.07-.069.13-.103.181-.103.052 0 .114.027.188.081l.6.517a2.317 2.317 0 0 1-.13-1.04c.04-.32.181-.602.424-.845a1.325 1.325 0 0 1 .619-.364l.389.552c.042.075.035.141-.022.198a.778.778 0 0 1-.185.118c-.09.046-.198.13-.32.253-.22.219-.339.466-.359.74-.02.275.042.583.186.925l2.28 2.28-.63.63zm3.026-3.027l-3.581-3.581.36-.36c.069-.07.129-.103.18-.103.052 0 .115.027.188.081l.601.516a2.317 2.317 0 0 1-.13-1.04c.04-.32.18-.601.423-.844a1.325 1.325 0 0 1 .619-.364l.39.551c.042.076.034.142-.022.198a.778.778 0 0 1-.186.119c-.09.046-.197.13-.32.252-.219.22-.339.466-.359.741-.02.275.042.583.186.925l2.28 2.28-.629.63zm.806-8.082a2.26 2.26 0 0 1 .702-.486 1.885 1.885 0 0 1 1.593.034c.273.124.537.314.792.569.099.099.154.175.166.23.012.054-.012.11-.07.17l-2.384 2.382c.231.222.459.388.683.499.224.11.441.172.652.185.21.013.412-.02.605-.102.192-.081.373-.207.542-.377.158-.158.276-.312.354-.463a2.748 2.748 0 0 0 .265-.739.388.388 0 0 1 .088-.198.196.196 0 0 1 .18-.06l.407.053a1.69 1.69 0 0 1-.033.525 2.46 2.46 0 0 1-.177.52 3.313 3.313 0 0 1-.642.91 2.575 2.575 0 0 1-.81.559 2.123 2.123 0 0 1-.908.173 2.386 2.386 0 0 1-.955-.244 3.446 3.446 0 0 1-.947-.693 2.951 2.951 0 0 1-.585-.815 2.333 2.333 0 0 1-.234-.894 2.152 2.152 0 0 1 .152-.902c.117-.298.305-.577.564-.836zm.478.45c-.305.303-.456.63-.455.98.001.35.136.702.405 1.056l1.948-1.949c-.146-.146-.3-.26-.461-.34a1.265 1.265 0 0 0-.492-.139c-.166-.01-.33.016-.49.08-.16.064-.312.167-.455.311zm5.625.724L22.803 9.6l.375-.374c.09-.09.19-.103.3-.04l.439.34c-.017-.327.018-.64.104-.939.086-.298.255-.573.507-.825.196-.196.401-.336.616-.42.214-.086.43-.119.65-.1.22.02.439.086.658.202.219.115.43.274.633.477l2.28 2.28-.63.63-2.28-2.28c-.27-.272-.543-.42-.816-.446-.274-.026-.538.088-.792.343a1.496 1.496 0 0 0-.388.656c-.071.25-.1.521-.083.811l2.638 2.638-.63.629zm5.25-5.137c-.283.283-.58.421-.89.415-.31-.006-.613-.157-.91-.454l-2.192-2.192-.431.431a.2.2 0 0 1-.13.062c-.047.004-.095-.018-.142-.065l-.251-.251.512-.662-.961-1.251a.19.19 0 0 1-.041-.133.207.207 0 0 1 .065-.132l.319-.318 1.233 1.233 1.026-1.025.456.456-1.025 1.026 2.15 2.15c.15.15.298.225.445.225a.541.541 0 0 0 .392-.173.706.706 0 0 0 .145-.198 1.04 1.04 0 0 0 .067-.184c.014-.056.025-.106.032-.148a.167.167 0 0 1 .039-.092c.033-.033.082-.043.148-.028l.485.116c-.007.21-.059.42-.154.631a1.885 1.885 0 0 1-.387.56zm-12.47 22.708l1.895 1.896-.682.682-5.067-5.067 1.496-1.495c.32-.32.636-.562.947-.725.311-.162.613-.253.905-.272.293-.019.574.03.844.147.27.116.524.294.762.532.235.235.41.492.523.77.113.279.16.568.143.868a2.38 2.38 0 0 1-.262.923 3.6 3.6 0 0 1-.69.928l-.814.813zm-.544-.544l.813-.813c.195-.196.342-.394.44-.596.098-.201.15-.4.159-.594a1.277 1.277 0 0 0-.104-.564 1.615 1.615 0 0 0-.35-.505c-.323-.323-.675-.476-1.056-.458-.38.017-.772.228-1.175.63l-.813.814 2.086 2.086zm1.576-7.113l5.208 5.207-.63.63-5.207-5.208.63-.63zm9.126 1.29l-.28.28a.471.471 0 0 1-.176.12c-.057.018-.122.003-.195-.046l-.403-.262c-.01.18-.025.347-.048.504a2.073 2.073 0 0 1-.325.873c-.088.136-.2.272-.338.408a1.8 1.8 0 0 1-.449.333 1.178 1.178 0 0 1-1 .06 1.459 1.459 0 0 1-.502-.343 1.114 1.114 0 0 1-.292-.525c-.053-.209-.044-.45.028-.725.072-.275.216-.584.432-.93.215-.345.521-.725.917-1.14l-.28-.28c-.277-.277-.547-.428-.809-.452-.261-.023-.509.081-.742.315a1.585 1.585 0 0 0-.329.445 2.072 2.072 0 0 0-.141.403 6.9 6.9 0 0 0-.068.33.404.404 0 0 1-.106.222.267.267 0 0 1-.145.078.362.362 0 0 1-.159-.007l-.314-.089c.007-.389.077-.745.212-1.068.134-.322.34-.623.618-.901.2-.2.412-.345.633-.435a1.548 1.548 0 0 1 1.337.07c.221.114.432.27.633.471l2.29 2.291zm-2.02 1.248a1.697 1.697 0 0 0 .435-.693c.04-.122.068-.25.084-.384.015-.133.02-.272.016-.418l-.746-.746c-.28.299-.504.568-.67.807-.166.24-.284.452-.352.639a.975.975 0 0 0-.069.486.635.635 0 0 0 .182.355c.094.094.191.16.29.198a.654.654 0 0 0 .571-.044c.09-.05.177-.117.26-.2zm3.151-2.38l-3.582-3.58.375-.376c.09-.09.19-.102.3-.039l.44.34c-.017-.328.017-.64.103-.939.087-.298.256-.573.508-.825.195-.196.4-.336.615-.421.214-.085.431-.118.65-.1.22.02.439.087.658.202.22.116.43.275.633.478l2.28 2.28-.629.63-2.28-2.28c-.271-.272-.544-.42-.817-.446-.273-.026-.537.088-.792.343a1.496 1.496 0 0 0-.387.655c-.072.251-.1.522-.083.812l2.637 2.637-.629.63z"/>
    </g>
</svg>
