<svg xmlns="http://www.w3.org/2000/svg" width="20" height="20" viewBox="0 0 20 20">
    <g fill="none" fill-rule="evenodd">
        <circle cx="10" cy="10" r="10" fill="#A4B3B8"/>
        <path fill="#FFF" fill-rule="nonzero" d="M12.225 4.66l-7.32 7.32-.018.019-.018.018c-.019.018-.019.037-.037.055 0 0 0 .019-.019.019-.018.037-.018.055-.018.092l-.5 3.013-.184.185a.357.357 0 0 0 0 .517c.074.074.166.111.259.111a.365.365 0 0 0 .258-.11l.185-.185 3.013-.5c.037 0 .055-.018.092-.018 0 0 .019 0 .019-.018.018-.019.037-.019.055-.037l.019-.019.018-.018 7.32-7.32a2.22 2.22 0 0 0 0-3.142 2.198 2.198 0 0 0-3.124.019zm1.423 3.79l-.776-.776-.518-.518-.776-.776.517-.518 2.09 2.089-.537.499zm-5.877 5.877l-.777-.776 5.36-5.36.777.776-5.36 5.36zm3.271-7.448l.776.776-5.36 5.36-.776-.776 5.36-5.36zm-5.952 8.04l.315-1.922 1.59 1.59-1.905.332zm9.741-7.652l-.13.13-2.088-2.09.13-.129a1.484 1.484 0 0 1 2.088 0 1.484 1.484 0 0 1 0 2.089z"/>
    </g>
</svg>
