<svg xmlns="http://www.w3.org/2000/svg" width="20" height="20" viewBox="0 0 20 20">
    <g fill="none" fill-rule="evenodd">
        <circle cx="10" cy="10" r="10" fill="#D81E05"/>
        <path fill="#FFF" fill-rule="nonzero" d="M12.75 6.445c2.392 0 4.332 1.455 4.332 3.25 0 1.448-1.264 2.675-3.01 3.094a.108.108 0 0 0-.06.04c-.28.36-.887 1.068-1.823 1.797a.072.072 0 0 1-.115-.073c.07-.305.2-.921.27-1.555a.072.072 0 0 0-.067-.08c-1.063-.086-2.01-.46-2.7-1.017a.062.062 0 0 1 .017-.106c1.66-.655 2.794-2.004 2.794-3.545a3.25 3.25 0 0 0-.469-1.659.062.062 0 0 1 .045-.093c.255-.035.517-.053.785-.053zM11.665 8.25c0 1.674-1.69 3.047-3.861 3.224a.072.072 0 0 0-.066.08c.068.634.199 1.25.27 1.554a.072.072 0 1 1-.115.073 10.617 10.617 0 0 1-1.824-1.797.109.109 0 0 0-.06-.038C4.264 10.926 3 9.699 3 8.25 3 6.455 4.94 5 7.333 5c2.393 0 4.333 1.455 4.333 3.25z"/>
    </g>
</svg>
