<svg xmlns="http://www.w3.org/2000/svg" xmlns:xlink="http://www.w3.org/1999/xlink" width="55" height="55" viewBox="0 0 55 55">
    <defs>
        <path id="a" d="M22.814 10.749a.376.376 0 0 0-.528 0l-2.762 2.741a.37.37 0 0 0 .264.633.374.374 0 0 0 .264-.108l2.762-2.742a.37.37 0 0 0 0-.524zm-2.981 1.438l.877-.87a.37.37 0 0 0 0-.525.376.376 0 0 0-.529 0l-.876.87a.37.37 0 0 0 .264.634.373.373 0 0 0 .264-.109zM4.429 8.2a.374.374 0 0 0 .264-.108l3.96-3.932a.369.369 0 0 0 0-.524.376.376 0 0 0-.528 0l-3.96 3.931a.37.37 0 0 0 .264.633zm1.207-3.977a.369.369 0 0 0 0-.525.375.375 0 0 0-.529 0L3.85 4.945a.369.369 0 0 0 0 .525.373.373 0 0 0 .528 0l1.258-1.248zm15.341.378a.372.372 0 0 0 .374-.37V2.65a.372.372 0 0 0-.374-.372H2.794a.372.372 0 0 0-.374.371v12.646c0 .205.168.371.374.371h12.95a.372.372 0 0 0 .374-.37.372.372 0 0 0-.373-.372H3.168V3.02h17.435v1.21c0 .204.168.37.374.37zm5.836 17.294v-1.589h-8.495v1.59c0 .535.44.972.98.972h6.535c.54 0 .98-.437.98-.973zM18.318 7.737v.844h8.495v-.844a.978.978 0 0 0-.98-.973h-6.535c-.54 0-.98.436-.98.973zm0 11.826h8.495V9.323h-8.495v10.24zM27.56 7.737v14.157c0 .946-.775 1.715-1.727 1.715h-6.535c-.952 0-1.727-.77-1.727-1.715V7.737c0-.946.775-1.715 1.727-1.715h6.535c.952 0 1.727.77 1.727 1.715zm-4.509 13.81a.484.484 0 0 0-.486-.482.484.484 0 0 0-.485.482.485.485 0 1 0 .972 0zm.748 0a1.23 1.23 0 0 1-1.234 1.224 1.23 1.23 0 0 1-1.233-1.224 1.23 1.23 0 0 1 1.233-1.224c.68 0 1.234.549 1.234 1.224zm-7.505-3.984c0 .205-.168.371-.374.371H2.373C1.064 17.934 0 16.886 0 15.598V2.337C0 1.048 1.064 0 2.373 0h19.88c1.308 0 2.373 1.048 2.373 2.337V4.1c0 .205-.167.37-.373.37a.372.372 0 0 1-.374-.37V2.337c0-.88-.73-1.595-1.626-1.595H2.373c-.896 0-1.626.715-1.626 1.595v13.26c0 .88.73 1.595 1.626 1.595H15.92c.206 0 .374.166.374.371z"/>
    </defs>
    <g fill="none" fill-rule="evenodd">
        <circle cx="26.5" cy="26.5" r="26.5" stroke="#666A86" transform="translate(1 1)"/>
        <g transform="translate(7.36 13.72)">
            <use fill="#666A86" xlink:href="#a"/>
            <path stroke="#666A86" d="M22.462 11.103a.124.124 0 0 0 .176 0l-2.762 2.742a.13.13 0 0 0 0-.185.126.126 0 0 0-.088-.037.126.126 0 0 0-.088.037l2.762-2.741a.13.13 0 0 0 0 .184zm-2.982.73zm0 0zM4.43 7.698a.126.126 0 0 0-.088.037L8.3 3.804a.131.131 0 0 0 0 .186.124.124 0 0 0 .176 0l-3.96 3.93a.13.13 0 0 0 0-.184.126.126 0 0 0-.088-.037zm.855-3.832zM20.85 2.778H2.92v12.388h12.824a.128.128 0 0 0-.127.13c0 .071.058.128.127.128H2.668V2.52h18.435v1.71a.128.128 0 0 0-.126-.13.128.128 0 0 0-.126.13V2.777zm6.462 19.116c0 .813-.665 1.473-1.48 1.473h-6.535c-.815 0-1.48-.66-1.48-1.473v-2.089h9.495v2.09zM17.818 7.737c0-.814.665-1.473 1.48-1.473h6.535c.815 0 1.48.66 1.48 1.473V9.08h-9.495V7.737zm9.495 12.326h-9.495V8.823h9.495v11.24zM27.06 7.737c0-.669-.55-1.215-1.227-1.215h-6.535c-.677 0-1.227.546-1.227 1.215v14.157c0 .669.55 1.215 1.227 1.215h6.535c.677 0 1.227-.546 1.227-1.215V7.737zm-3.509 13.81a.985.985 0 0 1-.986.982.984.984 0 0 1-.985-.982c0-.543.442-.982.985-.982.544 0 .986.439.986.982zm-.252 0a.73.73 0 0 0-.734-.724.73.73 0 0 0-.733.724.73.73 0 0 0 .733.724.73.73 0 0 0 .734-.724zm-7.505-3.984c0-.072.057-.129.126-.129H2.373C1.34 17.434.5 16.608.5 15.598V2.337C.5 1.327 1.339.5 2.373.5h19.88c1.034 0 1.873.826 1.873 1.837V4.1c0-.072.058-.13.127-.13.068 0 .126.058.126.13V2.337c0-1.158-.956-2.095-2.126-2.095H2.373c-1.17 0-2.126.937-2.126 2.095v13.26c0 1.158.956 2.095 2.126 2.095H15.92a.128.128 0 0 1-.126-.129z"/>
        </g>
        <g fill="#666A86" fill-rule="nonzero" stroke="#666A86" stroke-width=".3">
            <path d="M45.446 23.034h-8.332c-.286 0-.54-.27-.54-.602v-5.426c0-.332.254-.603.54-.603h8.332c.286 0 .54.271.54.603v5.456a.556.556 0 0 1-.54.572zm-8.332-6.179c-.032 0-.063.06-.063.15v5.457c0 .09.063.15.063.15h8.332c.032 0 .063-.06.063-.15v-5.456c0-.09-.063-.151-.063-.151h-8.332zM38.354 25.506h-1.43c-.191 0-.35-.18-.35-.362v-.904a.35.35 0 0 1 .35-.362h1.43c.191 0 .35.181.35.362v.904a.35.35 0 0 1-.35.362zm-1.303-.452h1.208V24.3h-1.208v.754zM39.022 28.189h-2.099c-.19 0-.35-.18-.35-.362v-1.055a.35.35 0 0 1 .35-.361h2.1c.19 0 .349.18.349.361v1.055c.032.211-.159.362-.35.362zm-1.971-.452h1.876v-.904H37.05v.904zM42.361 28.189h-2.099c-.19 0-.35-.18-.35-.362v-1.055a.35.35 0 0 1 .35-.361h2.1c.19 0 .349.18.349.361v1.055a.35.35 0 0 1-.35.362zm-1.971-.452h1.844v-.904h-1.876v.904h.032zM45.573 28.189h-1.908c-.19 0-.35-.18-.35-.362v-1.055a.35.35 0 0 1 .35-.361h1.908c.19 0 .35.18.35.361v1.055a.35.35 0 0 1-.35.362zm-1.813-.452h1.686v-.904H43.76v.904zM39.022 30.36h-2.099c-.19 0-.35-.182-.35-.362v-1.055a.35.35 0 0 1 .35-.362h2.1c.19 0 .349.18.349.362v1.055c.032.21-.159.361-.35.361zm-1.971-.453h1.876v-.904H37.05v.904zM42.361 30.36h-2.099c-.19 0-.35-.182-.35-.362v-1.055a.35.35 0 0 1 .35-.362h2.1c.19 0 .349.18.349.362v1.055a.35.35 0 0 1-.35.361zm-1.971-.453h1.844v-.904h-1.876v.904h.032zM45.573 30.36h-1.908c-.19 0-.35-.182-.35-.362v-1.055a.35.35 0 0 1 .35-.362h1.908c.19 0 .35.18.35.362v1.055a.35.35 0 0 1-.35.361zm-1.813-.453h1.686v-.904H43.76v.904zM39.022 32.53h-2.099c-.19 0-.35-.181-.35-.362v-1.055a.35.35 0 0 1 .35-.362h2.1c.19 0 .349.181.349.362v1.055c.032.18-.159.362-.35.362zm-1.971-.452h1.876v-.905H37.05v.905zM42.361 32.53h-2.099c-.19 0-.35-.181-.35-.362v-1.055a.35.35 0 0 1 .35-.362h2.1c.19 0 .349.181.349.362v1.055c0 .18-.159.362-.35.362zm-1.971-.452h1.844v-.905h-1.876v.905h.032zM45.573 32.53h-1.908c-.19 0-.35-.181-.35-.362v-1.055a.35.35 0 0 1 .35-.362h1.908c.19 0 .35.181.35.362v1.055c0 .18-.16.362-.35.362zm-1.813-.452h1.686v-.905H43.76v.905zM39.022 34.73h-2.099c-.19 0-.35-.18-.35-.362v-1.055a.35.35 0 0 1 .35-.361h2.1c.19 0 .349.18.349.361v1.055c.032.181-.159.362-.35.362zm-1.971-.452h1.876v-.904H37.05v.904zM42.361 34.73h-2.099c-.19 0-.35-.18-.35-.362v-1.055a.35.35 0 0 1 .35-.361h2.1c.19 0 .349.18.349.361v1.055c0 .181-.159.362-.35.362zm-1.971-.452h1.844v-.904h-1.876v.904h.032zM45.573 34.73h-1.908c-.19 0-.35-.18-.35-.362v-1.055a.35.35 0 0 1 .35-.361h1.908c.19 0 .35.18.35.361v1.055c0 .181-.16.362-.35.362zm-1.813-.452h1.686v-.904H43.76v.904zM40.771 25.506h-1.43c-.192 0-.35-.18-.35-.362v-.904a.35.35 0 0 1 .35-.362h1.43c.191 0 .35.181.35.362v.904a.35.35 0 0 1-.35.362zm-1.335-.452h1.208V24.3h-1.208v.754zM43.22 25.506h-1.431c-.191 0-.35-.18-.35-.362v-.904a.35.35 0 0 1 .35-.362h1.43c.192 0 .35.181.35.362v.904a.35.35 0 0 1-.35.362zm-1.304-.452h1.208V24.3h-1.208v.754zM45.637 25.506h-1.431c-.191 0-.35-.18-.35-.362v-.904a.35.35 0 0 1 .35-.362h1.43c.191 0 .35.181.35.362v.904a.35.35 0 0 1-.35.362zm-1.304-.452h1.208V24.3h-1.208v.754zM45.223 36.237h-7.886c0 .423.254.846.572.846h6.742c.318-.085.572-.423.572-.846z"/>
            <path d="M47.227 15.167c0-.784-.7-1.447-1.559-1.447h-8.776c-.859 0-1.559.633-1.559 1.447-.031.15-.159 1.447-.159 4.461 0 2.894.128 7.988.732 15.886.095 1.025 1.017 1.839 2.13 1.839h.128V36.9h-.128c-.858 0-1.59-.633-1.653-1.417-1.209-15.012-.604-20.197-.573-20.257v-.03c0-.543.477-.995 1.082-.995h8.776c.605 0 1.082.452 1.082.995v.03s.159 1.296.159 4.431c0 2.894-.128 7.958-.764 15.826-.063.814-.795 1.417-1.653 1.417h-.096v.452h.064c1.113 0 2.035-.814 2.13-1.84 1.209-14.77.668-20.045.637-20.346z"/>
            <path d="M44.047 40.85h-5.534a.726.726 0 0 1-.731-.724v-3.889h7.028v3.889c0 .392-.35.723-.763.723zm-5.852-4.22v3.496c0 .18.16.332.35.332h5.502c.19 0 .35-.151.35-.332v-3.497h-6.202z"/>
        </g>
    </g>
</svg>
