<?xml version="1.0" encoding="UTF-8"?>
<svg width="20px" height="20px" viewBox="0 0 20 20" version="1.1" xmlns="http://www.w3.org/2000/svg" xmlns:xlink="http://www.w3.org/1999/xlink">
    <g id="Wireframes" stroke="none" stroke-width="1" fill="none" fill-rule="evenodd">
        <g id="Contacts-/-Add-contact-+-bank-info" transform="translate(-466.000000, -149.000000)">
            <g id="Padding-Group-2" transform="translate(448.000000, 131.000000)">
                <g id="Group-3" transform="translate(16.000000, 16.000000)">
                    <g id="baseline-info-24px-(1)">
                        <polygon id="Path" points="0 0 24 0 24 24 0 24"></polygon>
                        <path d="M12,2 C6.48,2 2,6.48 2,12 C2,17.52 6.48,22 12,22 C17.52,22 22,17.52 22,12 C22,6.48 17.52,2 12,2 Z M13,17 L11,17 L11,11 L13,11 L13,17 Z M13,9 L11,9 L11,7 L13,7 L13,9 Z" id="Shape" fill="#E49921"></path>
                    </g>
                </g>
            </g>
        </g>
    </g>
</svg>