<?xml version="1.0" encoding="UTF-8"?>
<svg width="20px" height="20px" viewBox="0 0 18 18" preserveAspectRatio="xMidYMid meet" version="1.1" xmlns="http://www.w3.org/2000/svg" xmlns:xlink="http://www.w3.org/1999/xlink">
    <!-- Generator: Sketch 46.2 (44496) - http://www.bohemiancoding.com/sketch -->
    <title>icon/ic_loading</title>
    <desc>Created with Sketch.</desc>
    <defs></defs>
    <g id="Symbols" stroke="none" stroke-width="1" fill="#000000" fill-rule="evenodd">
        <g id="icon/ic_loading" fill-rule="nonzero" fill="#000000">
            <g id="noun_992891" transform="translate(2.000000, 2.000000)">
                <path d="M8.26128466,13.0732751 C5.29935336,13.6909328 2.34003815,12.0987835 1.22506278,9.28649227 C0.151421542,6.58198372 1.09818266,3.53319841 3.46835556,1.89788375 L3.23395435,3.4806151 C3.20203812,3.69487245 3.35010852,3.89447973 3.56462748,3.92639597 C3.58398651,3.92927366 3.60334554,3.9305817 3.62270457,3.9305817 C3.81394037,3.9305817 3.9813698,3.79062116 4.01014674,3.59572284 L4.34736008,1.32077543 C4.36279498,1.21770168 4.33637252,1.11305829 4.27437131,1.02934357 C4.21263171,0.945890465 4.11976069,0.890167857 4.01694856,0.874994565 L1.74173954,0.538304441 C1.52826701,0.506649814 1.3276133,0.654720218 1.29622028,0.869239178 C1.26430405,1.08349653 1.41237445,1.28310381 1.62689341,1.31475843 L2.71387668,1.47564765 C0.271499838,3.36315289 -0.666104982,6.64921711 0.495436703,9.57609287 C1.57012437,12.2863568 4.16501896,13.9909977 6.98228077,13.9907361 C7.45762339,13.9907361 7.94002944,13.9420769 8.42191227,13.8416193 C8.63407676,13.7974074 8.77011317,13.5894287 8.72590134,13.3775258 C8.68142789,13.1648381 8.47397236,13.0298481 8.26128466,13.0732751 Z M12.5791328,12.5953164 L11.4034642,12.4210852 C13.7571558,10.5197147 14.6476711,7.29408203 13.5047036,4.4142958 C12.2479364,1.24778666 8.91504427,-0.546847566 5.57953605,0.149031011 C5.36710996,0.193242846 5.23107355,0.400959985 5.27528538,0.613124468 C5.31949722,0.825288952 5.52930722,0.961848583 5.73937884,0.917113531 C8.70235657,0.301287151 11.6595789,1.89265158 12.7750775,4.70363478 C13.8160177,7.32625987 12.9608195,10.2751107 10.7483966,11.9431265 L10.972595,10.4297214 C11.0045113,10.2152024 10.8564409,10.0155951 10.6419219,9.9839405 C10.4284494,9.95333231 10.2280573,10.1000947 10.1964026,10.3146136 L9.85918931,12.5890378 C9.8437544,12.6921116 9.87017686,12.796755 9.93191646,12.8804697 C9.99391768,12.9641844 10.0867887,13.0196454 10.1896008,13.0348187 L12.4637634,13.3717704 C12.4831224,13.3746481 12.5024815,13.3759562 12.5218405,13.3759562 C12.7130763,13.3759562 12.8805057,13.2359956 12.9092827,13.0410973 C12.9417221,12.8265783 12.7936517,12.6269711 12.5791328,12.5953164 Z" id="Shape" transform="translate(7.000000, 6.995368) rotate(299.000000) translate(-7.000000, -6.995368) "></path>
            </g>
        </g>
    </g>

    <animateTransform
        attributeType="xml"
        attributeName="transform"
        type="rotate"
        from="0 10 10"
        to="360 10 10"
        dur="1.5s"
        repeatCount="indefinite"
    />
</svg>
