<?xml version="1.0" encoding="UTF-8"?>
<svg width="20px" height="20px" viewBox="0 0 20 20" version="1.1" xmlns="http://www.w3.org/2000/svg" xmlns:xlink="http://www.w3.org/1999/xlink">
    <!-- Generator: sketchtool 44.1 (41455) - http://www.bohemiancoding.com/sketch -->
    <title>7C1D2C49-C004-4D23-8BD2-53AB8BA1C7D7</title>
    <desc>Created with sketchtool.</desc>
    <defs></defs>
    <g id="Symbols" stroke="none" stroke-width="1" fill="none" fill-rule="evenodd">
        <g id="icon/option/ic_print" fill-rule="nonzero" fill="/*%BLACK%*/ #1e1f21">
            <g id="noun_942605" transform="translate(0.000000, 1.000000)">
                <path d="M6.88723596,0 C5.81860674,0 4.95635955,0.864080899 4.95635955,1.93088989 L4.95635955,3.05815281 L15.0399101,3.05815281 L15.0399101,1.93088989 L15.0435056,1.93088989 C15.0435056,0.864080899 14.1776629,0 13.1089438,0 L6.88723596,0 L6.88723596,0 Z M2.0945618,3.79633258 C0.936494382,3.79633258 2.84217094e-14,4.7383191 2.84217094e-14,5.89449888 L2.84217094e-14,12.6180764 C2.84217094e-14,13.7761258 0.936494382,14.7126202 2.0945618,14.7126202 L3.10548315,14.7126202 L3.10548315,11.2035461 C3.10548315,10.5984539 3.60768539,10.0980944 4.2108764,10.0980944 L15.7817079,10.0980944 C16.3942472,10.0980944 16.8871461,10.6003191 16.8871461,11.2035461 L16.8871461,14.7126202 L17.8980674,14.7126202 C19.0616629,14.7126202 19.9962697,13.7761258 19.9962697,12.6180764 L19.9962697,5.89449888 C19.997618,4.7383191 19.0616629,3.79633258 17.8980674,3.79633258 L2.0945618,3.79633258 L2.0945618,3.79633258 Z M14.447191,5.87630562 L15.6326292,5.87630562 C15.8988764,5.87630562 16.1162247,6.09185169 16.1162247,6.35995056 L16.1162247,7.54173933 C16.1162247,7.8098382 15.8988764,8.02538427 15.6326292,8.02538427 L14.447191,8.02538427 C14.1809888,8.02538427 13.9671461,7.8098382 13.9671461,7.54173933 L13.9671461,6.35995056 C13.9671461,6.09185169 14.1809888,5.87630562 14.447191,5.87630562 Z M4.2108764,10.8399011 C4.008,10.8399011 3.84364045,11.0024539 3.84364045,11.2071685 L3.84364045,18.2289438 C3.84364045,18.4318697 4.00611236,18.5998472 4.2108764,18.5998472 L15.7853483,18.5998472 C15.9883146,18.5998472 16.1562697,18.4337708 16.1562697,18.2289438 L16.1562697,11.2071685 C16.1562697,11.002373 15.9883146,10.8399011 15.7853483,10.8399011 L4.2108764,10.8399011 Z M4.5818427,11.5744539 L15.4180674,11.5744539 L15.4180674,17.8580225 L4.5818427,17.8580225 L4.5818427,11.5744539 Z M6.0108764,12.8035326 C5.80795506,12.8035326 5.64,12.9679371 5.64,13.1707955 C5.64,13.3737303 5.80795506,13.5380674 6.0108764,13.5380674 L13.9453933,13.5380674 C14.1483146,13.5380674 14.3126292,13.3755146 14.3126292,13.1707955 C14.3126292,12.9660045 14.1501573,12.8035326 13.9453933,12.8035326 L6.0108764,12.8035326 L6.0108764,12.8035326 Z M6.0108764,14.3816944 C5.80795506,14.3816944 5.64,14.549618 5.64,14.7525978 C5.64,14.9555416 5.80795506,15.1198787 6.0108764,15.1198787 L13.9453933,15.1198787 C14.1483146,15.1198787 14.3126292,14.9573258 14.3126292,14.7525978 C14.3126292,14.5478022 14.1501573,14.3816944 13.9453933,14.3816944 L6.0108764,14.3816944 L6.0108764,14.3816944 Z M6.0108764,15.9671281 C5.80795506,15.9671281 5.64,16.1332045 5.64,16.338036 C5.64179775,16.5409753 5.80795506,16.7053169 6.0108764,16.7053169 L13.9453933,16.7053169 C14.1483146,16.7053169 14.3126292,16.542764 14.3126292,16.338036 C14.3126292,16.133236 14.1501573,15.9671281 13.9453933,15.9671281 L6.0108764,15.9671281 L6.0108764,15.9671281 Z" id="Shape"></path>
            </g>
        </g>
    </g>
</svg>