<svg xmlns="http://www.w3.org/2000/svg" width="40" height="48" viewBox="0 0 40 48">
    <g fill="#2D4088" fill-rule="nonzero" stroke="#2D4088" stroke-width=".3">
        <path d="M28.91 20.954l-9.887-6.422c-.34-.22-.406-.78-.117-1.224l4.724-7.275c.289-.445.827-.612 1.167-.392l9.888 6.421c.34.221.405.78.116 1.225l-4.75 7.316c-.289.444-.8.571-1.14.35zM24.404 6.247c-.038-.024-.128.032-.207.153l-4.75 7.316c-.079.12-.056.25-.056.25l9.888 6.422c.038.024.128-.032.207-.153l4.75-7.315c.079-.121.056-.251.056-.251l-9.888-6.422zM18.342 18.802L16.644 17.7c-.226-.147-.258-.512-.1-.754l.787-1.213c.184-.283.504-.362.73-.215l1.699 1.103c.226.147.257.512.1.754l-.787 1.213c-.184.283-.504.362-.73.215zm-1.153-1.61l1.434.93.656-1.01-1.434-.931-.656 1.01zM16.8 22.914l-2.492-1.618c-.226-.147-.257-.512-.1-.754l.919-1.415c.183-.283.503-.362.73-.215l2.49 1.617c.227.147.258.513.1.755l-.918 1.415a.506.506 0 0 1-.73.215zm-1.947-2.126l2.227 1.446.787-1.212-2.227-1.446-.787 1.212zM20.762 25.487L18.27 23.87c-.226-.147-.258-.512-.1-.755l.918-1.414c.184-.283.504-.363.73-.216l2.491 1.618c.227.147.258.512.1.754l-.918 1.415c-.184.283-.504.362-.73.215zm-1.946-2.125l2.189 1.421.787-1.212-2.227-1.446-.787 1.212.038.025zM24.574 27.963l-2.265-1.47c-.226-.148-.257-.513-.1-.755l.919-1.415c.183-.283.503-.362.73-.215l2.264 1.47c.227.147.258.512.1.755l-.918 1.414c-.184.283-.504.363-.73.216zm-1.758-2.003l2 1.298.788-1.212-2-1.299-.788 1.213zM14.91 25.824l-2.491-1.618c-.227-.147-.258-.512-.1-.754l.918-1.415c.184-.283.504-.362.73-.215l2.491 1.617c.226.147.258.512.1.755l-.918 1.414a.506.506 0 0 1-.73.216zm-1.947-2.126l2.227 1.446.787-1.212-2.226-1.446-.788 1.212zM18.872 28.397l-2.49-1.617c-.227-.147-.258-.512-.1-.755l.918-1.414c.183-.283.503-.363.73-.216l2.49 1.618c.227.147.258.512.1.754l-.918 1.415c-.183.283-.503.362-.73.215zm-1.946-2.126l2.189 1.422.787-1.212-2.226-1.447-.788 1.213.038.024zM22.684 30.873l-2.264-1.47c-.227-.148-.258-.513-.1-.756l.918-1.414c.184-.283.504-.362.73-.215l2.264 1.47c.227.147.258.512.1.755l-.918 1.414c-.184.283-.504.363-.73.216zm-1.758-2.004l2 1.3.788-1.213-2-1.3-.788 1.213zM13.02 28.734l-2.491-1.618c-.227-.147-.258-.512-.1-.754l.918-1.415c.184-.283.504-.362.73-.215l2.491 1.617c.227.147.258.512.1.755l-.918 1.414c-.12.267-.504.363-.73.216zm-1.946-2.126l2.226 1.446.788-1.213-2.227-1.446-.787 1.213zM16.982 31.307l-2.49-1.617c-.227-.148-.258-.513-.1-.755l.918-1.415c.184-.282.504-.362.73-.215l2.491 1.618c.226.147.258.512.1.754l-.918 1.415c-.158.242-.504.362-.73.215zm-1.946-2.126l2.19 1.422.787-1.213-2.227-1.446-.787 1.213.037.024zM20.794 33.782l-2.264-1.47c-.227-.147-.258-.512-.1-.755l.918-1.414c.184-.283.504-.363.73-.216l2.265 1.471c.226.147.257.512.1.755l-.919 1.414c-.157.243-.503.363-.73.215zm-1.757-2.003l2 1.3.787-1.213-2-1.3-.787 1.213zM11.104 31.684l-2.491-1.618c-.226-.147-.258-.512-.1-.754l.918-1.415c.184-.283.504-.362.73-.215l2.491 1.617c.227.148.258.513.1.755l-.918 1.415c-.12.267-.504.362-.73.215zm-1.946-2.126l2.226 1.446.788-1.212-2.227-1.446-.787 1.212zM15.067 34.257l-2.491-1.617c-.227-.147-.258-.512-.1-.755l.918-1.414c.184-.283.504-.363.73-.216l2.491 1.618c.226.147.258.512.1.754l-.918 1.415c-.158.242-.504.362-.73.215zm-1.947-2.125l2.19 1.421.787-1.212-2.227-1.446-.787 1.212.037.025zM18.878 36.733l-2.264-1.47c-.227-.148-.258-.513-.1-.755l.918-1.415c.184-.283.504-.362.73-.215l2.265 1.47c.226.147.257.512.1.755l-.919 1.414c-.157.243-.503.363-.73.216zm-1.757-2.003l2 1.298.787-1.212-2-1.299-.787 1.213zM21.21 20.665l-1.698-1.103c-.226-.147-.257-.512-.1-.754l.788-1.213c.183-.283.503-.362.73-.215l1.698 1.103c.226.147.258.512.1.754l-.787 1.213c-.184.283-.504.362-.73.215zm-1.19-1.636l1.433.932.657-1.01-1.435-.932-.656 1.01zM24.117 22.552l-1.699-1.103c-.226-.147-.257-.512-.1-.754l.788-1.213c.183-.283.503-.362.73-.215l1.698 1.103c.226.147.258.512.1.754l-.787 1.213c-.184.283-.504.362-.73.215zm-1.154-1.61l1.434.93.656-1.01-1.434-.931-.656 1.01zM26.985 24.415l-1.698-1.103c-.227-.147-.258-.512-.1-.755l.787-1.212c.184-.283.503-.363.73-.215l1.698 1.102c.227.147.258.513.1.755l-.787 1.212c-.184.283-.504.363-.73.216zm-1.154-1.611l1.434.931.657-1.01-1.435-.932-.656 1.01zM17.15 38.484l-9.359-6.078c-.368.567-.434 1.33-.057 1.575l8.001 5.195c.451.132 1.048-.125 1.416-.692z"/>
        <path d="M37.874 11.778c.683-1.05.43-2.48-.59-3.14L26.87 1.872c-1.02-.662-2.4-.353-3.11.739-.169.177-1.448 1.817-4.073 5.859-2.52 3.88-6.804 10.808-12.963 21.862-.78 1.448-.393 3.25.928 4.107l.15.098.394-.606-.15-.098c-1.02-.662-1.337-2.074-.73-3.174C18.951 9.602 24.183 3.116 24.273 3.06l.026-.04c.473-.728 1.433-.966 2.15-.5l10.416 6.764c.717.465.89 1.44.417 2.167l-.026.04s-.94 1.86-3.67 6.064c-2.52 3.88-7.08 10.571-14.685 20.63-.784 1.041-2.177 1.286-3.196.624l-.113-.073-.393.606.075.049c1.32.858 3.124.477 4.13-.823 14.294-18.872 18.246-26.361 18.47-26.79z"/>
        <path d="M11.739 43.76l-6.567-4.264c-.49-.319-.58-1.008-.238-1.534L8.32 32.75l8.34 5.416-3.385 5.214c-.342.525-1.045.7-1.536.382zm-3.27-10.167L5.425 38.28c-.158.242-.1.567.126.714l6.53 4.24c.226.147.545.068.703-.175l3.044-4.688-7.359-4.78z"/>
    </g>
</svg>
