<?xml version="1.0" encoding="UTF-8"?>
<svg width="64px" height="64px" viewBox="0 0 64 64" version="1.1" xmlns="http://www.w3.org/2000/svg" xmlns:xlink="http://www.w3.org/1999/xlink">
    <g id="Wireframes" stroke="none" stroke-width="1" fill="none" fill-rule="evenodd">
        <g id="Verify-email" transform="translate(-608.000000, -288.000000)">
            <g id="Group-3" transform="translate(382.000000, 288.000000)">
                <g id="Group-2" transform="translate(226.000000, 0.000000)">
                    <g id="Group" fill="#604AFF">
                        <circle id="Oval" cx="32" cy="32" r="32"></circle>
                    </g>
                    <g id="icons/mail" transform="translate(12.000000, 12.000000)">
                        <g id="outline-mail_outline-24px">
                            <polygon id="Path" points="0 0 40 0 40 40 0 40"></polygon>
                            <path d="M33.3333333,6.66666667 L6.66666667,6.66666667 C4.83333333,6.66666667 3.35,8.16666667 3.35,10 L3.33333333,30 C3.33333333,31.8333333 4.83333333,33.3333333 6.66666667,33.3333333 L33.3333333,33.3333333 C35.1666667,33.3333333 36.6666667,31.8333333 36.6666667,30 L36.6666667,10 C36.6666667,8.16666667 35.1666667,6.66666667 33.3333333,6.66666667 Z M33.3333333,30 L6.66666667,30 L6.66666667,13.3333333 L20,21.6666667 L33.3333333,13.3333333 L33.3333333,30 Z M20,18.3333333 L6.66666667,10 L33.3333333,10 L20,18.3333333 Z" id="Shape" fill="#FFFFFF" fill-rule="nonzero"></path>
                        </g>
                    </g>
                </g>
            </g>
        </g>
    </g>
</svg>