<svg xmlns="http://www.w3.org/2000/svg" xmlns:xlink="http://www.w3.org/1999/xlink" width="200" height="41" viewBox="0 0 200 41">
    <defs>
        <path id="a" d="M200 40.586V.034H.003v40.552z"/>
    </defs>
    <g fill="none" fill-rule="evenodd">
        <mask id="b" fill="#fff">
            <use xlink:href="#a"/>
        </mask>
        <path fill="#1A6F9A" d="M144.217 13.314c3.547 0 6.024 2.796 6.024 6.8 0 4.005-2.477 6.801-6.024 6.801s-6.025-2.796-6.025-6.8c0-4.005 2.478-6.801 6.025-6.801zm7.477-.412c-1.723-1.941-4.088-3.01-6.658-3.01-2.737 0-5.268 1.158-6.973 3.146l-.101-2.629h-3.623v27.815h4.068V27.578c1.677 1.744 4.08 2.76 6.629 2.76 2.57 0 4.935-1.07 6.658-3.01 1.687-1.9 2.616-4.462 2.616-7.213 0-2.752-.929-5.313-2.616-7.213zM172.927 20.241c0 4.059-2.511 6.893-6.107 6.893s-6.107-2.834-6.107-6.893c0-4.059 2.51-6.893 6.107-6.893 3.596 0 6.107 2.834 6.107 6.893zm.234-9.825l-.103 2.67c-1.726-2.018-4.292-3.194-7.067-3.194-2.603 0-4.997 1.082-6.74 3.047-1.709 1.923-2.65 4.517-2.65 7.302 0 2.785.941 5.379 2.65 7.302 1.743 1.965 4.137 3.047 6.74 3.047 2.775 0 5.341-1.176 7.067-3.195l.103 2.671h3.659v-19.65h-3.66zM195.879 10.44l-5.85 13.635-5.892-13.635h-4.297l8.042 18.33-4.486 10.024h4.168L200 10.44h-4.121" mask="url(#b)"/>
        <path fill="#9EACAD" d="M61.07 29.874V18.846c0-5.02-2.063-6.635-5.335-6.635-3.542 0-6.949 3.228-6.949 6.635v11.028H46.41V10.508h2.062l.18 3.9c1.344-2.555 4.393-4.438 7.621-4.438 4.752 0 7.173 3.003 7.173 8.518v11.386H61.07M76.282 28.305c4.124 0 7.532-3.003 7.532-8.114 0-5.11-3.408-8.114-7.532-8.114-4.124 0-7.531 3.003-7.531 8.114 0 5.11 3.407 8.114 7.531 8.114zM76.013 9.97c2.825 0 6.366 1.434 7.845 4.528l.09-3.99h2.062v19.366h-2.062l-.09-3.99c-1.479 3.094-5.02 4.528-7.845 4.528-5.603 0-9.638-4.348-9.638-10.22 0-5.874 4.035-10.222 9.638-10.222zM105.05 29.874V18.846c0-5.02-2.062-6.635-5.334-6.635-3.542 0-6.95 3.228-6.95 6.635v11.028h-2.375V10.508h2.062l.18 3.9c1.344-2.555 4.393-4.438 7.62-4.438 4.753 0 7.173 3.003 7.173 8.518v11.386h-2.376M120.544 12.032c-4.394 0-7.755 3.407-7.755 8.16 0 4.751 3.361 8.158 7.755 8.158 4.393 0 7.756-3.407 7.756-8.159 0-4.752-3.363-8.159-7.756-8.159zm0-2.152c5.918 0 10.132 4.662 10.132 10.311s-4.214 10.311-10.132 10.311c-5.917 0-10.131-4.662-10.131-10.31 0-5.65 4.214-10.312 10.13-10.312z" mask="url(#b)"/>
        <path fill="#1A6F9A" d="M20.296.034c-1.64 0-3.233.196-4.76.564 8.298 6.906 9.784 15.546 9.784 15.546S19.95 7.304 9.23 3.707c-.135-.046-.076-.026-.378-.137a20.195 20.195 0 0 0-7.763 10.176S22.78 15.427 39.908 25.46c.343-1.455.672-3.046.672-5.14C40.58 9.115 31.498.033 20.296.033" mask="url(#b)"/>
        <path fill="#9EACAD" d="M.274 16.977A21.394 21.394 0 0 0 0 20.329c0 10.876 8.56 19.752 19.309 20.26-4.246-6.255-5.942-14.174-5.942-14.174s4.423 8.79 11.585 13.657c7.091-1.67 12.687-6.87 14.732-13.809-5.629-2.473-20.652-8.522-39.41-9.286" mask="url(#b)"/>
    </g>
</svg>
