<svg xmlns="http://www.w3.org/2000/svg" width="24" height="24" viewBox="0 0 24 24">
    <g fill="none" fill-rule="evenodd">
        <path fill="#8E9090" fill-rule="nonzero" d="M12 2C6.486 2 2 6.486 2 12s4.486 10 10 10 10-4.486 10-10S17.514 2 12 2zm0 17.5c-4.135 0-7.5-3.365-7.5-7.5 0-1.578.479-3.07 1.388-4.344l10.456 10.456A7.404 7.404 0 0 1 12 19.5zm6.112-3.156L7.656 5.888A7.404 7.404 0 0 1 12 4.5c4.135 0 7.5 3.365 7.5 7.5 0 1.578-.479 3.07-1.388 4.344z"/>
        <path d="M0 0h24v24H0z"/>
    </g>
</svg>
