<?xml version="1.0" encoding="UTF-8"?>
<svg width="64px" height="64px" viewBox="0 0 64 64" version="1.1" xmlns="http://www.w3.org/2000/svg" xmlns:xlink="http://www.w3.org/1999/xlink">
    <g id="Wireframes" stroke="none" stroke-width="1" fill="none" fill-rule="evenodd">
        <g id="Send-money---Req-Approval" transform="translate(-608.000000, -128.000000)">
            <g id="Group" transform="translate(608.000000, 128.000000)">
                <circle id="Oval" fill="#604AFF" cx="32" cy="32" r="32"></circle>
                <g id="Icon/Waiting" transform="translate(10.000000, 10.000000)">
                    <g id="round-hourglass_empty-24px">
                        <polygon id="Path" points="0 0 44 0 44 44 0 44"></polygon>
                        <path d="M14.6666667,3.66666667 C12.65,3.66666667 11,5.31666667 11,7.33333333 L11,13.145 C11,14.1166667 11.385,15.0516667 12.0816667,15.7483333 L18.3333333,22 L12.0633333,28.27 C11.385,28.9666667 11,29.9016667 11,30.8733333 L11,36.6666667 C11,38.6833333 12.65,40.3333333 14.6666667,40.3333333 L29.3333333,40.3333333 C31.35,40.3333333 33,38.6833333 33,36.6666667 L33,30.8733333 C33,29.9016667 32.615,28.9666667 31.9366667,28.2883333 L25.6666667,22 L31.9183333,15.7666667 C32.615,15.07 33,14.135 33,13.1633333 L33,7.33333333 C33,5.31666667 31.35,3.66666667 29.3333333,3.66666667 L14.6666667,3.66666667 Z M29.3333333,30.25 L29.3333333,34.8333333 C29.3333333,35.8416667 28.5083333,36.6666667 27.5,36.6666667 L16.5,36.6666667 C15.4916667,36.6666667 14.6666667,35.8416667 14.6666667,34.8333333 L14.6666667,30.25 L22,22.9166667 L29.3333333,30.25 Z M22,21.0833333 L14.6666667,13.75 L14.6666667,9.16666667 C14.6666667,8.15833333 15.4916667,7.33333333 16.5,7.33333333 L27.5,7.33333333 C28.5083333,7.33333333 29.3333333,8.15833333 29.3333333,9.16666667 L29.3333333,13.75 L22,21.0833333 Z" id="Shape" fill="#FFFFFF" fill-rule="nonzero"></path>
                    </g>
                </g>
            </g>
        </g>
    </g>
</svg>