<svg xmlns="http://www.w3.org/2000/svg" width="24" height="24" viewBox="0 0 24 24">
    <g fill="none" fill-rule="evenodd">
        <circle cx="12" cy="12" r="12" fill="#364C8E"/>
        <path fill="#FBD034" d="M9.45 12.707c-1.648-1.043-2.192-1.505-2.238-2.19a1.65 1.65 0 0 1 .08-.54l-.155-.104c-.125.2-.204.464-.204.707 0 .395.125.695.278.933.232.362.476.59 1.076 1.045.646.493 1.088 1.067 1.342 1.668h.092v-.682c.874.503 1.645.976 2.023 1.821h.092c-.148-.876-.637-1.552-2.385-2.658M14.289 10.426a1.94 1.94 0 0 0-.83.706l.736-.039a5.05 5.05 0 0 1 .094-.667zm2.656 2.666c.074-.182.122-.357.135-.58l-1.077-.062a3.79 3.79 0 0 1-.215.79l1.157-.148zm-1.166-2.708c.078.21.136.414.179.61l.633-.035a2.036 2.036 0 0 0-.812-.575zm-.287.636a3.772 3.772 0 0 0-.305-.767 2.155 2.155 0 0 0-.131-.003c-.073 0-.147.01-.217.017-.105.265-.19.533-.26.805l.913-.052zm.529.344c.033.274.037.53.019.767l1.036-.056a2.054 2.054 0 0 0-.193-.67l-.862-.04zm-.353.787a4.793 4.793 0 0 0-.097-.808l-1.045-.048a6.71 6.71 0 0 0-.142.925l1.284-.07zm.161-2.268l.122-.174-.19-.257.032-.057.534.292-.116.357c.086.043.165.095.27.166l.346-.574-.893-.474H13.96l-1.602.977c.3.212.577.441.774.672.43-.633 1.184-1.037 1.93-1.037.245 0 .53.026.767.109zm-3.95-.058l.885-.537a1.338 1.338 0 0 0-.594-.146c-.304-.005-.819.138-1.068.176.112.077.507.333.778.507zm.182-2.023c-.314-.07-.489-.03-.67.144a.63.63 0 0 0 .322.057.48.48 0 0 0 .348-.201zm4.984 7.564h-.112c0-.624-.564-.793-1.155-.793h-1.847c.06.307.088.667.041 1.007h-.091c-.171-1.4-.952-2.095-2.045-2.839v.638h-.092c-.29-.658-.927-1.276-1.532-1.714l-.491-.355v.687h-.092c-.256-.681-.721-1.19-1.384-1.797-.716-.653-1.005-1.044-1.172-1.494a2.144 2.144 0 0 1-.134-.791c-.007-.534.26-1.018.592-1.198v.258c-.165.222-.25.502-.25.786 0 .263.06.555.19.804.403.778 1.76 1.733 2.623 2.319 2.682 1.823 3.217 2.141 3.663 3.109.049.108.098.252.14.42l2.052-.318c.05-.009.153-.022.206-.025.242-.155.432-.353.597-.6l-1.027-.08c-.053.12-.106.22-.152.3h-.084c.028-.106.053-.21.074-.313l-.263-.02v-.056l.285-.036a5.26 5.26 0 0 0 .085-.834l-1.294-.074a4.21 4.21 0 0 0-.004.378h-.083a5.033 5.033 0 0 1-.066-.388l-.284-.016v-.088l.27-.014a5.997 5.997 0 0 1-.026-.95l-.758-.035c.036.067.073.135.1.21.163.463.124 1.006.07 1.255h-.092a2.837 2.837 0 0 0-.2-.859c-.21-.5-.68-.942-1.467-1.455v.64h-.092c-.261-.84-.913-1.307-1.883-1.812-.8-.416-1.048-.918-1.003-1.694l.27.162c.07.726.62 1.145 1.195 1.14.34-.002.657-.048.964-.11.443-.09.854-.168 1.195-.045v-.429h-.268c-.096.084-.292.182-.578.187-.316.005-.913-.178-.913-.855 0-.587.49-.68.89-.68.213 0 .569-.009.688-.015.09-.006.157-.02.2-.063a.253.253 0 0 0 .07-.152c.012-.072.012-.147.012-.273v-.43h-1.85v.744l-.7-.27v-.178h.335v-.295H9.12V5.35h-.426a.502.502 0 0 0-.508.475c-.018.3.116.553.42.553h.056v.359h-.055a.92.92 0 0 1-.937-.947c0-.562.473-.99 1.044-.99h.903v.617h3.509v.91c0 .154-.008.36-.023.491a.563.563 0 0 1-.22.403c-.108.082-.269.116-.53.117-.086 0-.335-.004-.633-.023-.4-.025-.514.131-.53.276a.38.38 0 0 0 0 .09c.187-.148.453-.251.753-.155.53.169.681.184.957-.036l.028.063a.709.709 0 0 1-.16.173h.255v1.405l.797-.484h2.235l1.1.583c.137.073.191.161.213.29a.543.543 0 0 1-.063.335c-.033.054-.29.48-.425.709a2.457 2.457 0 0 1-.276 3.56c.307.102.503.272.657.494l-.216.748z"/>
        <path fill="#FFFFFE" d="M12.28 18.38h-.422v-1.228h.403c.555 0 .768.167.768.589 0 .455-.278.638-.748.638zm-.033-2.437c.335 0 .563.074.563.437 0 .387-.305.494-.653.494h-.299v-.93h.39zm.675 1.036c.3-.05.587-.287.587-.645 0-.322-.135-.676-1.073-.676h-1.581v.025a.463.463 0 0 1 .173.104c.107.107.143.265.148.476v2.4h1.31c.721 0 1.243-.278 1.243-.916 0-.52-.398-.741-.807-.768zM8.47 15.943h.46c.385 0 .586.114.586.528 0 .37-.263.588-.683.588h-.364v-1.116zm1.218 2.72h.853L9.45 17.25c.438-.119.765-.361.765-.802 0-.517-.305-.79-1.104-.79h-1.65v.025a.487.487 0 0 1 .173.107c.116.115.15.291.15.529v2.345h.685V17.33h.25l.969 1.333zM16.5 16.07c.183.104.238.242.24.243.008.01.028.008.028.008l.15-.515s-.269-.195-.906-.195c-.964 0-1.685.493-1.685 1.57 0 1.214.86 1.529 1.617 1.529.705 0 .983-.227.983-.227v-.353s-.25.235-.784.235c-.441 0-1.089-.203-1.103-1.202-.013-.921.384-1.221.915-1.221.296 0 .444.07.544.127"/>
    </g>
</svg>
