<svg xmlns="http://www.w3.org/2000/svg" width="24" height="24" viewBox="0 0 24 24">
    <g fill="none" fill-rule="evenodd">
        <circle cx="12" cy="12" r="12" fill="#D81E05"/>
        <path fill="#FFF" d="M9.082 11.694c-.34-.524-.419-1.258-.419-1.808 0-1.887 1.677-3.486 3.433-3.486H17.6l-2.123 2.15H12.07c-1.363 0-3.04 1.388-2.988 3.144zm2.097-1.546c.13-.446.577-1.022.996-1.337-.787 0-1.678.393-2.385 1.337h1.389zm1.101-1.075c-.315.289-.656.708-.84 1.075h1.652c-.157-.367-.498-.786-.812-1.075zm-2.621 1.363c-.21.367-.289.786-.341 1.206h1.546c0-.42.079-.839.21-1.206H9.659zm1.677 0c-.131.367-.183.786-.236 1.206h2.359c-.052-.42-.104-.839-.262-1.206h-1.86zm3.381-.288c-.655-.944-1.546-1.337-2.333-1.337.42.315.813.891.996 1.337h1.337zm-1.231.288c.13.367.209.786.209 1.206h1.546a2.778 2.778 0 0 0-.34-1.206h-1.415zM9.79 13.32c.707.996 1.598 1.337 2.385 1.337-.42-.315-.865-.891-.996-1.337h-1.39zm2.49 1.1c.314-.261.655-.707.812-1.1h-1.651c.183.393.524.839.839 1.1zm-1.206-1.336a4.17 4.17 0 0 1-.21-1.205H9.318c.052.419.131.812.34 1.205h1.416zm2.123 0c.158-.393.21-.786.262-1.205H11.1c.053.419.105.812.236 1.205h1.86zm.183.236c-.183.446-.576 1.022-.996 1.337.787 0 1.678-.34 2.333-1.337H13.38zm1.52-.236c.21-.393.315-.786.341-1.205h-1.546c0 .367-.078.786-.21 1.205H14.9zm.577-1.336c.026 1.808-1.625 3.197-2.988 3.197H9.082l-2.149 2.123h5.504c1.756 0 3.46-1.573 3.46-3.46 0-.55-.08-1.284-.42-1.834v-.026z"/>
    </g>
</svg>
