<svg xmlns="http://www.w3.org/2000/svg" width="32" height="32" viewBox="0 0 32 32"><g fill="none"><circle cx="16" cy="16" r="16" style="fill-opacity:0.3;fill:#BDB4FD"/><path d="M25.6 8.5C25.6 8.3 25.5 8.1 25.4 8.1 22.3 6.8 19.3 5.4 16.2 4.1 16.1 4 15.9 4 15.8 4.1 12.7 5.4 9.7 6.8 6.6 8.1 6.5 8.2 6.4 8.3 6.4 8.5 6.4 9.6 6.4 10.7 6.4 11.9 6.4 12.8 6.4 13.6 6.4 14.5 6.4 17.6 7.4 20.6 9.3 22.9 10.9 25 13.1 26.5 15.6 27.2 15.8 27.3 16.2 27.3 16.4 27.2 19.1 26.4 21.3 24.8 22.9 22.6 24.2 20.9 25.1 18.9 25.4 16.7 25.5 16 25.6 15.4 25.6 14.7 25.6 12.6 25.6 10.5 25.6 8.5Z" fill="#2E227F"/><path d="M19.9 12.3L19.3 12.3 19.3 11.1C19.3 9.4 17.9 8 16.2 8 14.5 8 13.1 9.4 13.1 11.1L13.1 12.3 12.4 12.3C11.8 12.3 11.2 12.9 11.2 13.6L11.2 19.8C11.2 20.4 11.8 21 12.4 21L19.9 21C20.6 21 21.1 20.4 21.1 19.8L21.1 13.6C21.1 12.9 20.6 12.3 19.9 12.3ZM16.2 17.9C15.5 17.9 14.9 17.3 14.9 16.7 14.9 16 15.5 15.4 16.2 15.4 16.9 15.4 17.4 16 17.4 16.7 17.4 17.3 16.9 17.9 16.2 17.9ZM18.1 12.3L14.2 12.3 14.2 11.1C14.2 10 15.1 9.2 16.2 9.2 17.2 9.2 18.1 10 18.1 11.1L18.1 12.3Z" fill="#FFF"/></g></svg>