<?xml version="1.0" encoding="UTF-8"?>
<svg width="20px" height="19px" viewBox="0 0 20 19" version="1.1" xmlns="http://www.w3.org/2000/svg" xmlns:xlink="http://www.w3.org/1999/xlink">
    <!-- Generator: sketchtool 44.1 (41455) - http://www.bohemiancoding.com/sketch -->
    <title>24FD3309-F442-43A5-8A9A-6AB5D9A68BA7</title>
    <desc>Created with sketchtool.</desc>
    <defs></defs>
    <g id="Symbols" stroke="none" stroke-width="1" fill="none" fill-rule="evenodd">
        <g id="icon/option/ic_refund" transform="translate(0.000000, -1.000000)" fill-rule="nonzero" fill="/*%BLACK%*/ #1e1f21">
            <path d="M0.0942358172,11.1849193 C-0.0166109958,11.0271282 -0.0307438795,10.82086 0.0575453168,10.6494246 C0.145834513,10.4779893 0.321961881,10.3697051 0.514791083,10.3683071 L1.25790816,10.3683071 C1.25944606,5.93208769 4.37156474,2.10481451 8.7142285,1.19854922 C13.0568923,0.29228393 17.4400041,2.55538643 19.2157195,6.62071303 C20.9914348,10.6860396 19.673123,15.4394969 16.0571781,18.0095141 C12.4412333,20.5795313 7.5185968,20.261801 4.26304093,17.2482646 C3.98021518,17.0179666 3.84905782,16.6494103 3.92281404,16.2922162 C3.99657025,15.9350221 4.26298117,15.6485588 4.61389356,15.54912 C4.96480594,15.4496811 5.34189542,15.5537943 5.59207723,15.8191934 C8.16979162,18.2042257 12.0666433,18.4551756 14.9289804,16.4204725 C17.7913175,14.3857694 18.834917,10.622881 17.4294573,7.40454703 C16.0239976,4.18621305 12.5545465,2.3941925 9.11661094,3.11084437 C5.67867542,3.82749624 3.21418096,6.85647227 3.21165277,10.3683071 L3.95476984,10.3683071 C4.14825503,10.3682403 4.32555113,10.4763174 4.41413836,10.6483314 C4.50272559,10.8203454 4.48774537,11.0274448 4.3753251,11.1849193 L2.6502319,13.5878006 C2.55330312,13.7237461 2.39663877,13.8044529 2.22967663,13.8044529 C2.06271449,13.8044529 1.90605015,13.7237461 1.80912137,13.5878006 L0.0942358172,11.1849193 Z M10.5979098,4.75409849 C10.2258328,4.75409849 9.92420478,5.05572651 9.92420478,5.42780352 L9.92420478,6.06067795 C8.45226135,6.35057527 7.59890163,7.29988692 7.59890163,8.51051446 C7.59890163,9.84567535 8.6033346,10.5336711 10.075278,11.0277215 C11.0960432,11.3727401 11.5329308,11.7014265 11.5329308,12.2240583 C11.5329308,12.7466901 10.9960083,13.0794595 10.2038944,13.0794595 C9.69958878,13.0735095 9.19963943,12.9852426 8.7237849,12.8181436 C8.63905989,12.7888167 8.55008362,12.7736425 8.46042747,12.77323 C8.10383136,12.7701514 7.79081921,13.0099591 7.70097816,13.3550661 L7.68464591,13.4203951 C7.58014436,13.8280229 7.8108904,14.2465855 8.21136076,14.3758313 C8.7406788,14.5440703 9.28976165,14.6422189 9.8445851,14.6677702 L9.8445851,15.3006446 C9.8445851,15.6727216 10.1462131,15.9743497 10.5182901,15.9743497 C10.8903672,15.9743497 11.1919952,15.6727216 11.1919952,15.3006446 L11.1919952,14.5799844 C12.7741812,14.3043778 13.6418317,13.2591142 13.6418317,12.034196 C13.6418317,10.8092777 12.9824173,10.0396207 11.3430684,9.46186763 C10.1732715,9.02089706 9.69147031,8.73304127 9.69147031,8.27777999 C9.69147031,7.89193074 9.98136763,7.50812302 10.875558,7.50812302 C11.2901659,7.50556394 11.7028936,7.56403369 12.1004762,7.68165311 C12.171997,7.70318201 12.2462708,7.71418553 12.3209615,7.71431759 C12.7163979,7.70719758 13.0469986,7.41158925 13.0981305,7.01940794 C13.1492623,6.62722664 12.9055065,6.2567348 12.5251145,6.14846376 C12.1143914,6.04273008 11.693421,5.98180916 11.2695733,5.96676755 L11.2695733,5.42984505 C11.2701156,5.25116712 11.1996557,5.07959204 11.0736942,4.9528648 C10.9477327,4.82613756 10.7765878,4.75463911 10.5979098,4.75409849 L10.5979098,4.75409849 Z" id="Shape"></path>
        </g>
    </g>
</svg>