<?xml version="1.0" encoding="UTF-8"?>
<svg width="16px" height="16px" viewBox="0 0 16 16" version="1.1" xmlns="http://www.w3.org/2000/svg" xmlns:xlink="http://www.w3.org/1999/xlink">
    <title>BePay Logo</title>
    <g id="Wireframes" stroke="none" stroke-width="1" fill="none" fill-rule="evenodd">
        <g id="BePay-Logo">
            <path d="M14.6285795,13.0624107 C14.2814258,14.9997308 12.4411633,16.2888639 10.5146648,15.9442734 L2.94955227,14.6144632 C2.02134922,14.4577564 1.19360421,13.9350768 0.649773363,13.1622679 C0.105942518,12.3894589 -0.109055814,11.4303516 0.0524292262,10.4975164 L1.39959144,2.93763625 C1.74850509,0.999802354 3.58982159,-0.288934713 5.51712757,0.0557735045 L13.0786187,1.38922706 C14.0012133,1.55189184 14.8217592,2.07669056 15.3596704,2.84812533 C15.8975816,3.61956011 16.1087748,4.57440972 15.9467705,5.50253052 L14.6285795,13.0624107 Z" id="Fill-1" fill="#0F92BD"></path>
            <path d="M8.67946179,0.241231869 C10.0999946,-0.0189926134 11.5644069,0.304089051 12.7492144,1.13910913 C13.9340219,1.97412922 14.7417259,3.25237319 14.993907,4.69148096 L15.7180407,8.74216073 C15.9625972,10.1801637 15.6325912,11.6576163 14.8006967,12.8491536 C13.9688022,14.0406909 12.7032434,14.848594 11.2827222,15.0949463 L7.2565392,15.8097721 C5.83653581,16.0700729 4.37259476,15.7474856 3.18788539,14.9132225 C2.00317602,14.0789593 1.19511851,12.8016228 0.94209395,11.3631888 L0.232442992,7.30884327 C-0.277400677,4.31905176 1.70094266,1.47615247 4.6532788,0.956057711 L8.67946179,0.241231869 Z" id="Fill-4" fill="#36A4DD"></path>
            <path d="M13.1482611,1.3128842 L13.1482611,1.3128842 L7.76824333,0.357827476 L4.75398421,0.892073767 C3.45753071,1.11771135 2.28612942,1.81069489 1.4571383,2.84243865 L1.4571383,2.84243865 L0.507936508,8.25076754 L1.04050392,11.2806027 C1.27368705,12.5815236 1.96783285,13.7521973 2.99325112,14.5739017 L2.99325112,14.5739017 L8.3732689,15.5399361 L11.387528,15.0056898 C12.6850248,14.7781506 13.8565747,14.0824784 14.6843739,13.0480065 L14.6843739,13.0480065 L15.6444444,7.64699604 L15.1010083,4.62082014 C14.8711295,3.31460052 14.1766806,2.13821047 13.1482611,1.3128842 Z" id="Path" fill="#005DA3"></path>
            <path d="M5.42075724,8.67100312 C4.63976184,8.65700108 4.01656674,8.01095404 4.0258011,7.22489532 C4.03503545,6.43883661 4.67323332,5.80779808 5.45433935,5.81235769 C6.23544538,5.81696693 6.8662866,6.45545363 6.86641052,7.24156727 C6.86548814,7.62482242 6.71206477,7.99173667 6.44041698,8.2603371 C6.16876918,8.52893753 5.80153442,8.67684063 5.42075724,8.67100312 M5.42075724,5.08468317 C4.88771498,5.08012561 4.37217952,5.27598457 3.97510396,5.63390661 L3.97510396,4.09535353 C3.97510396,3.89447423 3.8132937,3.73162939 3.61369064,3.73162939 C3.41408757,3.73162939 3.25227732,3.89447423 3.25227732,4.09535353 L3.25227732,8.77648311 C3.23431305,8.9773624 3.38156038,9.15486327 3.58116344,9.1729424 C3.7807665,9.19102154 3.95713967,9.04283274 3.97510396,8.84195346 C4.68417232,9.49239388 5.73600036,9.59037638 6.55165312,9.08197057 C7.36730589,8.57356476 7.74873977,7.58221351 7.48601036,6.65356486 C7.22328095,5.7249162 6.38017996,5.08444957 5.42075724,5.08468317" id="Fill-6" fill="#FEFEFE"></path>
            <path d="M10.4558016,5.84255568 C11.2421697,5.85462859 11.8709027,6.50511854 11.8622817,7.29770619 C11.8536607,8.09029384 11.2109297,8.726736 10.424488,8.7214317 C9.63804635,8.7161274 9.00382449,8.0710726 9.00572506,7.27843965 C9.00665454,6.89345566 9.16054688,6.52488627 9.43302504,6.25507419 C9.70550319,5.98526211 10.0738605,5.83669183 10.4558016,5.84255568 M10.4558016,9.44505339 C11.4142036,9.44105959 12.2542212,8.79812396 12.5153283,7.86872552 C12.7764355,6.93932708 12.3955561,5.94798189 11.5815012,5.43817886 C10.7674463,4.92837583 9.71686823,5.02326878 9.00572934,5.67083418 C8.98871122,5.46904874 8.81261044,5.31937357 8.61239724,5.33652533 C8.41218405,5.35367709 8.2636751,5.53116077 8.28069321,5.73294621 L8.28069321,10.4205776 C8.28069321,10.6223631 8.44299808,10.7859425 8.64321128,10.7859425 C8.84342448,10.7859425 9.00572934,10.6223631 9.00572934,10.4205776 L9.00572934,8.88239147 C9.4060036,9.23818705 9.92210018,9.43324309 10.4558016,9.43043879" id="Fill-8" fill="#FEFEFE"></path>
            <path d="M10.4634921,12.1576135 L10.4634921,12.8816792 C11.0401103,12.8874729 11.5951687,12.6639633 12.0053056,12.2608253 C12.4154426,11.8576873 12.6466777,11.3083216 12.647619,10.7348243 L11.9195767,10.7348243 C11.905676,11.5246911 11.2578185,12.1577345 10.4634921,12.1576135" id="Fill-10" fill="#FEFEFE"></path>
        </g>
    </g>
</svg>