<?xml version="1.0" encoding="UTF-8"?>
<svg width="32px" height="32px" viewBox="0 0 32 32" version="1.1" xmlns="http://www.w3.org/2000/svg" xmlns:xlink="http://www.w3.org/1999/xlink">
    <title>BePay Logo Copy</title>
    <g id="Wireframes" stroke="none" stroke-width="1" fill="none" fill-rule="evenodd">
        <g id="BePay-Logo-Copy">
            <path d="M29.2571591,26.1248213 C28.5628515,29.9994616 24.8823266,32.5777278 21.0293296,31.8885468 L5.89910454,29.2289263 C4.04269844,28.9155128 2.38720842,27.8701537 1.29954673,26.3245358 C0.211885036,24.7789178 -0.218111629,22.8607032 0.104858452,20.9950328 L2.79918288,5.87527249 C3.49701017,1.99960471 7.17964318,-0.577869425 11.0342551,0.111547009 L26.1572374,2.77845412 C28.0024266,3.10378368 29.6435184,4.15338112 30.7193408,5.69625067 C31.7951633,7.23912022 32.2175496,9.14881944 31.893541,11.005061 L29.2571591,26.1248213 Z" id="Fill-1" fill="#0F92BD"></path>
            <path d="M17.3589236,0.482463738 C20.1999893,-0.0379852268 23.1288137,0.608178102 25.4984288,2.27821827 C27.8680438,3.94825844 29.4834518,6.50474638 29.9878141,9.38296192 L31.4360813,17.4843215 C31.9251943,20.3603273 31.2651823,23.3152326 29.6013933,25.6983072 C27.9376043,28.0813818 25.4064868,29.697188 22.5654444,30.1898926 L14.5130784,31.6195443 C11.6730716,32.1401457 8.74518951,31.4949712 6.37577078,29.8264449 C4.00635204,28.1579187 2.39023701,25.6032457 1.8841879,22.7263776 L0.464885985,14.6176865 C-0.554801353,8.63810351 3.40188532,2.95230493 9.30655761,1.91211542 L17.3589236,0.482463738 Z" id="Fill-4" fill="#36A4DD"></path>
            <path d="M26.2965222,2.6257684 L26.2965222,2.6257684 L15.5364867,0.715654952 L9.50796842,1.78414753 C6.91506143,2.23542271 4.57225884,3.62138978 2.9142766,5.6848773 L2.9142766,5.6848773 L1.01587302,16.5015351 L2.08100785,22.5612053 C2.5473741,25.1630472 3.93566571,27.5043945 5.98650224,29.1478034 L5.98650224,29.1478034 L16.7465378,31.0798722 L22.775056,30.0113796 C25.3700496,29.5563011 27.7131495,28.1649569 29.3687479,26.096013 L29.3687479,26.096013 L31.2888889,15.2939921 L30.2020166,9.24164027 C29.7422589,6.62920104 28.3533612,4.27642094 26.2965222,2.6257684 Z" id="Path" fill="#005DA3"></path>
            <path d="M10.8415145,17.3420062 C9.27952369,17.3140022 8.03313349,16.0219081 8.0516022,14.4497906 C8.0700709,12.8776732 9.34646665,11.6155962 10.9086787,11.6247154 C12.4708908,11.6339339 13.7325732,12.9109073 13.732821,14.4831345 C13.7309763,15.2496448 13.4241295,15.9834733 12.880834,16.5206742 C12.3375384,17.0578751 11.6030688,17.3536813 10.8415145,17.3420062 M10.8415145,10.1693663 C9.77542995,10.1602512 8.74435904,10.5519691 7.95020792,11.2678132 L7.95020792,8.19070705 C7.95020792,7.78894847 7.62658741,7.46325879 7.22738128,7.46325879 C6.82817515,7.46325879 6.50455464,7.78894847 6.50455464,8.19070705 L6.50455464,17.5529662 C6.4686261,17.9547248 6.76312076,18.3097265 7.16232688,18.3458848 C7.561533,18.3820431 7.91427935,18.0856655 7.95020792,17.6839069 C9.36834464,18.9847878 11.4720007,19.1807528 13.1033062,18.1639411 C14.7346118,17.1471295 15.4974795,15.164427 14.9720207,13.3071297 C14.4465619,11.4498324 12.7603599,10.1688991 10.8415145,10.1693663" id="Fill-6" fill="#FEFEFE"></path>
            <path d="M20.9116032,11.6851114 C22.4843393,11.7092572 23.7418054,13.0102371 23.7245634,14.5954124 C23.7073214,16.1805877 22.4218594,17.453472 20.8489761,17.4428634 C19.2760927,17.4322548 18.007649,16.1421452 18.0114501,14.5568793 C18.0133091,13.7869113 18.3210938,13.0497725 18.8660501,12.5101484 C19.4110064,11.9705242 20.147721,11.6733837 20.9116032,11.6851114 M20.9116032,18.8901068 C22.8284073,18.8821192 24.5084424,17.5962479 25.0306567,15.737451 C25.5528709,13.8786542 24.7911122,11.8959638 23.1630024,10.8763577 C21.5348926,9.85675166 19.4337365,10.0465376 18.0114587,11.3416684 C17.9774224,10.9380975 17.6252209,10.6387471 17.2247945,10.6730507 C16.8243681,10.7073542 16.5273502,11.0623215 16.5613864,11.4658924 L16.5613864,20.8411552 C16.5613864,21.2447261 16.8859962,21.571885 17.2864226,21.571885 C17.686849,21.571885 18.0114587,21.2447261 18.0114587,20.8411552 L18.0114587,17.7647829 C18.8120072,18.4763741 19.8442004,18.8664862 20.9116032,18.8608776" id="Fill-8" fill="#FEFEFE"></path>
            <path d="M20.9269841,24.315227 L20.9269841,25.7633585 C22.0802207,25.7749458 23.1903374,25.3279266 24.0106113,24.5216507 C24.8308852,23.7153747 25.2933554,22.6166432 25.2952381,21.4696486 L23.8391534,21.4696486 C23.811352,23.0493822 22.5156369,24.3154689 20.9269841,24.315227" id="Fill-10" fill="#FEFEFE"></path>
        </g>
    </g>
</svg>