<svg xmlns="http://www.w3.org/2000/svg" width="14" height="10" viewBox="0 0 14 10"><g fill="none"><g transform="translate(-25 -19)translate(24 16)"><polygon points="0 0 16 0 16 16 0 16"/><path d="M6 9.2C4.4 9.2 1.3 9.9 1.3 11.5L1.3 12.7 10.7 12.7 10.7 11.5C10.7 9.9 7.6 9.2 6 9.2ZM2.9 11.3C3.5 10.9 4.8 10.5 6 10.5 7.2 10.5 8.5 10.9 9.1 11.3L2.9 11.3ZM6 8C7.3 8 8.3 7 8.3 5.7 8.3 4.4 7.3 3.3 6 3.3 4.7 3.3 3.7 4.4 3.7 5.7 3.7 7 4.7 8 6 8ZM6 4.7C6.6 4.7 7 5.1 7 5.7 7 6.2 6.6 6.7 6 6.7 5.4 6.7 5 6.2 5 5.7 5 5.1 5.4 4.7 6 4.7ZM10.7 9.2C11.5 9.8 12 10.5 12 11.5L12 12.7 14.7 12.7 14.7 11.5C14.7 10.2 12.3 9.4 10.7 9.2ZM10 8C11.3 8 12.3 7 12.3 5.7 12.3 4.4 11.3 3.3 10 3.3 9.6 3.3 9.3 3.4 9 3.6 9.4 4.2 9.7 4.9 9.7 5.7 9.7 6.4 9.4 7.2 9 7.8 9.3 7.9 9.6 8 10 8Z" fill="#525455"/></g></g></svg>