<svg xmlns="http://www.w3.org/2000/svg" width="12" height="12" viewBox="0 0 12 12"><g fill="none"><g transform="translate(-26 -18)translate(24 12)translate(0 4)"><polygon points="0 0 16 0 16 16 0 16"/><path d="M12.7 3.3L12.7 4.7 10 4.7 10 3.3 12.7 3.3ZM6 3.3L6 7.3 3.3 7.3 3.3 3.3 6 3.3ZM12.7 8.7L12.7 12.7 10 12.7 10 8.7 12.7 8.7ZM6 11.3L6 12.7 3.3 12.7 3.3 11.3 6 11.3ZM14 2L8.7 2 8.7 6 14 6 14 2ZM7.3 2L2 2 2 8.7 7.3 8.7 7.3 2ZM14 7.3L8.7 7.3 8.7 14 14 14 14 7.3ZM7.3 10L2 10 2 14 7.3 14 7.3 10Z" fill="#525455"/></g></g></svg>