<svg xmlns="http://www.w3.org/2000/svg" width="12" height="14" viewBox="0 0 12 14"><g fill="none"><g transform="translate(-26 -16)translate(24 16)"><polygon points="0 0 16 0 16 16 0 16"/><path d="M12.7 2L9.9 2C9.6 1.2 8.9 0.7 8 0.7 7.1 0.7 6.4 1.2 6.1 2L3.3 2C3.2 2 3.2 2 3.1 2 2.8 2.1 2.6 2.2 2.4 2.4 2.3 2.5 2.2 2.7 2.1 2.8 2 3 2 3.1 2 3.3L2 12.7C2 12.8 2 13 2.1 13.2 2.2 13.3 2.3 13.5 2.4 13.6 2.6 13.8 2.8 13.9 3.1 14 3.2 14 3.2 14 3.3 14L12.7 14C13.4 14 14 13.4 14 12.7L14 3.3C14 2.6 13.4 2 12.7 2ZM8 1.8C8.3 1.8 8.5 2.1 8.5 2.3 8.5 2.6 8.3 2.8 8 2.8 7.7 2.8 7.5 2.6 7.5 2.3 7.5 2.1 7.7 1.8 8 1.8ZM8.2 7.5C9.1 7.7 10.1 8.1 10.1 9.3 10.1 10.1 9.5 10.5 8.7 10.7L8.7 11.6 7.5 11.6 7.5 10.7C6.7 10.5 6 10 6 9.2L6.9 9.2C6.9 9.6 7.3 10 8.1 10 9 10 9.2 9.6 9.2 9.3 9.2 8.9 9 8.5 8 8.3 6.8 8 6.1 7.6 6.1 6.7 6.1 5.9 6.7 5.4 7.5 5.2L7.5 4.3 8.7 4.3 8.7 5.2C9.5 5.4 9.9 6.1 10 6.7L9.1 6.7C9.1 6.2 8.8 5.9 8.1 5.9 7.4 5.9 7 6.2 7 6.6 7 7 7.3 7.3 8.2 7.5ZM12.7 12.7L3.3 12.7 3.3 3.3 12.7 3.3 12.7 12.7Z" fill="#525455"/></g></g></svg>