<svg width="13" height="16" viewBox="0 0 13 16" fill="none" xmlns="http://www.w3.org/2000/svg">
<path d="M6.58283 2.18182V0L3.67374 2.90909L6.58283 5.81818V3.63636C8.9901 3.63636 10.9465 5.59273 10.9465 8C10.9465 8.73455 10.7646 9.43273 10.4374 10.0364L11.4992 11.0982C12.0665 10.2036 12.401 9.14182 12.401 8C12.401 4.78545 9.79738 2.18182 6.58283 2.18182ZM6.58283 12.3636C4.17556 12.3636 2.21919 10.4073 2.21919 8C2.21919 7.26545 2.40101 6.56727 2.72828 5.96364L1.66647 4.90182C1.09919 5.79636 0.764648 6.85818 0.764648 8C0.764648 11.2145 3.36828 13.8182 6.58283 13.8182V16L9.49192 13.0909L6.58283 10.1818V12.3636Z" fill="#494F59"/>
</svg>
