<svg xmlns="http://www.w3.org/2000/svg" width="120" height="65" viewBox="0 0 120 65">
    <g fill="none" fill-rule="evenodd">
        <path fill="#FFF" d="M0 0h120v65H0z"/>
        <g fill-rule="nonzero">
            <path fill="#0072BC" d="M12.863 35.579l-.9 3.281H9l3.863-12.754h3.81l3.97 12.754h-3.122l-.953-3.281h-3.705zm3.281-2.17l-.794-2.7c-.212-.741-.476-1.694-.635-2.487h-.052c-.212.794-.37 1.746-.582 2.487l-.741 2.7h2.804zm1.747-7.303l.741 2.434h3.017v10.373h2.858V28.487h3.334v10.267a19.8 19.8 0 0 0 3.122.212c2.54 0 4.075-.423 5.028-1.164a3.388 3.388 0 0 0 1.323-2.752 3.089 3.089 0 0 0-2.487-3.122v-.054a2.735 2.735 0 0 0 2.011-2.646 2.817 2.817 0 0 0-1.538-2.54A7.327 7.327 0 0 0 31.545 26H17.891v.106zm12.86 2.382h1.217c1.323 0 2.011.476 2.011 1.429 0 .953-.74 1.164-2.279 1.164h-.953l.004-2.593zm1.111 8.362a6.439 6.439 0 0 1-1.111-.053V33.2h1.006c1.429 0 2.593.529 2.593 1.8-.053 1.323-1.217 1.852-2.487 1.852l-.001-.002z"/>
            <path fill="#6D6E71" d="M43.453 26.053h6.88v1.376h-5.239v4.234h4.816v1.376h-4.816v5.769H43.4V26.053h.053zm10.69 1.058a.987.987 0 0 1-1.058 1.006 1 1 0 0 1-1.006-1.006 1.029 1.029 0 0 1 1.059-1.058 1.018 1.018 0 0 1 1.006 1.058h-.001zm-1.852 2.542h1.694v9.209h-1.694v-9.209zm3.7 2.487c0-.953 0-1.746-.053-2.487h1.482l.106 1.535h.053a3.444 3.444 0 0 1 3.021-1.695c1.27 0 3.228.741 3.228 3.916v5.451h-1.693v-5.292c0-1.482-.529-2.7-2.117-2.7a2.4 2.4 0 0 0-2.218 1.695 3.2 3.2 0 0 0-.106.794v5.5H56l-.009-6.717zm16.194 4.5c0 .794.053 1.588.106 2.223h-1.477l-.106-1.164h-.053a3.372 3.372 0 0 1-2.8 1.376 2.627 2.627 0 0 1-2.8-2.646c0-2.223 1.958-3.44 5.5-3.44v-.215a1.889 1.889 0 0 0-2.069-2.121 4.818 4.818 0 0 0-2.434.688l-.37-1.058c.917-.528 1.96-.8 3.018-.79 2.8 0 3.493 1.905 3.493 3.758l-.008 3.389zM70.6 34.153c-1.8-.053-3.863.265-3.863 2.064a1.456 1.456 0 0 0 1.535 1.588 2.317 2.317 0 0 0 2.276-1.535c.041-.173.06-.351.053-.529l-.001-1.588zm3.334-2.011c0-.953 0-1.746-.053-2.487h1.482l.106 1.535h.053a3.444 3.444 0 0 1 3.017-1.694c1.27 0 3.228.741 3.228 3.916v5.451h-1.694v-5.295c0-1.482-.529-2.7-2.117-2.7a2.4 2.4 0 0 0-2.22 1.695 3.2 3.2 0 0 0-.106.794v5.5h-1.693v-6.718l-.003.003zm16.3 6.4c-.835.36-1.737.54-2.646.529a4.35 4.35 0 0 1-4.551-4.71 4.682 4.682 0 0 1 4.922-4.869c.8 0 1.593.162 2.329.476l-.37 1.27a4.129 4.129 0 0 0-1.958-.423 3.182 3.182 0 0 0-3.228 3.493 3.161 3.161 0 0 0 3.175 3.44 4.831 4.831 0 0 0 2.064-.423l.263 1.217zm3.44-11.431a.987.987 0 0 1-1.058 1.006 1 1 0 0 1-1.006-1.006 1.029 1.029 0 0 1 1.061-1.058 1.018 1.018 0 0 1 1.006 1.058h-.003zm-1.849 2.542h1.694v9.209h-1.694v-9.209zm10.32 6.986c0 .794.053 1.588.106 2.223h-1.482l-.106-1.164h-.053a3.372 3.372 0 0 1-2.8 1.376 2.627 2.627 0 0 1-2.8-2.646c0-2.223 1.958-3.44 5.5-3.44v-.214a1.889 1.889 0 0 0-2.07-2.121 4.818 4.818 0 0 0-2.434.688l-.37-1.058a5.931 5.931 0 0 1 3.017-.794c2.8 0 3.493 1.905 3.493 3.758l-.001 3.392zm-1.588-2.486c-1.8-.053-3.863.265-3.863 2.064a1.456 1.456 0 0 0 1.535 1.588 2.317 2.317 0 0 0 2.276-1.535c.041-.173.06-.351.053-.529l-.001-1.588zm3.543-8.1h1.7v12.754h-1.7V26.053zm3.07.265v-.265h1.27v.265h-.476v1.217h-.318v-1.217h-.476zm1.908-.265l.37 1.058.371-1.058h.423v1.482h-.265v-1.217l-.423 1.164h-.212l-.423-1.164v1.164h-.265v-1.429h.424z"/>
        </g>
    </g>
</svg>
