<svg xmlns="http://www.w3.org/2000/svg" width="120" height="65" viewBox="0 0 120 65">
    <g fill="none" fill-rule="evenodd">
        <path fill="#FFF" d="M0 0h120v65H0z"/>
        <g fill-rule="nonzero">
            <g fill="#ED1B2E">
                <path d="M84.651 30.883c-.084.167-2.342 3.1-2.342 3.1-.333.418-.667.418-1 0 0 0-2.259-3.011-2.426-3.1-.335-.418-.669-.418-1.087 0l-3.016 3.761h13.8l-2.928-3.764c-.333-.417-.666-.416-1.001.003z"/>
                <path d="M81.723 18c-8.085 0-14.639 6.554-14.639 14.639 0 8.085 6.554 14.639 14.639 14.639 8.085 0 14.639-6.554 14.639-14.639A14.6 14.6 0 0 0 81.723 18zm6.861 16.647V39h-13.8V28.707s2.844-3.513 3.011-3.764c.333-.418.667-.418 1 0 .167.167 2.426 3.179 2.426 3.179a.544.544 0 0 0 1 0s2.342-3.011 2.426-3.179c.333-.418.667-.418 1 0l2.937 3.764v5.94z"/>
            </g>
            <g fill="#007AC2">
                <path d="M30.027 31.301a1.774 1.774 0 0 1-2.008 2.008h-1.255v-3.932h1.255c1.506 0 2.008.669 2.008 1.924zm3.011 4.852c0-1.924-1.589-2.593-3.43-2.677v-.085c1.589-.167 2.928-.837 2.928-2.426 0-1.84-1.506-2.175-3.179-2.175-2.008 0-4.35.084-6.357 0v.5c.418 0 1.422 0 1.422.586v7.947c0 .5-1.087.586-1.422.586v.5c1.924-.084 4.266 0 6.19 0 2.01.087 3.848-.665 3.848-2.757v.001zm-2.593-.167c0 1.673-.586 2.426-2.51 2.426h-1.171v-4.6h1.255c1.757-.002 2.426.667 2.426 2.173v.001zM46.004 38.996h-2.678v-.5c.418 0 1.589 0 1.589-.586v-7.447l-4.183 8.616h-.416l-4.015-8.616v7.445c0 .586 1.171.586 1.589.586v.5a28.264 28.264 0 0 0-3.764 0v-.5c.418 0 1.506 0 1.506-.586v-7.947c0-.5-1.087-.586-1.506-.586v-.501c1.31.084 2.623.084 3.932 0l3.43 7.278 3.513-7.194c1.253.084 2.51.084 3.764 0v.5c-.418 0-1.506 0-1.506.586v7.947c0 .586 1.087.586 1.506.586v.5c-.92-.081-1.839-.081-2.761-.081zM58.217 33.893c0 2.008-.167 4.768-3.1 4.768-2.844 0-3.1-2.76-3.1-4.768s.167-4.684 3.1-4.684c2.933 0 3.1 2.76 3.1 4.684zm2.677 0c0-3.346-2.008-5.186-5.772-5.186-3.681 0-5.772 1.84-5.772 5.186s2.008 5.27 5.772 5.27c3.764 0 5.772-1.924 5.772-5.27z"/>
            </g>
        </g>
    </g>
</svg>
