<svg xmlns="http://www.w3.org/2000/svg" width="120" height="65" viewBox="0 0 120 65">
    <g fill="none" fill-rule="evenodd">
        <path fill="#FFF" d="M0 0h120v65H0z"/>
        <path fill="#FFF" d="M39 14v37.941h41.631V14z"/>
        <path fill="#A90533" d="M39.664 14.664v36.612h40.3V14.664z"/>
        <path fill="#FDB827" d="M41.584 40.278v3.986c6.348-3.617 18.454-8.932 36.686-10.408v-.886c-13.434.738-26.13 3.174-36.686 7.308z"/>
        <path fill="#FFF" d="M41.584 45.667v2.731c9.079-6.717 22.366-11.294 36.686-12.844v-.812c-14.173 1.255-26.573 5.093-36.686 10.925z"/>
        <path fill="#FDB827" d="M63.876 24.187a3.058 3.058 0 0 0 2.51-2.879c0-1.4-.96-2.362-2.879-2.362-.886 0-2.067.074-2.879.074-.812 0-1.7 0-2.657-.074h-.074v.664h.074c.812.074.886.221.886 1.55v7.9c0 .738-.074 1.033-.738 1.107h-.222v.664c.664 0 1.772-.074 2.288-.074.518-.009 1.035.016 1.55.074 3.838.148 5.093-1.993 5.093-3.765 0-2.067-1.476-2.584-2.953-2.879h.001zm.591 3.248a2.3 2.3 0 0 1-2.584 2.584c-.3 0-.591-.074-.812-.074v-5.094h.664c1.993-.074 2.731.886 2.731 2.584h.001zm-2.657-3.543c-.248.025-.5 0-.738-.074V21.16c-.02-.42.005-.84.074-1.255a2.41 2.41 0 0 1 .886-.148c1.476 0 2.067.591 2.067 1.919a2.039 2.039 0 0 1-2.288 2.214l-.001.002zM51.918 29.206c-.808.46-1.727.69-2.657.664-2.731 0-4.06-2.067-4.06-5.388 0-2.879 1.255-4.8 3.765-4.8a2.86 2.86 0 0 1 1.993.738c.074.3.148 1.7.148 1.7h.664v-.074c.03-.917.131-1.83.3-2.731v-.074h-.074a13.273 13.273 0 0 0-3.253-.443c-2.953 0-5.979 1.772-5.979 5.905 0 4.355 2.657 6.2 5.831 6.2 1.024.028 2.04-.2 2.953-.664l.443-.886-.074-.148v.001zM76.719 29.206c-.808.46-1.727.69-2.657.664-2.731 0-4.06-2.067-4.06-5.388 0-2.879 1.255-4.8 3.765-4.8a2.86 2.86 0 0 1 1.993.738c.074.3.148 1.7.148 1.7h.664v-.074c.029-.916.127-1.83.294-2.731v-.074h-.074c-1.06-.281-2.15-.43-3.247-.443-2.953 0-5.979 1.772-5.979 5.905 0 4.355 2.657 6.2 5.905 6.2 1.024.028 2.04-.2 2.953-.664l.442-.886-.148-.148.001.001zM55.017 19.02a20.743 20.743 0 0 1-2.14-.074h-.074v.664h.074c.886.074.96.221.96 1.7v7.455c0 1.181-.074 1.329-.96 1.4h-.074v.664h.074a19.341 19.341 0 0 1 2.067-.074c.69-.01 1.38.014 2.067.074h.074v-.663h-.074c-.886-.074-.96-.221-.96-1.4v-7.458c0-1.55.074-1.624.96-1.7h.074v-.662h-.074c-.663.06-1.328.085-1.993.074h-.001z"/>
    </g>
</svg>
