<svg xmlns="http://www.w3.org/2000/svg" width="120" height="65" viewBox="0 0 120 65">
    <g fill="none" fill-rule="evenodd">
        <path fill="#FFF" d="M0 0h120v65H0z"/>
        <g fill-rule="nonzero">
            <path fill="#027BC4" d="M89.014 28.233a1.309 1.309 0 0 0-.4.635h-.061v-1.1h-.75v10.276h.75v-4.386h.058a2.253 2.253 0 0 0 2.134 1.329c1.962 0 2.886-1.9 2.886-3.636 0-1.385-.635-3.694-2.886-3.694a2.12 2.12 0 0 0-1.731.576m-.519 3.29v-.4c.058-1.909.75-2.836 2.019-2.836 1.674 0 2.251 1.5 2.251 2.828 0 1.385-.577 3-2.251 3a1.866 1.866 0 0 1-1.9-1.558 6.359 6.359 0 0 1-.115-1.039M94.528 34.736h.75v-6.983h-.75zM97.44 25.314v2.424h-1.5v.635h1.5v4.444c0 1.327 0 2.02 1.212 2.02a1.9 1.9 0 0 0 1.1-.346v-.75c-.255.232-.58.373-.923.4-.4 0-.635-.289-.635-.923v-4.903h1.554v-.635H98.19v-2.421h-.75v.055zM81.29 28.641c-.23.366-.37.781-.408 1.212v.289h.927a2.28 2.28 0 0 1 .462-1.5 1.9 1.9 0 0 1 1.385-.4c1.789.053 1.789 1.211 1.789 1.669v.4l-.923.173c-2.251.519-3.867.923-3.867 2.539a1.932 1.932 0 0 0 2.193 1.9 2.638 2.638 0 0 0 2.424-1.261l.058-.173h.058v.115c.058 1.039.808 1.154 1.789 1.154v-.634c-.462 0-.693-.058-.866-.231a3.432 3.432 0 0 1-.115-1.327v-2.313c.04-.444.002-.892-.114-1.323-.348-1.154-1.676-1.327-2.484-1.327a2.5 2.5 0 0 0-2.308 1.038m.173 4.328c0-.923.981-1.212 1.731-1.385l.688-.172 1.044-.289.519-.115v.577a2.3 2.3 0 0 1-.577 1.847 3.076 3.076 0 0 1-1.962.75c-.981 0-1.443-.577-1.443-1.212"/>
            <path fill="#007BC1" d="M100.915 28.641c-.23.366-.37.781-.408 1.212v.116h.927c0-.635.058-1.731 1.9-1.731 1.789 0 1.789 1.154 1.789 1.674v.4l-.981.173c-2.251.519-3.867.923-3.867 2.539a1.932 1.932 0 0 0 2.193 1.9 2.638 2.638 0 0 0 2.429-1.262l.058-.173h.058v.115c.058 1.039.808 1.154 1.789 1.154v-.634c-.462 0-.693-.058-.866-.231a3.432 3.432 0 0 1-.115-1.327v-2.313c.04-.444.002-.892-.114-1.323-.348-1.154-1.676-1.327-2.484-1.327a2.5 2.5 0 0 0-2.308 1.038m.173 4.328c0-.923.981-1.212 1.731-1.385l.688-.172 1.044-.289.519-.115v.577a2.163 2.163 0 0 1-.635 1.847 2.812 2.812 0 0 1-1.9.75c-.981 0-1.443-.577-1.443-1.212"/>
            <path fill="#027BC4" d="M73.739 31.211c0 1.674.866 3.636 3.232 3.636a2.813 2.813 0 0 0 2.251-.866c.224-.232.4-.506.517-.807v-.058c.058-.173.231-.75.289-.981h-.922c-.03.135-.07.269-.115.4.058.058-.058.4-.058.4a2.362 2.362 0 0 1-1.962 1.22c-1.732 0-2.366-1.559-2.366-3.001 0-1.789.981-2.943 2.424-2.943a2.132 2.132 0 0 1 2.135 2.077h.75a8.013 8.013 0 0 0-.175-.981 2.562 2.562 0 0 0-2.653-1.789c-2.02 0-3.347 1.5-3.347 3.693M71.49 25.459h-1.327v2.193h-1.094v1.207h1.1v4.68c-.046.39.057.783.289 1.1.321.268.738.393 1.154.346a4.709 4.709 0 0 0 1.033-.119l.231-.058v-1.269l-.173.058a3.524 3.524 0 0 1-.75.173c-.346 0-.4-.173-.4-1.1v-3.864h1.27v-1.212h-1.217v-2.135h-.116zM62.897 29.658c0 1.558 1.442 1.847 2.539 2.136h.058l.693.115c.807.173 1.327.349 1.327 1.039 0 .923-.981 1.039-1.558 1.039a2.19 2.19 0 0 1-1.327-.346c-.33-.36-.497-.84-.464-1.328v-.115H62.55v.346a2.631 2.631 0 0 0 1.1 1.962c.67.428 1.458.63 2.251.577 2.078 0 3.059-1.212 3.059-2.308 0-1.558-1.558-1.962-2.424-2.135l-.638-.116c-.981-.289-1.559-.466-1.559-1.039 0-.462.462-.923 1.27-.923.458-.027.91.115 1.27.4.342.228.522.632.462 1.039v.115h1.558v-.289a2.88 2.88 0 0 0-3.117-2.362c-1.789 0-2.885.866-2.885 2.193M56.262 28.757c-.182.317-.28.674-.288 1.039v.29h1.442v-.117c0-.346 0-1.327 1.385-1.327 1.498-.056 1.498 1.039 1.498 1.789v.055c-.17 0-1.036.06-1.036.06-2.308.173-2.943.751-3.347 1.27a1.9 1.9 0 0 0-.346 1.1 2.263 2.263 0 0 0 2.481 2.132 3.252 3.252 0 0 0 2.366-1.039c.117.592.67.994 1.27.923.217.007.434-.032.635-.115l.177-.058v-1.327l-.177.054a.732.732 0 0 1-.346.058c-.231.115-.231 0-.289-.75v-2.308a2.51 2.51 0 0 0-.808-2.421 3.734 3.734 0 0 0-2.135-.635 2.621 2.621 0 0 0-2.482 1.327m.924 4.155c0-.4.173-.866 1.443-1.154l1.616-.289h.115c0 .923 0 1.039-.173 1.385a1.781 1.781 0 0 1-1.731.981c-.809.001-1.27-.349-1.27-.923M40.938 31.35a3.446 3.446 0 0 0 3.578 3.752 3.033 3.033 0 0 0 2.943-1.616 3.28 3.28 0 0 0 .4-1.212v-.231h-1.5v.115a1.749 1.749 0 0 1-1.843 1.847 2.055 2.055 0 0 1-1.616-.923 3.506 3.506 0 0 1-.4-1.847c0-1.039.289-2.712 2.02-2.712a1.719 1.719 0 0 1 1.789 1.5v.115h1.554v-.115l-.058-.115a3.269 3.269 0 0 0-3.347-2.482c-2.597 0-3.52 2.135-3.52 3.924M48.345 31.333a3.446 3.446 0 0 0 3.578 3.754 3.507 3.507 0 0 0 3.522-3.809 4.023 4.023 0 0 0-1.04-2.885 3.4 3.4 0 0 0-2.482-.923c-2.655-.001-3.578 2.077-3.578 3.863m1.5 0c0-1.039.289-2.712 2.135-2.712a1.814 1.814 0 0 1 1.848 1.676c.088.32.108.654.058.981-.001 1.212-.347 2.655-2.021 2.655-1.789 0-2.02-1.789-2.02-2.6"/>
            <path fill="#007AC0" d="M63.403 42.581c0 .519.289.693.75.693.4 0 .923-.115.923-.635 0-.346-.289-.462-.577-.519-.579-.116-1.56-.289-1.56-1.04 0-.751.692-1.038 1.385-1.038.577 0 1.212.289 1.212.981h-.577c0-.4-.346-.519-.693-.519s-.808.115-.808.577c0 .4.289.4.577.519.635.115 1.558.115 1.558.981 0 .808-.75 1.1-1.443 1.1-.75 0-1.27-.289-1.27-1.1h.523zM66.421 43.617l1.5-3.52h.52l1.443 3.52h-.52l-.4-.923h-1.677l-.346.923h-.52zm1.039-1.327h1.327l-.635-1.731-.692 1.731zM73.244 40.071l-1.328 3.52h-.519l-1.27-3.52h.519l1.039 3.059 1.039-3.059zM74.266 40.045h.519v3.52h-.519zM79.008 40.071v3.52h-.635l-1.789-3v3h-.462v-3.52h.693l1.73 2.943v-2.943zM82.835 40.956a.749.749 0 0 0-.808-.519 1.2 1.2 0 0 0-1.155 1.442c0 .866.289 1.385 1.27 1.385a2.9 2.9 0 0 0 .693-.115v-.981h-.808v-.4h1.27v1.727a3.721 3.721 0 0 1-1.154.173 1.617 1.617 0 0 1-1.27-.4 1.868 1.868 0 0 1-.52-1.447c.014-.384.112-.76.289-1.1a1.536 1.536 0 0 1 1.443-.75c.577 0 1.27.289 1.27.981l-.52.004zM85.092 42.581c0 .519.289.693.75.693.4 0 .923-.115.923-.635 0-.346-.289-.462-.577-.519-.579-.116-1.56-.289-1.56-1.04 0-.751.692-1.038 1.385-1.038.577 0 1.212.289 1.212.981h-.577c0-.4-.346-.519-.693-.519s-.808.115-.808.577c0 .4.289.4.577.519.635.115 1.558.115 1.558.981 0 .808-.75 1.1-1.443 1.1-.75 0-1.27-.289-1.27-1.1h.523z"/>
            <path fill="#007BC1" d="M24.246 32.876a4.46 4.46 0 0 1-4.559-4.559 4.557 4.557 0 0 1 4.559-4.5 4.563 4.563 0 0 1 4.155 2.6h3.347a7.674 7.674 0 0 0-7.445-5.771 7.648 7.648 0 0 0-7.733 7.676 7.734 7.734 0 0 0 7.734 7.728 7.783 7.783 0 0 0 7.5-6h-3.345a4.427 4.427 0 0 1-4.213 2.826"/>
            <path fill="#007AC0" d="M11.522 43.09l-.519.462h3.575l.058-.058a16.142 16.142 0 0 1 9.811-3.232 16.522 16.522 0 0 1 9.811 3.232l.058.058h3.751l-.519-.462c-7.294-6.924-18.732-6.924-26.026 0"/>
            <path fill="#007BC1" d="M107.509 34.735h.808V25.27h-.808z"/>
        </g>
    </g>
</svg>
