<svg xmlns="http://www.w3.org/2000/svg" width="120" height="65" viewBox="0 0 120 65">
    <g fill="none" fill-rule="evenodd">
        <path fill="#FFF" d="M0 0h120v65H0z"/>
        <g fill-rule="nonzero">
            <g fill="#24B7E8">
                <path d="M20 29.841v-1.544h1.281c0-2.072.942-3.089 2.75-3.089.24.006.48.031.716.075v1.431a1.849 1.849 0 0 0-.414-.038 1.381 1.381 0 0 0-1.017.339 2.1 2.1 0 0 0-.3 1.318h1.7v1.544h-1.7v5.876h-1.77v-5.912H20zM26.479 35.755V25.472h1.808v10.283zM30.171 35.755v-7.458h1.77v7.458zM30.171 27.172v-1.7h1.77v1.7zM33.975 35.755v-6.742a7.757 7.757 0 0 1 3.39-.829c.886-.052 1.76.23 2.448.791a2.95 2.95 0 0 1 .866 2.26v4.52h-1.77v-4.633c.01-.164-.003-.33-.038-.49a1.131 1.131 0 0 0-.226-.414 1.072 1.072 0 0 0-.527-.339 3.391 3.391 0 0 0-.942-.113c-.467.002-.933.04-1.394.113v5.876h-1.807zM42.451 35.755V25.547h1.77v5.5l2.486-2.712h2.373l-3.239 3.312 3.579 4.106h-2.26l-2.449-2.936-.49.49v2.448zM50.097 30.519a2.063 2.063 0 0 1 .791-1.733 3.039 3.039 0 0 1 1.959-.6 4.2 4.2 0 0 1 2.034.527v1.394a4.183 4.183 0 0 0-1.733-.339c-.866 0-1.281.226-1.281.64 0 .23.155.431.377.49.285.14.588.24.9.3.361.098.714.224 1.055.377.367.176.678.45.9.791.253.42.383.903.377 1.394a1.926 1.926 0 0 1-.753 1.544 3.009 3.009 0 0 1-2 .6 4.5 4.5 0 0 1-2.335-.6v-1.583c.618.43 1.356.655 2.109.64.35.028.7-.037 1.017-.188a.632.632 0 0 0 .226-.527c0-.226-.113-.377-.377-.527a2.83 2.83 0 0 0-.9-.339 35.19 35.19 0 0 0-1.055-.339 2.6 2.6 0 0 1-.9-.678 1.839 1.839 0 0 1-.411-1.244z"/>
            </g>
            <path fill="#247CC7" d="M61.246 36.244a2.832 2.832 0 0 1-2.095-.745 2.842 2.842 0 0 1-.745-2.1 6.331 6.331 0 0 1 .515-2.568c.3-.73.791-1.365 1.423-1.837a3.4 3.4 0 0 1 2.042-.658 5.1 5.1 0 0 1 1.866.358l-.327.981c-.48-.22-.997-.34-1.524-.355a2.181 2.181 0 0 0-1.423.532c-.46.398-.807.909-1.009 1.482a5.7 5.7 0 0 0-.366 2.06c-.031.504.135 1 .463 1.385.335.34.8.52 1.277.494.32.002.64-.045.946-.139.298-.093.59-.202.877-.327v1a4.179 4.179 0 0 1-1.92.437zm7.341-7.9c.407-.006.805.114 1.141.344.35.25.62.593.779.992h.077l.466-1.2h.884l-1.621 7.625h-.925l.181-1.454h-.056a3.432 3.432 0 0 1-2.62 1.593 1.834 1.834 0 0 1-1.517-.689 2.944 2.944 0 0 1-.55-1.886c-.009-.919.16-1.83.494-2.686a4.64 4.64 0 0 1 1.36-1.941 2.967 2.967 0 0 1 1.907-.702v.004zm-1.322 6.933c.515-.03.998-.26 1.343-.644a4.77 4.77 0 0 0 1.085-1.676c.272-.656.414-1.36.418-2.07a1.622 1.622 0 0 0-.39-1.141 1.323 1.323 0 0 0-1.023-.424c-.51.013-.995.229-1.346.6a4.037 4.037 0 0 0-.978 1.621 6.534 6.534 0 0 0-.355 2.151c-.032.421.084.84.327 1.186.228.268.568.415.919.397zm8.719.967a2.042 2.042 0 0 1-1.183-.348 2.259 2.259 0 0 1-.786-.974h-.07l-.028.264c-.014.116-.038.278-.073.487-.035.209-.301 1.494-.8 3.855h-1.151l2.338-11.05h.962l-.181 1.454h.056a3.417 3.417 0 0 1 2.589-1.58 1.83 1.83 0 0 1 1.5.678c.397.551.591 1.222.55 1.9a7.392 7.392 0 0 1-.48 2.707 4.5 4.5 0 0 1-1.329 1.917 2.976 2.976 0 0 1-1.914.69zm1.294-6.924a2.013 2.013 0 0 0-1.36.661 4.713 4.713 0 0 0-1.1 1.663 5.408 5.408 0 0 0-.407 2.053c-.029.426.11.847.386 1.172.298.287.704.435 1.117.407a1.84 1.84 0 0 0 1.284-.564c.442-.45.77-.998.957-1.6.244-.71.367-1.458.362-2.209 0-1.055-.413-1.582-1.239-1.582v-.001zm4.715 6.785h-1.166l1.628-7.626h1.169l-1.631 7.626zm.786-9.575a.915.915 0 0 1 .223-.637.742.742 0 0 1 .578-.247.547.547 0 0 1 .612.626.944.944 0 0 1-.233.647.7.7 0 0 1-.539.264.643.643 0 0 1-.459-.17.632.632 0 0 1-.178-.483h-.004zm4 8.761c.34-.015.676-.076 1-.181v.9c-.19.074-.385.13-.585.167-.183.04-.37.064-.557.07a1.935 1.935 0 0 1-1.333-.414 1.572 1.572 0 0 1-.463-1.235c.005-.351.047-.701.125-1.044l.884-4.189h-1.2l.1-.508 1.287-.543.87-1.587h.686l-.383 1.754h1.907l-.181.884h-1.9l-.9 4.2a4.95 4.95 0 0 0-.125.919.827.827 0 0 0 .2.6c.152.148.36.225.573.21l-.005-.003zm6.318-6.951c.407-.006.805.114 1.141.344.35.25.62.593.779.992h.077l.466-1.2h.884l-1.621 7.626h-.925l.181-1.454h-.056a3.432 3.432 0 0 1-2.623 1.593 1.834 1.834 0 0 1-1.517-.689 2.944 2.944 0 0 1-.55-1.886c-.009-.919.16-1.83.494-2.686a4.64 4.64 0 0 1 1.366-1.938c.534-.452 1.21-.7 1.909-.702h-.005zm-1.322 6.938c.515-.03.998-.26 1.343-.644a4.77 4.77 0 0 0 1.086-1.677c.272-.656.414-1.36.418-2.07a1.622 1.622 0 0 0-.39-1.141 1.323 1.323 0 0 0-1.023-.424c-.51.013-.995.229-1.346.6a4.037 4.037 0 0 0-.978 1.621 6.534 6.534 0 0 0-.355 2.157c-.032.421.084.84.327 1.186.23.267.571.412.923.391l-.005.001zm6.492.828h-1.164l2.31-10.827h1.17l-2.316 10.827z"/>
        </g>
    </g>
</svg>
