<svg xmlns="http://www.w3.org/2000/svg" width="120" height="65" viewBox="0 0 120 65">
    <g fill="none" fill-rule="evenodd">
        <path fill="#FFF" d="M0 0h120v65H0z"/>
        <g fill-rule="nonzero">
            <path fill="#000" d="M30.769 32.378v-4.424c0-.59-.295-1.216-1.733-1.216v-.369h5.493v.369c-1.438 0-1.729.631-1.729 1.216v9.915c0 .59.295 1.216 1.733 1.216v.369H29v-.369c1.438 0 1.733-.627 1.733-1.216v-4.68H24.76v4.718c0 .59.295 1.216 1.733 1.216v.369H21v-.369c1.438 0 1.733-.627 1.733-1.216v-9.916c0-.59-.295-1.216-1.733-1.216v-.369h5.493v.369c-1.438 0-1.733.627-1.733 1.216v4.424h6.009M34.971 35.511h.442c.627 1.843 1.991 3.5 4.092 3.5a2.259 2.259 0 0 0 2.249-2.912c-.811-2.765-6.23-2.875-6.23-6.672a3.326 3.326 0 0 1 3.502-3.316c2.1 0 3.06 1.475 3.539 0h.406l.442 4.2h-.479c-.442-1.843-1.769-3.391-3.613-3.391a1.86 1.86 0 0 0-2.064 1.917c0 1.143 1.253 1.954 2.1 2.47 2.691 1.622 4.5 2.47 4.5 4.829 0 1.769-1.475 3.613-4.166 3.613-2.064 0-3.465-1.438-3.686 0h-.444l-.59-4.238M50.417 32.266c1.991 0 3.17-.848 3.17-2.47a2.516 2.516 0 0 0-2.322-2.58c-1.806-.111-2.47-.147-2.47.516v4.534h1.622zm-1.622 5.456c0 .7.184 1.032 1.622 1.032 2.064 0 3.576-.627 3.576-2.912 0-2.359-2.359-2.8-4.2-2.8h-1l.002 4.68zm-2.027-9.732c0-.59-.295-1.216-1.917-1.216v-.369h5.308c3.06 0 5.419.811 5.419 3.355 0 1.659-1.106 2.507-2.617 2.838v.037c1.7.332 3.318 1.364 3.318 3.281 0 2.359-2.064 3.613-5.161 3.613h-6.267v-.369c1.585 0 1.917-.627 1.917-1.216V27.99zM68.148 30.46h-.479c-.59-2.174-2.027-3.649-4.28-3.649-3.277 0-4.678 2.617-4.678 6.189 0 2.765 1.438 5.751 4.682 5.751a6.007 6.007 0 0 0 4.645-1.991l.332.405a6.99 6.99 0 0 1-5.161 2.47 6.421 6.421 0 0 1-6.82-6.815A6.617 6.617 0 0 1 63.172 26c2.728 0 3.686 1.622 4.35.037h.406l.221 4.424"/>
            <path fill="#FFF" d="M78.802 26.037H92.11v13.308H78.802z"/>
            <path fill="#EE3524" d="M78.802 26.037H92.11l-6.635 6.635-6.673-6.635M78.802 39.344H92.11l-6.636-6.672-6.672 6.672M78.801 26.037v13.308l-6.635-6.673 6.635-6.635"/>
            <path fill="#EE3524" d="M92.109 26.037v13.308l6.672-6.672-6.672-6.636"/>
        </g>
    </g>
</svg>
