<svg xmlns="http://www.w3.org/2000/svg" width="120" height="65" viewBox="0 0 120 65">
    <g fill="none" fill-rule="evenodd">
        <path fill="#FFF" d="M0 0h120v65H0z"/>
        <g fill-rule="nonzero">
            <path fill="#FFC20E" d="M48.014 19h52.754v26.377H48.014z"/>
            <path fill="#005E9D" d="M87.712 26.833v-.774h-2.788v4.979h2.788v-.779h-1.66v-1.522h1.615v-.642h-1.615v-1.262zM98.135 34.113v-.774h-2.788v4.979h2.788v-.779h-1.66v-1.522h1.638v-.642h-1.638v-1.262zM84.88 34.113v-.774h-2.788v4.979h2.788v-.779h-1.638v-1.522h1.615v-.642h-1.615v-1.262zM70.275 34.113v-.774h-2.788v4.979h2.788v-.779h-1.637v-1.522h1.615v-.642h-1.615v-1.262zM58.415 33.339v2.921c.001.298.039.596.111.885a1.838 1.838 0 0 0 1.947 1.217c.457.012.905-.12 1.283-.376.306-.217.52-.54.6-.907.072-.357.11-.72.111-1.084v-2.656h-.863v2.545c.007.274-.007.548-.044.819a1.263 1.263 0 0 1-.31.774.851.851 0 0 1-.642.266.8.8 0 0 1-.642-.288 1.513 1.513 0 0 1-.31-.774 5.789 5.789 0 0 1-.044-.907v-2.457h-1.197v.022zM93.909 36.481l-2.678-3.142h-.752v4.979h.708v-3.209l2.792 3.209h.642v-4.979h-.708zM89.04 36.481l-2.678-3.142h-.752v4.979h.708v-3.209l2.766 3.209h.664v-4.979h-.708zM74.436 36.481l-2.678-3.142h-.752v4.979h.708v-3.209l2.766 3.209h.664v-4.979h-.708zM50.648 33.339v4.979h2.788v-.779h-1.593v-4.2zM80.189 33.339h1.129v4.979h-1.129zM64.65 35.53h-.332v-1.682h.332a.746.746 0 0 1 .841.8.853.853 0 0 1-.266.686.867.867 0 0 1-.575.2v-.004zm.752.404a1.414 1.414 0 0 0 1.106-1.394 1.114 1.114 0 0 0-.4-.885 1.484 1.484 0 0 0-1.018-.332h-1.94v4.979h1.151v-2.285h.044c.177.31 1.239 2.191 1.283 2.257l.022.044h1.283l-1.531-2.384zM75.808 33.339v.774h1.306v4.2h1.151v-4.2h1.261v-.774zM55.312 36.304l.575-1.46.509 1.46h-1.084zm1.106-2.965h-.62l-1.986 4.979h.73l.553-1.46h1.5l.509 1.46h1.261l-1.947-4.979zM77.024 30.529c-.5.024-.958-.28-1.129-.752a3.533 3.533 0 0 1-.243-1.372c-.01-.44.096-.876.31-1.261a1.172 1.172 0 0 1 1.062-.6c.401-.006.774.206.974.553a2.5 2.5 0 0 1 .332 1.283 3.057 3.057 0 0 1-.354 1.571c-.183.357-.551.58-.952.575v.003zm2.5 1.347l-1.571-.952a2.472 2.472 0 0 0 1.593-2.368 2.525 2.525 0 0 0-.686-1.815 2.436 2.436 0 0 0-1.815-.686c-.361.001-.72.061-1.062.177a2.1 2.1 0 0 0-.841.531c-.24.23-.43.51-.553.819-.136.33-.204.683-.2 1.04a2.529 2.529 0 0 0 .664 1.837c.48.46 1.127.708 1.792.686l1.593 1.217 1.086-.486zM73.108 29.201l-2.678-3.142h-.752v4.979h.708v-3.209l2.766 3.209h.664v-4.979h-.708zM62.641 30.485h-.376v-1.77h.221a.837.837 0 0 1 .952.929.791.791 0 0 1-.8.841h.003zm-.379-3.872h.4a.736.736 0 0 1 .73.686.884.884 0 0 1-.266.686 1.249 1.249 0 0 1-.819.155h-.044l-.001-1.527zm1.527 1.726c.127-.057.246-.132.354-.221.278-.22.441-.553.443-.907.018-.38-.179-.74-.509-.929a2.043 2.043 0 0 0-.974-.221h-2.011v4.979h1.837c.432.008.856-.116 1.217-.354a1.3 1.3 0 0 0 .575-1.106 1.283 1.283 0 0 0-.929-1.239l-.003-.002zM66.221 29.024l.575-1.46.509 1.46h-1.084zm1.106-2.965h-.62l-1.986 4.979h.73l.553-1.46h1.5l.509 1.46h1.261l-1.947-4.979zM80.167 26.059v2.921c.001.298.039.596.111.885a1.838 1.838 0 0 0 1.947 1.217c.457.012.905-.12 1.283-.376.306-.217.52-.54.6-.907.072-.357.11-.72.111-1.084v-2.656h-.841v2.545c.007.274-.007.548-.044.819-.009.287-.118.56-.31.774a.851.851 0 0 1-.642.266.8.8 0 0 1-.642-.288 1.514 1.514 0 0 1-.31-.774 5.791 5.791 0 0 1-.044-.907v-2.457h-1.219v.022zM20 19h26.377v26.377H20z"/>
            <path fill="#FFC20E" d="M30.688 27.829l2.478 2.475 2.478-2.478v-4.622h-4.956v4.625zm11.794.266l-3.5-3.518-3.253 3.275v3.518h3.5l3.253-3.275zm-3.142 3.3l-2.478 2.5 2.478 2.478h4.6v-4.982l-4.6.004zm-8.652 1.609v8.165h4.979v-8.165l-2.478-2.456-2.501 2.456zm-8.276-1.613v4.979h4.6l2.478-2.478-2.478-2.5-4.6-.001zm1.46-3.3l3.253 3.275h3.5v-3.515l-3.253-3.275-3.5 3.515z"/>
        </g>
    </g>
</svg>
