<svg xmlns="http://www.w3.org/2000/svg" xmlns:xlink="http://www.w3.org/1999/xlink" width="120" height="65" viewBox="0 0 120 65">
    <defs>
        <path id="a" d="M100 20.645V.017H.002v20.628z"/>
    </defs>
    <g fill="none" fill-rule="evenodd">
        <path fill="#FFF" d="M0 0h120v65H0z"/>
        <g transform="translate(10 22.677)">
            <mask id="b" fill="#fff">
                <use xlink:href="#a"/>
            </mask>
            <path fill="#1A6F9A" d="M72.109 6.772c1.773 0 3.012 1.423 3.012 3.46 0 2.036-1.239 3.459-3.012 3.459-1.774 0-3.013-1.423-3.013-3.46 0-2.036 1.239-3.459 3.013-3.459zm3.738-.21c-.861-.987-2.044-1.53-3.33-1.53-1.368 0-2.633.589-3.486 1.6l-.05-1.337H67.17v14.148h2.034v-5.415a4.56 4.56 0 0 0 3.314 1.403c1.285 0 2.468-.544 3.33-1.53.843-.967 1.307-2.27 1.307-3.67 0-1.399-.464-2.702-1.308-3.668zM86.464 10.296c0 2.064-1.256 3.506-3.054 3.506-1.798 0-3.054-1.442-3.054-3.506 0-2.065 1.256-3.507 3.054-3.507 1.798 0 3.054 1.442 3.054 3.507zm.116-4.998l-.051 1.359a4.593 4.593 0 0 0-3.534-1.625c-1.3 0-2.498.55-3.37 1.55-.854.978-1.324 2.297-1.324 3.714 0 1.417.47 2.736 1.324 3.714.872 1 2.07 1.55 3.37 1.55 1.388 0 2.671-.599 3.534-1.625l.051 1.358h1.83V5.298h-1.83zM97.94 5.31l-2.926 6.936-2.946-6.936H89.92l4.021 9.324-2.243 5.099h2.084L100 5.31h-2.06" mask="url(#b)"/>
            <path fill="#9EACAD" d="M30.535 15.196v-5.61c0-2.554-1.031-3.375-2.668-3.375-1.77 0-3.474 1.642-3.474 3.375v5.61h-1.188V5.345h1.031l.09 1.984c.672-1.3 2.196-2.258 3.81-2.258 2.376 0 3.587 1.528 3.587 4.333v5.792h-1.188M38.141 14.398c2.062 0 3.766-1.528 3.766-4.128s-1.704-4.127-3.766-4.127c-2.062 0-3.766 1.528-3.766 4.127 0 2.6 1.704 4.128 3.766 4.128zm-.134-9.327c1.412 0 3.183.73 3.922 2.303l.045-2.03h1.031v9.852h-1.03l-.046-2.03c-.74 1.574-2.51 2.304-3.922 2.304-2.802 0-4.82-2.212-4.82-5.2 0-2.987 2.018-5.199 4.82-5.199zM52.525 15.196v-5.61c0-2.554-1.03-3.375-2.667-3.375-1.771 0-3.475 1.642-3.475 3.375v5.61h-1.188V5.345h1.031l.09 1.984c.673-1.3 2.197-2.258 3.81-2.258 2.377 0 3.587 1.528 3.587 4.333v5.792h-1.188M60.272 6.12c-2.197 0-3.878 1.733-3.878 4.15 0 2.418 1.681 4.15 3.878 4.15s3.878-1.732 3.878-4.15c0-2.417-1.681-4.15-3.878-4.15zm0-1.094c2.959 0 5.066 2.371 5.066 5.244 0 2.874-2.107 5.245-5.066 5.245-2.959 0-5.066-2.371-5.066-5.245 0-2.873 2.107-5.244 5.066-5.244z" mask="url(#b)"/>
            <path fill="#1A6F9A" d="M10.148.017c-.82 0-1.617.1-2.38.287 4.149 3.513 4.892 7.908 4.892 7.908S9.975 3.715 4.615 1.886l-.19-.07a10.253 10.253 0 0 0-3.88 5.176s10.845.855 19.409 5.958c.172-.74.336-1.55.336-2.615C20.29 4.637 15.75.017 10.148.017" mask="url(#b)"/>
            <path fill="#9EACAD" d="M.137 8.635C.057 9.155 0 9.725 0 10.341c0 5.532 4.28 10.046 9.654 10.305-2.123-3.182-2.97-7.21-2.97-7.21s2.21 4.471 5.792 6.947a10.072 10.072 0 0 0 7.366-7.024C17.028 12.101 9.516 9.024.137 8.635" mask="url(#b)"/>
        </g>
    </g>
</svg>
