<svg xmlns="http://www.w3.org/2000/svg" width="120" height="65" viewBox="0 0 120 65">
    <defs>
        <linearGradient id="a" x1="-247.6%" x2="-243.8%" y1="607.5%" y2="607.5%">
            <stop offset="0%" stop-color="#EA272A"/>
            <stop offset=".6%" stop-color="#EA272A"/>
            <stop offset="33.1%" stop-color="#EA272A"/>
            <stop offset="38.3%" stop-color="#C12327"/>
            <stop offset="39.3%" stop-color="#B92327"/>
            <stop offset="55.6%" stop-color="#B92327"/>
            <stop offset="63.5%" stop-color="#EA272A"/>
            <stop offset="83.1%" stop-color="#EA272A"/>
            <stop offset="100%" stop-color="#EA272A"/>
        </linearGradient>
    </defs>
    <g fill="none" fill-rule="evenodd">
        <path fill="#FFF" d="M0 0h120v65H0z"/>
        <g fill-rule="nonzero">
            <g fill="#01344E">
                <path d="M54.616 23.805v4.969h-.035l-3.266-5.734-1.842.869v7.367h1.633v-5.873l3.371 5.873h1.738V23.04zM61.949 23.04l-2.4 1.182-2.535 7.089h1.807l.591-1.7h3.058l.521 1.7h1.877l-2.919-8.271zm-2.05 5.108l1.043-3.267h.035l1.008 3.267h-2.086zM95.693 23.04l-2.4 1.182-2.535 7.089h1.807l.591-1.7h3.058l.521 1.7h1.877l-2.919-8.271zm-2.05 5.108l1.043-3.267h.035l1.008 3.267h-2.086zM70.567 23.04h-5.873l-.834 1.425v.035h2.5v6.777h1.7V24.5h1.668zM71.262 23.874v7.4H73V23.04h-.038zM78.074 22.797h-.243l-2.85 1.39a4.6 4.6 0 0 0-.869 2.954c0 3.892 2.884 4.344 3.962 4.344 1.078 0 3.962-.487 3.962-4.344.035-3.857-2.85-4.344-3.962-4.344m0 7.228c-.938 0-2.259-.591-2.259-2.884 0-2.328 1.321-2.884 2.259-2.884s2.259.591 2.259 2.884c0 2.328-1.321 2.884-2.259 2.884M88.325 23.805v4.969h-.035l-3.266-5.734-1.842.869v7.367h1.633v-5.873l3.371 5.873h1.738V23.04zM105.28 29.782h-4.1V23.04l-1.7.834v7.4h4.969zM55.033 37.984a1.669 1.669 0 0 0 1.008-1.7c0-.834-.521-2.12-2.537-2.12h-2.259l-1.738.834v7.4h3.51c1.7 0 2.155-.278 2.606-.765a2.334 2.334 0 0 0 .73-1.7 1.991 1.991 0 0 0-1.321-1.946l.001-.003zm-3.893-2.397h1.981c.765 0 1.251.209 1.251.869s-.556.938-1.216.938H51.14v-1.807zm2.12 5.421h-2.12v-2.19h2.189c.626 0 1.251.278 1.251 1.008 0 .8-.487 1.182-1.321 1.182h.001zM70.185 34.961v4.969l-3.3-5.769-1.807.9v7.367h1.6v-5.867h.035l3.371 5.873h1.738v-8.273zM61.463 34.161l-2.4 1.182-2.535 7.089h1.807l.591-1.7h3.058l.521 1.7h1.877l-2.919-8.271zm-2.085 5.143l1.043-3.267h.035l1.008 3.267h-2.086zM80.367 34.196l-2.676.452-2.711 2.884v-3.371l-1.738.869v7.4h1.738v-2.78l.8-.834 2.572 3.614h2.191l-3.545-4.865z"/>
            </g>
            <path fill="#EE2529" d="M42.766 22.97v19.392l-10.425 2.78a2.352 2.352 0 0 1-1.182.07 1.513 1.513 0 0 1-.66-.66L27.3 40.138a1.716 1.716 0 0 0-.66-.66 2.016 2.016 0 0 0-1.182.07L15 42.327V22.901l10.425-2.78c.381-.125.788-.15 1.182-.073.277.155.505.383.66.66l3.233 4.417c.145.284.376.515.66.66.39.113.808.088 1.182-.07l10.424-2.745z"/>
            <path fill="url(#a)" d="M9.934 1.159l-9.1 2.472v18.487l9.626-2.572a2.352 2.352 0 0 1 1.182-.07c.284.145.515.376.66.66l3.232 4.415c.155.277.383.505.66.66.39.113.808.088 1.182-.07l10.425-2.782V4.152L17.028 7.036a2.352 2.352 0 0 1-1.182.07 1.79 1.79 0 0 1-.7-.66l-3.4-4.657c-.209-.278-.382-.556-.66-.66a1.478 1.478 0 0 0-.382-.07 3.1 3.1 0 0 0-.765.1" transform="translate(15 20)"/>
        </g>
    </g>
</svg>
