<svg xmlns="http://www.w3.org/2000/svg" width="120" height="65" viewBox="0 0 120 65">
    <g fill="none" fill-rule="evenodd">
        <path fill="#FFF" d="M0 0h120v65H0z"/>
        <path fill="#3C54A5" d="M76.991 49a2.567 2.567 0 0 1-1.749 2.714A42.767 42.767 0 0 1 60.465 54.3a43.02 43.02 0 0 1-14.776-2.589A2.593 2.593 0 0 1 44 49V11h32.991v38z"/>
        <path fill="#FFD520" d="M52.87 34.16c-4.587-2.835-6.1-4.101-6.216-5.971a4.281 4.281 0 0 1 .241-1.449l-.483-.3a3.588 3.588 0 0 0-.542 1.93c.002.904.275 1.786.784 2.533a11.132 11.132 0 0 0 2.955 2.837 11.075 11.075 0 0 1 3.739 4.584h.241v-1.87c2.413 1.387 4.584 2.654 5.609 4.946h.241c-.422-2.352-1.749-4.222-6.574-7.238l.005-.002zM73.916 41.398h-.362c0-1.689-1.568-2.171-3.2-2.171H65.23c.193.912.234 1.849.121 2.774h-.241c-.483-3.8-2.654-5.73-5.669-7.78v1.749H59.2a13.106 13.106 0 0 0-4.222-4.7c-.422-.3-.9-.663-1.387-.965v1.87h-.241a12.472 12.472 0 0 0-3.86-4.885c-1.99-1.809-2.774-2.835-3.257-4.1a5.147 5.147 0 0 1-.363-2.182 3.767 3.767 0 0 1 1.628-3.253v.724a3.9 3.9 0 0 0-.728 2.171c0 .757.187 1.503.543 2.171 1.146 2.111 4.885 4.7 7.3 6.333 7.418 5.006 8.926 5.85 10.133 8.5.175.365.298.754.364 1.154 1.086-.181 4.946-.784 5.669-.844.121 0 .422-.06.543-.06a5.246 5.246 0 0 0 1.628-1.628l-2.835-.241c-.121.3-.3.6-.422.844h-.241c.06-.3.121-.543.181-.844l-.724-.06v-.181l.784-.121a15.59 15.59 0 0 0 .241-2.292l-3.438-.181v1.025h-.241l-.185-1.09-.784-.06v-.241l.724-.06a12.693 12.693 0 0 1-.06-2.593h-2.107a5.6 5.6 0 0 1 .3.6 6.265 6.265 0 0 1 .181 3.438h-.241a8.977 8.977 0 0 0-.543-2.352c-.6-1.387-1.87-2.593-4.041-3.981v1.689h-.241c-.724-2.292-2.533-3.558-5.247-4.946-2.232-1.146-2.9-2.533-2.774-4.644l.724.422a3.3 3.3 0 0 0 3.317 3.136 12.321 12.321 0 0 0 2.654-.3 6.274 6.274 0 0 1 3.317-.121v-1.145h-.724a2.35 2.35 0 0 1-1.628.483 2.354 2.354 0 0 1-2.533-2.352c0-1.628 1.387-1.87 2.473-1.87.645.014 1.29-.006 1.933-.061a.737.737 0 0 0 .543-.181.548.548 0 0 0 .181-.422c.055-.237.076-.481.06-.724v-1.142h-5.129v2.047l-1.93-.724v-.482h.9v-.784h-3.433v-1.689h-1.207a1.37 1.37 0 0 0-1.385 1.267c-.06.844.3 1.508 1.146 1.508h.121v.965h-.183a2.5 2.5 0 0 1-2.594-2.594 2.823 2.823 0 0 1 2.895-2.714h2.473v1.689h9.71v2.473c.012.443-.009.887-.06 1.327a1.43 1.43 0 0 1-.6 1.086c-.435.26-.945.366-1.448.3-.241 0-.9 0-1.749-.06-1.086-.06-1.448.362-1.448.784v.241a2.3 2.3 0 0 1 2.111-.422c1.448.483 1.87.483 2.654-.121l.06.181c-.12.178-.262.34-.422.483h.724v3.86l2.232-1.327h6.152s2.593 1.387 3.076 1.568a1 1 0 0 1 .6.784c.063.312-.003.636-.181.9-.121.121-.784 1.327-1.206 1.93a6.773 6.773 0 0 1 1.749 4.524 6.686 6.686 0 0 1-2.533 5.247 3.488 3.488 0 0 1 1.809 1.327l-.543 2.111.001.005zM60.104 20.771a1.845 1.845 0 0 0-1.87.422c.282.129.59.19.9.181.372-.105.707-.313.965-.6l.005-.003zm-.543 5.488l2.473-1.451a4.626 4.626 0 0 0-1.628-.422c-.996.088-1.983.249-2.955.483.3.241 1.387.965 2.111 1.387l-.001.003zm10.977.181l.362-.483-.543-.724.06-.181 1.508.784-.3.965c.267.118.512.281.724.483l.965-1.568-2.474-1.266h-5.489l-4.463 2.714a13.777 13.777 0 0 1 2.171 1.809 6.607 6.607 0 0 1 5.368-2.835 6.39 6.39 0 0 1 2.111.3v.002zm-.483 6.212c-.01-.75-.091-1.497-.241-2.232l-2.9-.121c-.181.9-.3 1.749-.422 2.533l3.558-.181.005.001zm.965-2.171c.11.698.13 1.408.06 2.111l2.9-.181a4.525 4.525 0 0 0-.543-1.809l-2.413-.121h-.004zm-1.448-.9a12.239 12.239 0 0 0-.844-2.111h-.358c-.202-.01-.404.01-.6.06-.295.705-.537 1.43-.724 2.171l2.533-.121-.007.001zm.784-1.749c.209.548.37 1.113.483 1.689l1.749-.121a4.583 4.583 0 0 0-2.232-1.568zm3.257 7.358a4.277 4.277 0 0 0 .362-1.568l-2.955-.181a9.355 9.355 0 0 1-.6 2.171l3.2-.422h-.007zm-7.357-7.242a5.141 5.141 0 0 0-2.292 1.93l2.051-.121a13.11 13.11 0 0 1 .241-1.809z"/>
        <path fill="#FFF" d="M62.456 45.801a1.819 1.819 0 0 0 1.628-1.749c0-.9-.362-1.87-2.955-1.87h-4.403v.06c.185.054.352.158.483.3.316.367.467.848.417 1.329v6.574h3.619c1.99 0 3.438-.784 3.438-2.533 0-1.387-1.086-1.99-2.232-2.111h.005zm-1.87-2.835c.9 0 1.568.181 1.568 1.206 0 1.086-.844 1.327-1.809 1.327h-.844v-2.533h1.085zm.121 6.695h-1.146v-3.379h1.146c1.508 0 2.111.483 2.111 1.628-.06 1.206-.844 1.749-2.111 1.749v.002zM53.529 50.442h2.352l-3.016-3.86c1.206-.3 2.111-.965 2.111-2.171 0-1.387-.844-2.171-3.076-2.171h-4.583v.06c.181.064.346.166.483.3.342.377.495.888.417 1.391v6.393h1.87v-3.619h.663l2.779 3.677zm-3.377-7.476h1.265c1.086 0 1.628.3 1.628 1.448 0 1.025-.724 1.628-1.87 1.628h-1.023v-3.076zM72.347 43.328c.273.161.502.39.663.663h.06l.422-1.387a4.473 4.473 0 0 0-2.533-.543c-2.653 0-4.643 1.327-4.643 4.282 0 3.317 2.352 4.162 4.463 4.162a4.7 4.7 0 0 0 2.714-.6v-.965c-.616.484-1.39.72-2.171.663-1.206 0-3.016-.543-3.076-3.257-.06-2.533 1.086-3.317 2.533-3.317a2.637 2.637 0 0 1 1.568.3v-.001z"/>
    </g>
</svg>
