<svg xmlns="http://www.w3.org/2000/svg" width="120" height="65" viewBox="0 0 120 65">
    <g fill="none" fill-rule="evenodd">
        <path fill="#FFF" d="M0 0h120v65H0z"/>
        <g fill="#ED1C24">
            <path d="M10.831 32.487A6.328 6.328 0 0 1 10.1 29.2a6.383 6.383 0 0 1 6.144-6.2H26.1l-3.836 3.831h-6.081a5.761 5.761 0 0 0-5.352 5.656zm3.77-2.8a5.534 5.534 0 0 1 1.764-2.369 5.27 5.27 0 0 0-4.257 2.371l2.493-.002zm1.947-1.887a5.854 5.854 0 0 0-1.46 1.95h2.98a6.976 6.976 0 0 0-1.52-1.95zm-4.683 2.437a5.342 5.342 0 0 0-.608 2.128h2.736a6.016 6.016 0 0 1 .365-2.128h-2.493zm3.041 0a8.265 8.265 0 0 0-.426 2.128h4.2a7.778 7.778 0 0 0-.426-2.128h-3.348zm6.02-.547a5.094 5.094 0 0 0-4.2-2.372 6.072 6.072 0 0 1 1.764 2.372h2.436zm-2.25.547c.244.683.367 1.403.365 2.128h2.737a5.074 5.074 0 0 0-.608-2.128h-2.494zm-6.568 5.169a5.193 5.193 0 0 0 4.257 2.433 5.364 5.364 0 0 1-1.765-2.433h-2.492zm4.439 1.946a6.544 6.544 0 0 0 1.46-1.946h-2.98c.403.724.915 1.38 1.52 1.946zm-2.128-2.372a6.809 6.809 0 0 1-.365-2.128h-2.8c.052.744.259 1.469.608 2.128h2.557zm3.77 0a8.265 8.265 0 0 0 .426-2.128h-4.2c.048.725.191 1.44.426 2.128h3.348zm.3.426a6.742 6.742 0 0 1-1.759 2.432 4.953 4.953 0 0 0 4.2-2.433l-2.441.001zm2.737-.426c.349-.66.556-1.384.608-2.128H19.1a6.809 6.809 0 0 1-.365 2.128h2.491zm1.034-2.433a5.731 5.731 0 0 1-5.352 5.716h-6.077L7 42.1h9.852a6.383 6.383 0 0 0 6.142-6.2 6.46 6.46 0 0 0-.73-3.284v-.068l-.004-.001zM51.029 37.777c-2.554 0-4.379-1.52-4.379-3.953 0-2.372 1.885-3.953 4.379-3.953 2.494 0 4.379 1.581 4.379 3.953 0 2.433-1.824 3.953-4.379 3.953zm43.785-7.723v7.541H92.26l-.061-.791h-.061a3.2 3.2 0 0 1-2.493.912c-1.824 0-3.406-1.581-3.406-3.953a3.651 3.651 0 0 1 3.588-3.953 3.185 3.185 0 0 1 2.311.851h.061v-.668h2.615v.061zm-19.7 0v7.541h-2.558l-.061-.791h-.061a3.2 3.2 0 0 1-2.493.912c-1.824 0-3.406-1.581-3.406-3.953a3.651 3.651 0 0 1 3.588-3.953 3.185 3.185 0 0 1 2.311.851h.061v-.668h2.615l.004.061zm-12.406 0h2.615v7.541h-2.618v-7.541h.003zm14.109 7.541V26.953h2.615v3.649a4.067 4.067 0 0 1 2.311-.73 3.571 3.571 0 0 1 3.523 3.831c0 2.737-1.642 4.074-3.588 4.074a2.923 2.923 0 0 1-2.311-.854h-.061l-.061.669-2.428.003zm-25.785-1.7c1.095 0 1.7-.912 1.7-2.068 0-1.156-.608-2.068-1.7-2.068-1.155 0-1.7.912-1.7 2.068a1.878 1.878 0 0 0 1.7 2.068zm10.4-.365c-.235.08-.482.122-.73.122a1.007 1.007 0 0 1-1.095-1.155v-2.558h1.642v-1.885h-1.646v-2.431h-2.617v2.431h-1.153v1.885h1.153v2.984a2.485 2.485 0 0 0 2.737 2.8c.49-.003.977-.043 1.46-.122l.243-2.068.006-.003zm-29.92 1.824c.986.296 2.012.44 3.041.426 2.25 0 4.5-.791 4.5-3.284 0-3.406-4.683-2.919-4.683-4.257 0-.669.73-.851 1.4-.851.86.062 1.702.268 2.493.608l.182-2.311a8.623 8.623 0 0 0-2.676-.365c-2.189 0-4.379.851-4.379 3.041 0 3.345 4.622 2.615 4.622 4.379 0 .669-.669.912-1.52.912a7.382 7.382 0 0 1-2.737-.791l-.243 2.493zm57.464-3.59c0 1.277.669 2.007 1.581 2.007a1.84 1.84 0 0 0 1.642-1.946 1.761 1.761 0 0 0-1.642-1.946 1.732 1.732 0 0 0-1.581 1.885zm-19.7 0c0 1.277.669 2.007 1.581 2.007a1.84 1.84 0 0 0 1.638-1.948 1.761 1.761 0 0 0-1.642-1.946 1.732 1.732 0 0 0-1.581 1.885l.004.002zm-23.29-3.588a5.98 5.98 0 0 0-1.885-.3 3.815 3.815 0 0 0-4.14 3.947 3.816 3.816 0 0 0 4.014 3.953c.678-.03 1.35-.13 2.007-.3l-.122-2.189c-.407.235-.868.36-1.338.365a1.756 1.756 0 0 1-1.825-1.829A1.806 1.806 0 0 1 44.586 32c.451.002.893.128 1.277.365l.123-2.189zm60.022 7.419h2.615v-3.466l2.372 3.466h2.919l-2.8-4.014 2.737-3.527h-2.919l-2.25 3.1v-6.201h-2.615v10.642h-.059zm-9.487 0h2.554v-3.892a1.409 1.409 0 0 1 1.4-1.52c.912 0 1.4.547 1.4 1.52v3.892h2.554v-4.561a2.982 2.982 0 0 0-3.1-3.162 3.185 3.185 0 0 0-2.372 1.034h-.122v-.852h-2.319v7.541h.005zM63.986 26.223a1.46 1.46 0 1 0 1.46 1.46 1.4 1.4 0 0 0-1.46-1.46zm18.548 7.6c0-1.034-.547-1.885-1.581-1.885-.912 0-1.581.73-1.581 1.885 0 1.095.608 1.885 1.581 1.885.912.061 1.581-.73 1.581-1.885z"/>
        </g>
    </g>
</svg>
