<svg xmlns="http://www.w3.org/2000/svg" width="120" height="65" viewBox="0 0 120 65">
    <g fill="none" fill-rule="evenodd">
        <path fill="#FFF" d="M0 0h120v65H0z"/>
        <g fill-rule="nonzero">
            <g fill="#F58426">
                <path d="M15 22.278v2.61h4.464v11.526h2.77V24.888h4.463v-2.61z"/>
                <path d="M28.142 34.323c1.329 0 2.366-1.018 2.366-2.755a2.384 2.384 0 0 0-4.163-1.863 2.414 2.414 0 0 0-.588 1.884 2.429 2.429 0 0 0 2.385 2.737v-.003zm4.887 2.094h-2.5v-1.116a3.015 3.015 0 0 1-2.7 1.349 4.729 4.729 0 0 1-4.692-5.063c0-2.815 1.9-5.023 4.614-5.023a2.88 2.88 0 0 1 2.718 1.19v-.957h2.56v9.62zm3.724 0H34.15v-9.62h2.522v1.193a3.2 3.2 0 0 1 2.778-1.447c2.386 0 3.479 1.7 3.479 3.812v6.06h-2.6v-5.61a1.69 1.69 0 0 0-1.779-1.916 1.811 1.811 0 0 0-1.8 1.995v5.531l.003.002zm14.269-5.1a2.293 2.293 0 1 0-2.269 2.444 2.237 2.237 0 0 0 2.269-2.444zm-4.848 5a2.152 2.152 0 0 0 2.248 1.817c1.643 0 2.562-.82 2.562-2.677v-.706a3.057 3.057 0 0 1-2.679 1.232 4.45 4.45 0 0 1-4.476-4.672 4.512 4.512 0 0 1 4.476-4.691 2.913 2.913 0 0 1 2.737 1.308v-1.131h2.5v8.579c0 2.638-1.428 5.043-5.043 5.043-2.639 0-4.4-1.642-4.673-3.48l2.348-.622zm15.19-5.807a1.935 1.935 0 0 0-2.151-1.9 2.082 2.082 0 0 0-2.15 1.9h4.301zm2.422 3.147a4.332 4.332 0 0 1-4.378 3.051 4.873 4.873 0 0 1-4.965-5.142 4.828 4.828 0 0 1 4.73-5.063c2.972 0 4.751 1.9 4.751 4.984 0 .371-.038.761-.038.8h-6.882a2.342 2.342 0 0 0 2.425 2.188 2.122 2.122 0 0 0 2.189-1.466l2.168.648zm7.8-6.862h2.6v9.618h-2.6v-9.618zM77.909 36.414h-2.6v-9.617h2.523v1.192a3.2 3.2 0 0 1 2.772-1.447c2.385 0 3.48 1.7 3.48 3.812v6.06h-2.6v-5.61a1.691 1.691 0 0 0-1.78-1.915 1.812 1.812 0 0 0-1.8 1.995l.005 5.53zm14-5.9a1.935 1.935 0 0 0-2.151-1.9 2.083 2.083 0 0 0-2.15 1.9h4.301zm2.423 3.147a4.332 4.332 0 0 1-4.379 3.051 4.872 4.872 0 0 1-4.965-5.142 4.828 4.828 0 0 1 4.731-5.063c2.971 0 4.749 1.9 4.749 4.984 0 .371-.039.761-.039.8h-6.882a2.342 2.342 0 0 0 2.424 2.188 2.121 2.121 0 0 0 2.189-1.466l2.171.646.001.002zM74.468 23.584a1.582 1.582 0 1 1-3.164-.004 1.582 1.582 0 0 1 3.164.004zm-3.782 5.726a3.938 3.938 0 0 0-.782-.078c-1.329 0-2.482.645-2.482 2.717v4.465h-2.6v-9.617h2.521v1.495a3 3 0 0 1 2.737-1.64c.202.003.404.016.605.039v2.619h.001zm33.558-6.663a.729.729 0 0 1-.033.734l-4.893 7.624a.484.484 0 0 1-.88-.357 6.6 6.6 0 0 0-.291-4.67 6.6 6.6 0 0 0-3.772-2.768.474.474 0 0 1-.3-.539.483.483 0 0 1 .475-.394h9.059c.263 0 .505.14.635.369v.001z"/>
            </g>
            <g fill="#777">
                <path d="M56.17 42.866v-3.59h2.181v.461h-1.685v1.154h1.529v.466h-1.529v1.509h-.496zm4.383-1.22a.766.766 0 1 0-.759.871.776.776 0 0 0 .759-.871zm.486 0a1.246 1.246 0 1 1-1.245-1.29 1.229 1.229 0 0 1 1.245 1.29zm1.859-.734a1.462 1.462 0 0 0-.208-.015c-.4 0-.668.212-.668.749v1.22h-.475v-2.435h.466v.425a.763.763 0 0 1 .729-.465c.053 0 .105.006.157.015l-.001.506zm2.5-.481l.633 1.833.536-1.833h.5l-.79 2.435h-.491l-.648-1.853-.632 1.853h-.5l-.8-2.435h.521l.547 1.833.633-1.833h.491zm3.1 2.081c.435 0 .7-.38.7-.881s-.264-.845-.7-.845a.747.747 0 0 0-.719.845c0 .5.258.881.713.881h.006zm.703-.015a.815.815 0 0 1-.754.435 1.29 1.29 0 0 1 0-2.566.748.748 0 0 1 .744.41v-.345h.471v1.984c0 .15.009.3.025.45h-.461a2.121 2.121 0 0 1-.025-.329v-.039zm2.6-1.584a1.46 1.46 0 0 0-.208-.015c-.4 0-.668.212-.668.749v1.22h-.484v-2.435h.465v.425a.764.764 0 0 1 .729-.465c.053 0 .105.005.157.015l.009.506zm1.477 1.6c.435 0 .7-.38.7-.881s-.264-.845-.7-.845c-.436 0-.719.354-.719.856s.258.87.714.87h.005zm.704-.015a.816.816 0 0 1-.754.435 1.174 1.174 0 0 1-1.154-1.29 1.2 1.2 0 0 1 1.155-1.277.747.747 0 0 1 .744.41v-1.575h.471v3.214c0 .15.008.3.025.45h-.461a2.121 2.121 0 0 1-.025-.329l-.001-.038zm3.77-.066c.4 0 .673-.223.673-.572a.571.571 0 0 0-.653-.587h-.709v1.159h.689zm-.07-1.584a.569.569 0 0 0 .637-.572c0-.339-.248-.562-.658-.562h-.6v1.134h.621zm.055-1.569a.966.966 0 0 1 1.083.972.8.8 0 0 1-.536.775c.392.1.662.46.648.865a1 1 0 0 1-1.108.977h-1.256v-3.592l1.169.003zm2.849 3.235c.435 0 .7-.38.7-.881s-.264-.845-.7-.845a.746.746 0 0 0-.719.845c0 .5.258.881.713.881h.006zm.703-.015a.816.816 0 0 1-.754.435 1.29 1.29 0 0 1 0-2.566.748.748 0 0 1 .744.41v-.345h.471v1.984c0 .15.009.3.025.45h-.461a2.038 2.038 0 0 1-.025-.329v-.039zm1.72.37h-.468v-2.435h.466v.35a.835.835 0 0 1 .75-.421.855.855 0 0 1 .87.962v1.541h-.476v-1.463c0-.339-.141-.612-.567-.612-.374 0-.566.3-.566.668l-.009 1.41zm3.512-1.407l1.058 1.407h-.6l-.794-1.074-.34.339v.734h-.47v-3.665h.47v2.308l1.053-1.078h.658l-1.035 1.029zM88.04 40.43h.471v2.435h-.471V40.43zm.232-1.266a.342.342 0 1 1 .006.684.342.342 0 0 1-.006-.684zm1.523 3.7h-.476v-2.435h.466v.35a.834.834 0 0 1 .749-.421.855.855 0 0 1 .871.962v1.544h-.476v-1.463c0-.339-.141-.612-.566-.612-.375 0-.568.3-.568.668v1.407zm4.079-1.3a.7.7 0 1 0-1.39.16.7.7 0 0 0 1.39-.16zm-1.427 1.321c.025.345.317.61.663.6.511 0 .744-.263.744-.789v-.344a.81.81 0 0 1-.744.4 1.184 1.184 0 0 1 0-2.364.77.77 0 0 1 .749.385v-.339h.471v2.252a1.114 1.114 0 0 1-1.22 1.22A1.066 1.066 0 0 1 91.987 43l.461-.106-.001-.009z"/>
            </g>
        </g>
    </g>
</svg>
