<svg xmlns="http://www.w3.org/2000/svg" width="120" height="65" viewBox="0 0 120 65">
    <g fill="none" fill-rule="evenodd">
        <path fill="#FFF" d="M0 0h120v65H0z"/>
        <g fill-rule="nonzero">
            <path fill="#30B457" d="M21 44.8h26.6V21H21v23.8zm17.5-5.1h-6.2V28.5h3.1v9.2h3c2.1 0 2.9-1.4 2.9-5.1 0-3.7-1-4.8-3.1-4.8h-6.8v11.9h-3.1V27.8h-4.5v-2h15.4c3.7 0 5.5 1.9 5.5 6.7 0 6.4-2.7 7.2-6.2 7.2z"/>
            <path fill="#024128" d="M61.2 30.9h1.1c.7 0 1.5.2 1.5 1.1 0 .8-.8 1.1-1.5 1.1h-1v-2.2h-.1zm-3.8 4.2h6c2.2 0 4.3-.3 4.3-2.9a2.634 2.634 0 0 0-2.3-2.4c1.4-.4 2.1-1.1 2.1-2.5 0-2-1.8-2.6-3.6-2.6h-6.5v10.4zm3.8-8.4h1.1c.7 0 1.4.2 1.4 1s-.8 1-1.5 1h-1v-2zM73.8 32a1.265 1.265 0 0 1-1.2 1.4c-.6 0-.9-.2-.9-.7 0-.8.9-.9 1.7-.9h.4v.2zm-4.6-2.2a5.593 5.593 0 0 1 2.6-.7c.9 0 2 .1 2 1.1-.3 0-.9-.1-1.5-.1-1.9 0-4 .5-4 2.9 0 1.6 1.4 2.3 2.8 2.3a2.661 2.661 0 0 0 2.5-1.3v1.1h3.5v-4.7c0-2.8-2.6-3.2-4.7-3.2a9.978 9.978 0 0 0-3.2.4v2.2zM78.2 27.4h3.5v1.3a2.5 2.5 0 0 1 2.5-1.5c2 0 2.7 1 2.7 2.5v5.4h-3.7v-4.4c0-.4 0-1.1-.7-1.1-.5 0-.5.6-.5 1.1v4.5h-3.7v-7.8h-.1zM92 30.5h.1l2.1-3.1h4.2l-2.6 3.4 2.7 4.3h-4.3l-2.1-3.7H92v3.7h-3.7V24H92z"/>
        </g>
    </g>
</svg>
