<svg xmlns="http://www.w3.org/2000/svg" width="120" height="65" viewBox="0 0 120 65">
    <g fill="none" fill-rule="evenodd">
        <path fill="#FFF" d="M0 0h120v65H0z"/>
        <path fill="#EF4237" fill-rule="nonzero" d="M54.606 26.633a13.051 13.051 0 0 0-4.584.732c-.244.1-.39.2-.39.488v10.241h3.414v-9.12c0-.049 0-.1.146-.146a5.369 5.369 0 0 1 1.317-.2c1.414 0 1.756.78 1.756 1.609v7.8h3.414v-7.454a5.538 5.538 0 0 0-.146-1.512c-.439-1.463-1.853-2.438-4.926-2.438h-.001zm12.925 9.315c-1.658 0-2.877-1.268-2.877-3.463 0-2.195 1.17-3.609 2.731-3.609.436-.014.869.07 1.268.244l.732-2.048a5.13 5.13 0 0 0-2.536-.536c-3.365 0-5.657 2.292-5.657 6s2.438 5.657 5.706 5.657a5.282 5.282 0 0 0 2.634-.536l-.732-2.048a2.17 2.17 0 0 1-1.268.341l-.001-.002zm-24.532-9.364a12.694 12.694 0 0 0-4.487.829l.683 1.853a7.5 7.5 0 0 1 3.072-.683c1.268 0 2.1.341 2.1 1.561v.488c-4 .244-6.633 1.219-6.633 4.048 0 2.39 1.8 3.56 5.365 3.56 1.5.041 2.994-.224 4.389-.78a.514.514 0 0 0 .293-.488v-6.486c0-2.243-1.268-3.9-4.779-3.9l-.003-.002zm1.414 9.216a.411.411 0 0 1-.2.341c-.328.12-.676.169-1.024.146-1.317 0-1.951-.634-1.951-1.609 0-1.268.975-2.048 3.219-2.1V35.8h-.044zm26.433 2.245h3.414V26.828h-3.414v11.217zm0 0h3.414V26.828h-3.414v11.217zM72.553 22a1.82 1.82 0 0 0-1.947 1.707 1.792 1.792 0 0 0 1.951 1.707 1.82 1.82 0 0 0 1.949-1.707A1.82 1.82 0 0 0 72.553 22zm14.29 4.828h-6.194v-3.219l-3.414.975v2.244h-1.463v2.1h1.463v6c0 1.9 1.073 3.316 3.56 3.316a5.061 5.061 0 0 0 2.682-.634l-.683-1.951c-.31.186-.663.287-1.024.293-.585 0-1.073-.2-1.073-1.219v-5.8h3.024c.536 3.755 2.243 6.779 4.536 8.388a7.057 7.057 0 0 1-3.707 3.316l.975 2.438c5.609-2.341 8.486-9.9 8.974-16.24h-3.364c.007 2.8-.557 5.57-1.658 8.145-1.561-1.561-2.487-4.633-2.634-8.145v-.007zm-52.72-3.17c.049 1.414-.293 8.193-2.926 11.51-2.634-3.317-2.975-10.096-2.927-11.51h-3.264C24.954 25.9 25.442 34 30.124 37.85a.589.589 0 0 0 .39.146h1.365a.589.589 0 0 0 .39-.146c4.682-3.9 5.17-11.949 5.121-14.192h-3.267z"/>
    </g>
</svg>
