<svg xmlns="http://www.w3.org/2000/svg" width="40" height="40" viewBox="0 0 40 40">
    <g fill="none" fill-rule="evenodd">
        <path d="M0 0h40v40H0z"/>
        <path fill="#595959" d="M10 11h5a1 1 0 1 0 0-2h-5a1 1 0 1 0 0 2zm0 4h5a1 1 0 1 0 0-2h-5a1 1 0 1 0 0 2zm13 3a1 1 0 0 0-1-1H10a1 1 0 1 0 0 2h12a1 1 0 0 0 1-1zm5 1.059V12a.996.996 0 0 0-.293-.707l-8-8A.997.997 0 0 0 19 3H9C6.243 3 4 5.242 4 8v16c0 2.758 2.243 5 5 5h9.059c.5 4.492 4.316 8 8.941 8 4.963 0 9-4.037 9-9 0-4.625-3.507-8.441-8-8.941zM20 6.414L24.586 11H23c-1.654 0-3-1.346-3-3V6.414zM9 27c-1.654 0-3-1.346-3-3V8c0-1.654 1.346-3 3-3h9v3c0 2.758 2.243 5 5 5h3v6.059A9.011 9.011 0 0 0 18.059 27H9zm18 8c-3.859 0-7-3.141-7-7s3.141-7 7-7 7 3.141 7 7-3.141 7-7 7zM17 21h-7a1 1 0 1 0 0 2h7a1 1 0 1 0 0-2zm11 6h-2a1 1 0 0 1 0-2h2c.354 0 .675.188.858.503a1 1 0 1 0 1.728-1.006A2.968 2.968 0 0 0 28 23a1 1 0 1 0-2 0c-1.654 0-3 1.346-3 3s1.346 3 3 3h2a1 1 0 0 1 0 2h-2a.988.988 0 0 1-.858-.503.999.999 0 1 0-1.728 1.006A2.968 2.968 0 0 0 26 33a1 1 0 1 0 2 0c1.654 0 3-1.346 3-3s-1.346-3-3-3z"/>
    </g>
</svg>
